M48
; DRILL file {KiCad 7.0.9} date 
; FORMAT={-:-/ absolute / metric / decimal}
; #@! TF.CreationDate,2023-12-15T21:18:17+02:00
; #@! TF.GenerationSoftware,Kicad,Pcbnew,7.0.9
; #@! TF.FileFunction,Plated,1,2,PTH
FMAT,2
METRIC
; #@! TA.AperFunction,Plated,PTH,ViaDrill
T1C0.400
; #@! TA.AperFunction,Plated,PTH,ComponentDrill
T2C0.750
; #@! TA.AperFunction,Plated,PTH,ComponentDrill
T3C0.762
; #@! TA.AperFunction,Plated,PTH,ComponentDrill
T4C0.800
; #@! TA.AperFunction,Plated,PTH,ComponentDrill
T5C0.900
; #@! TA.AperFunction,Plated,PTH,ComponentDrill
T6C1.000
; #@! TA.AperFunction,Plated,PTH,ComponentDrill
T7C1.100
; #@! TA.AperFunction,Plated,PTH,ComponentDrill
T8C1.200
%
G90
G05
T1
X99.022Y-176.492
X100.33Y-180.34
X102.324Y-180.819
X104.14Y-166.37
X106.68Y-198.12
X106.68Y-200.66
X106.68Y-203.2
X107.95Y-173.99
X109.22Y-161.29
X111.76Y-175.534
X114.3Y-198.12
X115.57Y-200.66
X124.46Y-193.04
X135.89Y-176.53
X137.16Y-161.29
X138.495Y-162.56
X142.24Y-195.58
X143.51Y-185.42
X144.78Y-196.85
X144.78Y-198.12
X151.13Y-182.88
X152.4Y-186.69
X177.8Y-137.16
X190.5Y-129.54
X190.5Y-156.21
X193.04Y-158.75
X195.58Y-161.29
X198.12Y-152.4
X198.12Y-154.94
X198.12Y-157.48
X199.39Y-167.64
X200.66Y-166.37
T2
X204.47Y-142.24
X204.47Y-149.86
X205.74Y-142.24
X205.74Y-149.86
X207.01Y-142.24
X207.01Y-149.86
X212.09Y-149.86
X213.36Y-149.86
X214.63Y-149.86
X219.71Y-149.86
X220.98Y-149.86
X222.25Y-149.86
X227.33Y-149.86
X228.6Y-149.86
X229.87Y-149.86
X234.95Y-142.24
X234.95Y-149.86
X236.22Y-142.24
X236.22Y-149.86
X237.49Y-142.24
X237.49Y-149.86
T3
X140.97Y-205.74
X140.97Y-213.36
X143.51Y-205.74
X143.51Y-213.36
X146.05Y-205.74
X146.05Y-213.36
X148.59Y-205.74
X148.59Y-213.36
X151.13Y-205.74
X151.13Y-213.36
X153.67Y-205.74
X153.67Y-213.36
X156.21Y-205.74
X156.21Y-213.36
X158.75Y-205.74
X158.75Y-213.36
X161.29Y-205.74
X161.29Y-213.36
X163.83Y-205.74
X163.83Y-213.36
X166.37Y-205.74
X166.37Y-213.36
X168.91Y-205.74
X168.91Y-213.36
X171.45Y-205.74
X171.45Y-213.36
X173.99Y-205.74
X173.99Y-213.36
X176.53Y-205.74
X176.53Y-213.36
X179.07Y-205.74
X179.07Y-213.36
X181.61Y-205.74
X181.61Y-213.36
X184.15Y-205.74
X184.15Y-213.36
X186.69Y-205.74
X186.69Y-213.36
X189.23Y-205.74
X189.23Y-213.36
X191.77Y-205.74
X191.77Y-213.36
X194.31Y-205.74
X194.31Y-213.36
X196.85Y-205.74
X196.85Y-213.36
X199.39Y-205.74
X199.39Y-213.36
X201.93Y-205.74
X201.93Y-213.36
X204.47Y-205.74
X204.47Y-213.36
X207.01Y-205.74
X207.01Y-213.36
X209.55Y-205.74
X209.55Y-213.36
X212.09Y-205.74
X212.09Y-213.36
X214.63Y-205.74
X214.63Y-213.36
X217.17Y-205.74
X217.17Y-213.36
X219.71Y-205.74
X219.71Y-213.36
X222.25Y-205.74
X222.25Y-213.36
X224.79Y-205.74
X224.79Y-213.36
X226.942Y-129.596
X227.33Y-205.74
X227.33Y-213.36
X229.482Y-129.596
X229.87Y-205.74
X229.87Y-213.36
X232.022Y-129.596
X232.41Y-205.74
X232.41Y-213.36
X234.562Y-129.596
X234.95Y-205.74
X234.95Y-213.36
X237.49Y-205.74
X237.49Y-213.36
X240.03Y-205.74
X240.03Y-213.36
X242.57Y-205.74
X242.57Y-213.36
X245.11Y-205.74
X245.11Y-213.36
X247.65Y-205.74
X247.65Y-213.36
X250.19Y-205.74
X250.19Y-213.36
X252.73Y-205.74
X252.73Y-213.36
X255.27Y-205.74
X255.27Y-213.36
X257.81Y-205.74
X257.81Y-213.36
X260.35Y-205.74
X260.35Y-213.36
T4
X97.79Y-177.8
X97.79Y-185.42
X98.655Y-111.637
X98.655Y-126.877
X100.33Y-177.8
X100.33Y-185.42
X101.195Y-111.637
X101.195Y-126.877
X102.87Y-177.8
X102.87Y-185.42
X103.735Y-111.637
X103.735Y-126.877
X105.41Y-177.8
X105.41Y-185.42
X106.275Y-111.637
X106.275Y-126.877
X107.95Y-177.8
X107.95Y-185.42
X108.815Y-111.637
X108.815Y-126.877
X110.49Y-177.8
X110.49Y-185.42
X113.03Y-177.8
X113.03Y-185.42
X115.57Y-177.8
X115.57Y-185.42
X118.11Y-177.8
X118.11Y-185.42
X120.65Y-177.8
X120.65Y-185.42
X123.19Y-177.8
X123.19Y-185.42
X125.73Y-177.8
X125.73Y-185.42
X127.0Y-142.24
X137.16Y-142.24
X157.48Y-152.4
X157.48Y-170.18
X157.48Y-175.26
X157.48Y-180.34
X167.64Y-152.4
X167.64Y-170.18
X167.64Y-175.26
X167.64Y-180.34
X205.74Y-158.03
X205.74Y-162.08
X205.74Y-166.13
X205.74Y-170.18
X205.74Y-174.23
X205.74Y-178.28
X205.74Y-182.33
X215.9Y-158.03
X215.9Y-162.08
X215.9Y-166.13
X215.9Y-170.18
X215.9Y-174.23
X215.9Y-178.28
X215.9Y-182.33
X220.98Y-114.3
X220.98Y-124.46
X224.79Y-114.3
X224.79Y-124.46
X226.06Y-158.03
X226.06Y-162.08
X226.06Y-166.13
X226.06Y-170.18
X226.06Y-174.23
X226.06Y-178.28
X226.06Y-182.33
X228.6Y-114.3
X228.6Y-124.46
X232.41Y-114.3
X232.41Y-124.46
X236.22Y-114.3
X236.22Y-124.46
X236.22Y-158.03
X236.22Y-162.08
X236.22Y-166.13
X236.22Y-170.18
X236.22Y-174.23
X236.22Y-178.28
X236.22Y-182.33
X240.03Y-114.3
X240.03Y-124.46
X245.1Y-177.8
X245.1Y-185.42
X247.64Y-177.8
X247.64Y-185.42
X248.92Y-146.05
X248.92Y-149.86
X248.92Y-153.67
X248.92Y-157.48
X248.92Y-161.29
X248.92Y-165.1
X248.92Y-168.91
X248.92Y-172.72
X250.18Y-177.8
X250.18Y-185.42
X252.72Y-177.8
X252.72Y-185.42
X255.26Y-177.8
X255.26Y-185.42
X257.8Y-177.8
X257.8Y-185.42
X259.08Y-146.05
X259.08Y-149.86
X259.08Y-153.67
X259.08Y-157.48
X259.08Y-161.29
X259.08Y-165.1
X259.08Y-168.91
X259.08Y-172.72
X260.34Y-177.8
X260.34Y-185.42
X262.88Y-177.8
X262.88Y-185.42
X262.89Y-162.56
X262.89Y-172.72
X265.42Y-177.8
X265.42Y-185.42
X267.96Y-177.8
X267.96Y-185.42
X267.97Y-148.59
X267.97Y-152.4
X267.97Y-156.21
X267.97Y-160.02
X267.97Y-163.83
X267.97Y-167.64
X270.5Y-177.8
X270.5Y-185.42
X273.04Y-177.8
X273.04Y-185.42
X275.58Y-177.8
X275.58Y-185.42
X278.12Y-177.8
X278.12Y-185.42
X278.13Y-148.59
X278.13Y-152.4
X278.13Y-156.21
X278.13Y-160.02
X278.13Y-163.83
X278.13Y-167.64
T5
X97.79Y-93.98
X100.33Y-93.98
X110.49Y-93.98
X113.03Y-93.98
X123.19Y-93.98
X125.73Y-93.98
X148.59Y-93.98
X151.13Y-93.98
X156.21Y-93.98
X158.75Y-93.98
X176.53Y-93.98
X179.07Y-93.98
X184.15Y-93.98
X186.69Y-93.98
X204.47Y-93.98
X207.01Y-93.98
X212.09Y-93.98
X214.63Y-93.98
X232.41Y-93.98
X234.95Y-93.98
X240.03Y-93.98
X242.57Y-93.98
X262.89Y-93.98
X265.43Y-93.98
X270.51Y-93.98
X273.05Y-93.98
X293.37Y-93.98
X295.91Y-93.98
X300.99Y-93.98
X302.26Y-107.95
X302.26Y-119.38
X303.53Y-93.98
X304.419Y-107.95
X304.419Y-119.38
X306.578Y-107.95
X306.578Y-119.38
X308.737Y-107.95
X308.737Y-119.38
T6
X106.68Y-142.24
X106.68Y-190.5
X109.22Y-142.24
X109.22Y-190.5
X111.76Y-142.24
X111.76Y-190.5
X114.3Y-142.24
X114.3Y-190.5
X116.84Y-142.24
X116.84Y-190.5
X147.32Y-142.24
X147.32Y-190.5
X149.86Y-142.24
X149.86Y-190.5
X152.4Y-142.24
X152.4Y-190.5
X154.94Y-142.24
X154.94Y-190.5
X157.48Y-142.24
X157.48Y-190.5
X215.9Y-142.24
X215.9Y-190.5
X218.44Y-142.24
X218.44Y-190.5
X220.98Y-142.24
X220.98Y-190.5
X223.52Y-142.24
X223.52Y-190.5
X226.06Y-142.24
X226.06Y-190.5
X256.54Y-142.24
X256.54Y-190.5
X259.08Y-142.24
X259.08Y-190.5
X261.62Y-142.24
X261.62Y-190.5
X264.16Y-142.24
X264.16Y-190.5
X266.7Y-142.24
X266.7Y-190.5
T7
X301.55Y-128.56
X301.55Y-133.06
X308.05Y-128.56
X308.05Y-133.06
T8
X100.7Y-148.77
X103.24Y-148.77
X105.78Y-148.77
X108.32Y-148.77
X110.86Y-148.77
X110.86Y-171.27
X113.4Y-148.77
X113.4Y-171.27
X115.94Y-148.77
X115.94Y-171.27
X118.48Y-148.77
X118.48Y-171.27
X121.02Y-148.77
X121.02Y-171.27
X123.56Y-148.77
X123.56Y-171.27
X126.1Y-148.77
X126.1Y-171.27
X128.64Y-148.77
X128.64Y-171.27
X131.18Y-148.77
X131.18Y-171.27
X133.72Y-148.77
X133.72Y-171.27
X136.26Y-148.77
X136.26Y-171.27
X138.8Y-148.77
X138.8Y-171.27
X141.34Y-148.77
X141.34Y-171.27
X143.88Y-148.77
X143.88Y-171.27
T0
M30
