%TF.GenerationSoftware,KiCad,Pcbnew,7.0.9*%
%TF.CreationDate,2023-12-15T21:18:18+02:00*%
%TF.ProjectId,loadshedding,6c6f6164-7368-4656-9464-696e672e6b69,1*%
%TF.SameCoordinates,Original*%
%TF.FileFunction,Drillmap*%
%TF.FilePolarity,Positive*%
%FSLAX45Y45*%
G04 Gerber Fmt 4.5, Leading zero omitted, Abs format (unit mm)*
G04 Created by KiCad (PCBNEW 7.0.9) date 2023-12-15 21:18:18*
%MOMM*%
%LPD*%
G01*
G04 APERTURE LIST*
%ADD10C,0.200000*%
%ADD11C,0.100000*%
%ADD12C,0.110000*%
%ADD13C,0.120000*%
G04 APERTURE END LIST*
D10*
X8890000Y-8890000D02*
X31242000Y-8890000D01*
X31242000Y-21844000D01*
X8890000Y-21844000D01*
X8890000Y-8890000D01*
D11*
X9882221Y-17629221D02*
X9922221Y-17669221D01*
X9922221Y-17629221D02*
X9882221Y-17669221D01*
X10013000Y-18014000D02*
X10053000Y-18054000D01*
X10053000Y-18014000D02*
X10013000Y-18054000D01*
X10212403Y-18061863D02*
X10252403Y-18101863D01*
X10252403Y-18061863D02*
X10212403Y-18101863D01*
X10394000Y-16617000D02*
X10434000Y-16657000D01*
X10434000Y-16617000D02*
X10394000Y-16657000D01*
X10648000Y-19792000D02*
X10688000Y-19832000D01*
X10688000Y-19792000D02*
X10648000Y-19832000D01*
X10648000Y-20046000D02*
X10688000Y-20086000D01*
X10688000Y-20046000D02*
X10648000Y-20086000D01*
X10648000Y-20300000D02*
X10688000Y-20340000D01*
X10688000Y-20300000D02*
X10648000Y-20340000D01*
X10775000Y-17379000D02*
X10815000Y-17419000D01*
X10815000Y-17379000D02*
X10775000Y-17419000D01*
X10902000Y-16109000D02*
X10942000Y-16149000D01*
X10942000Y-16109000D02*
X10902000Y-16149000D01*
X11156000Y-17533450D02*
X11196000Y-17573450D01*
X11196000Y-17533450D02*
X11156000Y-17573450D01*
X11410000Y-19792000D02*
X11450000Y-19832000D01*
X11450000Y-19792000D02*
X11410000Y-19832000D01*
X11537000Y-20046000D02*
X11577000Y-20086000D01*
X11577000Y-20046000D02*
X11537000Y-20086000D01*
X12426000Y-19284000D02*
X12466000Y-19324000D01*
X12466000Y-19284000D02*
X12426000Y-19324000D01*
X13569000Y-17633000D02*
X13609000Y-17673000D01*
X13609000Y-17633000D02*
X13569000Y-17673000D01*
X13696000Y-16109000D02*
X13736000Y-16149000D01*
X13736000Y-16109000D02*
X13696000Y-16149000D01*
X13829550Y-16236000D02*
X13869550Y-16276000D01*
X13869550Y-16236000D02*
X13829550Y-16276000D01*
X14204000Y-19538000D02*
X14244000Y-19578000D01*
X14244000Y-19538000D02*
X14204000Y-19578000D01*
X14331000Y-18522000D02*
X14371000Y-18562000D01*
X14371000Y-18522000D02*
X14331000Y-18562000D01*
X14458000Y-19665000D02*
X14498000Y-19705000D01*
X14498000Y-19665000D02*
X14458000Y-19705000D01*
X14458000Y-19792000D02*
X14498000Y-19832000D01*
X14498000Y-19792000D02*
X14458000Y-19832000D01*
X15093000Y-18268000D02*
X15133000Y-18308000D01*
X15133000Y-18268000D02*
X15093000Y-18308000D01*
X15220000Y-18649000D02*
X15260000Y-18689000D01*
X15260000Y-18649000D02*
X15220000Y-18689000D01*
X17760000Y-13696000D02*
X17800000Y-13736000D01*
X17800000Y-13696000D02*
X17760000Y-13736000D01*
X19030000Y-12934000D02*
X19070000Y-12974000D01*
X19070000Y-12934000D02*
X19030000Y-12974000D01*
X19030000Y-15601000D02*
X19070000Y-15641000D01*
X19070000Y-15601000D02*
X19030000Y-15641000D01*
X19284000Y-15855000D02*
X19324000Y-15895000D01*
X19324000Y-15855000D02*
X19284000Y-15895000D01*
X19538000Y-16109000D02*
X19578000Y-16149000D01*
X19578000Y-16109000D02*
X19538000Y-16149000D01*
X19792000Y-15220000D02*
X19832000Y-15260000D01*
X19832000Y-15220000D02*
X19792000Y-15260000D01*
X19792000Y-15474000D02*
X19832000Y-15514000D01*
X19832000Y-15474000D02*
X19792000Y-15514000D01*
X19792000Y-15728000D02*
X19832000Y-15768000D01*
X19832000Y-15728000D02*
X19792000Y-15768000D01*
X19919000Y-16744000D02*
X19959000Y-16784000D01*
X19959000Y-16744000D02*
X19919000Y-16784000D01*
X20046000Y-16617000D02*
X20086000Y-16657000D01*
X20086000Y-16617000D02*
X20046000Y-16657000D01*
X20484500Y-14224000D02*
G75*
G03*
X20484500Y-14224000I-37500J0D01*
G01*
X20484500Y-14986000D02*
G75*
G03*
X20484500Y-14986000I-37500J0D01*
G01*
X20611500Y-14224000D02*
G75*
G03*
X20611500Y-14224000I-37500J0D01*
G01*
X20611500Y-14986000D02*
G75*
G03*
X20611500Y-14986000I-37500J0D01*
G01*
X20738500Y-14224000D02*
G75*
G03*
X20738500Y-14224000I-37500J0D01*
G01*
X20738500Y-14986000D02*
G75*
G03*
X20738500Y-14986000I-37500J0D01*
G01*
X21246500Y-14986000D02*
G75*
G03*
X21246500Y-14986000I-37500J0D01*
G01*
X21373500Y-14986000D02*
G75*
G03*
X21373500Y-14986000I-37500J0D01*
G01*
X21500500Y-14986000D02*
G75*
G03*
X21500500Y-14986000I-37500J0D01*
G01*
X22008500Y-14986000D02*
G75*
G03*
X22008500Y-14986000I-37500J0D01*
G01*
X22135500Y-14986000D02*
G75*
G03*
X22135500Y-14986000I-37500J0D01*
G01*
X22262500Y-14986000D02*
G75*
G03*
X22262500Y-14986000I-37500J0D01*
G01*
X22770500Y-14986000D02*
G75*
G03*
X22770500Y-14986000I-37500J0D01*
G01*
X22897500Y-14986000D02*
G75*
G03*
X22897500Y-14986000I-37500J0D01*
G01*
X23024500Y-14986000D02*
G75*
G03*
X23024500Y-14986000I-37500J0D01*
G01*
X23532500Y-14224000D02*
G75*
G03*
X23532500Y-14224000I-37500J0D01*
G01*
X23532500Y-14986000D02*
G75*
G03*
X23532500Y-14986000I-37500J0D01*
G01*
X23659500Y-14224000D02*
G75*
G03*
X23659500Y-14224000I-37500J0D01*
G01*
X23659500Y-14986000D02*
G75*
G03*
X23659500Y-14986000I-37500J0D01*
G01*
X23786500Y-14224000D02*
G75*
G03*
X23786500Y-14224000I-37500J0D01*
G01*
X23786500Y-14986000D02*
G75*
G03*
X23786500Y-14986000I-37500J0D01*
G01*
X14097000Y-20535900D02*
X14097000Y-20612100D01*
X14058900Y-20574000D02*
X14135100Y-20574000D01*
X14097000Y-21297900D02*
X14097000Y-21374100D01*
X14058900Y-21336000D02*
X14135100Y-21336000D01*
X14351000Y-20535900D02*
X14351000Y-20612100D01*
X14312900Y-20574000D02*
X14389100Y-20574000D01*
X14351000Y-21297900D02*
X14351000Y-21374100D01*
X14312900Y-21336000D02*
X14389100Y-21336000D01*
X14605000Y-20535900D02*
X14605000Y-20612100D01*
X14566900Y-20574000D02*
X14643100Y-20574000D01*
X14605000Y-21297900D02*
X14605000Y-21374100D01*
X14566900Y-21336000D02*
X14643100Y-21336000D01*
X14859000Y-20535900D02*
X14859000Y-20612100D01*
X14820900Y-20574000D02*
X14897100Y-20574000D01*
X14859000Y-21297900D02*
X14859000Y-21374100D01*
X14820900Y-21336000D02*
X14897100Y-21336000D01*
X15113000Y-20535900D02*
X15113000Y-20612100D01*
X15074900Y-20574000D02*
X15151100Y-20574000D01*
X15113000Y-21297900D02*
X15113000Y-21374100D01*
X15074900Y-21336000D02*
X15151100Y-21336000D01*
X15367000Y-20535900D02*
X15367000Y-20612100D01*
X15328900Y-20574000D02*
X15405100Y-20574000D01*
X15367000Y-21297900D02*
X15367000Y-21374100D01*
X15328900Y-21336000D02*
X15405100Y-21336000D01*
X15621000Y-20535900D02*
X15621000Y-20612100D01*
X15582900Y-20574000D02*
X15659100Y-20574000D01*
X15621000Y-21297900D02*
X15621000Y-21374100D01*
X15582900Y-21336000D02*
X15659100Y-21336000D01*
X15875000Y-20535900D02*
X15875000Y-20612100D01*
X15836900Y-20574000D02*
X15913100Y-20574000D01*
X15875000Y-21297900D02*
X15875000Y-21374100D01*
X15836900Y-21336000D02*
X15913100Y-21336000D01*
X16129000Y-20535900D02*
X16129000Y-20612100D01*
X16090900Y-20574000D02*
X16167100Y-20574000D01*
X16129000Y-21297900D02*
X16129000Y-21374100D01*
X16090900Y-21336000D02*
X16167100Y-21336000D01*
X16383000Y-20535900D02*
X16383000Y-20612100D01*
X16344900Y-20574000D02*
X16421100Y-20574000D01*
X16383000Y-21297900D02*
X16383000Y-21374100D01*
X16344900Y-21336000D02*
X16421100Y-21336000D01*
X16637000Y-20535900D02*
X16637000Y-20612100D01*
X16598900Y-20574000D02*
X16675100Y-20574000D01*
X16637000Y-21297900D02*
X16637000Y-21374100D01*
X16598900Y-21336000D02*
X16675100Y-21336000D01*
X16891000Y-20535900D02*
X16891000Y-20612100D01*
X16852900Y-20574000D02*
X16929100Y-20574000D01*
X16891000Y-21297900D02*
X16891000Y-21374100D01*
X16852900Y-21336000D02*
X16929100Y-21336000D01*
X17145000Y-20535900D02*
X17145000Y-20612100D01*
X17106900Y-20574000D02*
X17183100Y-20574000D01*
X17145000Y-21297900D02*
X17145000Y-21374100D01*
X17106900Y-21336000D02*
X17183100Y-21336000D01*
X17399000Y-20535900D02*
X17399000Y-20612100D01*
X17360900Y-20574000D02*
X17437100Y-20574000D01*
X17399000Y-21297900D02*
X17399000Y-21374100D01*
X17360900Y-21336000D02*
X17437100Y-21336000D01*
X17653000Y-20535900D02*
X17653000Y-20612100D01*
X17614900Y-20574000D02*
X17691100Y-20574000D01*
X17653000Y-21297900D02*
X17653000Y-21374100D01*
X17614900Y-21336000D02*
X17691100Y-21336000D01*
X17907000Y-20535900D02*
X17907000Y-20612100D01*
X17868900Y-20574000D02*
X17945100Y-20574000D01*
X17907000Y-21297900D02*
X17907000Y-21374100D01*
X17868900Y-21336000D02*
X17945100Y-21336000D01*
X18161000Y-20535900D02*
X18161000Y-20612100D01*
X18122900Y-20574000D02*
X18199100Y-20574000D01*
X18161000Y-21297900D02*
X18161000Y-21374100D01*
X18122900Y-21336000D02*
X18199100Y-21336000D01*
X18415000Y-20535900D02*
X18415000Y-20612100D01*
X18376900Y-20574000D02*
X18453100Y-20574000D01*
X18415000Y-21297900D02*
X18415000Y-21374100D01*
X18376900Y-21336000D02*
X18453100Y-21336000D01*
X18669000Y-20535900D02*
X18669000Y-20612100D01*
X18630900Y-20574000D02*
X18707100Y-20574000D01*
X18669000Y-21297900D02*
X18669000Y-21374100D01*
X18630900Y-21336000D02*
X18707100Y-21336000D01*
X18923000Y-20535900D02*
X18923000Y-20612100D01*
X18884900Y-20574000D02*
X18961100Y-20574000D01*
X18923000Y-21297900D02*
X18923000Y-21374100D01*
X18884900Y-21336000D02*
X18961100Y-21336000D01*
X19177000Y-20535900D02*
X19177000Y-20612100D01*
X19138900Y-20574000D02*
X19215100Y-20574000D01*
X19177000Y-21297900D02*
X19177000Y-21374100D01*
X19138900Y-21336000D02*
X19215100Y-21336000D01*
X19431000Y-20535900D02*
X19431000Y-20612100D01*
X19392900Y-20574000D02*
X19469100Y-20574000D01*
X19431000Y-21297900D02*
X19431000Y-21374100D01*
X19392900Y-21336000D02*
X19469100Y-21336000D01*
X19685000Y-20535900D02*
X19685000Y-20612100D01*
X19646900Y-20574000D02*
X19723100Y-20574000D01*
X19685000Y-21297900D02*
X19685000Y-21374100D01*
X19646900Y-21336000D02*
X19723100Y-21336000D01*
X19939000Y-20535900D02*
X19939000Y-20612100D01*
X19900900Y-20574000D02*
X19977100Y-20574000D01*
X19939000Y-21297900D02*
X19939000Y-21374100D01*
X19900900Y-21336000D02*
X19977100Y-21336000D01*
X20193000Y-20535900D02*
X20193000Y-20612100D01*
X20154900Y-20574000D02*
X20231100Y-20574000D01*
X20193000Y-21297900D02*
X20193000Y-21374100D01*
X20154900Y-21336000D02*
X20231100Y-21336000D01*
X20447000Y-20535900D02*
X20447000Y-20612100D01*
X20408900Y-20574000D02*
X20485100Y-20574000D01*
X20447000Y-21297900D02*
X20447000Y-21374100D01*
X20408900Y-21336000D02*
X20485100Y-21336000D01*
X20701000Y-20535900D02*
X20701000Y-20612100D01*
X20662900Y-20574000D02*
X20739100Y-20574000D01*
X20701000Y-21297900D02*
X20701000Y-21374100D01*
X20662900Y-21336000D02*
X20739100Y-21336000D01*
X20955000Y-20535900D02*
X20955000Y-20612100D01*
X20916900Y-20574000D02*
X20993100Y-20574000D01*
X20955000Y-21297900D02*
X20955000Y-21374100D01*
X20916900Y-21336000D02*
X20993100Y-21336000D01*
X21209000Y-20535900D02*
X21209000Y-20612100D01*
X21170900Y-20574000D02*
X21247100Y-20574000D01*
X21209000Y-21297900D02*
X21209000Y-21374100D01*
X21170900Y-21336000D02*
X21247100Y-21336000D01*
X21463000Y-20535900D02*
X21463000Y-20612100D01*
X21424900Y-20574000D02*
X21501100Y-20574000D01*
X21463000Y-21297900D02*
X21463000Y-21374100D01*
X21424900Y-21336000D02*
X21501100Y-21336000D01*
X21717000Y-20535900D02*
X21717000Y-20612100D01*
X21678900Y-20574000D02*
X21755100Y-20574000D01*
X21717000Y-21297900D02*
X21717000Y-21374100D01*
X21678900Y-21336000D02*
X21755100Y-21336000D01*
X21971000Y-20535900D02*
X21971000Y-20612100D01*
X21932900Y-20574000D02*
X22009100Y-20574000D01*
X21971000Y-21297900D02*
X21971000Y-21374100D01*
X21932900Y-21336000D02*
X22009100Y-21336000D01*
X22225000Y-20535900D02*
X22225000Y-20612100D01*
X22186900Y-20574000D02*
X22263100Y-20574000D01*
X22225000Y-21297900D02*
X22225000Y-21374100D01*
X22186900Y-21336000D02*
X22263100Y-21336000D01*
X22479000Y-20535900D02*
X22479000Y-20612100D01*
X22440900Y-20574000D02*
X22517100Y-20574000D01*
X22479000Y-21297900D02*
X22479000Y-21374100D01*
X22440900Y-21336000D02*
X22517100Y-21336000D01*
X22694200Y-12921500D02*
X22694200Y-12997700D01*
X22656100Y-12959600D02*
X22732300Y-12959600D01*
X22733000Y-20535900D02*
X22733000Y-20612100D01*
X22694900Y-20574000D02*
X22771100Y-20574000D01*
X22733000Y-21297900D02*
X22733000Y-21374100D01*
X22694900Y-21336000D02*
X22771100Y-21336000D01*
X22948200Y-12921500D02*
X22948200Y-12997700D01*
X22910100Y-12959600D02*
X22986300Y-12959600D01*
X22987000Y-20535900D02*
X22987000Y-20612100D01*
X22948900Y-20574000D02*
X23025100Y-20574000D01*
X22987000Y-21297900D02*
X22987000Y-21374100D01*
X22948900Y-21336000D02*
X23025100Y-21336000D01*
X23202200Y-12921500D02*
X23202200Y-12997700D01*
X23164100Y-12959600D02*
X23240300Y-12959600D01*
X23241000Y-20535900D02*
X23241000Y-20612100D01*
X23202900Y-20574000D02*
X23279100Y-20574000D01*
X23241000Y-21297900D02*
X23241000Y-21374100D01*
X23202900Y-21336000D02*
X23279100Y-21336000D01*
X23456200Y-12921500D02*
X23456200Y-12997700D01*
X23418100Y-12959600D02*
X23494300Y-12959600D01*
X23495000Y-20535900D02*
X23495000Y-20612100D01*
X23456900Y-20574000D02*
X23533100Y-20574000D01*
X23495000Y-21297900D02*
X23495000Y-21374100D01*
X23456900Y-21336000D02*
X23533100Y-21336000D01*
X23749000Y-20535900D02*
X23749000Y-20612100D01*
X23710900Y-20574000D02*
X23787100Y-20574000D01*
X23749000Y-21297900D02*
X23749000Y-21374100D01*
X23710900Y-21336000D02*
X23787100Y-21336000D01*
X24003000Y-20535900D02*
X24003000Y-20612100D01*
X23964900Y-20574000D02*
X24041100Y-20574000D01*
X24003000Y-21297900D02*
X24003000Y-21374100D01*
X23964900Y-21336000D02*
X24041100Y-21336000D01*
X24257000Y-20535900D02*
X24257000Y-20612100D01*
X24218900Y-20574000D02*
X24295100Y-20574000D01*
X24257000Y-21297900D02*
X24257000Y-21374100D01*
X24218900Y-21336000D02*
X24295100Y-21336000D01*
X24511000Y-20535900D02*
X24511000Y-20612100D01*
X24472900Y-20574000D02*
X24549100Y-20574000D01*
X24511000Y-21297900D02*
X24511000Y-21374100D01*
X24472900Y-21336000D02*
X24549100Y-21336000D01*
X24765000Y-20535900D02*
X24765000Y-20612100D01*
X24726900Y-20574000D02*
X24803100Y-20574000D01*
X24765000Y-21297900D02*
X24765000Y-21374100D01*
X24726900Y-21336000D02*
X24803100Y-21336000D01*
X25019000Y-20535900D02*
X25019000Y-20612100D01*
X24980900Y-20574000D02*
X25057100Y-20574000D01*
X25019000Y-21297900D02*
X25019000Y-21374100D01*
X24980900Y-21336000D02*
X25057100Y-21336000D01*
X25273000Y-20535900D02*
X25273000Y-20612100D01*
X25234900Y-20574000D02*
X25311100Y-20574000D01*
X25273000Y-21297900D02*
X25273000Y-21374100D01*
X25234900Y-21336000D02*
X25311100Y-21336000D01*
X25527000Y-20535900D02*
X25527000Y-20612100D01*
X25488900Y-20574000D02*
X25565100Y-20574000D01*
X25527000Y-21297900D02*
X25527000Y-21374100D01*
X25488900Y-21336000D02*
X25565100Y-21336000D01*
X25781000Y-20535900D02*
X25781000Y-20612100D01*
X25742900Y-20574000D02*
X25819100Y-20574000D01*
X25781000Y-21297900D02*
X25781000Y-21374100D01*
X25742900Y-21336000D02*
X25819100Y-21336000D01*
X26035000Y-20535900D02*
X26035000Y-20612100D01*
X25996900Y-20574000D02*
X26073100Y-20574000D01*
X26035000Y-21297900D02*
X26035000Y-21374100D01*
X25996900Y-21336000D02*
X26073100Y-21336000D01*
X9807285Y-17808285D02*
X9807285Y-17751716D01*
X9750716Y-17751716D01*
X9750716Y-17808285D01*
X9807285Y-17808285D01*
X9807285Y-18570285D02*
X9807285Y-18513716D01*
X9750716Y-18513716D01*
X9750716Y-18570285D01*
X9807285Y-18570285D01*
X9893818Y-11192034D02*
X9893818Y-11135466D01*
X9837249Y-11135466D01*
X9837249Y-11192034D01*
X9893818Y-11192034D01*
X9893818Y-12716034D02*
X9893818Y-12659465D01*
X9837249Y-12659465D01*
X9837249Y-12716034D01*
X9893818Y-12716034D01*
X10061285Y-17808285D02*
X10061285Y-17751716D01*
X10004716Y-17751716D01*
X10004716Y-17808285D01*
X10061285Y-17808285D01*
X10061285Y-18570285D02*
X10061285Y-18513716D01*
X10004716Y-18513716D01*
X10004716Y-18570285D01*
X10061285Y-18570285D01*
X10147818Y-11192034D02*
X10147818Y-11135466D01*
X10091249Y-11135466D01*
X10091249Y-11192034D01*
X10147818Y-11192034D01*
X10147818Y-12716034D02*
X10147818Y-12659465D01*
X10091249Y-12659465D01*
X10091249Y-12716034D01*
X10147818Y-12716034D01*
X10315285Y-17808285D02*
X10315285Y-17751716D01*
X10258716Y-17751716D01*
X10258716Y-17808285D01*
X10315285Y-17808285D01*
X10315285Y-18570285D02*
X10315285Y-18513716D01*
X10258716Y-18513716D01*
X10258716Y-18570285D01*
X10315285Y-18570285D01*
X10401818Y-11192034D02*
X10401818Y-11135466D01*
X10345249Y-11135466D01*
X10345249Y-11192034D01*
X10401818Y-11192034D01*
X10401818Y-12716034D02*
X10401818Y-12659465D01*
X10345249Y-12659465D01*
X10345249Y-12716034D01*
X10401818Y-12716034D01*
X10569285Y-17808285D02*
X10569285Y-17751716D01*
X10512716Y-17751716D01*
X10512716Y-17808285D01*
X10569285Y-17808285D01*
X10569285Y-18570285D02*
X10569285Y-18513716D01*
X10512716Y-18513716D01*
X10512716Y-18570285D01*
X10569285Y-18570285D01*
X10655818Y-11192034D02*
X10655818Y-11135466D01*
X10599249Y-11135466D01*
X10599249Y-11192034D01*
X10655818Y-11192034D01*
X10655818Y-12716034D02*
X10655818Y-12659465D01*
X10599249Y-12659465D01*
X10599249Y-12716034D01*
X10655818Y-12716034D01*
X10823285Y-17808285D02*
X10823285Y-17751716D01*
X10766716Y-17751716D01*
X10766716Y-17808285D01*
X10823285Y-17808285D01*
X10823285Y-18570285D02*
X10823285Y-18513716D01*
X10766716Y-18513716D01*
X10766716Y-18570285D01*
X10823285Y-18570285D01*
X10909818Y-11192034D02*
X10909818Y-11135466D01*
X10853249Y-11135466D01*
X10853249Y-11192034D01*
X10909818Y-11192034D01*
X10909818Y-12716034D02*
X10909818Y-12659465D01*
X10853249Y-12659465D01*
X10853249Y-12716034D01*
X10909818Y-12716034D01*
X11077285Y-17808285D02*
X11077285Y-17751716D01*
X11020716Y-17751716D01*
X11020716Y-17808285D01*
X11077285Y-17808285D01*
X11077285Y-18570285D02*
X11077285Y-18513716D01*
X11020716Y-18513716D01*
X11020716Y-18570285D01*
X11077285Y-18570285D01*
X11331284Y-17808285D02*
X11331284Y-17751716D01*
X11274715Y-17751716D01*
X11274715Y-17808285D01*
X11331284Y-17808285D01*
X11331284Y-18570285D02*
X11331284Y-18513716D01*
X11274715Y-18513716D01*
X11274715Y-18570285D01*
X11331284Y-18570285D01*
X11585284Y-17808285D02*
X11585284Y-17751716D01*
X11528715Y-17751716D01*
X11528715Y-17808285D01*
X11585284Y-17808285D01*
X11585284Y-18570285D02*
X11585284Y-18513716D01*
X11528715Y-18513716D01*
X11528715Y-18570285D01*
X11585284Y-18570285D01*
X11839284Y-17808285D02*
X11839284Y-17751716D01*
X11782715Y-17751716D01*
X11782715Y-17808285D01*
X11839284Y-17808285D01*
X11839284Y-18570285D02*
X11839284Y-18513716D01*
X11782715Y-18513716D01*
X11782715Y-18570285D01*
X11839284Y-18570285D01*
X12093284Y-17808285D02*
X12093284Y-17751716D01*
X12036715Y-17751716D01*
X12036715Y-17808285D01*
X12093284Y-17808285D01*
X12093284Y-18570285D02*
X12093284Y-18513716D01*
X12036715Y-18513716D01*
X12036715Y-18570285D01*
X12093284Y-18570285D01*
X12347284Y-17808285D02*
X12347284Y-17751716D01*
X12290715Y-17751716D01*
X12290715Y-17808285D01*
X12347284Y-17808285D01*
X12347284Y-18570285D02*
X12347284Y-18513716D01*
X12290715Y-18513716D01*
X12290715Y-18570285D01*
X12347284Y-18570285D01*
X12601284Y-17808285D02*
X12601284Y-17751716D01*
X12544715Y-17751716D01*
X12544715Y-17808285D01*
X12601284Y-17808285D01*
X12601284Y-18570285D02*
X12601284Y-18513716D01*
X12544715Y-18513716D01*
X12544715Y-18570285D01*
X12601284Y-18570285D01*
X12728284Y-14252284D02*
X12728284Y-14195715D01*
X12671715Y-14195715D01*
X12671715Y-14252284D01*
X12728284Y-14252284D01*
X13744284Y-14252284D02*
X13744284Y-14195715D01*
X13687715Y-14195715D01*
X13687715Y-14252284D01*
X13744284Y-14252284D01*
X15776284Y-15268284D02*
X15776284Y-15211715D01*
X15719715Y-15211715D01*
X15719715Y-15268284D01*
X15776284Y-15268284D01*
X15776284Y-17046285D02*
X15776284Y-16989716D01*
X15719715Y-16989716D01*
X15719715Y-17046285D01*
X15776284Y-17046285D01*
X15776284Y-17554285D02*
X15776284Y-17497716D01*
X15719715Y-17497716D01*
X15719715Y-17554285D01*
X15776284Y-17554285D01*
X15776284Y-18062285D02*
X15776284Y-18005716D01*
X15719715Y-18005716D01*
X15719715Y-18062285D01*
X15776284Y-18062285D01*
X16792285Y-15268284D02*
X16792285Y-15211715D01*
X16735715Y-15211715D01*
X16735715Y-15268284D01*
X16792285Y-15268284D01*
X16792285Y-17046285D02*
X16792285Y-16989716D01*
X16735715Y-16989716D01*
X16735715Y-17046285D01*
X16792285Y-17046285D01*
X16792285Y-17554285D02*
X16792285Y-17497716D01*
X16735715Y-17497716D01*
X16735715Y-17554285D01*
X16792285Y-17554285D01*
X16792285Y-18062285D02*
X16792285Y-18005716D01*
X16735715Y-18005716D01*
X16735715Y-18062285D01*
X16792285Y-18062285D01*
X20602285Y-15831284D02*
X20602285Y-15774715D01*
X20545716Y-15774715D01*
X20545716Y-15831284D01*
X20602285Y-15831284D01*
X20602285Y-16236284D02*
X20602285Y-16179715D01*
X20545716Y-16179715D01*
X20545716Y-16236284D01*
X20602285Y-16236284D01*
X20602285Y-16641284D02*
X20602285Y-16584715D01*
X20545716Y-16584715D01*
X20545716Y-16641284D01*
X20602285Y-16641284D01*
X20602285Y-17046285D02*
X20602285Y-16989716D01*
X20545716Y-16989716D01*
X20545716Y-17046285D01*
X20602285Y-17046285D01*
X20602285Y-17451285D02*
X20602285Y-17394716D01*
X20545716Y-17394716D01*
X20545716Y-17451285D01*
X20602285Y-17451285D01*
X20602285Y-17856285D02*
X20602285Y-17799716D01*
X20545716Y-17799716D01*
X20545716Y-17856285D01*
X20602285Y-17856285D01*
X20602285Y-18261285D02*
X20602285Y-18204716D01*
X20545716Y-18204716D01*
X20545716Y-18261285D01*
X20602285Y-18261285D01*
X21618285Y-15831284D02*
X21618285Y-15774715D01*
X21561716Y-15774715D01*
X21561716Y-15831284D01*
X21618285Y-15831284D01*
X21618285Y-16236284D02*
X21618285Y-16179715D01*
X21561716Y-16179715D01*
X21561716Y-16236284D01*
X21618285Y-16236284D01*
X21618285Y-16641284D02*
X21618285Y-16584715D01*
X21561716Y-16584715D01*
X21561716Y-16641284D01*
X21618285Y-16641284D01*
X21618285Y-17046285D02*
X21618285Y-16989716D01*
X21561716Y-16989716D01*
X21561716Y-17046285D01*
X21618285Y-17046285D01*
X21618285Y-17451285D02*
X21618285Y-17394716D01*
X21561716Y-17394716D01*
X21561716Y-17451285D01*
X21618285Y-17451285D01*
X21618285Y-17856285D02*
X21618285Y-17799716D01*
X21561716Y-17799716D01*
X21561716Y-17856285D01*
X21618285Y-17856285D01*
X21618285Y-18261285D02*
X21618285Y-18204716D01*
X21561716Y-18204716D01*
X21561716Y-18261285D01*
X21618285Y-18261285D01*
X22126285Y-11458284D02*
X22126285Y-11401715D01*
X22069716Y-11401715D01*
X22069716Y-11458284D01*
X22126285Y-11458284D01*
X22126285Y-12474284D02*
X22126285Y-12417715D01*
X22069716Y-12417715D01*
X22069716Y-12474284D01*
X22126285Y-12474284D01*
X22507284Y-11458284D02*
X22507284Y-11401715D01*
X22450715Y-11401715D01*
X22450715Y-11458284D01*
X22507284Y-11458284D01*
X22507284Y-12474284D02*
X22507284Y-12417715D01*
X22450715Y-12417715D01*
X22450715Y-12474284D01*
X22507284Y-12474284D01*
X22634284Y-15831284D02*
X22634284Y-15774715D01*
X22577715Y-15774715D01*
X22577715Y-15831284D01*
X22634284Y-15831284D01*
X22634284Y-16236284D02*
X22634284Y-16179715D01*
X22577715Y-16179715D01*
X22577715Y-16236284D01*
X22634284Y-16236284D01*
X22634284Y-16641284D02*
X22634284Y-16584715D01*
X22577715Y-16584715D01*
X22577715Y-16641284D01*
X22634284Y-16641284D01*
X22634284Y-17046285D02*
X22634284Y-16989716D01*
X22577715Y-16989716D01*
X22577715Y-17046285D01*
X22634284Y-17046285D01*
X22634284Y-17451285D02*
X22634284Y-17394716D01*
X22577715Y-17394716D01*
X22577715Y-17451285D01*
X22634284Y-17451285D01*
X22634284Y-17856285D02*
X22634284Y-17799716D01*
X22577715Y-17799716D01*
X22577715Y-17856285D01*
X22634284Y-17856285D01*
X22634284Y-18261285D02*
X22634284Y-18204716D01*
X22577715Y-18204716D01*
X22577715Y-18261285D01*
X22634284Y-18261285D01*
X22888284Y-11458284D02*
X22888284Y-11401715D01*
X22831715Y-11401715D01*
X22831715Y-11458284D01*
X22888284Y-11458284D01*
X22888284Y-12474284D02*
X22888284Y-12417715D01*
X22831715Y-12417715D01*
X22831715Y-12474284D01*
X22888284Y-12474284D01*
X23269284Y-11458284D02*
X23269284Y-11401715D01*
X23212715Y-11401715D01*
X23212715Y-11458284D01*
X23269284Y-11458284D01*
X23269284Y-12474284D02*
X23269284Y-12417715D01*
X23212715Y-12417715D01*
X23212715Y-12474284D01*
X23269284Y-12474284D01*
X23650284Y-11458284D02*
X23650284Y-11401715D01*
X23593715Y-11401715D01*
X23593715Y-11458284D01*
X23650284Y-11458284D01*
X23650284Y-12474284D02*
X23650284Y-12417715D01*
X23593715Y-12417715D01*
X23593715Y-12474284D01*
X23650284Y-12474284D01*
X23650284Y-15831284D02*
X23650284Y-15774715D01*
X23593715Y-15774715D01*
X23593715Y-15831284D01*
X23650284Y-15831284D01*
X23650284Y-16236284D02*
X23650284Y-16179715D01*
X23593715Y-16179715D01*
X23593715Y-16236284D01*
X23650284Y-16236284D01*
X23650284Y-16641284D02*
X23650284Y-16584715D01*
X23593715Y-16584715D01*
X23593715Y-16641284D01*
X23650284Y-16641284D01*
X23650284Y-17046285D02*
X23650284Y-16989716D01*
X23593715Y-16989716D01*
X23593715Y-17046285D01*
X23650284Y-17046285D01*
X23650284Y-17451285D02*
X23650284Y-17394716D01*
X23593715Y-17394716D01*
X23593715Y-17451285D01*
X23650284Y-17451285D01*
X23650284Y-17856285D02*
X23650284Y-17799716D01*
X23593715Y-17799716D01*
X23593715Y-17856285D01*
X23650284Y-17856285D01*
X23650284Y-18261285D02*
X23650284Y-18204716D01*
X23593715Y-18204716D01*
X23593715Y-18261285D01*
X23650284Y-18261285D01*
X24031284Y-11458284D02*
X24031284Y-11401715D01*
X23974715Y-11401715D01*
X23974715Y-11458284D01*
X24031284Y-11458284D01*
X24031284Y-12474284D02*
X24031284Y-12417715D01*
X23974715Y-12417715D01*
X23974715Y-12474284D01*
X24031284Y-12474284D01*
X24538284Y-17808285D02*
X24538284Y-17751716D01*
X24481715Y-17751716D01*
X24481715Y-17808285D01*
X24538284Y-17808285D01*
X24538284Y-18570285D02*
X24538284Y-18513716D01*
X24481715Y-18513716D01*
X24481715Y-18570285D01*
X24538284Y-18570285D01*
X24792284Y-17808285D02*
X24792284Y-17751716D01*
X24735715Y-17751716D01*
X24735715Y-17808285D01*
X24792284Y-17808285D01*
X24792284Y-18570285D02*
X24792284Y-18513716D01*
X24735715Y-18513716D01*
X24735715Y-18570285D01*
X24792284Y-18570285D01*
X24920284Y-14633284D02*
X24920284Y-14576715D01*
X24863715Y-14576715D01*
X24863715Y-14633284D01*
X24920284Y-14633284D01*
X24920284Y-15014284D02*
X24920284Y-14957715D01*
X24863715Y-14957715D01*
X24863715Y-15014284D01*
X24920284Y-15014284D01*
X24920284Y-15395284D02*
X24920284Y-15338715D01*
X24863715Y-15338715D01*
X24863715Y-15395284D01*
X24920284Y-15395284D01*
X24920284Y-15776284D02*
X24920284Y-15719715D01*
X24863715Y-15719715D01*
X24863715Y-15776284D01*
X24920284Y-15776284D01*
X24920284Y-16157284D02*
X24920284Y-16100715D01*
X24863715Y-16100715D01*
X24863715Y-16157284D01*
X24920284Y-16157284D01*
X24920284Y-16538284D02*
X24920284Y-16481715D01*
X24863715Y-16481715D01*
X24863715Y-16538284D01*
X24920284Y-16538284D01*
X24920284Y-16919285D02*
X24920284Y-16862716D01*
X24863715Y-16862716D01*
X24863715Y-16919285D01*
X24920284Y-16919285D01*
X24920284Y-17300285D02*
X24920284Y-17243716D01*
X24863715Y-17243716D01*
X24863715Y-17300285D01*
X24920284Y-17300285D01*
X25046284Y-17808285D02*
X25046284Y-17751716D01*
X24989715Y-17751716D01*
X24989715Y-17808285D01*
X25046284Y-17808285D01*
X25046284Y-18570285D02*
X25046284Y-18513716D01*
X24989715Y-18513716D01*
X24989715Y-18570285D01*
X25046284Y-18570285D01*
X25300284Y-17808285D02*
X25300284Y-17751716D01*
X25243715Y-17751716D01*
X25243715Y-17808285D01*
X25300284Y-17808285D01*
X25300284Y-18570285D02*
X25300284Y-18513716D01*
X25243715Y-18513716D01*
X25243715Y-18570285D01*
X25300284Y-18570285D01*
X25554284Y-17808285D02*
X25554284Y-17751716D01*
X25497715Y-17751716D01*
X25497715Y-17808285D01*
X25554284Y-17808285D01*
X25554284Y-18570285D02*
X25554284Y-18513716D01*
X25497715Y-18513716D01*
X25497715Y-18570285D01*
X25554284Y-18570285D01*
X25808284Y-17808285D02*
X25808284Y-17751716D01*
X25751715Y-17751716D01*
X25751715Y-17808285D01*
X25808284Y-17808285D01*
X25808284Y-18570285D02*
X25808284Y-18513716D01*
X25751715Y-18513716D01*
X25751715Y-18570285D01*
X25808284Y-18570285D01*
X25936284Y-14633284D02*
X25936284Y-14576715D01*
X25879715Y-14576715D01*
X25879715Y-14633284D01*
X25936284Y-14633284D01*
X25936284Y-15014284D02*
X25936284Y-14957715D01*
X25879715Y-14957715D01*
X25879715Y-15014284D01*
X25936284Y-15014284D01*
X25936284Y-15395284D02*
X25936284Y-15338715D01*
X25879715Y-15338715D01*
X25879715Y-15395284D01*
X25936284Y-15395284D01*
X25936284Y-15776284D02*
X25936284Y-15719715D01*
X25879715Y-15719715D01*
X25879715Y-15776284D01*
X25936284Y-15776284D01*
X25936284Y-16157284D02*
X25936284Y-16100715D01*
X25879715Y-16100715D01*
X25879715Y-16157284D01*
X25936284Y-16157284D01*
X25936284Y-16538284D02*
X25936284Y-16481715D01*
X25879715Y-16481715D01*
X25879715Y-16538284D01*
X25936284Y-16538284D01*
X25936284Y-16919285D02*
X25936284Y-16862716D01*
X25879715Y-16862716D01*
X25879715Y-16919285D01*
X25936284Y-16919285D01*
X25936284Y-17300285D02*
X25936284Y-17243716D01*
X25879715Y-17243716D01*
X25879715Y-17300285D01*
X25936284Y-17300285D01*
X26062284Y-17808285D02*
X26062284Y-17751716D01*
X26005715Y-17751716D01*
X26005715Y-17808285D01*
X26062284Y-17808285D01*
X26062284Y-18570285D02*
X26062284Y-18513716D01*
X26005715Y-18513716D01*
X26005715Y-18570285D01*
X26062284Y-18570285D01*
X26316284Y-17808285D02*
X26316284Y-17751716D01*
X26259715Y-17751716D01*
X26259715Y-17808285D01*
X26316284Y-17808285D01*
X26316284Y-18570285D02*
X26316284Y-18513716D01*
X26259715Y-18513716D01*
X26259715Y-18570285D01*
X26316284Y-18570285D01*
X26317284Y-16284284D02*
X26317284Y-16227715D01*
X26260715Y-16227715D01*
X26260715Y-16284284D01*
X26317284Y-16284284D01*
X26317284Y-17300285D02*
X26317284Y-17243716D01*
X26260715Y-17243716D01*
X26260715Y-17300285D01*
X26317284Y-17300285D01*
X26570284Y-17808285D02*
X26570284Y-17751716D01*
X26513715Y-17751716D01*
X26513715Y-17808285D01*
X26570284Y-17808285D01*
X26570284Y-18570285D02*
X26570284Y-18513716D01*
X26513715Y-18513716D01*
X26513715Y-18570285D01*
X26570284Y-18570285D01*
X26824284Y-17808285D02*
X26824284Y-17751716D01*
X26767715Y-17751716D01*
X26767715Y-17808285D01*
X26824284Y-17808285D01*
X26824284Y-18570285D02*
X26824284Y-18513716D01*
X26767715Y-18513716D01*
X26767715Y-18570285D01*
X26824284Y-18570285D01*
X26825284Y-14887284D02*
X26825284Y-14830715D01*
X26768715Y-14830715D01*
X26768715Y-14887284D01*
X26825284Y-14887284D01*
X26825284Y-15268284D02*
X26825284Y-15211715D01*
X26768715Y-15211715D01*
X26768715Y-15268284D01*
X26825284Y-15268284D01*
X26825284Y-15649284D02*
X26825284Y-15592715D01*
X26768715Y-15592715D01*
X26768715Y-15649284D01*
X26825284Y-15649284D01*
X26825284Y-16030284D02*
X26825284Y-15973715D01*
X26768715Y-15973715D01*
X26768715Y-16030284D01*
X26825284Y-16030284D01*
X26825284Y-16411284D02*
X26825284Y-16354715D01*
X26768715Y-16354715D01*
X26768715Y-16411284D01*
X26825284Y-16411284D01*
X26825284Y-16792285D02*
X26825284Y-16735715D01*
X26768715Y-16735715D01*
X26768715Y-16792285D01*
X26825284Y-16792285D01*
X27078284Y-17808285D02*
X27078284Y-17751716D01*
X27021715Y-17751716D01*
X27021715Y-17808285D01*
X27078284Y-17808285D01*
X27078284Y-18570285D02*
X27078284Y-18513716D01*
X27021715Y-18513716D01*
X27021715Y-18570285D01*
X27078284Y-18570285D01*
X27332284Y-17808285D02*
X27332284Y-17751716D01*
X27275715Y-17751716D01*
X27275715Y-17808285D01*
X27332284Y-17808285D01*
X27332284Y-18570285D02*
X27332284Y-18513716D01*
X27275715Y-18513716D01*
X27275715Y-18570285D01*
X27332284Y-18570285D01*
X27586284Y-17808285D02*
X27586284Y-17751716D01*
X27529715Y-17751716D01*
X27529715Y-17808285D01*
X27586284Y-17808285D01*
X27586284Y-18570285D02*
X27586284Y-18513716D01*
X27529715Y-18513716D01*
X27529715Y-18570285D01*
X27586284Y-18570285D01*
X27840284Y-17808285D02*
X27840284Y-17751716D01*
X27783715Y-17751716D01*
X27783715Y-17808285D01*
X27840284Y-17808285D01*
X27840284Y-18570285D02*
X27840284Y-18513716D01*
X27783715Y-18513716D01*
X27783715Y-18570285D01*
X27840284Y-18570285D01*
X27841284Y-14887284D02*
X27841284Y-14830715D01*
X27784715Y-14830715D01*
X27784715Y-14887284D01*
X27841284Y-14887284D01*
X27841284Y-15268284D02*
X27841284Y-15211715D01*
X27784715Y-15211715D01*
X27784715Y-15268284D01*
X27841284Y-15268284D01*
X27841284Y-15649284D02*
X27841284Y-15592715D01*
X27784715Y-15592715D01*
X27784715Y-15649284D01*
X27841284Y-15649284D01*
X27841284Y-16030284D02*
X27841284Y-15973715D01*
X27784715Y-15973715D01*
X27784715Y-16030284D01*
X27841284Y-16030284D01*
X27841284Y-16411284D02*
X27841284Y-16354715D01*
X27784715Y-16354715D01*
X27784715Y-16411284D01*
X27841284Y-16411284D01*
X27841284Y-16792285D02*
X27841284Y-16735715D01*
X27784715Y-16735715D01*
X27784715Y-16792285D01*
X27841284Y-16792285D01*
X9779000Y-9443000D02*
X9824000Y-9398000D01*
X9779000Y-9353000D01*
X9734000Y-9398000D01*
X9779000Y-9443000D01*
X10033000Y-9443000D02*
X10078000Y-9398000D01*
X10033000Y-9353000D01*
X9988000Y-9398000D01*
X10033000Y-9443000D01*
X11049000Y-9443000D02*
X11094000Y-9398000D01*
X11049000Y-9353000D01*
X11004000Y-9398000D01*
X11049000Y-9443000D01*
X11303000Y-9443000D02*
X11348000Y-9398000D01*
X11303000Y-9353000D01*
X11258000Y-9398000D01*
X11303000Y-9443000D01*
X12319000Y-9443000D02*
X12364000Y-9398000D01*
X12319000Y-9353000D01*
X12274000Y-9398000D01*
X12319000Y-9443000D01*
X12573000Y-9443000D02*
X12618000Y-9398000D01*
X12573000Y-9353000D01*
X12528000Y-9398000D01*
X12573000Y-9443000D01*
X14859000Y-9443000D02*
X14904000Y-9398000D01*
X14859000Y-9353000D01*
X14814000Y-9398000D01*
X14859000Y-9443000D01*
X15113000Y-9443000D02*
X15158000Y-9398000D01*
X15113000Y-9353000D01*
X15068000Y-9398000D01*
X15113000Y-9443000D01*
X15621000Y-9443000D02*
X15666000Y-9398000D01*
X15621000Y-9353000D01*
X15576000Y-9398000D01*
X15621000Y-9443000D01*
X15875000Y-9443000D02*
X15920000Y-9398000D01*
X15875000Y-9353000D01*
X15830000Y-9398000D01*
X15875000Y-9443000D01*
X17653000Y-9443000D02*
X17698000Y-9398000D01*
X17653000Y-9353000D01*
X17608000Y-9398000D01*
X17653000Y-9443000D01*
X17907000Y-9443000D02*
X17952000Y-9398000D01*
X17907000Y-9353000D01*
X17862000Y-9398000D01*
X17907000Y-9443000D01*
X18415000Y-9443000D02*
X18460000Y-9398000D01*
X18415000Y-9353000D01*
X18370000Y-9398000D01*
X18415000Y-9443000D01*
X18669000Y-9443000D02*
X18714000Y-9398000D01*
X18669000Y-9353000D01*
X18624000Y-9398000D01*
X18669000Y-9443000D01*
X20447000Y-9443000D02*
X20492000Y-9398000D01*
X20447000Y-9353000D01*
X20402000Y-9398000D01*
X20447000Y-9443000D01*
X20701000Y-9443000D02*
X20746000Y-9398000D01*
X20701000Y-9353000D01*
X20656000Y-9398000D01*
X20701000Y-9443000D01*
X21209000Y-9443000D02*
X21254000Y-9398000D01*
X21209000Y-9353000D01*
X21164000Y-9398000D01*
X21209000Y-9443000D01*
X21463000Y-9443000D02*
X21508000Y-9398000D01*
X21463000Y-9353000D01*
X21418000Y-9398000D01*
X21463000Y-9443000D01*
X23241000Y-9443000D02*
X23286000Y-9398000D01*
X23241000Y-9353000D01*
X23196000Y-9398000D01*
X23241000Y-9443000D01*
X23495000Y-9443000D02*
X23540000Y-9398000D01*
X23495000Y-9353000D01*
X23450000Y-9398000D01*
X23495000Y-9443000D01*
X24003000Y-9443000D02*
X24048000Y-9398000D01*
X24003000Y-9353000D01*
X23958000Y-9398000D01*
X24003000Y-9443000D01*
X24257000Y-9443000D02*
X24302000Y-9398000D01*
X24257000Y-9353000D01*
X24212000Y-9398000D01*
X24257000Y-9443000D01*
X26289000Y-9443000D02*
X26334000Y-9398000D01*
X26289000Y-9353000D01*
X26244000Y-9398000D01*
X26289000Y-9443000D01*
X26543000Y-9443000D02*
X26588000Y-9398000D01*
X26543000Y-9353000D01*
X26498000Y-9398000D01*
X26543000Y-9443000D01*
X27051000Y-9443000D02*
X27096000Y-9398000D01*
X27051000Y-9353000D01*
X27006000Y-9398000D01*
X27051000Y-9443000D01*
X27305000Y-9443000D02*
X27350000Y-9398000D01*
X27305000Y-9353000D01*
X27260000Y-9398000D01*
X27305000Y-9443000D01*
X29337000Y-9443000D02*
X29382000Y-9398000D01*
X29337000Y-9353000D01*
X29292000Y-9398000D01*
X29337000Y-9443000D01*
X29591000Y-9443000D02*
X29636000Y-9398000D01*
X29591000Y-9353000D01*
X29546000Y-9398000D01*
X29591000Y-9443000D01*
X30099000Y-9443000D02*
X30144000Y-9398000D01*
X30099000Y-9353000D01*
X30054000Y-9398000D01*
X30099000Y-9443000D01*
X30226000Y-10840000D02*
X30271000Y-10795000D01*
X30226000Y-10750000D01*
X30181000Y-10795000D01*
X30226000Y-10840000D01*
X30226000Y-11983000D02*
X30271000Y-11938000D01*
X30226000Y-11893000D01*
X30181000Y-11938000D01*
X30226000Y-11983000D01*
X30353000Y-9443000D02*
X30398000Y-9398000D01*
X30353000Y-9353000D01*
X30308000Y-9398000D01*
X30353000Y-9443000D01*
X30441900Y-10840000D02*
X30486900Y-10795000D01*
X30441900Y-10750000D01*
X30396900Y-10795000D01*
X30441900Y-10840000D01*
X30441900Y-11983000D02*
X30486900Y-11938000D01*
X30441900Y-11893000D01*
X30396900Y-11938000D01*
X30441900Y-11983000D01*
X30657800Y-10840000D02*
X30702800Y-10795000D01*
X30657800Y-10750000D01*
X30612800Y-10795000D01*
X30657800Y-10840000D01*
X30657800Y-11983000D02*
X30702800Y-11938000D01*
X30657800Y-11893000D01*
X30612800Y-11938000D01*
X30657800Y-11983000D01*
X30873700Y-10840000D02*
X30918700Y-10795000D01*
X30873700Y-10750000D01*
X30828700Y-10795000D01*
X30873700Y-10840000D01*
X30873700Y-11983000D02*
X30918700Y-11938000D01*
X30873700Y-11893000D01*
X30828700Y-11938000D01*
X30873700Y-11983000D01*
X10618000Y-14174000D02*
X10718000Y-14274000D01*
X10718000Y-14174000D02*
X10618000Y-14274000D01*
X10718000Y-14224000D02*
G75*
G03*
X10718000Y-14224000I-50000J0D01*
G01*
X10618000Y-19000000D02*
X10718000Y-19100000D01*
X10718000Y-19000000D02*
X10618000Y-19100000D01*
X10718000Y-19050000D02*
G75*
G03*
X10718000Y-19050000I-50000J0D01*
G01*
X10872000Y-14174000D02*
X10972000Y-14274000D01*
X10972000Y-14174000D02*
X10872000Y-14274000D01*
X10972000Y-14224000D02*
G75*
G03*
X10972000Y-14224000I-50000J0D01*
G01*
X10872000Y-19000000D02*
X10972000Y-19100000D01*
X10972000Y-19000000D02*
X10872000Y-19100000D01*
X10972000Y-19050000D02*
G75*
G03*
X10972000Y-19050000I-50000J0D01*
G01*
X11126000Y-14174000D02*
X11226000Y-14274000D01*
X11226000Y-14174000D02*
X11126000Y-14274000D01*
X11226000Y-14224000D02*
G75*
G03*
X11226000Y-14224000I-50000J0D01*
G01*
X11126000Y-19000000D02*
X11226000Y-19100000D01*
X11226000Y-19000000D02*
X11126000Y-19100000D01*
X11226000Y-19050000D02*
G75*
G03*
X11226000Y-19050000I-50000J0D01*
G01*
X11380000Y-14174000D02*
X11480000Y-14274000D01*
X11480000Y-14174000D02*
X11380000Y-14274000D01*
X11480000Y-14224000D02*
G75*
G03*
X11480000Y-14224000I-50000J0D01*
G01*
X11380000Y-19000000D02*
X11480000Y-19100000D01*
X11480000Y-19000000D02*
X11380000Y-19100000D01*
X11480000Y-19050000D02*
G75*
G03*
X11480000Y-19050000I-50000J0D01*
G01*
X11634000Y-14174000D02*
X11734000Y-14274000D01*
X11734000Y-14174000D02*
X11634000Y-14274000D01*
X11734000Y-14224000D02*
G75*
G03*
X11734000Y-14224000I-50000J0D01*
G01*
X11634000Y-19000000D02*
X11734000Y-19100000D01*
X11734000Y-19000000D02*
X11634000Y-19100000D01*
X11734000Y-19050000D02*
G75*
G03*
X11734000Y-19050000I-50000J0D01*
G01*
X14682000Y-14174000D02*
X14782000Y-14274000D01*
X14782000Y-14174000D02*
X14682000Y-14274000D01*
X14782000Y-14224000D02*
G75*
G03*
X14782000Y-14224000I-50000J0D01*
G01*
X14682000Y-19000000D02*
X14782000Y-19100000D01*
X14782000Y-19000000D02*
X14682000Y-19100000D01*
X14782000Y-19050000D02*
G75*
G03*
X14782000Y-19050000I-50000J0D01*
G01*
X14936000Y-14174000D02*
X15036000Y-14274000D01*
X15036000Y-14174000D02*
X14936000Y-14274000D01*
X15036000Y-14224000D02*
G75*
G03*
X15036000Y-14224000I-50000J0D01*
G01*
X14936000Y-19000000D02*
X15036000Y-19100000D01*
X15036000Y-19000000D02*
X14936000Y-19100000D01*
X15036000Y-19050000D02*
G75*
G03*
X15036000Y-19050000I-50000J0D01*
G01*
X15190000Y-14174000D02*
X15290000Y-14274000D01*
X15290000Y-14174000D02*
X15190000Y-14274000D01*
X15290000Y-14224000D02*
G75*
G03*
X15290000Y-14224000I-50000J0D01*
G01*
X15190000Y-19000000D02*
X15290000Y-19100000D01*
X15290000Y-19000000D02*
X15190000Y-19100000D01*
X15290000Y-19050000D02*
G75*
G03*
X15290000Y-19050000I-50000J0D01*
G01*
X15444000Y-14174000D02*
X15544000Y-14274000D01*
X15544000Y-14174000D02*
X15444000Y-14274000D01*
X15544000Y-14224000D02*
G75*
G03*
X15544000Y-14224000I-50000J0D01*
G01*
X15444000Y-19000000D02*
X15544000Y-19100000D01*
X15544000Y-19000000D02*
X15444000Y-19100000D01*
X15544000Y-19050000D02*
G75*
G03*
X15544000Y-19050000I-50000J0D01*
G01*
X15698000Y-14174000D02*
X15798000Y-14274000D01*
X15798000Y-14174000D02*
X15698000Y-14274000D01*
X15798000Y-14224000D02*
G75*
G03*
X15798000Y-14224000I-50000J0D01*
G01*
X15698000Y-19000000D02*
X15798000Y-19100000D01*
X15798000Y-19000000D02*
X15698000Y-19100000D01*
X15798000Y-19050000D02*
G75*
G03*
X15798000Y-19050000I-50000J0D01*
G01*
X21540000Y-14174000D02*
X21640000Y-14274000D01*
X21640000Y-14174000D02*
X21540000Y-14274000D01*
X21640000Y-14224000D02*
G75*
G03*
X21640000Y-14224000I-50000J0D01*
G01*
X21540000Y-19000000D02*
X21640000Y-19100000D01*
X21640000Y-19000000D02*
X21540000Y-19100000D01*
X21640000Y-19050000D02*
G75*
G03*
X21640000Y-19050000I-50000J0D01*
G01*
X21794000Y-14174000D02*
X21894000Y-14274000D01*
X21894000Y-14174000D02*
X21794000Y-14274000D01*
X21894000Y-14224000D02*
G75*
G03*
X21894000Y-14224000I-50000J0D01*
G01*
X21794000Y-19000000D02*
X21894000Y-19100000D01*
X21894000Y-19000000D02*
X21794000Y-19100000D01*
X21894000Y-19050000D02*
G75*
G03*
X21894000Y-19050000I-50000J0D01*
G01*
X22048000Y-14174000D02*
X22148000Y-14274000D01*
X22148000Y-14174000D02*
X22048000Y-14274000D01*
X22148000Y-14224000D02*
G75*
G03*
X22148000Y-14224000I-50000J0D01*
G01*
X22048000Y-19000000D02*
X22148000Y-19100000D01*
X22148000Y-19000000D02*
X22048000Y-19100000D01*
X22148000Y-19050000D02*
G75*
G03*
X22148000Y-19050000I-50000J0D01*
G01*
X22302000Y-14174000D02*
X22402000Y-14274000D01*
X22402000Y-14174000D02*
X22302000Y-14274000D01*
X22402000Y-14224000D02*
G75*
G03*
X22402000Y-14224000I-50000J0D01*
G01*
X22302000Y-19000000D02*
X22402000Y-19100000D01*
X22402000Y-19000000D02*
X22302000Y-19100000D01*
X22402000Y-19050000D02*
G75*
G03*
X22402000Y-19050000I-50000J0D01*
G01*
X22556000Y-14174000D02*
X22656000Y-14274000D01*
X22656000Y-14174000D02*
X22556000Y-14274000D01*
X22656000Y-14224000D02*
G75*
G03*
X22656000Y-14224000I-50000J0D01*
G01*
X22556000Y-19000000D02*
X22656000Y-19100000D01*
X22656000Y-19000000D02*
X22556000Y-19100000D01*
X22656000Y-19050000D02*
G75*
G03*
X22656000Y-19050000I-50000J0D01*
G01*
X25604000Y-14174000D02*
X25704000Y-14274000D01*
X25704000Y-14174000D02*
X25604000Y-14274000D01*
X25704000Y-14224000D02*
G75*
G03*
X25704000Y-14224000I-50000J0D01*
G01*
X25604000Y-19000000D02*
X25704000Y-19100000D01*
X25704000Y-19000000D02*
X25604000Y-19100000D01*
X25704000Y-19050000D02*
G75*
G03*
X25704000Y-19050000I-50000J0D01*
G01*
X25858000Y-14174000D02*
X25958000Y-14274000D01*
X25958000Y-14174000D02*
X25858000Y-14274000D01*
X25958000Y-14224000D02*
G75*
G03*
X25958000Y-14224000I-50000J0D01*
G01*
X25858000Y-19000000D02*
X25958000Y-19100000D01*
X25958000Y-19000000D02*
X25858000Y-19100000D01*
X25958000Y-19050000D02*
G75*
G03*
X25958000Y-19050000I-50000J0D01*
G01*
X26112000Y-14174000D02*
X26212000Y-14274000D01*
X26212000Y-14174000D02*
X26112000Y-14274000D01*
X26212000Y-14224000D02*
G75*
G03*
X26212000Y-14224000I-50000J0D01*
G01*
X26112000Y-19000000D02*
X26212000Y-19100000D01*
X26212000Y-19000000D02*
X26112000Y-19100000D01*
X26212000Y-19050000D02*
G75*
G03*
X26212000Y-19050000I-50000J0D01*
G01*
X26366000Y-14174000D02*
X26466000Y-14274000D01*
X26466000Y-14174000D02*
X26366000Y-14274000D01*
X26466000Y-14224000D02*
G75*
G03*
X26466000Y-14224000I-50000J0D01*
G01*
X26366000Y-19000000D02*
X26466000Y-19100000D01*
X26466000Y-19000000D02*
X26366000Y-19100000D01*
X26466000Y-19050000D02*
G75*
G03*
X26466000Y-19050000I-50000J0D01*
G01*
X26620000Y-14174000D02*
X26720000Y-14274000D01*
X26720000Y-14174000D02*
X26620000Y-14274000D01*
X26720000Y-14224000D02*
G75*
G03*
X26720000Y-14224000I-50000J0D01*
G01*
X26620000Y-19000000D02*
X26720000Y-19100000D01*
X26720000Y-19000000D02*
X26620000Y-19100000D01*
X26720000Y-19050000D02*
G75*
G03*
X26720000Y-19050000I-50000J0D01*
G01*
D12*
X30100000Y-12801000D02*
X30210000Y-12911000D01*
X30210000Y-12801000D02*
X30100000Y-12911000D01*
X30155000Y-12801000D02*
X30155000Y-12911000D01*
X30100000Y-12856000D02*
X30210000Y-12856000D01*
X30100000Y-13251000D02*
X30210000Y-13361000D01*
X30210000Y-13251000D02*
X30100000Y-13361000D01*
X30155000Y-13251000D02*
X30155000Y-13361000D01*
X30100000Y-13306000D02*
X30210000Y-13306000D01*
X30750000Y-12801000D02*
X30860000Y-12911000D01*
X30860000Y-12801000D02*
X30750000Y-12911000D01*
X30805000Y-12801000D02*
X30805000Y-12911000D01*
X30750000Y-12856000D02*
X30860000Y-12856000D01*
X30750000Y-13251000D02*
X30860000Y-13361000D01*
X30860000Y-13251000D02*
X30750000Y-13361000D01*
X30805000Y-13251000D02*
X30805000Y-13361000D01*
X30750000Y-13306000D02*
X30860000Y-13306000D01*
D13*
X10010000Y-14817000D02*
X10130000Y-14937000D01*
X10130000Y-14817000D02*
X10010000Y-14937000D01*
X10112427Y-14919427D02*
X10112427Y-14834573D01*
X10027573Y-14834573D01*
X10027573Y-14919427D01*
X10112427Y-14919427D01*
X10264000Y-14817000D02*
X10384000Y-14937000D01*
X10384000Y-14817000D02*
X10264000Y-14937000D01*
X10366427Y-14919427D02*
X10366427Y-14834573D01*
X10281573Y-14834573D01*
X10281573Y-14919427D01*
X10366427Y-14919427D01*
X10518000Y-14817000D02*
X10638000Y-14937000D01*
X10638000Y-14817000D02*
X10518000Y-14937000D01*
X10620427Y-14919427D02*
X10620427Y-14834573D01*
X10535573Y-14834573D01*
X10535573Y-14919427D01*
X10620427Y-14919427D01*
X10772000Y-14817000D02*
X10892000Y-14937000D01*
X10892000Y-14817000D02*
X10772000Y-14937000D01*
X10874427Y-14919427D02*
X10874427Y-14834573D01*
X10789573Y-14834573D01*
X10789573Y-14919427D01*
X10874427Y-14919427D01*
X11026000Y-14817000D02*
X11146000Y-14937000D01*
X11146000Y-14817000D02*
X11026000Y-14937000D01*
X11128427Y-14919427D02*
X11128427Y-14834573D01*
X11043573Y-14834573D01*
X11043573Y-14919427D01*
X11128427Y-14919427D01*
X11026000Y-17067000D02*
X11146000Y-17187000D01*
X11146000Y-17067000D02*
X11026000Y-17187000D01*
X11128427Y-17169427D02*
X11128427Y-17084573D01*
X11043573Y-17084573D01*
X11043573Y-17169427D01*
X11128427Y-17169427D01*
X11280000Y-14817000D02*
X11400000Y-14937000D01*
X11400000Y-14817000D02*
X11280000Y-14937000D01*
X11382427Y-14919427D02*
X11382427Y-14834573D01*
X11297573Y-14834573D01*
X11297573Y-14919427D01*
X11382427Y-14919427D01*
X11280000Y-17067000D02*
X11400000Y-17187000D01*
X11400000Y-17067000D02*
X11280000Y-17187000D01*
X11382427Y-17169427D02*
X11382427Y-17084573D01*
X11297573Y-17084573D01*
X11297573Y-17169427D01*
X11382427Y-17169427D01*
X11534000Y-14817000D02*
X11654000Y-14937000D01*
X11654000Y-14817000D02*
X11534000Y-14937000D01*
X11636427Y-14919427D02*
X11636427Y-14834573D01*
X11551573Y-14834573D01*
X11551573Y-14919427D01*
X11636427Y-14919427D01*
X11534000Y-17067000D02*
X11654000Y-17187000D01*
X11654000Y-17067000D02*
X11534000Y-17187000D01*
X11636427Y-17169427D02*
X11636427Y-17084573D01*
X11551573Y-17084573D01*
X11551573Y-17169427D01*
X11636427Y-17169427D01*
X11788000Y-14817000D02*
X11908000Y-14937000D01*
X11908000Y-14817000D02*
X11788000Y-14937000D01*
X11890427Y-14919427D02*
X11890427Y-14834573D01*
X11805573Y-14834573D01*
X11805573Y-14919427D01*
X11890427Y-14919427D01*
X11788000Y-17067000D02*
X11908000Y-17187000D01*
X11908000Y-17067000D02*
X11788000Y-17187000D01*
X11890427Y-17169427D02*
X11890427Y-17084573D01*
X11805573Y-17084573D01*
X11805573Y-17169427D01*
X11890427Y-17169427D01*
X12042000Y-14817000D02*
X12162000Y-14937000D01*
X12162000Y-14817000D02*
X12042000Y-14937000D01*
X12144427Y-14919427D02*
X12144427Y-14834573D01*
X12059573Y-14834573D01*
X12059573Y-14919427D01*
X12144427Y-14919427D01*
X12042000Y-17067000D02*
X12162000Y-17187000D01*
X12162000Y-17067000D02*
X12042000Y-17187000D01*
X12144427Y-17169427D02*
X12144427Y-17084573D01*
X12059573Y-17084573D01*
X12059573Y-17169427D01*
X12144427Y-17169427D01*
X12296000Y-14817000D02*
X12416000Y-14937000D01*
X12416000Y-14817000D02*
X12296000Y-14937000D01*
X12398427Y-14919427D02*
X12398427Y-14834573D01*
X12313573Y-14834573D01*
X12313573Y-14919427D01*
X12398427Y-14919427D01*
X12296000Y-17067000D02*
X12416000Y-17187000D01*
X12416000Y-17067000D02*
X12296000Y-17187000D01*
X12398427Y-17169427D02*
X12398427Y-17084573D01*
X12313573Y-17084573D01*
X12313573Y-17169427D01*
X12398427Y-17169427D01*
X12550000Y-14817000D02*
X12670000Y-14937000D01*
X12670000Y-14817000D02*
X12550000Y-14937000D01*
X12652427Y-14919427D02*
X12652427Y-14834573D01*
X12567573Y-14834573D01*
X12567573Y-14919427D01*
X12652427Y-14919427D01*
X12550000Y-17067000D02*
X12670000Y-17187000D01*
X12670000Y-17067000D02*
X12550000Y-17187000D01*
X12652427Y-17169427D02*
X12652427Y-17084573D01*
X12567573Y-17084573D01*
X12567573Y-17169427D01*
X12652427Y-17169427D01*
X12804000Y-14817000D02*
X12924000Y-14937000D01*
X12924000Y-14817000D02*
X12804000Y-14937000D01*
X12906427Y-14919427D02*
X12906427Y-14834573D01*
X12821573Y-14834573D01*
X12821573Y-14919427D01*
X12906427Y-14919427D01*
X12804000Y-17067000D02*
X12924000Y-17187000D01*
X12924000Y-17067000D02*
X12804000Y-17187000D01*
X12906427Y-17169427D02*
X12906427Y-17084573D01*
X12821573Y-17084573D01*
X12821573Y-17169427D01*
X12906427Y-17169427D01*
X13058000Y-14817000D02*
X13178000Y-14937000D01*
X13178000Y-14817000D02*
X13058000Y-14937000D01*
X13160427Y-14919427D02*
X13160427Y-14834573D01*
X13075573Y-14834573D01*
X13075573Y-14919427D01*
X13160427Y-14919427D01*
X13058000Y-17067000D02*
X13178000Y-17187000D01*
X13178000Y-17067000D02*
X13058000Y-17187000D01*
X13160427Y-17169427D02*
X13160427Y-17084573D01*
X13075573Y-17084573D01*
X13075573Y-17169427D01*
X13160427Y-17169427D01*
X13312000Y-14817000D02*
X13432000Y-14937000D01*
X13432000Y-14817000D02*
X13312000Y-14937000D01*
X13414427Y-14919427D02*
X13414427Y-14834573D01*
X13329573Y-14834573D01*
X13329573Y-14919427D01*
X13414427Y-14919427D01*
X13312000Y-17067000D02*
X13432000Y-17187000D01*
X13432000Y-17067000D02*
X13312000Y-17187000D01*
X13414427Y-17169427D02*
X13414427Y-17084573D01*
X13329573Y-17084573D01*
X13329573Y-17169427D01*
X13414427Y-17169427D01*
X13566000Y-14817000D02*
X13686000Y-14937000D01*
X13686000Y-14817000D02*
X13566000Y-14937000D01*
X13668427Y-14919427D02*
X13668427Y-14834573D01*
X13583573Y-14834573D01*
X13583573Y-14919427D01*
X13668427Y-14919427D01*
X13566000Y-17067000D02*
X13686000Y-17187000D01*
X13686000Y-17067000D02*
X13566000Y-17187000D01*
X13668427Y-17169427D02*
X13668427Y-17084573D01*
X13583573Y-17084573D01*
X13583573Y-17169427D01*
X13668427Y-17169427D01*
X13820000Y-14817000D02*
X13940000Y-14937000D01*
X13940000Y-14817000D02*
X13820000Y-14937000D01*
X13922427Y-14919427D02*
X13922427Y-14834573D01*
X13837573Y-14834573D01*
X13837573Y-14919427D01*
X13922427Y-14919427D01*
X13820000Y-17067000D02*
X13940000Y-17187000D01*
X13940000Y-17067000D02*
X13820000Y-17187000D01*
X13922427Y-17169427D02*
X13922427Y-17084573D01*
X13837573Y-17084573D01*
X13837573Y-17169427D01*
X13922427Y-17169427D01*
X14074000Y-14817000D02*
X14194000Y-14937000D01*
X14194000Y-14817000D02*
X14074000Y-14937000D01*
X14176427Y-14919427D02*
X14176427Y-14834573D01*
X14091573Y-14834573D01*
X14091573Y-14919427D01*
X14176427Y-14919427D01*
X14074000Y-17067000D02*
X14194000Y-17187000D01*
X14194000Y-17067000D02*
X14074000Y-17187000D01*
X14176427Y-17169427D02*
X14176427Y-17084573D01*
X14091573Y-17084573D01*
X14091573Y-17169427D01*
X14176427Y-17169427D01*
X14328000Y-14817000D02*
X14448000Y-14937000D01*
X14448000Y-14817000D02*
X14328000Y-14937000D01*
X14430427Y-14919427D02*
X14430427Y-14834573D01*
X14345573Y-14834573D01*
X14345573Y-14919427D01*
X14430427Y-14919427D01*
X14328000Y-17067000D02*
X14448000Y-17187000D01*
X14448000Y-17067000D02*
X14328000Y-17187000D01*
X14430427Y-17169427D02*
X14430427Y-17084573D01*
X14345573Y-17084573D01*
X14345573Y-17169427D01*
X14430427Y-17169427D01*
D10*
X9140777Y-22165484D02*
X9140777Y-21965484D01*
X9140777Y-21965484D02*
X9188396Y-21965484D01*
X9188396Y-21965484D02*
X9216967Y-21975008D01*
X9216967Y-21975008D02*
X9236015Y-21994055D01*
X9236015Y-21994055D02*
X9245539Y-22013103D01*
X9245539Y-22013103D02*
X9255063Y-22051198D01*
X9255063Y-22051198D02*
X9255063Y-22079770D01*
X9255063Y-22079770D02*
X9245539Y-22117865D01*
X9245539Y-22117865D02*
X9236015Y-22136912D01*
X9236015Y-22136912D02*
X9216967Y-22155960D01*
X9216967Y-22155960D02*
X9188396Y-22165484D01*
X9188396Y-22165484D02*
X9140777Y-22165484D01*
X9340777Y-22165484D02*
X9340777Y-22032150D01*
X9340777Y-22070246D02*
X9350301Y-22051198D01*
X9350301Y-22051198D02*
X9359824Y-22041674D01*
X9359824Y-22041674D02*
X9378872Y-22032150D01*
X9378872Y-22032150D02*
X9397920Y-22032150D01*
X9464586Y-22165484D02*
X9464586Y-22032150D01*
X9464586Y-21965484D02*
X9455063Y-21975008D01*
X9455063Y-21975008D02*
X9464586Y-21984531D01*
X9464586Y-21984531D02*
X9474110Y-21975008D01*
X9474110Y-21975008D02*
X9464586Y-21965484D01*
X9464586Y-21965484D02*
X9464586Y-21984531D01*
X9588396Y-22165484D02*
X9569348Y-22155960D01*
X9569348Y-22155960D02*
X9559824Y-22136912D01*
X9559824Y-22136912D02*
X9559824Y-21965484D01*
X9693158Y-22165484D02*
X9674110Y-22155960D01*
X9674110Y-22155960D02*
X9664586Y-22136912D01*
X9664586Y-22136912D02*
X9664586Y-21965484D01*
X9921729Y-22165484D02*
X9921729Y-21965484D01*
X9921729Y-21965484D02*
X9988396Y-22108341D01*
X9988396Y-22108341D02*
X10055063Y-21965484D01*
X10055063Y-21965484D02*
X10055063Y-22165484D01*
X10236015Y-22165484D02*
X10236015Y-22060722D01*
X10236015Y-22060722D02*
X10226491Y-22041674D01*
X10226491Y-22041674D02*
X10207444Y-22032150D01*
X10207444Y-22032150D02*
X10169348Y-22032150D01*
X10169348Y-22032150D02*
X10150301Y-22041674D01*
X10236015Y-22155960D02*
X10216967Y-22165484D01*
X10216967Y-22165484D02*
X10169348Y-22165484D01*
X10169348Y-22165484D02*
X10150301Y-22155960D01*
X10150301Y-22155960D02*
X10140777Y-22136912D01*
X10140777Y-22136912D02*
X10140777Y-22117865D01*
X10140777Y-22117865D02*
X10150301Y-22098817D01*
X10150301Y-22098817D02*
X10169348Y-22089293D01*
X10169348Y-22089293D02*
X10216967Y-22089293D01*
X10216967Y-22089293D02*
X10236015Y-22079770D01*
X10331253Y-22032150D02*
X10331253Y-22232150D01*
X10331253Y-22041674D02*
X10350301Y-22032150D01*
X10350301Y-22032150D02*
X10388396Y-22032150D01*
X10388396Y-22032150D02*
X10407444Y-22041674D01*
X10407444Y-22041674D02*
X10416967Y-22051198D01*
X10416967Y-22051198D02*
X10426491Y-22070246D01*
X10426491Y-22070246D02*
X10426491Y-22127389D01*
X10426491Y-22127389D02*
X10416967Y-22146436D01*
X10416967Y-22146436D02*
X10407444Y-22155960D01*
X10407444Y-22155960D02*
X10388396Y-22165484D01*
X10388396Y-22165484D02*
X10350301Y-22165484D01*
X10350301Y-22165484D02*
X10331253Y-22155960D01*
X10512205Y-22146436D02*
X10521729Y-22155960D01*
X10521729Y-22155960D02*
X10512205Y-22165484D01*
X10512205Y-22165484D02*
X10502682Y-22155960D01*
X10502682Y-22155960D02*
X10512205Y-22146436D01*
X10512205Y-22146436D02*
X10512205Y-22165484D01*
X10512205Y-22041674D02*
X10521729Y-22051198D01*
X10521729Y-22051198D02*
X10512205Y-22060722D01*
X10512205Y-22060722D02*
X10502682Y-22051198D01*
X10502682Y-22051198D02*
X10512205Y-22041674D01*
X10512205Y-22041674D02*
X10512205Y-22060722D01*
D11*
X8840000Y-22474000D02*
X8880000Y-22514000D01*
X8880000Y-22474000D02*
X8840000Y-22514000D01*
D10*
X9178872Y-22385484D02*
X9197920Y-22385484D01*
X9197920Y-22385484D02*
X9216967Y-22395008D01*
X9216967Y-22395008D02*
X9226491Y-22404531D01*
X9226491Y-22404531D02*
X9236015Y-22423579D01*
X9236015Y-22423579D02*
X9245539Y-22461674D01*
X9245539Y-22461674D02*
X9245539Y-22509293D01*
X9245539Y-22509293D02*
X9236015Y-22547388D01*
X9236015Y-22547388D02*
X9226491Y-22566436D01*
X9226491Y-22566436D02*
X9216967Y-22575960D01*
X9216967Y-22575960D02*
X9197920Y-22585484D01*
X9197920Y-22585484D02*
X9178872Y-22585484D01*
X9178872Y-22585484D02*
X9159824Y-22575960D01*
X9159824Y-22575960D02*
X9150301Y-22566436D01*
X9150301Y-22566436D02*
X9140777Y-22547388D01*
X9140777Y-22547388D02*
X9131253Y-22509293D01*
X9131253Y-22509293D02*
X9131253Y-22461674D01*
X9131253Y-22461674D02*
X9140777Y-22423579D01*
X9140777Y-22423579D02*
X9150301Y-22404531D01*
X9150301Y-22404531D02*
X9159824Y-22395008D01*
X9159824Y-22395008D02*
X9178872Y-22385484D01*
X9331253Y-22566436D02*
X9340777Y-22575960D01*
X9340777Y-22575960D02*
X9331253Y-22585484D01*
X9331253Y-22585484D02*
X9321729Y-22575960D01*
X9321729Y-22575960D02*
X9331253Y-22566436D01*
X9331253Y-22566436D02*
X9331253Y-22585484D01*
X9512205Y-22452150D02*
X9512205Y-22585484D01*
X9464586Y-22375960D02*
X9416967Y-22518817D01*
X9416967Y-22518817D02*
X9540777Y-22518817D01*
X9655063Y-22385484D02*
X9674110Y-22385484D01*
X9674110Y-22385484D02*
X9693158Y-22395008D01*
X9693158Y-22395008D02*
X9702682Y-22404531D01*
X9702682Y-22404531D02*
X9712205Y-22423579D01*
X9712205Y-22423579D02*
X9721729Y-22461674D01*
X9721729Y-22461674D02*
X9721729Y-22509293D01*
X9721729Y-22509293D02*
X9712205Y-22547388D01*
X9712205Y-22547388D02*
X9702682Y-22566436D01*
X9702682Y-22566436D02*
X9693158Y-22575960D01*
X9693158Y-22575960D02*
X9674110Y-22585484D01*
X9674110Y-22585484D02*
X9655063Y-22585484D01*
X9655063Y-22585484D02*
X9636015Y-22575960D01*
X9636015Y-22575960D02*
X9626491Y-22566436D01*
X9626491Y-22566436D02*
X9616967Y-22547388D01*
X9616967Y-22547388D02*
X9607444Y-22509293D01*
X9607444Y-22509293D02*
X9607444Y-22461674D01*
X9607444Y-22461674D02*
X9616967Y-22423579D01*
X9616967Y-22423579D02*
X9626491Y-22404531D01*
X9626491Y-22404531D02*
X9636015Y-22395008D01*
X9636015Y-22395008D02*
X9655063Y-22385484D01*
X9845539Y-22385484D02*
X9864586Y-22385484D01*
X9864586Y-22385484D02*
X9883634Y-22395008D01*
X9883634Y-22395008D02*
X9893158Y-22404531D01*
X9893158Y-22404531D02*
X9902682Y-22423579D01*
X9902682Y-22423579D02*
X9912205Y-22461674D01*
X9912205Y-22461674D02*
X9912205Y-22509293D01*
X9912205Y-22509293D02*
X9902682Y-22547388D01*
X9902682Y-22547388D02*
X9893158Y-22566436D01*
X9893158Y-22566436D02*
X9883634Y-22575960D01*
X9883634Y-22575960D02*
X9864586Y-22585484D01*
X9864586Y-22585484D02*
X9845539Y-22585484D01*
X9845539Y-22585484D02*
X9826491Y-22575960D01*
X9826491Y-22575960D02*
X9816967Y-22566436D01*
X9816967Y-22566436D02*
X9807444Y-22547388D01*
X9807444Y-22547388D02*
X9797920Y-22509293D01*
X9797920Y-22509293D02*
X9797920Y-22461674D01*
X9797920Y-22461674D02*
X9807444Y-22423579D01*
X9807444Y-22423579D02*
X9816967Y-22404531D01*
X9816967Y-22404531D02*
X9826491Y-22395008D01*
X9826491Y-22395008D02*
X9845539Y-22385484D01*
X9997920Y-22585484D02*
X9997920Y-22452150D01*
X9997920Y-22471198D02*
X10007444Y-22461674D01*
X10007444Y-22461674D02*
X10026491Y-22452150D01*
X10026491Y-22452150D02*
X10055063Y-22452150D01*
X10055063Y-22452150D02*
X10074110Y-22461674D01*
X10074110Y-22461674D02*
X10083634Y-22480722D01*
X10083634Y-22480722D02*
X10083634Y-22585484D01*
X10083634Y-22480722D02*
X10093158Y-22461674D01*
X10093158Y-22461674D02*
X10112205Y-22452150D01*
X10112205Y-22452150D02*
X10140777Y-22452150D01*
X10140777Y-22452150D02*
X10159825Y-22461674D01*
X10159825Y-22461674D02*
X10169348Y-22480722D01*
X10169348Y-22480722D02*
X10169348Y-22585484D01*
X10264586Y-22585484D02*
X10264586Y-22452150D01*
X10264586Y-22471198D02*
X10274110Y-22461674D01*
X10274110Y-22461674D02*
X10293158Y-22452150D01*
X10293158Y-22452150D02*
X10321729Y-22452150D01*
X10321729Y-22452150D02*
X10340777Y-22461674D01*
X10340777Y-22461674D02*
X10350301Y-22480722D01*
X10350301Y-22480722D02*
X10350301Y-22585484D01*
X10350301Y-22480722D02*
X10359825Y-22461674D01*
X10359825Y-22461674D02*
X10378872Y-22452150D01*
X10378872Y-22452150D02*
X10407444Y-22452150D01*
X10407444Y-22452150D02*
X10426491Y-22461674D01*
X10426491Y-22461674D02*
X10436015Y-22480722D01*
X10436015Y-22480722D02*
X10436015Y-22585484D01*
X10826491Y-22375960D02*
X10655063Y-22633103D01*
X11083634Y-22385484D02*
X11102682Y-22385484D01*
X11102682Y-22385484D02*
X11121729Y-22395008D01*
X11121729Y-22395008D02*
X11131253Y-22404531D01*
X11131253Y-22404531D02*
X11140777Y-22423579D01*
X11140777Y-22423579D02*
X11150301Y-22461674D01*
X11150301Y-22461674D02*
X11150301Y-22509293D01*
X11150301Y-22509293D02*
X11140777Y-22547388D01*
X11140777Y-22547388D02*
X11131253Y-22566436D01*
X11131253Y-22566436D02*
X11121729Y-22575960D01*
X11121729Y-22575960D02*
X11102682Y-22585484D01*
X11102682Y-22585484D02*
X11083634Y-22585484D01*
X11083634Y-22585484D02*
X11064587Y-22575960D01*
X11064587Y-22575960D02*
X11055063Y-22566436D01*
X11055063Y-22566436D02*
X11045539Y-22547388D01*
X11045539Y-22547388D02*
X11036015Y-22509293D01*
X11036015Y-22509293D02*
X11036015Y-22461674D01*
X11036015Y-22461674D02*
X11045539Y-22423579D01*
X11045539Y-22423579D02*
X11055063Y-22404531D01*
X11055063Y-22404531D02*
X11064587Y-22395008D01*
X11064587Y-22395008D02*
X11083634Y-22385484D01*
X11236015Y-22566436D02*
X11245539Y-22575960D01*
X11245539Y-22575960D02*
X11236015Y-22585484D01*
X11236015Y-22585484D02*
X11226491Y-22575960D01*
X11226491Y-22575960D02*
X11236015Y-22566436D01*
X11236015Y-22566436D02*
X11236015Y-22585484D01*
X11369348Y-22385484D02*
X11388396Y-22385484D01*
X11388396Y-22385484D02*
X11407444Y-22395008D01*
X11407444Y-22395008D02*
X11416967Y-22404531D01*
X11416967Y-22404531D02*
X11426491Y-22423579D01*
X11426491Y-22423579D02*
X11436015Y-22461674D01*
X11436015Y-22461674D02*
X11436015Y-22509293D01*
X11436015Y-22509293D02*
X11426491Y-22547388D01*
X11426491Y-22547388D02*
X11416967Y-22566436D01*
X11416967Y-22566436D02*
X11407444Y-22575960D01*
X11407444Y-22575960D02*
X11388396Y-22585484D01*
X11388396Y-22585484D02*
X11369348Y-22585484D01*
X11369348Y-22585484D02*
X11350301Y-22575960D01*
X11350301Y-22575960D02*
X11340777Y-22566436D01*
X11340777Y-22566436D02*
X11331253Y-22547388D01*
X11331253Y-22547388D02*
X11321729Y-22509293D01*
X11321729Y-22509293D02*
X11321729Y-22461674D01*
X11321729Y-22461674D02*
X11331253Y-22423579D01*
X11331253Y-22423579D02*
X11340777Y-22404531D01*
X11340777Y-22404531D02*
X11350301Y-22395008D01*
X11350301Y-22395008D02*
X11369348Y-22385484D01*
X11626491Y-22585484D02*
X11512206Y-22585484D01*
X11569348Y-22585484D02*
X11569348Y-22385484D01*
X11569348Y-22385484D02*
X11550301Y-22414055D01*
X11550301Y-22414055D02*
X11531253Y-22433103D01*
X11531253Y-22433103D02*
X11512206Y-22442627D01*
X11807444Y-22385484D02*
X11712206Y-22385484D01*
X11712206Y-22385484D02*
X11702682Y-22480722D01*
X11702682Y-22480722D02*
X11712206Y-22471198D01*
X11712206Y-22471198D02*
X11731253Y-22461674D01*
X11731253Y-22461674D02*
X11778872Y-22461674D01*
X11778872Y-22461674D02*
X11797920Y-22471198D01*
X11797920Y-22471198D02*
X11807444Y-22480722D01*
X11807444Y-22480722D02*
X11816967Y-22499769D01*
X11816967Y-22499769D02*
X11816967Y-22547388D01*
X11816967Y-22547388D02*
X11807444Y-22566436D01*
X11807444Y-22566436D02*
X11797920Y-22575960D01*
X11797920Y-22575960D02*
X11778872Y-22585484D01*
X11778872Y-22585484D02*
X11731253Y-22585484D01*
X11731253Y-22585484D02*
X11712206Y-22575960D01*
X11712206Y-22575960D02*
X11702682Y-22566436D01*
X11883634Y-22385484D02*
X12016967Y-22385484D01*
X12016967Y-22385484D02*
X11931253Y-22585484D01*
X12083634Y-22385484D02*
X12083634Y-22423579D01*
X12159825Y-22385484D02*
X12159825Y-22423579D01*
X12455063Y-22661674D02*
X12445539Y-22652150D01*
X12445539Y-22652150D02*
X12426491Y-22623579D01*
X12426491Y-22623579D02*
X12416968Y-22604531D01*
X12416968Y-22604531D02*
X12407444Y-22575960D01*
X12407444Y-22575960D02*
X12397920Y-22528341D01*
X12397920Y-22528341D02*
X12397920Y-22490246D01*
X12397920Y-22490246D02*
X12407444Y-22442627D01*
X12407444Y-22442627D02*
X12416968Y-22414055D01*
X12416968Y-22414055D02*
X12426491Y-22395008D01*
X12426491Y-22395008D02*
X12445539Y-22366436D01*
X12445539Y-22366436D02*
X12455063Y-22356912D01*
X12512206Y-22385484D02*
X12636015Y-22385484D01*
X12636015Y-22385484D02*
X12569348Y-22461674D01*
X12569348Y-22461674D02*
X12597920Y-22461674D01*
X12597920Y-22461674D02*
X12616968Y-22471198D01*
X12616968Y-22471198D02*
X12626491Y-22480722D01*
X12626491Y-22480722D02*
X12636015Y-22499769D01*
X12636015Y-22499769D02*
X12636015Y-22547388D01*
X12636015Y-22547388D02*
X12626491Y-22566436D01*
X12626491Y-22566436D02*
X12616968Y-22575960D01*
X12616968Y-22575960D02*
X12597920Y-22585484D01*
X12597920Y-22585484D02*
X12540777Y-22585484D01*
X12540777Y-22585484D02*
X12521729Y-22575960D01*
X12521729Y-22575960D02*
X12512206Y-22566436D01*
X12712206Y-22404531D02*
X12721729Y-22395008D01*
X12721729Y-22395008D02*
X12740777Y-22385484D01*
X12740777Y-22385484D02*
X12788396Y-22385484D01*
X12788396Y-22385484D02*
X12807444Y-22395008D01*
X12807444Y-22395008D02*
X12816968Y-22404531D01*
X12816968Y-22404531D02*
X12826491Y-22423579D01*
X12826491Y-22423579D02*
X12826491Y-22442627D01*
X12826491Y-22442627D02*
X12816968Y-22471198D01*
X12816968Y-22471198D02*
X12702682Y-22585484D01*
X12702682Y-22585484D02*
X12826491Y-22585484D01*
X13064587Y-22585484D02*
X13064587Y-22385484D01*
X13150301Y-22585484D02*
X13150301Y-22480722D01*
X13150301Y-22480722D02*
X13140777Y-22461674D01*
X13140777Y-22461674D02*
X13121730Y-22452150D01*
X13121730Y-22452150D02*
X13093158Y-22452150D01*
X13093158Y-22452150D02*
X13074110Y-22461674D01*
X13074110Y-22461674D02*
X13064587Y-22471198D01*
X13274110Y-22585484D02*
X13255063Y-22575960D01*
X13255063Y-22575960D02*
X13245539Y-22566436D01*
X13245539Y-22566436D02*
X13236015Y-22547388D01*
X13236015Y-22547388D02*
X13236015Y-22490246D01*
X13236015Y-22490246D02*
X13245539Y-22471198D01*
X13245539Y-22471198D02*
X13255063Y-22461674D01*
X13255063Y-22461674D02*
X13274110Y-22452150D01*
X13274110Y-22452150D02*
X13302682Y-22452150D01*
X13302682Y-22452150D02*
X13321730Y-22461674D01*
X13321730Y-22461674D02*
X13331253Y-22471198D01*
X13331253Y-22471198D02*
X13340777Y-22490246D01*
X13340777Y-22490246D02*
X13340777Y-22547388D01*
X13340777Y-22547388D02*
X13331253Y-22566436D01*
X13331253Y-22566436D02*
X13321730Y-22575960D01*
X13321730Y-22575960D02*
X13302682Y-22585484D01*
X13302682Y-22585484D02*
X13274110Y-22585484D01*
X13455063Y-22585484D02*
X13436015Y-22575960D01*
X13436015Y-22575960D02*
X13426491Y-22556912D01*
X13426491Y-22556912D02*
X13426491Y-22385484D01*
X13607444Y-22575960D02*
X13588396Y-22585484D01*
X13588396Y-22585484D02*
X13550301Y-22585484D01*
X13550301Y-22585484D02*
X13531253Y-22575960D01*
X13531253Y-22575960D02*
X13521730Y-22556912D01*
X13521730Y-22556912D02*
X13521730Y-22480722D01*
X13521730Y-22480722D02*
X13531253Y-22461674D01*
X13531253Y-22461674D02*
X13550301Y-22452150D01*
X13550301Y-22452150D02*
X13588396Y-22452150D01*
X13588396Y-22452150D02*
X13607444Y-22461674D01*
X13607444Y-22461674D02*
X13616968Y-22480722D01*
X13616968Y-22480722D02*
X13616968Y-22499769D01*
X13616968Y-22499769D02*
X13521730Y-22518817D01*
X13693158Y-22575960D02*
X13712206Y-22585484D01*
X13712206Y-22585484D02*
X13750301Y-22585484D01*
X13750301Y-22585484D02*
X13769349Y-22575960D01*
X13769349Y-22575960D02*
X13778872Y-22556912D01*
X13778872Y-22556912D02*
X13778872Y-22547388D01*
X13778872Y-22547388D02*
X13769349Y-22528341D01*
X13769349Y-22528341D02*
X13750301Y-22518817D01*
X13750301Y-22518817D02*
X13721730Y-22518817D01*
X13721730Y-22518817D02*
X13702682Y-22509293D01*
X13702682Y-22509293D02*
X13693158Y-22490246D01*
X13693158Y-22490246D02*
X13693158Y-22480722D01*
X13693158Y-22480722D02*
X13702682Y-22461674D01*
X13702682Y-22461674D02*
X13721730Y-22452150D01*
X13721730Y-22452150D02*
X13750301Y-22452150D01*
X13750301Y-22452150D02*
X13769349Y-22461674D01*
X13845539Y-22661674D02*
X13855063Y-22652150D01*
X13855063Y-22652150D02*
X13874111Y-22623579D01*
X13874111Y-22623579D02*
X13883634Y-22604531D01*
X13883634Y-22604531D02*
X13893158Y-22575960D01*
X13893158Y-22575960D02*
X13902682Y-22528341D01*
X13902682Y-22528341D02*
X13902682Y-22490246D01*
X13902682Y-22490246D02*
X13893158Y-22442627D01*
X13893158Y-22442627D02*
X13883634Y-22414055D01*
X13883634Y-22414055D02*
X13874111Y-22395008D01*
X13874111Y-22395008D02*
X13855063Y-22366436D01*
X13855063Y-22366436D02*
X13845539Y-22356912D01*
D11*
X8880000Y-22758000D02*
G75*
G03*
X8880000Y-22758000I-37500J0D01*
G01*
D10*
X9178872Y-22649484D02*
X9197920Y-22649484D01*
X9197920Y-22649484D02*
X9216967Y-22659008D01*
X9216967Y-22659008D02*
X9226491Y-22668531D01*
X9226491Y-22668531D02*
X9236015Y-22687579D01*
X9236015Y-22687579D02*
X9245539Y-22725674D01*
X9245539Y-22725674D02*
X9245539Y-22773293D01*
X9245539Y-22773293D02*
X9236015Y-22811388D01*
X9236015Y-22811388D02*
X9226491Y-22830436D01*
X9226491Y-22830436D02*
X9216967Y-22839960D01*
X9216967Y-22839960D02*
X9197920Y-22849484D01*
X9197920Y-22849484D02*
X9178872Y-22849484D01*
X9178872Y-22849484D02*
X9159824Y-22839960D01*
X9159824Y-22839960D02*
X9150301Y-22830436D01*
X9150301Y-22830436D02*
X9140777Y-22811388D01*
X9140777Y-22811388D02*
X9131253Y-22773293D01*
X9131253Y-22773293D02*
X9131253Y-22725674D01*
X9131253Y-22725674D02*
X9140777Y-22687579D01*
X9140777Y-22687579D02*
X9150301Y-22668531D01*
X9150301Y-22668531D02*
X9159824Y-22659008D01*
X9159824Y-22659008D02*
X9178872Y-22649484D01*
X9331253Y-22830436D02*
X9340777Y-22839960D01*
X9340777Y-22839960D02*
X9331253Y-22849484D01*
X9331253Y-22849484D02*
X9321729Y-22839960D01*
X9321729Y-22839960D02*
X9331253Y-22830436D01*
X9331253Y-22830436D02*
X9331253Y-22849484D01*
X9407444Y-22649484D02*
X9540777Y-22649484D01*
X9540777Y-22649484D02*
X9455063Y-22849484D01*
X9712205Y-22649484D02*
X9616967Y-22649484D01*
X9616967Y-22649484D02*
X9607444Y-22744722D01*
X9607444Y-22744722D02*
X9616967Y-22735198D01*
X9616967Y-22735198D02*
X9636015Y-22725674D01*
X9636015Y-22725674D02*
X9683634Y-22725674D01*
X9683634Y-22725674D02*
X9702682Y-22735198D01*
X9702682Y-22735198D02*
X9712205Y-22744722D01*
X9712205Y-22744722D02*
X9721729Y-22763769D01*
X9721729Y-22763769D02*
X9721729Y-22811388D01*
X9721729Y-22811388D02*
X9712205Y-22830436D01*
X9712205Y-22830436D02*
X9702682Y-22839960D01*
X9702682Y-22839960D02*
X9683634Y-22849484D01*
X9683634Y-22849484D02*
X9636015Y-22849484D01*
X9636015Y-22849484D02*
X9616967Y-22839960D01*
X9616967Y-22839960D02*
X9607444Y-22830436D01*
X9845539Y-22649484D02*
X9864586Y-22649484D01*
X9864586Y-22649484D02*
X9883634Y-22659008D01*
X9883634Y-22659008D02*
X9893158Y-22668531D01*
X9893158Y-22668531D02*
X9902682Y-22687579D01*
X9902682Y-22687579D02*
X9912205Y-22725674D01*
X9912205Y-22725674D02*
X9912205Y-22773293D01*
X9912205Y-22773293D02*
X9902682Y-22811388D01*
X9902682Y-22811388D02*
X9893158Y-22830436D01*
X9893158Y-22830436D02*
X9883634Y-22839960D01*
X9883634Y-22839960D02*
X9864586Y-22849484D01*
X9864586Y-22849484D02*
X9845539Y-22849484D01*
X9845539Y-22849484D02*
X9826491Y-22839960D01*
X9826491Y-22839960D02*
X9816967Y-22830436D01*
X9816967Y-22830436D02*
X9807444Y-22811388D01*
X9807444Y-22811388D02*
X9797920Y-22773293D01*
X9797920Y-22773293D02*
X9797920Y-22725674D01*
X9797920Y-22725674D02*
X9807444Y-22687579D01*
X9807444Y-22687579D02*
X9816967Y-22668531D01*
X9816967Y-22668531D02*
X9826491Y-22659008D01*
X9826491Y-22659008D02*
X9845539Y-22649484D01*
X9997920Y-22849484D02*
X9997920Y-22716150D01*
X9997920Y-22735198D02*
X10007444Y-22725674D01*
X10007444Y-22725674D02*
X10026491Y-22716150D01*
X10026491Y-22716150D02*
X10055063Y-22716150D01*
X10055063Y-22716150D02*
X10074110Y-22725674D01*
X10074110Y-22725674D02*
X10083634Y-22744722D01*
X10083634Y-22744722D02*
X10083634Y-22849484D01*
X10083634Y-22744722D02*
X10093158Y-22725674D01*
X10093158Y-22725674D02*
X10112205Y-22716150D01*
X10112205Y-22716150D02*
X10140777Y-22716150D01*
X10140777Y-22716150D02*
X10159825Y-22725674D01*
X10159825Y-22725674D02*
X10169348Y-22744722D01*
X10169348Y-22744722D02*
X10169348Y-22849484D01*
X10264586Y-22849484D02*
X10264586Y-22716150D01*
X10264586Y-22735198D02*
X10274110Y-22725674D01*
X10274110Y-22725674D02*
X10293158Y-22716150D01*
X10293158Y-22716150D02*
X10321729Y-22716150D01*
X10321729Y-22716150D02*
X10340777Y-22725674D01*
X10340777Y-22725674D02*
X10350301Y-22744722D01*
X10350301Y-22744722D02*
X10350301Y-22849484D01*
X10350301Y-22744722D02*
X10359825Y-22725674D01*
X10359825Y-22725674D02*
X10378872Y-22716150D01*
X10378872Y-22716150D02*
X10407444Y-22716150D01*
X10407444Y-22716150D02*
X10426491Y-22725674D01*
X10426491Y-22725674D02*
X10436015Y-22744722D01*
X10436015Y-22744722D02*
X10436015Y-22849484D01*
X10826491Y-22639960D02*
X10655063Y-22897103D01*
X11083634Y-22649484D02*
X11102682Y-22649484D01*
X11102682Y-22649484D02*
X11121729Y-22659008D01*
X11121729Y-22659008D02*
X11131253Y-22668531D01*
X11131253Y-22668531D02*
X11140777Y-22687579D01*
X11140777Y-22687579D02*
X11150301Y-22725674D01*
X11150301Y-22725674D02*
X11150301Y-22773293D01*
X11150301Y-22773293D02*
X11140777Y-22811388D01*
X11140777Y-22811388D02*
X11131253Y-22830436D01*
X11131253Y-22830436D02*
X11121729Y-22839960D01*
X11121729Y-22839960D02*
X11102682Y-22849484D01*
X11102682Y-22849484D02*
X11083634Y-22849484D01*
X11083634Y-22849484D02*
X11064587Y-22839960D01*
X11064587Y-22839960D02*
X11055063Y-22830436D01*
X11055063Y-22830436D02*
X11045539Y-22811388D01*
X11045539Y-22811388D02*
X11036015Y-22773293D01*
X11036015Y-22773293D02*
X11036015Y-22725674D01*
X11036015Y-22725674D02*
X11045539Y-22687579D01*
X11045539Y-22687579D02*
X11055063Y-22668531D01*
X11055063Y-22668531D02*
X11064587Y-22659008D01*
X11064587Y-22659008D02*
X11083634Y-22649484D01*
X11236015Y-22830436D02*
X11245539Y-22839960D01*
X11245539Y-22839960D02*
X11236015Y-22849484D01*
X11236015Y-22849484D02*
X11226491Y-22839960D01*
X11226491Y-22839960D02*
X11236015Y-22830436D01*
X11236015Y-22830436D02*
X11236015Y-22849484D01*
X11369348Y-22649484D02*
X11388396Y-22649484D01*
X11388396Y-22649484D02*
X11407444Y-22659008D01*
X11407444Y-22659008D02*
X11416967Y-22668531D01*
X11416967Y-22668531D02*
X11426491Y-22687579D01*
X11426491Y-22687579D02*
X11436015Y-22725674D01*
X11436015Y-22725674D02*
X11436015Y-22773293D01*
X11436015Y-22773293D02*
X11426491Y-22811388D01*
X11426491Y-22811388D02*
X11416967Y-22830436D01*
X11416967Y-22830436D02*
X11407444Y-22839960D01*
X11407444Y-22839960D02*
X11388396Y-22849484D01*
X11388396Y-22849484D02*
X11369348Y-22849484D01*
X11369348Y-22849484D02*
X11350301Y-22839960D01*
X11350301Y-22839960D02*
X11340777Y-22830436D01*
X11340777Y-22830436D02*
X11331253Y-22811388D01*
X11331253Y-22811388D02*
X11321729Y-22773293D01*
X11321729Y-22773293D02*
X11321729Y-22725674D01*
X11321729Y-22725674D02*
X11331253Y-22687579D01*
X11331253Y-22687579D02*
X11340777Y-22668531D01*
X11340777Y-22668531D02*
X11350301Y-22659008D01*
X11350301Y-22659008D02*
X11369348Y-22649484D01*
X11512206Y-22668531D02*
X11521729Y-22659008D01*
X11521729Y-22659008D02*
X11540777Y-22649484D01*
X11540777Y-22649484D02*
X11588396Y-22649484D01*
X11588396Y-22649484D02*
X11607444Y-22659008D01*
X11607444Y-22659008D02*
X11616967Y-22668531D01*
X11616967Y-22668531D02*
X11626491Y-22687579D01*
X11626491Y-22687579D02*
X11626491Y-22706627D01*
X11626491Y-22706627D02*
X11616967Y-22735198D01*
X11616967Y-22735198D02*
X11502682Y-22849484D01*
X11502682Y-22849484D02*
X11626491Y-22849484D01*
X11721729Y-22849484D02*
X11759825Y-22849484D01*
X11759825Y-22849484D02*
X11778872Y-22839960D01*
X11778872Y-22839960D02*
X11788396Y-22830436D01*
X11788396Y-22830436D02*
X11807444Y-22801865D01*
X11807444Y-22801865D02*
X11816967Y-22763769D01*
X11816967Y-22763769D02*
X11816967Y-22687579D01*
X11816967Y-22687579D02*
X11807444Y-22668531D01*
X11807444Y-22668531D02*
X11797920Y-22659008D01*
X11797920Y-22659008D02*
X11778872Y-22649484D01*
X11778872Y-22649484D02*
X11740777Y-22649484D01*
X11740777Y-22649484D02*
X11721729Y-22659008D01*
X11721729Y-22659008D02*
X11712206Y-22668531D01*
X11712206Y-22668531D02*
X11702682Y-22687579D01*
X11702682Y-22687579D02*
X11702682Y-22735198D01*
X11702682Y-22735198D02*
X11712206Y-22754246D01*
X11712206Y-22754246D02*
X11721729Y-22763769D01*
X11721729Y-22763769D02*
X11740777Y-22773293D01*
X11740777Y-22773293D02*
X11778872Y-22773293D01*
X11778872Y-22773293D02*
X11797920Y-22763769D01*
X11797920Y-22763769D02*
X11807444Y-22754246D01*
X11807444Y-22754246D02*
X11816967Y-22735198D01*
X11997920Y-22649484D02*
X11902682Y-22649484D01*
X11902682Y-22649484D02*
X11893158Y-22744722D01*
X11893158Y-22744722D02*
X11902682Y-22735198D01*
X11902682Y-22735198D02*
X11921729Y-22725674D01*
X11921729Y-22725674D02*
X11969348Y-22725674D01*
X11969348Y-22725674D02*
X11988396Y-22735198D01*
X11988396Y-22735198D02*
X11997920Y-22744722D01*
X11997920Y-22744722D02*
X12007444Y-22763769D01*
X12007444Y-22763769D02*
X12007444Y-22811388D01*
X12007444Y-22811388D02*
X11997920Y-22830436D01*
X11997920Y-22830436D02*
X11988396Y-22839960D01*
X11988396Y-22839960D02*
X11969348Y-22849484D01*
X11969348Y-22849484D02*
X11921729Y-22849484D01*
X11921729Y-22849484D02*
X11902682Y-22839960D01*
X11902682Y-22839960D02*
X11893158Y-22830436D01*
X12083634Y-22649484D02*
X12083634Y-22687579D01*
X12159825Y-22649484D02*
X12159825Y-22687579D01*
X12455063Y-22925674D02*
X12445539Y-22916150D01*
X12445539Y-22916150D02*
X12426491Y-22887579D01*
X12426491Y-22887579D02*
X12416968Y-22868531D01*
X12416968Y-22868531D02*
X12407444Y-22839960D01*
X12407444Y-22839960D02*
X12397920Y-22792341D01*
X12397920Y-22792341D02*
X12397920Y-22754246D01*
X12397920Y-22754246D02*
X12407444Y-22706627D01*
X12407444Y-22706627D02*
X12416968Y-22678055D01*
X12416968Y-22678055D02*
X12426491Y-22659008D01*
X12426491Y-22659008D02*
X12445539Y-22630436D01*
X12445539Y-22630436D02*
X12455063Y-22620912D01*
X12521729Y-22668531D02*
X12531253Y-22659008D01*
X12531253Y-22659008D02*
X12550301Y-22649484D01*
X12550301Y-22649484D02*
X12597920Y-22649484D01*
X12597920Y-22649484D02*
X12616968Y-22659008D01*
X12616968Y-22659008D02*
X12626491Y-22668531D01*
X12626491Y-22668531D02*
X12636015Y-22687579D01*
X12636015Y-22687579D02*
X12636015Y-22706627D01*
X12636015Y-22706627D02*
X12626491Y-22735198D01*
X12626491Y-22735198D02*
X12512206Y-22849484D01*
X12512206Y-22849484D02*
X12636015Y-22849484D01*
X12826491Y-22849484D02*
X12712206Y-22849484D01*
X12769348Y-22849484D02*
X12769348Y-22649484D01*
X12769348Y-22649484D02*
X12750301Y-22678055D01*
X12750301Y-22678055D02*
X12731253Y-22697103D01*
X12731253Y-22697103D02*
X12712206Y-22706627D01*
X13064587Y-22849484D02*
X13064587Y-22649484D01*
X13150301Y-22849484D02*
X13150301Y-22744722D01*
X13150301Y-22744722D02*
X13140777Y-22725674D01*
X13140777Y-22725674D02*
X13121730Y-22716150D01*
X13121730Y-22716150D02*
X13093158Y-22716150D01*
X13093158Y-22716150D02*
X13074110Y-22725674D01*
X13074110Y-22725674D02*
X13064587Y-22735198D01*
X13274110Y-22849484D02*
X13255063Y-22839960D01*
X13255063Y-22839960D02*
X13245539Y-22830436D01*
X13245539Y-22830436D02*
X13236015Y-22811388D01*
X13236015Y-22811388D02*
X13236015Y-22754246D01*
X13236015Y-22754246D02*
X13245539Y-22735198D01*
X13245539Y-22735198D02*
X13255063Y-22725674D01*
X13255063Y-22725674D02*
X13274110Y-22716150D01*
X13274110Y-22716150D02*
X13302682Y-22716150D01*
X13302682Y-22716150D02*
X13321730Y-22725674D01*
X13321730Y-22725674D02*
X13331253Y-22735198D01*
X13331253Y-22735198D02*
X13340777Y-22754246D01*
X13340777Y-22754246D02*
X13340777Y-22811388D01*
X13340777Y-22811388D02*
X13331253Y-22830436D01*
X13331253Y-22830436D02*
X13321730Y-22839960D01*
X13321730Y-22839960D02*
X13302682Y-22849484D01*
X13302682Y-22849484D02*
X13274110Y-22849484D01*
X13455063Y-22849484D02*
X13436015Y-22839960D01*
X13436015Y-22839960D02*
X13426491Y-22820912D01*
X13426491Y-22820912D02*
X13426491Y-22649484D01*
X13607444Y-22839960D02*
X13588396Y-22849484D01*
X13588396Y-22849484D02*
X13550301Y-22849484D01*
X13550301Y-22849484D02*
X13531253Y-22839960D01*
X13531253Y-22839960D02*
X13521730Y-22820912D01*
X13521730Y-22820912D02*
X13521730Y-22744722D01*
X13521730Y-22744722D02*
X13531253Y-22725674D01*
X13531253Y-22725674D02*
X13550301Y-22716150D01*
X13550301Y-22716150D02*
X13588396Y-22716150D01*
X13588396Y-22716150D02*
X13607444Y-22725674D01*
X13607444Y-22725674D02*
X13616968Y-22744722D01*
X13616968Y-22744722D02*
X13616968Y-22763769D01*
X13616968Y-22763769D02*
X13521730Y-22782817D01*
X13693158Y-22839960D02*
X13712206Y-22849484D01*
X13712206Y-22849484D02*
X13750301Y-22849484D01*
X13750301Y-22849484D02*
X13769349Y-22839960D01*
X13769349Y-22839960D02*
X13778872Y-22820912D01*
X13778872Y-22820912D02*
X13778872Y-22811388D01*
X13778872Y-22811388D02*
X13769349Y-22792341D01*
X13769349Y-22792341D02*
X13750301Y-22782817D01*
X13750301Y-22782817D02*
X13721730Y-22782817D01*
X13721730Y-22782817D02*
X13702682Y-22773293D01*
X13702682Y-22773293D02*
X13693158Y-22754246D01*
X13693158Y-22754246D02*
X13693158Y-22744722D01*
X13693158Y-22744722D02*
X13702682Y-22725674D01*
X13702682Y-22725674D02*
X13721730Y-22716150D01*
X13721730Y-22716150D02*
X13750301Y-22716150D01*
X13750301Y-22716150D02*
X13769349Y-22725674D01*
X13845539Y-22925674D02*
X13855063Y-22916150D01*
X13855063Y-22916150D02*
X13874111Y-22887579D01*
X13874111Y-22887579D02*
X13883634Y-22868531D01*
X13883634Y-22868531D02*
X13893158Y-22839960D01*
X13893158Y-22839960D02*
X13902682Y-22792341D01*
X13902682Y-22792341D02*
X13902682Y-22754246D01*
X13902682Y-22754246D02*
X13893158Y-22706627D01*
X13893158Y-22706627D02*
X13883634Y-22678055D01*
X13883634Y-22678055D02*
X13874111Y-22659008D01*
X13874111Y-22659008D02*
X13855063Y-22630436D01*
X13855063Y-22630436D02*
X13845539Y-22620912D01*
D11*
X8841900Y-22983900D02*
X8841900Y-23060100D01*
X8803800Y-23022000D02*
X8880000Y-23022000D01*
D10*
X9178872Y-22913484D02*
X9197920Y-22913484D01*
X9197920Y-22913484D02*
X9216967Y-22923008D01*
X9216967Y-22923008D02*
X9226491Y-22932531D01*
X9226491Y-22932531D02*
X9236015Y-22951579D01*
X9236015Y-22951579D02*
X9245539Y-22989674D01*
X9245539Y-22989674D02*
X9245539Y-23037293D01*
X9245539Y-23037293D02*
X9236015Y-23075388D01*
X9236015Y-23075388D02*
X9226491Y-23094436D01*
X9226491Y-23094436D02*
X9216967Y-23103960D01*
X9216967Y-23103960D02*
X9197920Y-23113484D01*
X9197920Y-23113484D02*
X9178872Y-23113484D01*
X9178872Y-23113484D02*
X9159824Y-23103960D01*
X9159824Y-23103960D02*
X9150301Y-23094436D01*
X9150301Y-23094436D02*
X9140777Y-23075388D01*
X9140777Y-23075388D02*
X9131253Y-23037293D01*
X9131253Y-23037293D02*
X9131253Y-22989674D01*
X9131253Y-22989674D02*
X9140777Y-22951579D01*
X9140777Y-22951579D02*
X9150301Y-22932531D01*
X9150301Y-22932531D02*
X9159824Y-22923008D01*
X9159824Y-22923008D02*
X9178872Y-22913484D01*
X9331253Y-23094436D02*
X9340777Y-23103960D01*
X9340777Y-23103960D02*
X9331253Y-23113484D01*
X9331253Y-23113484D02*
X9321729Y-23103960D01*
X9321729Y-23103960D02*
X9331253Y-23094436D01*
X9331253Y-23094436D02*
X9331253Y-23113484D01*
X9407444Y-22913484D02*
X9540777Y-22913484D01*
X9540777Y-22913484D02*
X9455063Y-23113484D01*
X9702682Y-22913484D02*
X9664586Y-22913484D01*
X9664586Y-22913484D02*
X9645539Y-22923008D01*
X9645539Y-22923008D02*
X9636015Y-22932531D01*
X9636015Y-22932531D02*
X9616967Y-22961103D01*
X9616967Y-22961103D02*
X9607444Y-22999198D01*
X9607444Y-22999198D02*
X9607444Y-23075388D01*
X9607444Y-23075388D02*
X9616967Y-23094436D01*
X9616967Y-23094436D02*
X9626491Y-23103960D01*
X9626491Y-23103960D02*
X9645539Y-23113484D01*
X9645539Y-23113484D02*
X9683634Y-23113484D01*
X9683634Y-23113484D02*
X9702682Y-23103960D01*
X9702682Y-23103960D02*
X9712205Y-23094436D01*
X9712205Y-23094436D02*
X9721729Y-23075388D01*
X9721729Y-23075388D02*
X9721729Y-23027769D01*
X9721729Y-23027769D02*
X9712205Y-23008722D01*
X9712205Y-23008722D02*
X9702682Y-22999198D01*
X9702682Y-22999198D02*
X9683634Y-22989674D01*
X9683634Y-22989674D02*
X9645539Y-22989674D01*
X9645539Y-22989674D02*
X9626491Y-22999198D01*
X9626491Y-22999198D02*
X9616967Y-23008722D01*
X9616967Y-23008722D02*
X9607444Y-23027769D01*
X9797920Y-22932531D02*
X9807444Y-22923008D01*
X9807444Y-22923008D02*
X9826491Y-22913484D01*
X9826491Y-22913484D02*
X9874110Y-22913484D01*
X9874110Y-22913484D02*
X9893158Y-22923008D01*
X9893158Y-22923008D02*
X9902682Y-22932531D01*
X9902682Y-22932531D02*
X9912205Y-22951579D01*
X9912205Y-22951579D02*
X9912205Y-22970627D01*
X9912205Y-22970627D02*
X9902682Y-22999198D01*
X9902682Y-22999198D02*
X9788396Y-23113484D01*
X9788396Y-23113484D02*
X9912205Y-23113484D01*
X9997920Y-23113484D02*
X9997920Y-22980150D01*
X9997920Y-22999198D02*
X10007444Y-22989674D01*
X10007444Y-22989674D02*
X10026491Y-22980150D01*
X10026491Y-22980150D02*
X10055063Y-22980150D01*
X10055063Y-22980150D02*
X10074110Y-22989674D01*
X10074110Y-22989674D02*
X10083634Y-23008722D01*
X10083634Y-23008722D02*
X10083634Y-23113484D01*
X10083634Y-23008722D02*
X10093158Y-22989674D01*
X10093158Y-22989674D02*
X10112205Y-22980150D01*
X10112205Y-22980150D02*
X10140777Y-22980150D01*
X10140777Y-22980150D02*
X10159825Y-22989674D01*
X10159825Y-22989674D02*
X10169348Y-23008722D01*
X10169348Y-23008722D02*
X10169348Y-23113484D01*
X10264586Y-23113484D02*
X10264586Y-22980150D01*
X10264586Y-22999198D02*
X10274110Y-22989674D01*
X10274110Y-22989674D02*
X10293158Y-22980150D01*
X10293158Y-22980150D02*
X10321729Y-22980150D01*
X10321729Y-22980150D02*
X10340777Y-22989674D01*
X10340777Y-22989674D02*
X10350301Y-23008722D01*
X10350301Y-23008722D02*
X10350301Y-23113484D01*
X10350301Y-23008722D02*
X10359825Y-22989674D01*
X10359825Y-22989674D02*
X10378872Y-22980150D01*
X10378872Y-22980150D02*
X10407444Y-22980150D01*
X10407444Y-22980150D02*
X10426491Y-22989674D01*
X10426491Y-22989674D02*
X10436015Y-23008722D01*
X10436015Y-23008722D02*
X10436015Y-23113484D01*
X10826491Y-22903960D02*
X10655063Y-23161103D01*
X11083634Y-22913484D02*
X11102682Y-22913484D01*
X11102682Y-22913484D02*
X11121729Y-22923008D01*
X11121729Y-22923008D02*
X11131253Y-22932531D01*
X11131253Y-22932531D02*
X11140777Y-22951579D01*
X11140777Y-22951579D02*
X11150301Y-22989674D01*
X11150301Y-22989674D02*
X11150301Y-23037293D01*
X11150301Y-23037293D02*
X11140777Y-23075388D01*
X11140777Y-23075388D02*
X11131253Y-23094436D01*
X11131253Y-23094436D02*
X11121729Y-23103960D01*
X11121729Y-23103960D02*
X11102682Y-23113484D01*
X11102682Y-23113484D02*
X11083634Y-23113484D01*
X11083634Y-23113484D02*
X11064587Y-23103960D01*
X11064587Y-23103960D02*
X11055063Y-23094436D01*
X11055063Y-23094436D02*
X11045539Y-23075388D01*
X11045539Y-23075388D02*
X11036015Y-23037293D01*
X11036015Y-23037293D02*
X11036015Y-22989674D01*
X11036015Y-22989674D02*
X11045539Y-22951579D01*
X11045539Y-22951579D02*
X11055063Y-22932531D01*
X11055063Y-22932531D02*
X11064587Y-22923008D01*
X11064587Y-22923008D02*
X11083634Y-22913484D01*
X11236015Y-23094436D02*
X11245539Y-23103960D01*
X11245539Y-23103960D02*
X11236015Y-23113484D01*
X11236015Y-23113484D02*
X11226491Y-23103960D01*
X11226491Y-23103960D02*
X11236015Y-23094436D01*
X11236015Y-23094436D02*
X11236015Y-23113484D01*
X11369348Y-22913484D02*
X11388396Y-22913484D01*
X11388396Y-22913484D02*
X11407444Y-22923008D01*
X11407444Y-22923008D02*
X11416967Y-22932531D01*
X11416967Y-22932531D02*
X11426491Y-22951579D01*
X11426491Y-22951579D02*
X11436015Y-22989674D01*
X11436015Y-22989674D02*
X11436015Y-23037293D01*
X11436015Y-23037293D02*
X11426491Y-23075388D01*
X11426491Y-23075388D02*
X11416967Y-23094436D01*
X11416967Y-23094436D02*
X11407444Y-23103960D01*
X11407444Y-23103960D02*
X11388396Y-23113484D01*
X11388396Y-23113484D02*
X11369348Y-23113484D01*
X11369348Y-23113484D02*
X11350301Y-23103960D01*
X11350301Y-23103960D02*
X11340777Y-23094436D01*
X11340777Y-23094436D02*
X11331253Y-23075388D01*
X11331253Y-23075388D02*
X11321729Y-23037293D01*
X11321729Y-23037293D02*
X11321729Y-22989674D01*
X11321729Y-22989674D02*
X11331253Y-22951579D01*
X11331253Y-22951579D02*
X11340777Y-22932531D01*
X11340777Y-22932531D02*
X11350301Y-22923008D01*
X11350301Y-22923008D02*
X11369348Y-22913484D01*
X11502682Y-22913484D02*
X11626491Y-22913484D01*
X11626491Y-22913484D02*
X11559825Y-22989674D01*
X11559825Y-22989674D02*
X11588396Y-22989674D01*
X11588396Y-22989674D02*
X11607444Y-22999198D01*
X11607444Y-22999198D02*
X11616967Y-23008722D01*
X11616967Y-23008722D02*
X11626491Y-23027769D01*
X11626491Y-23027769D02*
X11626491Y-23075388D01*
X11626491Y-23075388D02*
X11616967Y-23094436D01*
X11616967Y-23094436D02*
X11607444Y-23103960D01*
X11607444Y-23103960D02*
X11588396Y-23113484D01*
X11588396Y-23113484D02*
X11531253Y-23113484D01*
X11531253Y-23113484D02*
X11512206Y-23103960D01*
X11512206Y-23103960D02*
X11502682Y-23094436D01*
X11750301Y-22913484D02*
X11769348Y-22913484D01*
X11769348Y-22913484D02*
X11788396Y-22923008D01*
X11788396Y-22923008D02*
X11797920Y-22932531D01*
X11797920Y-22932531D02*
X11807444Y-22951579D01*
X11807444Y-22951579D02*
X11816967Y-22989674D01*
X11816967Y-22989674D02*
X11816967Y-23037293D01*
X11816967Y-23037293D02*
X11807444Y-23075388D01*
X11807444Y-23075388D02*
X11797920Y-23094436D01*
X11797920Y-23094436D02*
X11788396Y-23103960D01*
X11788396Y-23103960D02*
X11769348Y-23113484D01*
X11769348Y-23113484D02*
X11750301Y-23113484D01*
X11750301Y-23113484D02*
X11731253Y-23103960D01*
X11731253Y-23103960D02*
X11721729Y-23094436D01*
X11721729Y-23094436D02*
X11712206Y-23075388D01*
X11712206Y-23075388D02*
X11702682Y-23037293D01*
X11702682Y-23037293D02*
X11702682Y-22989674D01*
X11702682Y-22989674D02*
X11712206Y-22951579D01*
X11712206Y-22951579D02*
X11721729Y-22932531D01*
X11721729Y-22932531D02*
X11731253Y-22923008D01*
X11731253Y-22923008D02*
X11750301Y-22913484D01*
X11940777Y-22913484D02*
X11959825Y-22913484D01*
X11959825Y-22913484D02*
X11978872Y-22923008D01*
X11978872Y-22923008D02*
X11988396Y-22932531D01*
X11988396Y-22932531D02*
X11997920Y-22951579D01*
X11997920Y-22951579D02*
X12007444Y-22989674D01*
X12007444Y-22989674D02*
X12007444Y-23037293D01*
X12007444Y-23037293D02*
X11997920Y-23075388D01*
X11997920Y-23075388D02*
X11988396Y-23094436D01*
X11988396Y-23094436D02*
X11978872Y-23103960D01*
X11978872Y-23103960D02*
X11959825Y-23113484D01*
X11959825Y-23113484D02*
X11940777Y-23113484D01*
X11940777Y-23113484D02*
X11921729Y-23103960D01*
X11921729Y-23103960D02*
X11912206Y-23094436D01*
X11912206Y-23094436D02*
X11902682Y-23075388D01*
X11902682Y-23075388D02*
X11893158Y-23037293D01*
X11893158Y-23037293D02*
X11893158Y-22989674D01*
X11893158Y-22989674D02*
X11902682Y-22951579D01*
X11902682Y-22951579D02*
X11912206Y-22932531D01*
X11912206Y-22932531D02*
X11921729Y-22923008D01*
X11921729Y-22923008D02*
X11940777Y-22913484D01*
X12083634Y-22913484D02*
X12083634Y-22951579D01*
X12159825Y-22913484D02*
X12159825Y-22951579D01*
X12455063Y-23189674D02*
X12445539Y-23180150D01*
X12445539Y-23180150D02*
X12426491Y-23151579D01*
X12426491Y-23151579D02*
X12416968Y-23132531D01*
X12416968Y-23132531D02*
X12407444Y-23103960D01*
X12407444Y-23103960D02*
X12397920Y-23056341D01*
X12397920Y-23056341D02*
X12397920Y-23018246D01*
X12397920Y-23018246D02*
X12407444Y-22970627D01*
X12407444Y-22970627D02*
X12416968Y-22942055D01*
X12416968Y-22942055D02*
X12426491Y-22923008D01*
X12426491Y-22923008D02*
X12445539Y-22894436D01*
X12445539Y-22894436D02*
X12455063Y-22884912D01*
X12636015Y-23113484D02*
X12521729Y-23113484D01*
X12578872Y-23113484D02*
X12578872Y-22913484D01*
X12578872Y-22913484D02*
X12559825Y-22942055D01*
X12559825Y-22942055D02*
X12540777Y-22961103D01*
X12540777Y-22961103D02*
X12521729Y-22970627D01*
X12759825Y-22913484D02*
X12778872Y-22913484D01*
X12778872Y-22913484D02*
X12797920Y-22923008D01*
X12797920Y-22923008D02*
X12807444Y-22932531D01*
X12807444Y-22932531D02*
X12816968Y-22951579D01*
X12816968Y-22951579D02*
X12826491Y-22989674D01*
X12826491Y-22989674D02*
X12826491Y-23037293D01*
X12826491Y-23037293D02*
X12816968Y-23075388D01*
X12816968Y-23075388D02*
X12807444Y-23094436D01*
X12807444Y-23094436D02*
X12797920Y-23103960D01*
X12797920Y-23103960D02*
X12778872Y-23113484D01*
X12778872Y-23113484D02*
X12759825Y-23113484D01*
X12759825Y-23113484D02*
X12740777Y-23103960D01*
X12740777Y-23103960D02*
X12731253Y-23094436D01*
X12731253Y-23094436D02*
X12721729Y-23075388D01*
X12721729Y-23075388D02*
X12712206Y-23037293D01*
X12712206Y-23037293D02*
X12712206Y-22989674D01*
X12712206Y-22989674D02*
X12721729Y-22951579D01*
X12721729Y-22951579D02*
X12731253Y-22932531D01*
X12731253Y-22932531D02*
X12740777Y-22923008D01*
X12740777Y-22923008D02*
X12759825Y-22913484D01*
X12950301Y-22913484D02*
X12969349Y-22913484D01*
X12969349Y-22913484D02*
X12988396Y-22923008D01*
X12988396Y-22923008D02*
X12997920Y-22932531D01*
X12997920Y-22932531D02*
X13007444Y-22951579D01*
X13007444Y-22951579D02*
X13016968Y-22989674D01*
X13016968Y-22989674D02*
X13016968Y-23037293D01*
X13016968Y-23037293D02*
X13007444Y-23075388D01*
X13007444Y-23075388D02*
X12997920Y-23094436D01*
X12997920Y-23094436D02*
X12988396Y-23103960D01*
X12988396Y-23103960D02*
X12969349Y-23113484D01*
X12969349Y-23113484D02*
X12950301Y-23113484D01*
X12950301Y-23113484D02*
X12931253Y-23103960D01*
X12931253Y-23103960D02*
X12921729Y-23094436D01*
X12921729Y-23094436D02*
X12912206Y-23075388D01*
X12912206Y-23075388D02*
X12902682Y-23037293D01*
X12902682Y-23037293D02*
X12902682Y-22989674D01*
X12902682Y-22989674D02*
X12912206Y-22951579D01*
X12912206Y-22951579D02*
X12921729Y-22932531D01*
X12921729Y-22932531D02*
X12931253Y-22923008D01*
X12931253Y-22923008D02*
X12950301Y-22913484D01*
X13255063Y-23113484D02*
X13255063Y-22913484D01*
X13340777Y-23113484D02*
X13340777Y-23008722D01*
X13340777Y-23008722D02*
X13331253Y-22989674D01*
X13331253Y-22989674D02*
X13312206Y-22980150D01*
X13312206Y-22980150D02*
X13283634Y-22980150D01*
X13283634Y-22980150D02*
X13264587Y-22989674D01*
X13264587Y-22989674D02*
X13255063Y-22999198D01*
X13464587Y-23113484D02*
X13445539Y-23103960D01*
X13445539Y-23103960D02*
X13436015Y-23094436D01*
X13436015Y-23094436D02*
X13426491Y-23075388D01*
X13426491Y-23075388D02*
X13426491Y-23018246D01*
X13426491Y-23018246D02*
X13436015Y-22999198D01*
X13436015Y-22999198D02*
X13445539Y-22989674D01*
X13445539Y-22989674D02*
X13464587Y-22980150D01*
X13464587Y-22980150D02*
X13493158Y-22980150D01*
X13493158Y-22980150D02*
X13512206Y-22989674D01*
X13512206Y-22989674D02*
X13521730Y-22999198D01*
X13521730Y-22999198D02*
X13531253Y-23018246D01*
X13531253Y-23018246D02*
X13531253Y-23075388D01*
X13531253Y-23075388D02*
X13521730Y-23094436D01*
X13521730Y-23094436D02*
X13512206Y-23103960D01*
X13512206Y-23103960D02*
X13493158Y-23113484D01*
X13493158Y-23113484D02*
X13464587Y-23113484D01*
X13645539Y-23113484D02*
X13626491Y-23103960D01*
X13626491Y-23103960D02*
X13616968Y-23084912D01*
X13616968Y-23084912D02*
X13616968Y-22913484D01*
X13797920Y-23103960D02*
X13778872Y-23113484D01*
X13778872Y-23113484D02*
X13740777Y-23113484D01*
X13740777Y-23113484D02*
X13721730Y-23103960D01*
X13721730Y-23103960D02*
X13712206Y-23084912D01*
X13712206Y-23084912D02*
X13712206Y-23008722D01*
X13712206Y-23008722D02*
X13721730Y-22989674D01*
X13721730Y-22989674D02*
X13740777Y-22980150D01*
X13740777Y-22980150D02*
X13778872Y-22980150D01*
X13778872Y-22980150D02*
X13797920Y-22989674D01*
X13797920Y-22989674D02*
X13807444Y-23008722D01*
X13807444Y-23008722D02*
X13807444Y-23027769D01*
X13807444Y-23027769D02*
X13712206Y-23046817D01*
X13883634Y-23103960D02*
X13902682Y-23113484D01*
X13902682Y-23113484D02*
X13940777Y-23113484D01*
X13940777Y-23113484D02*
X13959825Y-23103960D01*
X13959825Y-23103960D02*
X13969349Y-23084912D01*
X13969349Y-23084912D02*
X13969349Y-23075388D01*
X13969349Y-23075388D02*
X13959825Y-23056341D01*
X13959825Y-23056341D02*
X13940777Y-23046817D01*
X13940777Y-23046817D02*
X13912206Y-23046817D01*
X13912206Y-23046817D02*
X13893158Y-23037293D01*
X13893158Y-23037293D02*
X13883634Y-23018246D01*
X13883634Y-23018246D02*
X13883634Y-23008722D01*
X13883634Y-23008722D02*
X13893158Y-22989674D01*
X13893158Y-22989674D02*
X13912206Y-22980150D01*
X13912206Y-22980150D02*
X13940777Y-22980150D01*
X13940777Y-22980150D02*
X13959825Y-22989674D01*
X14036015Y-23189674D02*
X14045539Y-23180150D01*
X14045539Y-23180150D02*
X14064587Y-23151579D01*
X14064587Y-23151579D02*
X14074111Y-23132531D01*
X14074111Y-23132531D02*
X14083634Y-23103960D01*
X14083634Y-23103960D02*
X14093158Y-23056341D01*
X14093158Y-23056341D02*
X14093158Y-23018246D01*
X14093158Y-23018246D02*
X14083634Y-22970627D01*
X14083634Y-22970627D02*
X14074111Y-22942055D01*
X14074111Y-22942055D02*
X14064587Y-22923008D01*
X14064587Y-22923008D02*
X14045539Y-22894436D01*
X14045539Y-22894436D02*
X14036015Y-22884912D01*
D11*
X8868285Y-23314284D02*
X8868285Y-23257715D01*
X8811716Y-23257715D01*
X8811716Y-23314284D01*
X8868285Y-23314284D01*
D10*
X9178872Y-23177484D02*
X9197920Y-23177484D01*
X9197920Y-23177484D02*
X9216967Y-23187008D01*
X9216967Y-23187008D02*
X9226491Y-23196531D01*
X9226491Y-23196531D02*
X9236015Y-23215579D01*
X9236015Y-23215579D02*
X9245539Y-23253674D01*
X9245539Y-23253674D02*
X9245539Y-23301293D01*
X9245539Y-23301293D02*
X9236015Y-23339388D01*
X9236015Y-23339388D02*
X9226491Y-23358436D01*
X9226491Y-23358436D02*
X9216967Y-23367960D01*
X9216967Y-23367960D02*
X9197920Y-23377484D01*
X9197920Y-23377484D02*
X9178872Y-23377484D01*
X9178872Y-23377484D02*
X9159824Y-23367960D01*
X9159824Y-23367960D02*
X9150301Y-23358436D01*
X9150301Y-23358436D02*
X9140777Y-23339388D01*
X9140777Y-23339388D02*
X9131253Y-23301293D01*
X9131253Y-23301293D02*
X9131253Y-23253674D01*
X9131253Y-23253674D02*
X9140777Y-23215579D01*
X9140777Y-23215579D02*
X9150301Y-23196531D01*
X9150301Y-23196531D02*
X9159824Y-23187008D01*
X9159824Y-23187008D02*
X9178872Y-23177484D01*
X9331253Y-23358436D02*
X9340777Y-23367960D01*
X9340777Y-23367960D02*
X9331253Y-23377484D01*
X9331253Y-23377484D02*
X9321729Y-23367960D01*
X9321729Y-23367960D02*
X9331253Y-23358436D01*
X9331253Y-23358436D02*
X9331253Y-23377484D01*
X9455063Y-23263198D02*
X9436015Y-23253674D01*
X9436015Y-23253674D02*
X9426491Y-23244150D01*
X9426491Y-23244150D02*
X9416967Y-23225103D01*
X9416967Y-23225103D02*
X9416967Y-23215579D01*
X9416967Y-23215579D02*
X9426491Y-23196531D01*
X9426491Y-23196531D02*
X9436015Y-23187008D01*
X9436015Y-23187008D02*
X9455063Y-23177484D01*
X9455063Y-23177484D02*
X9493158Y-23177484D01*
X9493158Y-23177484D02*
X9512205Y-23187008D01*
X9512205Y-23187008D02*
X9521729Y-23196531D01*
X9521729Y-23196531D02*
X9531253Y-23215579D01*
X9531253Y-23215579D02*
X9531253Y-23225103D01*
X9531253Y-23225103D02*
X9521729Y-23244150D01*
X9521729Y-23244150D02*
X9512205Y-23253674D01*
X9512205Y-23253674D02*
X9493158Y-23263198D01*
X9493158Y-23263198D02*
X9455063Y-23263198D01*
X9455063Y-23263198D02*
X9436015Y-23272722D01*
X9436015Y-23272722D02*
X9426491Y-23282246D01*
X9426491Y-23282246D02*
X9416967Y-23301293D01*
X9416967Y-23301293D02*
X9416967Y-23339388D01*
X9416967Y-23339388D02*
X9426491Y-23358436D01*
X9426491Y-23358436D02*
X9436015Y-23367960D01*
X9436015Y-23367960D02*
X9455063Y-23377484D01*
X9455063Y-23377484D02*
X9493158Y-23377484D01*
X9493158Y-23377484D02*
X9512205Y-23367960D01*
X9512205Y-23367960D02*
X9521729Y-23358436D01*
X9521729Y-23358436D02*
X9531253Y-23339388D01*
X9531253Y-23339388D02*
X9531253Y-23301293D01*
X9531253Y-23301293D02*
X9521729Y-23282246D01*
X9521729Y-23282246D02*
X9512205Y-23272722D01*
X9512205Y-23272722D02*
X9493158Y-23263198D01*
X9655063Y-23177484D02*
X9674110Y-23177484D01*
X9674110Y-23177484D02*
X9693158Y-23187008D01*
X9693158Y-23187008D02*
X9702682Y-23196531D01*
X9702682Y-23196531D02*
X9712205Y-23215579D01*
X9712205Y-23215579D02*
X9721729Y-23253674D01*
X9721729Y-23253674D02*
X9721729Y-23301293D01*
X9721729Y-23301293D02*
X9712205Y-23339388D01*
X9712205Y-23339388D02*
X9702682Y-23358436D01*
X9702682Y-23358436D02*
X9693158Y-23367960D01*
X9693158Y-23367960D02*
X9674110Y-23377484D01*
X9674110Y-23377484D02*
X9655063Y-23377484D01*
X9655063Y-23377484D02*
X9636015Y-23367960D01*
X9636015Y-23367960D02*
X9626491Y-23358436D01*
X9626491Y-23358436D02*
X9616967Y-23339388D01*
X9616967Y-23339388D02*
X9607444Y-23301293D01*
X9607444Y-23301293D02*
X9607444Y-23253674D01*
X9607444Y-23253674D02*
X9616967Y-23215579D01*
X9616967Y-23215579D02*
X9626491Y-23196531D01*
X9626491Y-23196531D02*
X9636015Y-23187008D01*
X9636015Y-23187008D02*
X9655063Y-23177484D01*
X9845539Y-23177484D02*
X9864586Y-23177484D01*
X9864586Y-23177484D02*
X9883634Y-23187008D01*
X9883634Y-23187008D02*
X9893158Y-23196531D01*
X9893158Y-23196531D02*
X9902682Y-23215579D01*
X9902682Y-23215579D02*
X9912205Y-23253674D01*
X9912205Y-23253674D02*
X9912205Y-23301293D01*
X9912205Y-23301293D02*
X9902682Y-23339388D01*
X9902682Y-23339388D02*
X9893158Y-23358436D01*
X9893158Y-23358436D02*
X9883634Y-23367960D01*
X9883634Y-23367960D02*
X9864586Y-23377484D01*
X9864586Y-23377484D02*
X9845539Y-23377484D01*
X9845539Y-23377484D02*
X9826491Y-23367960D01*
X9826491Y-23367960D02*
X9816967Y-23358436D01*
X9816967Y-23358436D02*
X9807444Y-23339388D01*
X9807444Y-23339388D02*
X9797920Y-23301293D01*
X9797920Y-23301293D02*
X9797920Y-23253674D01*
X9797920Y-23253674D02*
X9807444Y-23215579D01*
X9807444Y-23215579D02*
X9816967Y-23196531D01*
X9816967Y-23196531D02*
X9826491Y-23187008D01*
X9826491Y-23187008D02*
X9845539Y-23177484D01*
X9997920Y-23377484D02*
X9997920Y-23244150D01*
X9997920Y-23263198D02*
X10007444Y-23253674D01*
X10007444Y-23253674D02*
X10026491Y-23244150D01*
X10026491Y-23244150D02*
X10055063Y-23244150D01*
X10055063Y-23244150D02*
X10074110Y-23253674D01*
X10074110Y-23253674D02*
X10083634Y-23272722D01*
X10083634Y-23272722D02*
X10083634Y-23377484D01*
X10083634Y-23272722D02*
X10093158Y-23253674D01*
X10093158Y-23253674D02*
X10112205Y-23244150D01*
X10112205Y-23244150D02*
X10140777Y-23244150D01*
X10140777Y-23244150D02*
X10159825Y-23253674D01*
X10159825Y-23253674D02*
X10169348Y-23272722D01*
X10169348Y-23272722D02*
X10169348Y-23377484D01*
X10264586Y-23377484D02*
X10264586Y-23244150D01*
X10264586Y-23263198D02*
X10274110Y-23253674D01*
X10274110Y-23253674D02*
X10293158Y-23244150D01*
X10293158Y-23244150D02*
X10321729Y-23244150D01*
X10321729Y-23244150D02*
X10340777Y-23253674D01*
X10340777Y-23253674D02*
X10350301Y-23272722D01*
X10350301Y-23272722D02*
X10350301Y-23377484D01*
X10350301Y-23272722D02*
X10359825Y-23253674D01*
X10359825Y-23253674D02*
X10378872Y-23244150D01*
X10378872Y-23244150D02*
X10407444Y-23244150D01*
X10407444Y-23244150D02*
X10426491Y-23253674D01*
X10426491Y-23253674D02*
X10436015Y-23272722D01*
X10436015Y-23272722D02*
X10436015Y-23377484D01*
X10826491Y-23167960D02*
X10655063Y-23425103D01*
X11083634Y-23177484D02*
X11102682Y-23177484D01*
X11102682Y-23177484D02*
X11121729Y-23187008D01*
X11121729Y-23187008D02*
X11131253Y-23196531D01*
X11131253Y-23196531D02*
X11140777Y-23215579D01*
X11140777Y-23215579D02*
X11150301Y-23253674D01*
X11150301Y-23253674D02*
X11150301Y-23301293D01*
X11150301Y-23301293D02*
X11140777Y-23339388D01*
X11140777Y-23339388D02*
X11131253Y-23358436D01*
X11131253Y-23358436D02*
X11121729Y-23367960D01*
X11121729Y-23367960D02*
X11102682Y-23377484D01*
X11102682Y-23377484D02*
X11083634Y-23377484D01*
X11083634Y-23377484D02*
X11064587Y-23367960D01*
X11064587Y-23367960D02*
X11055063Y-23358436D01*
X11055063Y-23358436D02*
X11045539Y-23339388D01*
X11045539Y-23339388D02*
X11036015Y-23301293D01*
X11036015Y-23301293D02*
X11036015Y-23253674D01*
X11036015Y-23253674D02*
X11045539Y-23215579D01*
X11045539Y-23215579D02*
X11055063Y-23196531D01*
X11055063Y-23196531D02*
X11064587Y-23187008D01*
X11064587Y-23187008D02*
X11083634Y-23177484D01*
X11236015Y-23358436D02*
X11245539Y-23367960D01*
X11245539Y-23367960D02*
X11236015Y-23377484D01*
X11236015Y-23377484D02*
X11226491Y-23367960D01*
X11226491Y-23367960D02*
X11236015Y-23358436D01*
X11236015Y-23358436D02*
X11236015Y-23377484D01*
X11369348Y-23177484D02*
X11388396Y-23177484D01*
X11388396Y-23177484D02*
X11407444Y-23187008D01*
X11407444Y-23187008D02*
X11416967Y-23196531D01*
X11416967Y-23196531D02*
X11426491Y-23215579D01*
X11426491Y-23215579D02*
X11436015Y-23253674D01*
X11436015Y-23253674D02*
X11436015Y-23301293D01*
X11436015Y-23301293D02*
X11426491Y-23339388D01*
X11426491Y-23339388D02*
X11416967Y-23358436D01*
X11416967Y-23358436D02*
X11407444Y-23367960D01*
X11407444Y-23367960D02*
X11388396Y-23377484D01*
X11388396Y-23377484D02*
X11369348Y-23377484D01*
X11369348Y-23377484D02*
X11350301Y-23367960D01*
X11350301Y-23367960D02*
X11340777Y-23358436D01*
X11340777Y-23358436D02*
X11331253Y-23339388D01*
X11331253Y-23339388D02*
X11321729Y-23301293D01*
X11321729Y-23301293D02*
X11321729Y-23253674D01*
X11321729Y-23253674D02*
X11331253Y-23215579D01*
X11331253Y-23215579D02*
X11340777Y-23196531D01*
X11340777Y-23196531D02*
X11350301Y-23187008D01*
X11350301Y-23187008D02*
X11369348Y-23177484D01*
X11502682Y-23177484D02*
X11626491Y-23177484D01*
X11626491Y-23177484D02*
X11559825Y-23253674D01*
X11559825Y-23253674D02*
X11588396Y-23253674D01*
X11588396Y-23253674D02*
X11607444Y-23263198D01*
X11607444Y-23263198D02*
X11616967Y-23272722D01*
X11616967Y-23272722D02*
X11626491Y-23291769D01*
X11626491Y-23291769D02*
X11626491Y-23339388D01*
X11626491Y-23339388D02*
X11616967Y-23358436D01*
X11616967Y-23358436D02*
X11607444Y-23367960D01*
X11607444Y-23367960D02*
X11588396Y-23377484D01*
X11588396Y-23377484D02*
X11531253Y-23377484D01*
X11531253Y-23377484D02*
X11512206Y-23367960D01*
X11512206Y-23367960D02*
X11502682Y-23358436D01*
X11816967Y-23377484D02*
X11702682Y-23377484D01*
X11759825Y-23377484D02*
X11759825Y-23177484D01*
X11759825Y-23177484D02*
X11740777Y-23206055D01*
X11740777Y-23206055D02*
X11721729Y-23225103D01*
X11721729Y-23225103D02*
X11702682Y-23234627D01*
X11997920Y-23177484D02*
X11902682Y-23177484D01*
X11902682Y-23177484D02*
X11893158Y-23272722D01*
X11893158Y-23272722D02*
X11902682Y-23263198D01*
X11902682Y-23263198D02*
X11921729Y-23253674D01*
X11921729Y-23253674D02*
X11969348Y-23253674D01*
X11969348Y-23253674D02*
X11988396Y-23263198D01*
X11988396Y-23263198D02*
X11997920Y-23272722D01*
X11997920Y-23272722D02*
X12007444Y-23291769D01*
X12007444Y-23291769D02*
X12007444Y-23339388D01*
X12007444Y-23339388D02*
X11997920Y-23358436D01*
X11997920Y-23358436D02*
X11988396Y-23367960D01*
X11988396Y-23367960D02*
X11969348Y-23377484D01*
X11969348Y-23377484D02*
X11921729Y-23377484D01*
X11921729Y-23377484D02*
X11902682Y-23367960D01*
X11902682Y-23367960D02*
X11893158Y-23358436D01*
X12083634Y-23177484D02*
X12083634Y-23215579D01*
X12159825Y-23177484D02*
X12159825Y-23215579D01*
X12455063Y-23453674D02*
X12445539Y-23444150D01*
X12445539Y-23444150D02*
X12426491Y-23415579D01*
X12426491Y-23415579D02*
X12416968Y-23396531D01*
X12416968Y-23396531D02*
X12407444Y-23367960D01*
X12407444Y-23367960D02*
X12397920Y-23320341D01*
X12397920Y-23320341D02*
X12397920Y-23282246D01*
X12397920Y-23282246D02*
X12407444Y-23234627D01*
X12407444Y-23234627D02*
X12416968Y-23206055D01*
X12416968Y-23206055D02*
X12426491Y-23187008D01*
X12426491Y-23187008D02*
X12445539Y-23158436D01*
X12445539Y-23158436D02*
X12455063Y-23148912D01*
X12636015Y-23377484D02*
X12521729Y-23377484D01*
X12578872Y-23377484D02*
X12578872Y-23177484D01*
X12578872Y-23177484D02*
X12559825Y-23206055D01*
X12559825Y-23206055D02*
X12540777Y-23225103D01*
X12540777Y-23225103D02*
X12521729Y-23234627D01*
X12807444Y-23244150D02*
X12807444Y-23377484D01*
X12759825Y-23167960D02*
X12712206Y-23310817D01*
X12712206Y-23310817D02*
X12836015Y-23310817D01*
X12902682Y-23196531D02*
X12912206Y-23187008D01*
X12912206Y-23187008D02*
X12931253Y-23177484D01*
X12931253Y-23177484D02*
X12978872Y-23177484D01*
X12978872Y-23177484D02*
X12997920Y-23187008D01*
X12997920Y-23187008D02*
X13007444Y-23196531D01*
X13007444Y-23196531D02*
X13016968Y-23215579D01*
X13016968Y-23215579D02*
X13016968Y-23234627D01*
X13016968Y-23234627D02*
X13007444Y-23263198D01*
X13007444Y-23263198D02*
X12893158Y-23377484D01*
X12893158Y-23377484D02*
X13016968Y-23377484D01*
X13255063Y-23377484D02*
X13255063Y-23177484D01*
X13340777Y-23377484D02*
X13340777Y-23272722D01*
X13340777Y-23272722D02*
X13331253Y-23253674D01*
X13331253Y-23253674D02*
X13312206Y-23244150D01*
X13312206Y-23244150D02*
X13283634Y-23244150D01*
X13283634Y-23244150D02*
X13264587Y-23253674D01*
X13264587Y-23253674D02*
X13255063Y-23263198D01*
X13464587Y-23377484D02*
X13445539Y-23367960D01*
X13445539Y-23367960D02*
X13436015Y-23358436D01*
X13436015Y-23358436D02*
X13426491Y-23339388D01*
X13426491Y-23339388D02*
X13426491Y-23282246D01*
X13426491Y-23282246D02*
X13436015Y-23263198D01*
X13436015Y-23263198D02*
X13445539Y-23253674D01*
X13445539Y-23253674D02*
X13464587Y-23244150D01*
X13464587Y-23244150D02*
X13493158Y-23244150D01*
X13493158Y-23244150D02*
X13512206Y-23253674D01*
X13512206Y-23253674D02*
X13521730Y-23263198D01*
X13521730Y-23263198D02*
X13531253Y-23282246D01*
X13531253Y-23282246D02*
X13531253Y-23339388D01*
X13531253Y-23339388D02*
X13521730Y-23358436D01*
X13521730Y-23358436D02*
X13512206Y-23367960D01*
X13512206Y-23367960D02*
X13493158Y-23377484D01*
X13493158Y-23377484D02*
X13464587Y-23377484D01*
X13645539Y-23377484D02*
X13626491Y-23367960D01*
X13626491Y-23367960D02*
X13616968Y-23348912D01*
X13616968Y-23348912D02*
X13616968Y-23177484D01*
X13797920Y-23367960D02*
X13778872Y-23377484D01*
X13778872Y-23377484D02*
X13740777Y-23377484D01*
X13740777Y-23377484D02*
X13721730Y-23367960D01*
X13721730Y-23367960D02*
X13712206Y-23348912D01*
X13712206Y-23348912D02*
X13712206Y-23272722D01*
X13712206Y-23272722D02*
X13721730Y-23253674D01*
X13721730Y-23253674D02*
X13740777Y-23244150D01*
X13740777Y-23244150D02*
X13778872Y-23244150D01*
X13778872Y-23244150D02*
X13797920Y-23253674D01*
X13797920Y-23253674D02*
X13807444Y-23272722D01*
X13807444Y-23272722D02*
X13807444Y-23291769D01*
X13807444Y-23291769D02*
X13712206Y-23310817D01*
X13883634Y-23367960D02*
X13902682Y-23377484D01*
X13902682Y-23377484D02*
X13940777Y-23377484D01*
X13940777Y-23377484D02*
X13959825Y-23367960D01*
X13959825Y-23367960D02*
X13969349Y-23348912D01*
X13969349Y-23348912D02*
X13969349Y-23339388D01*
X13969349Y-23339388D02*
X13959825Y-23320341D01*
X13959825Y-23320341D02*
X13940777Y-23310817D01*
X13940777Y-23310817D02*
X13912206Y-23310817D01*
X13912206Y-23310817D02*
X13893158Y-23301293D01*
X13893158Y-23301293D02*
X13883634Y-23282246D01*
X13883634Y-23282246D02*
X13883634Y-23272722D01*
X13883634Y-23272722D02*
X13893158Y-23253674D01*
X13893158Y-23253674D02*
X13912206Y-23244150D01*
X13912206Y-23244150D02*
X13940777Y-23244150D01*
X13940777Y-23244150D02*
X13959825Y-23253674D01*
X14036015Y-23453674D02*
X14045539Y-23444150D01*
X14045539Y-23444150D02*
X14064587Y-23415579D01*
X14064587Y-23415579D02*
X14074111Y-23396531D01*
X14074111Y-23396531D02*
X14083634Y-23367960D01*
X14083634Y-23367960D02*
X14093158Y-23320341D01*
X14093158Y-23320341D02*
X14093158Y-23282246D01*
X14093158Y-23282246D02*
X14083634Y-23234627D01*
X14083634Y-23234627D02*
X14074111Y-23206055D01*
X14074111Y-23206055D02*
X14064587Y-23187008D01*
X14064587Y-23187008D02*
X14045539Y-23158436D01*
X14045539Y-23158436D02*
X14036015Y-23148912D01*
D11*
X8835000Y-23595000D02*
X8880000Y-23550000D01*
X8835000Y-23505000D01*
X8790000Y-23550000D01*
X8835000Y-23595000D01*
D10*
X9178872Y-23441484D02*
X9197920Y-23441484D01*
X9197920Y-23441484D02*
X9216967Y-23451008D01*
X9216967Y-23451008D02*
X9226491Y-23460531D01*
X9226491Y-23460531D02*
X9236015Y-23479579D01*
X9236015Y-23479579D02*
X9245539Y-23517674D01*
X9245539Y-23517674D02*
X9245539Y-23565293D01*
X9245539Y-23565293D02*
X9236015Y-23603388D01*
X9236015Y-23603388D02*
X9226491Y-23622436D01*
X9226491Y-23622436D02*
X9216967Y-23631960D01*
X9216967Y-23631960D02*
X9197920Y-23641484D01*
X9197920Y-23641484D02*
X9178872Y-23641484D01*
X9178872Y-23641484D02*
X9159824Y-23631960D01*
X9159824Y-23631960D02*
X9150301Y-23622436D01*
X9150301Y-23622436D02*
X9140777Y-23603388D01*
X9140777Y-23603388D02*
X9131253Y-23565293D01*
X9131253Y-23565293D02*
X9131253Y-23517674D01*
X9131253Y-23517674D02*
X9140777Y-23479579D01*
X9140777Y-23479579D02*
X9150301Y-23460531D01*
X9150301Y-23460531D02*
X9159824Y-23451008D01*
X9159824Y-23451008D02*
X9178872Y-23441484D01*
X9331253Y-23622436D02*
X9340777Y-23631960D01*
X9340777Y-23631960D02*
X9331253Y-23641484D01*
X9331253Y-23641484D02*
X9321729Y-23631960D01*
X9321729Y-23631960D02*
X9331253Y-23622436D01*
X9331253Y-23622436D02*
X9331253Y-23641484D01*
X9436015Y-23641484D02*
X9474110Y-23641484D01*
X9474110Y-23641484D02*
X9493158Y-23631960D01*
X9493158Y-23631960D02*
X9502682Y-23622436D01*
X9502682Y-23622436D02*
X9521729Y-23593865D01*
X9521729Y-23593865D02*
X9531253Y-23555769D01*
X9531253Y-23555769D02*
X9531253Y-23479579D01*
X9531253Y-23479579D02*
X9521729Y-23460531D01*
X9521729Y-23460531D02*
X9512205Y-23451008D01*
X9512205Y-23451008D02*
X9493158Y-23441484D01*
X9493158Y-23441484D02*
X9455063Y-23441484D01*
X9455063Y-23441484D02*
X9436015Y-23451008D01*
X9436015Y-23451008D02*
X9426491Y-23460531D01*
X9426491Y-23460531D02*
X9416967Y-23479579D01*
X9416967Y-23479579D02*
X9416967Y-23527198D01*
X9416967Y-23527198D02*
X9426491Y-23546246D01*
X9426491Y-23546246D02*
X9436015Y-23555769D01*
X9436015Y-23555769D02*
X9455063Y-23565293D01*
X9455063Y-23565293D02*
X9493158Y-23565293D01*
X9493158Y-23565293D02*
X9512205Y-23555769D01*
X9512205Y-23555769D02*
X9521729Y-23546246D01*
X9521729Y-23546246D02*
X9531253Y-23527198D01*
X9655063Y-23441484D02*
X9674110Y-23441484D01*
X9674110Y-23441484D02*
X9693158Y-23451008D01*
X9693158Y-23451008D02*
X9702682Y-23460531D01*
X9702682Y-23460531D02*
X9712205Y-23479579D01*
X9712205Y-23479579D02*
X9721729Y-23517674D01*
X9721729Y-23517674D02*
X9721729Y-23565293D01*
X9721729Y-23565293D02*
X9712205Y-23603388D01*
X9712205Y-23603388D02*
X9702682Y-23622436D01*
X9702682Y-23622436D02*
X9693158Y-23631960D01*
X9693158Y-23631960D02*
X9674110Y-23641484D01*
X9674110Y-23641484D02*
X9655063Y-23641484D01*
X9655063Y-23641484D02*
X9636015Y-23631960D01*
X9636015Y-23631960D02*
X9626491Y-23622436D01*
X9626491Y-23622436D02*
X9616967Y-23603388D01*
X9616967Y-23603388D02*
X9607444Y-23565293D01*
X9607444Y-23565293D02*
X9607444Y-23517674D01*
X9607444Y-23517674D02*
X9616967Y-23479579D01*
X9616967Y-23479579D02*
X9626491Y-23460531D01*
X9626491Y-23460531D02*
X9636015Y-23451008D01*
X9636015Y-23451008D02*
X9655063Y-23441484D01*
X9845539Y-23441484D02*
X9864586Y-23441484D01*
X9864586Y-23441484D02*
X9883634Y-23451008D01*
X9883634Y-23451008D02*
X9893158Y-23460531D01*
X9893158Y-23460531D02*
X9902682Y-23479579D01*
X9902682Y-23479579D02*
X9912205Y-23517674D01*
X9912205Y-23517674D02*
X9912205Y-23565293D01*
X9912205Y-23565293D02*
X9902682Y-23603388D01*
X9902682Y-23603388D02*
X9893158Y-23622436D01*
X9893158Y-23622436D02*
X9883634Y-23631960D01*
X9883634Y-23631960D02*
X9864586Y-23641484D01*
X9864586Y-23641484D02*
X9845539Y-23641484D01*
X9845539Y-23641484D02*
X9826491Y-23631960D01*
X9826491Y-23631960D02*
X9816967Y-23622436D01*
X9816967Y-23622436D02*
X9807444Y-23603388D01*
X9807444Y-23603388D02*
X9797920Y-23565293D01*
X9797920Y-23565293D02*
X9797920Y-23517674D01*
X9797920Y-23517674D02*
X9807444Y-23479579D01*
X9807444Y-23479579D02*
X9816967Y-23460531D01*
X9816967Y-23460531D02*
X9826491Y-23451008D01*
X9826491Y-23451008D02*
X9845539Y-23441484D01*
X9997920Y-23641484D02*
X9997920Y-23508150D01*
X9997920Y-23527198D02*
X10007444Y-23517674D01*
X10007444Y-23517674D02*
X10026491Y-23508150D01*
X10026491Y-23508150D02*
X10055063Y-23508150D01*
X10055063Y-23508150D02*
X10074110Y-23517674D01*
X10074110Y-23517674D02*
X10083634Y-23536722D01*
X10083634Y-23536722D02*
X10083634Y-23641484D01*
X10083634Y-23536722D02*
X10093158Y-23517674D01*
X10093158Y-23517674D02*
X10112205Y-23508150D01*
X10112205Y-23508150D02*
X10140777Y-23508150D01*
X10140777Y-23508150D02*
X10159825Y-23517674D01*
X10159825Y-23517674D02*
X10169348Y-23536722D01*
X10169348Y-23536722D02*
X10169348Y-23641484D01*
X10264586Y-23641484D02*
X10264586Y-23508150D01*
X10264586Y-23527198D02*
X10274110Y-23517674D01*
X10274110Y-23517674D02*
X10293158Y-23508150D01*
X10293158Y-23508150D02*
X10321729Y-23508150D01*
X10321729Y-23508150D02*
X10340777Y-23517674D01*
X10340777Y-23517674D02*
X10350301Y-23536722D01*
X10350301Y-23536722D02*
X10350301Y-23641484D01*
X10350301Y-23536722D02*
X10359825Y-23517674D01*
X10359825Y-23517674D02*
X10378872Y-23508150D01*
X10378872Y-23508150D02*
X10407444Y-23508150D01*
X10407444Y-23508150D02*
X10426491Y-23517674D01*
X10426491Y-23517674D02*
X10436015Y-23536722D01*
X10436015Y-23536722D02*
X10436015Y-23641484D01*
X10826491Y-23431960D02*
X10655063Y-23689103D01*
X11083634Y-23441484D02*
X11102682Y-23441484D01*
X11102682Y-23441484D02*
X11121729Y-23451008D01*
X11121729Y-23451008D02*
X11131253Y-23460531D01*
X11131253Y-23460531D02*
X11140777Y-23479579D01*
X11140777Y-23479579D02*
X11150301Y-23517674D01*
X11150301Y-23517674D02*
X11150301Y-23565293D01*
X11150301Y-23565293D02*
X11140777Y-23603388D01*
X11140777Y-23603388D02*
X11131253Y-23622436D01*
X11131253Y-23622436D02*
X11121729Y-23631960D01*
X11121729Y-23631960D02*
X11102682Y-23641484D01*
X11102682Y-23641484D02*
X11083634Y-23641484D01*
X11083634Y-23641484D02*
X11064587Y-23631960D01*
X11064587Y-23631960D02*
X11055063Y-23622436D01*
X11055063Y-23622436D02*
X11045539Y-23603388D01*
X11045539Y-23603388D02*
X11036015Y-23565293D01*
X11036015Y-23565293D02*
X11036015Y-23517674D01*
X11036015Y-23517674D02*
X11045539Y-23479579D01*
X11045539Y-23479579D02*
X11055063Y-23460531D01*
X11055063Y-23460531D02*
X11064587Y-23451008D01*
X11064587Y-23451008D02*
X11083634Y-23441484D01*
X11236015Y-23622436D02*
X11245539Y-23631960D01*
X11245539Y-23631960D02*
X11236015Y-23641484D01*
X11236015Y-23641484D02*
X11226491Y-23631960D01*
X11226491Y-23631960D02*
X11236015Y-23622436D01*
X11236015Y-23622436D02*
X11236015Y-23641484D01*
X11369348Y-23441484D02*
X11388396Y-23441484D01*
X11388396Y-23441484D02*
X11407444Y-23451008D01*
X11407444Y-23451008D02*
X11416967Y-23460531D01*
X11416967Y-23460531D02*
X11426491Y-23479579D01*
X11426491Y-23479579D02*
X11436015Y-23517674D01*
X11436015Y-23517674D02*
X11436015Y-23565293D01*
X11436015Y-23565293D02*
X11426491Y-23603388D01*
X11426491Y-23603388D02*
X11416967Y-23622436D01*
X11416967Y-23622436D02*
X11407444Y-23631960D01*
X11407444Y-23631960D02*
X11388396Y-23641484D01*
X11388396Y-23641484D02*
X11369348Y-23641484D01*
X11369348Y-23641484D02*
X11350301Y-23631960D01*
X11350301Y-23631960D02*
X11340777Y-23622436D01*
X11340777Y-23622436D02*
X11331253Y-23603388D01*
X11331253Y-23603388D02*
X11321729Y-23565293D01*
X11321729Y-23565293D02*
X11321729Y-23517674D01*
X11321729Y-23517674D02*
X11331253Y-23479579D01*
X11331253Y-23479579D02*
X11340777Y-23460531D01*
X11340777Y-23460531D02*
X11350301Y-23451008D01*
X11350301Y-23451008D02*
X11369348Y-23441484D01*
X11502682Y-23441484D02*
X11626491Y-23441484D01*
X11626491Y-23441484D02*
X11559825Y-23517674D01*
X11559825Y-23517674D02*
X11588396Y-23517674D01*
X11588396Y-23517674D02*
X11607444Y-23527198D01*
X11607444Y-23527198D02*
X11616967Y-23536722D01*
X11616967Y-23536722D02*
X11626491Y-23555769D01*
X11626491Y-23555769D02*
X11626491Y-23603388D01*
X11626491Y-23603388D02*
X11616967Y-23622436D01*
X11616967Y-23622436D02*
X11607444Y-23631960D01*
X11607444Y-23631960D02*
X11588396Y-23641484D01*
X11588396Y-23641484D02*
X11531253Y-23641484D01*
X11531253Y-23641484D02*
X11512206Y-23631960D01*
X11512206Y-23631960D02*
X11502682Y-23622436D01*
X11807444Y-23441484D02*
X11712206Y-23441484D01*
X11712206Y-23441484D02*
X11702682Y-23536722D01*
X11702682Y-23536722D02*
X11712206Y-23527198D01*
X11712206Y-23527198D02*
X11731253Y-23517674D01*
X11731253Y-23517674D02*
X11778872Y-23517674D01*
X11778872Y-23517674D02*
X11797920Y-23527198D01*
X11797920Y-23527198D02*
X11807444Y-23536722D01*
X11807444Y-23536722D02*
X11816967Y-23555769D01*
X11816967Y-23555769D02*
X11816967Y-23603388D01*
X11816967Y-23603388D02*
X11807444Y-23622436D01*
X11807444Y-23622436D02*
X11797920Y-23631960D01*
X11797920Y-23631960D02*
X11778872Y-23641484D01*
X11778872Y-23641484D02*
X11731253Y-23641484D01*
X11731253Y-23641484D02*
X11712206Y-23631960D01*
X11712206Y-23631960D02*
X11702682Y-23622436D01*
X11988396Y-23508150D02*
X11988396Y-23641484D01*
X11940777Y-23431960D02*
X11893158Y-23574817D01*
X11893158Y-23574817D02*
X12016967Y-23574817D01*
X12083634Y-23441484D02*
X12083634Y-23479579D01*
X12159825Y-23441484D02*
X12159825Y-23479579D01*
X12455063Y-23717674D02*
X12445539Y-23708150D01*
X12445539Y-23708150D02*
X12426491Y-23679579D01*
X12426491Y-23679579D02*
X12416968Y-23660531D01*
X12416968Y-23660531D02*
X12407444Y-23631960D01*
X12407444Y-23631960D02*
X12397920Y-23584341D01*
X12397920Y-23584341D02*
X12397920Y-23546246D01*
X12397920Y-23546246D02*
X12407444Y-23498627D01*
X12407444Y-23498627D02*
X12416968Y-23470055D01*
X12416968Y-23470055D02*
X12426491Y-23451008D01*
X12426491Y-23451008D02*
X12445539Y-23422436D01*
X12445539Y-23422436D02*
X12455063Y-23412912D01*
X12512206Y-23441484D02*
X12636015Y-23441484D01*
X12636015Y-23441484D02*
X12569348Y-23517674D01*
X12569348Y-23517674D02*
X12597920Y-23517674D01*
X12597920Y-23517674D02*
X12616968Y-23527198D01*
X12616968Y-23527198D02*
X12626491Y-23536722D01*
X12626491Y-23536722D02*
X12636015Y-23555769D01*
X12636015Y-23555769D02*
X12636015Y-23603388D01*
X12636015Y-23603388D02*
X12626491Y-23622436D01*
X12626491Y-23622436D02*
X12616968Y-23631960D01*
X12616968Y-23631960D02*
X12597920Y-23641484D01*
X12597920Y-23641484D02*
X12540777Y-23641484D01*
X12540777Y-23641484D02*
X12521729Y-23631960D01*
X12521729Y-23631960D02*
X12512206Y-23622436D01*
X12750301Y-23527198D02*
X12731253Y-23517674D01*
X12731253Y-23517674D02*
X12721729Y-23508150D01*
X12721729Y-23508150D02*
X12712206Y-23489103D01*
X12712206Y-23489103D02*
X12712206Y-23479579D01*
X12712206Y-23479579D02*
X12721729Y-23460531D01*
X12721729Y-23460531D02*
X12731253Y-23451008D01*
X12731253Y-23451008D02*
X12750301Y-23441484D01*
X12750301Y-23441484D02*
X12788396Y-23441484D01*
X12788396Y-23441484D02*
X12807444Y-23451008D01*
X12807444Y-23451008D02*
X12816968Y-23460531D01*
X12816968Y-23460531D02*
X12826491Y-23479579D01*
X12826491Y-23479579D02*
X12826491Y-23489103D01*
X12826491Y-23489103D02*
X12816968Y-23508150D01*
X12816968Y-23508150D02*
X12807444Y-23517674D01*
X12807444Y-23517674D02*
X12788396Y-23527198D01*
X12788396Y-23527198D02*
X12750301Y-23527198D01*
X12750301Y-23527198D02*
X12731253Y-23536722D01*
X12731253Y-23536722D02*
X12721729Y-23546246D01*
X12721729Y-23546246D02*
X12712206Y-23565293D01*
X12712206Y-23565293D02*
X12712206Y-23603388D01*
X12712206Y-23603388D02*
X12721729Y-23622436D01*
X12721729Y-23622436D02*
X12731253Y-23631960D01*
X12731253Y-23631960D02*
X12750301Y-23641484D01*
X12750301Y-23641484D02*
X12788396Y-23641484D01*
X12788396Y-23641484D02*
X12807444Y-23631960D01*
X12807444Y-23631960D02*
X12816968Y-23622436D01*
X12816968Y-23622436D02*
X12826491Y-23603388D01*
X12826491Y-23603388D02*
X12826491Y-23565293D01*
X12826491Y-23565293D02*
X12816968Y-23546246D01*
X12816968Y-23546246D02*
X12807444Y-23536722D01*
X12807444Y-23536722D02*
X12788396Y-23527198D01*
X13064587Y-23641484D02*
X13064587Y-23441484D01*
X13150301Y-23641484D02*
X13150301Y-23536722D01*
X13150301Y-23536722D02*
X13140777Y-23517674D01*
X13140777Y-23517674D02*
X13121730Y-23508150D01*
X13121730Y-23508150D02*
X13093158Y-23508150D01*
X13093158Y-23508150D02*
X13074110Y-23517674D01*
X13074110Y-23517674D02*
X13064587Y-23527198D01*
X13274110Y-23641484D02*
X13255063Y-23631960D01*
X13255063Y-23631960D02*
X13245539Y-23622436D01*
X13245539Y-23622436D02*
X13236015Y-23603388D01*
X13236015Y-23603388D02*
X13236015Y-23546246D01*
X13236015Y-23546246D02*
X13245539Y-23527198D01*
X13245539Y-23527198D02*
X13255063Y-23517674D01*
X13255063Y-23517674D02*
X13274110Y-23508150D01*
X13274110Y-23508150D02*
X13302682Y-23508150D01*
X13302682Y-23508150D02*
X13321730Y-23517674D01*
X13321730Y-23517674D02*
X13331253Y-23527198D01*
X13331253Y-23527198D02*
X13340777Y-23546246D01*
X13340777Y-23546246D02*
X13340777Y-23603388D01*
X13340777Y-23603388D02*
X13331253Y-23622436D01*
X13331253Y-23622436D02*
X13321730Y-23631960D01*
X13321730Y-23631960D02*
X13302682Y-23641484D01*
X13302682Y-23641484D02*
X13274110Y-23641484D01*
X13455063Y-23641484D02*
X13436015Y-23631960D01*
X13436015Y-23631960D02*
X13426491Y-23612912D01*
X13426491Y-23612912D02*
X13426491Y-23441484D01*
X13607444Y-23631960D02*
X13588396Y-23641484D01*
X13588396Y-23641484D02*
X13550301Y-23641484D01*
X13550301Y-23641484D02*
X13531253Y-23631960D01*
X13531253Y-23631960D02*
X13521730Y-23612912D01*
X13521730Y-23612912D02*
X13521730Y-23536722D01*
X13521730Y-23536722D02*
X13531253Y-23517674D01*
X13531253Y-23517674D02*
X13550301Y-23508150D01*
X13550301Y-23508150D02*
X13588396Y-23508150D01*
X13588396Y-23508150D02*
X13607444Y-23517674D01*
X13607444Y-23517674D02*
X13616968Y-23536722D01*
X13616968Y-23536722D02*
X13616968Y-23555769D01*
X13616968Y-23555769D02*
X13521730Y-23574817D01*
X13693158Y-23631960D02*
X13712206Y-23641484D01*
X13712206Y-23641484D02*
X13750301Y-23641484D01*
X13750301Y-23641484D02*
X13769349Y-23631960D01*
X13769349Y-23631960D02*
X13778872Y-23612912D01*
X13778872Y-23612912D02*
X13778872Y-23603388D01*
X13778872Y-23603388D02*
X13769349Y-23584341D01*
X13769349Y-23584341D02*
X13750301Y-23574817D01*
X13750301Y-23574817D02*
X13721730Y-23574817D01*
X13721730Y-23574817D02*
X13702682Y-23565293D01*
X13702682Y-23565293D02*
X13693158Y-23546246D01*
X13693158Y-23546246D02*
X13693158Y-23536722D01*
X13693158Y-23536722D02*
X13702682Y-23517674D01*
X13702682Y-23517674D02*
X13721730Y-23508150D01*
X13721730Y-23508150D02*
X13750301Y-23508150D01*
X13750301Y-23508150D02*
X13769349Y-23517674D01*
X13845539Y-23717674D02*
X13855063Y-23708150D01*
X13855063Y-23708150D02*
X13874111Y-23679579D01*
X13874111Y-23679579D02*
X13883634Y-23660531D01*
X13883634Y-23660531D02*
X13893158Y-23631960D01*
X13893158Y-23631960D02*
X13902682Y-23584341D01*
X13902682Y-23584341D02*
X13902682Y-23546246D01*
X13902682Y-23546246D02*
X13893158Y-23498627D01*
X13893158Y-23498627D02*
X13883634Y-23470055D01*
X13883634Y-23470055D02*
X13874111Y-23451008D01*
X13874111Y-23451008D02*
X13855063Y-23422436D01*
X13855063Y-23422436D02*
X13845539Y-23412912D01*
D11*
X8780000Y-23764000D02*
X8880000Y-23864000D01*
X8880000Y-23764000D02*
X8780000Y-23864000D01*
X8880000Y-23814000D02*
G75*
G03*
X8880000Y-23814000I-50000J0D01*
G01*
D10*
X9245539Y-23905484D02*
X9131253Y-23905484D01*
X9188396Y-23905484D02*
X9188396Y-23705484D01*
X9188396Y-23705484D02*
X9169348Y-23734055D01*
X9169348Y-23734055D02*
X9150301Y-23753103D01*
X9150301Y-23753103D02*
X9131253Y-23762627D01*
X9331253Y-23886436D02*
X9340777Y-23895960D01*
X9340777Y-23895960D02*
X9331253Y-23905484D01*
X9331253Y-23905484D02*
X9321729Y-23895960D01*
X9321729Y-23895960D02*
X9331253Y-23886436D01*
X9331253Y-23886436D02*
X9331253Y-23905484D01*
X9464586Y-23705484D02*
X9483634Y-23705484D01*
X9483634Y-23705484D02*
X9502682Y-23715008D01*
X9502682Y-23715008D02*
X9512205Y-23724531D01*
X9512205Y-23724531D02*
X9521729Y-23743579D01*
X9521729Y-23743579D02*
X9531253Y-23781674D01*
X9531253Y-23781674D02*
X9531253Y-23829293D01*
X9531253Y-23829293D02*
X9521729Y-23867388D01*
X9521729Y-23867388D02*
X9512205Y-23886436D01*
X9512205Y-23886436D02*
X9502682Y-23895960D01*
X9502682Y-23895960D02*
X9483634Y-23905484D01*
X9483634Y-23905484D02*
X9464586Y-23905484D01*
X9464586Y-23905484D02*
X9445539Y-23895960D01*
X9445539Y-23895960D02*
X9436015Y-23886436D01*
X9436015Y-23886436D02*
X9426491Y-23867388D01*
X9426491Y-23867388D02*
X9416967Y-23829293D01*
X9416967Y-23829293D02*
X9416967Y-23781674D01*
X9416967Y-23781674D02*
X9426491Y-23743579D01*
X9426491Y-23743579D02*
X9436015Y-23724531D01*
X9436015Y-23724531D02*
X9445539Y-23715008D01*
X9445539Y-23715008D02*
X9464586Y-23705484D01*
X9655063Y-23705484D02*
X9674110Y-23705484D01*
X9674110Y-23705484D02*
X9693158Y-23715008D01*
X9693158Y-23715008D02*
X9702682Y-23724531D01*
X9702682Y-23724531D02*
X9712205Y-23743579D01*
X9712205Y-23743579D02*
X9721729Y-23781674D01*
X9721729Y-23781674D02*
X9721729Y-23829293D01*
X9721729Y-23829293D02*
X9712205Y-23867388D01*
X9712205Y-23867388D02*
X9702682Y-23886436D01*
X9702682Y-23886436D02*
X9693158Y-23895960D01*
X9693158Y-23895960D02*
X9674110Y-23905484D01*
X9674110Y-23905484D02*
X9655063Y-23905484D01*
X9655063Y-23905484D02*
X9636015Y-23895960D01*
X9636015Y-23895960D02*
X9626491Y-23886436D01*
X9626491Y-23886436D02*
X9616967Y-23867388D01*
X9616967Y-23867388D02*
X9607444Y-23829293D01*
X9607444Y-23829293D02*
X9607444Y-23781674D01*
X9607444Y-23781674D02*
X9616967Y-23743579D01*
X9616967Y-23743579D02*
X9626491Y-23724531D01*
X9626491Y-23724531D02*
X9636015Y-23715008D01*
X9636015Y-23715008D02*
X9655063Y-23705484D01*
X9845539Y-23705484D02*
X9864586Y-23705484D01*
X9864586Y-23705484D02*
X9883634Y-23715008D01*
X9883634Y-23715008D02*
X9893158Y-23724531D01*
X9893158Y-23724531D02*
X9902682Y-23743579D01*
X9902682Y-23743579D02*
X9912205Y-23781674D01*
X9912205Y-23781674D02*
X9912205Y-23829293D01*
X9912205Y-23829293D02*
X9902682Y-23867388D01*
X9902682Y-23867388D02*
X9893158Y-23886436D01*
X9893158Y-23886436D02*
X9883634Y-23895960D01*
X9883634Y-23895960D02*
X9864586Y-23905484D01*
X9864586Y-23905484D02*
X9845539Y-23905484D01*
X9845539Y-23905484D02*
X9826491Y-23895960D01*
X9826491Y-23895960D02*
X9816967Y-23886436D01*
X9816967Y-23886436D02*
X9807444Y-23867388D01*
X9807444Y-23867388D02*
X9797920Y-23829293D01*
X9797920Y-23829293D02*
X9797920Y-23781674D01*
X9797920Y-23781674D02*
X9807444Y-23743579D01*
X9807444Y-23743579D02*
X9816967Y-23724531D01*
X9816967Y-23724531D02*
X9826491Y-23715008D01*
X9826491Y-23715008D02*
X9845539Y-23705484D01*
X9997920Y-23905484D02*
X9997920Y-23772150D01*
X9997920Y-23791198D02*
X10007444Y-23781674D01*
X10007444Y-23781674D02*
X10026491Y-23772150D01*
X10026491Y-23772150D02*
X10055063Y-23772150D01*
X10055063Y-23772150D02*
X10074110Y-23781674D01*
X10074110Y-23781674D02*
X10083634Y-23800722D01*
X10083634Y-23800722D02*
X10083634Y-23905484D01*
X10083634Y-23800722D02*
X10093158Y-23781674D01*
X10093158Y-23781674D02*
X10112205Y-23772150D01*
X10112205Y-23772150D02*
X10140777Y-23772150D01*
X10140777Y-23772150D02*
X10159825Y-23781674D01*
X10159825Y-23781674D02*
X10169348Y-23800722D01*
X10169348Y-23800722D02*
X10169348Y-23905484D01*
X10264586Y-23905484D02*
X10264586Y-23772150D01*
X10264586Y-23791198D02*
X10274110Y-23781674D01*
X10274110Y-23781674D02*
X10293158Y-23772150D01*
X10293158Y-23772150D02*
X10321729Y-23772150D01*
X10321729Y-23772150D02*
X10340777Y-23781674D01*
X10340777Y-23781674D02*
X10350301Y-23800722D01*
X10350301Y-23800722D02*
X10350301Y-23905484D01*
X10350301Y-23800722D02*
X10359825Y-23781674D01*
X10359825Y-23781674D02*
X10378872Y-23772150D01*
X10378872Y-23772150D02*
X10407444Y-23772150D01*
X10407444Y-23772150D02*
X10426491Y-23781674D01*
X10426491Y-23781674D02*
X10436015Y-23800722D01*
X10436015Y-23800722D02*
X10436015Y-23905484D01*
X10826491Y-23695960D02*
X10655063Y-23953103D01*
X11083634Y-23705484D02*
X11102682Y-23705484D01*
X11102682Y-23705484D02*
X11121729Y-23715008D01*
X11121729Y-23715008D02*
X11131253Y-23724531D01*
X11131253Y-23724531D02*
X11140777Y-23743579D01*
X11140777Y-23743579D02*
X11150301Y-23781674D01*
X11150301Y-23781674D02*
X11150301Y-23829293D01*
X11150301Y-23829293D02*
X11140777Y-23867388D01*
X11140777Y-23867388D02*
X11131253Y-23886436D01*
X11131253Y-23886436D02*
X11121729Y-23895960D01*
X11121729Y-23895960D02*
X11102682Y-23905484D01*
X11102682Y-23905484D02*
X11083634Y-23905484D01*
X11083634Y-23905484D02*
X11064587Y-23895960D01*
X11064587Y-23895960D02*
X11055063Y-23886436D01*
X11055063Y-23886436D02*
X11045539Y-23867388D01*
X11045539Y-23867388D02*
X11036015Y-23829293D01*
X11036015Y-23829293D02*
X11036015Y-23781674D01*
X11036015Y-23781674D02*
X11045539Y-23743579D01*
X11045539Y-23743579D02*
X11055063Y-23724531D01*
X11055063Y-23724531D02*
X11064587Y-23715008D01*
X11064587Y-23715008D02*
X11083634Y-23705484D01*
X11236015Y-23886436D02*
X11245539Y-23895960D01*
X11245539Y-23895960D02*
X11236015Y-23905484D01*
X11236015Y-23905484D02*
X11226491Y-23895960D01*
X11226491Y-23895960D02*
X11236015Y-23886436D01*
X11236015Y-23886436D02*
X11236015Y-23905484D01*
X11369348Y-23705484D02*
X11388396Y-23705484D01*
X11388396Y-23705484D02*
X11407444Y-23715008D01*
X11407444Y-23715008D02*
X11416967Y-23724531D01*
X11416967Y-23724531D02*
X11426491Y-23743579D01*
X11426491Y-23743579D02*
X11436015Y-23781674D01*
X11436015Y-23781674D02*
X11436015Y-23829293D01*
X11436015Y-23829293D02*
X11426491Y-23867388D01*
X11426491Y-23867388D02*
X11416967Y-23886436D01*
X11416967Y-23886436D02*
X11407444Y-23895960D01*
X11407444Y-23895960D02*
X11388396Y-23905484D01*
X11388396Y-23905484D02*
X11369348Y-23905484D01*
X11369348Y-23905484D02*
X11350301Y-23895960D01*
X11350301Y-23895960D02*
X11340777Y-23886436D01*
X11340777Y-23886436D02*
X11331253Y-23867388D01*
X11331253Y-23867388D02*
X11321729Y-23829293D01*
X11321729Y-23829293D02*
X11321729Y-23781674D01*
X11321729Y-23781674D02*
X11331253Y-23743579D01*
X11331253Y-23743579D02*
X11340777Y-23724531D01*
X11340777Y-23724531D02*
X11350301Y-23715008D01*
X11350301Y-23715008D02*
X11369348Y-23705484D01*
X11502682Y-23705484D02*
X11626491Y-23705484D01*
X11626491Y-23705484D02*
X11559825Y-23781674D01*
X11559825Y-23781674D02*
X11588396Y-23781674D01*
X11588396Y-23781674D02*
X11607444Y-23791198D01*
X11607444Y-23791198D02*
X11616967Y-23800722D01*
X11616967Y-23800722D02*
X11626491Y-23819769D01*
X11626491Y-23819769D02*
X11626491Y-23867388D01*
X11626491Y-23867388D02*
X11616967Y-23886436D01*
X11616967Y-23886436D02*
X11607444Y-23895960D01*
X11607444Y-23895960D02*
X11588396Y-23905484D01*
X11588396Y-23905484D02*
X11531253Y-23905484D01*
X11531253Y-23905484D02*
X11512206Y-23895960D01*
X11512206Y-23895960D02*
X11502682Y-23886436D01*
X11721729Y-23905484D02*
X11759825Y-23905484D01*
X11759825Y-23905484D02*
X11778872Y-23895960D01*
X11778872Y-23895960D02*
X11788396Y-23886436D01*
X11788396Y-23886436D02*
X11807444Y-23857865D01*
X11807444Y-23857865D02*
X11816967Y-23819769D01*
X11816967Y-23819769D02*
X11816967Y-23743579D01*
X11816967Y-23743579D02*
X11807444Y-23724531D01*
X11807444Y-23724531D02*
X11797920Y-23715008D01*
X11797920Y-23715008D02*
X11778872Y-23705484D01*
X11778872Y-23705484D02*
X11740777Y-23705484D01*
X11740777Y-23705484D02*
X11721729Y-23715008D01*
X11721729Y-23715008D02*
X11712206Y-23724531D01*
X11712206Y-23724531D02*
X11702682Y-23743579D01*
X11702682Y-23743579D02*
X11702682Y-23791198D01*
X11702682Y-23791198D02*
X11712206Y-23810246D01*
X11712206Y-23810246D02*
X11721729Y-23819769D01*
X11721729Y-23819769D02*
X11740777Y-23829293D01*
X11740777Y-23829293D02*
X11778872Y-23829293D01*
X11778872Y-23829293D02*
X11797920Y-23819769D01*
X11797920Y-23819769D02*
X11807444Y-23810246D01*
X11807444Y-23810246D02*
X11816967Y-23791198D01*
X11988396Y-23772150D02*
X11988396Y-23905484D01*
X11940777Y-23695960D02*
X11893158Y-23838817D01*
X11893158Y-23838817D02*
X12016967Y-23838817D01*
X12083634Y-23705484D02*
X12083634Y-23743579D01*
X12159825Y-23705484D02*
X12159825Y-23743579D01*
X12455063Y-23981674D02*
X12445539Y-23972150D01*
X12445539Y-23972150D02*
X12426491Y-23943579D01*
X12426491Y-23943579D02*
X12416968Y-23924531D01*
X12416968Y-23924531D02*
X12407444Y-23895960D01*
X12407444Y-23895960D02*
X12397920Y-23848341D01*
X12397920Y-23848341D02*
X12397920Y-23810246D01*
X12397920Y-23810246D02*
X12407444Y-23762627D01*
X12407444Y-23762627D02*
X12416968Y-23734055D01*
X12416968Y-23734055D02*
X12426491Y-23715008D01*
X12426491Y-23715008D02*
X12445539Y-23686436D01*
X12445539Y-23686436D02*
X12455063Y-23676912D01*
X12616968Y-23772150D02*
X12616968Y-23905484D01*
X12569348Y-23695960D02*
X12521729Y-23838817D01*
X12521729Y-23838817D02*
X12645539Y-23838817D01*
X12759825Y-23705484D02*
X12778872Y-23705484D01*
X12778872Y-23705484D02*
X12797920Y-23715008D01*
X12797920Y-23715008D02*
X12807444Y-23724531D01*
X12807444Y-23724531D02*
X12816968Y-23743579D01*
X12816968Y-23743579D02*
X12826491Y-23781674D01*
X12826491Y-23781674D02*
X12826491Y-23829293D01*
X12826491Y-23829293D02*
X12816968Y-23867388D01*
X12816968Y-23867388D02*
X12807444Y-23886436D01*
X12807444Y-23886436D02*
X12797920Y-23895960D01*
X12797920Y-23895960D02*
X12778872Y-23905484D01*
X12778872Y-23905484D02*
X12759825Y-23905484D01*
X12759825Y-23905484D02*
X12740777Y-23895960D01*
X12740777Y-23895960D02*
X12731253Y-23886436D01*
X12731253Y-23886436D02*
X12721729Y-23867388D01*
X12721729Y-23867388D02*
X12712206Y-23829293D01*
X12712206Y-23829293D02*
X12712206Y-23781674D01*
X12712206Y-23781674D02*
X12721729Y-23743579D01*
X12721729Y-23743579D02*
X12731253Y-23724531D01*
X12731253Y-23724531D02*
X12740777Y-23715008D01*
X12740777Y-23715008D02*
X12759825Y-23705484D01*
X13064587Y-23905484D02*
X13064587Y-23705484D01*
X13150301Y-23905484D02*
X13150301Y-23800722D01*
X13150301Y-23800722D02*
X13140777Y-23781674D01*
X13140777Y-23781674D02*
X13121730Y-23772150D01*
X13121730Y-23772150D02*
X13093158Y-23772150D01*
X13093158Y-23772150D02*
X13074110Y-23781674D01*
X13074110Y-23781674D02*
X13064587Y-23791198D01*
X13274110Y-23905484D02*
X13255063Y-23895960D01*
X13255063Y-23895960D02*
X13245539Y-23886436D01*
X13245539Y-23886436D02*
X13236015Y-23867388D01*
X13236015Y-23867388D02*
X13236015Y-23810246D01*
X13236015Y-23810246D02*
X13245539Y-23791198D01*
X13245539Y-23791198D02*
X13255063Y-23781674D01*
X13255063Y-23781674D02*
X13274110Y-23772150D01*
X13274110Y-23772150D02*
X13302682Y-23772150D01*
X13302682Y-23772150D02*
X13321730Y-23781674D01*
X13321730Y-23781674D02*
X13331253Y-23791198D01*
X13331253Y-23791198D02*
X13340777Y-23810246D01*
X13340777Y-23810246D02*
X13340777Y-23867388D01*
X13340777Y-23867388D02*
X13331253Y-23886436D01*
X13331253Y-23886436D02*
X13321730Y-23895960D01*
X13321730Y-23895960D02*
X13302682Y-23905484D01*
X13302682Y-23905484D02*
X13274110Y-23905484D01*
X13455063Y-23905484D02*
X13436015Y-23895960D01*
X13436015Y-23895960D02*
X13426491Y-23876912D01*
X13426491Y-23876912D02*
X13426491Y-23705484D01*
X13607444Y-23895960D02*
X13588396Y-23905484D01*
X13588396Y-23905484D02*
X13550301Y-23905484D01*
X13550301Y-23905484D02*
X13531253Y-23895960D01*
X13531253Y-23895960D02*
X13521730Y-23876912D01*
X13521730Y-23876912D02*
X13521730Y-23800722D01*
X13521730Y-23800722D02*
X13531253Y-23781674D01*
X13531253Y-23781674D02*
X13550301Y-23772150D01*
X13550301Y-23772150D02*
X13588396Y-23772150D01*
X13588396Y-23772150D02*
X13607444Y-23781674D01*
X13607444Y-23781674D02*
X13616968Y-23800722D01*
X13616968Y-23800722D02*
X13616968Y-23819769D01*
X13616968Y-23819769D02*
X13521730Y-23838817D01*
X13693158Y-23895960D02*
X13712206Y-23905484D01*
X13712206Y-23905484D02*
X13750301Y-23905484D01*
X13750301Y-23905484D02*
X13769349Y-23895960D01*
X13769349Y-23895960D02*
X13778872Y-23876912D01*
X13778872Y-23876912D02*
X13778872Y-23867388D01*
X13778872Y-23867388D02*
X13769349Y-23848341D01*
X13769349Y-23848341D02*
X13750301Y-23838817D01*
X13750301Y-23838817D02*
X13721730Y-23838817D01*
X13721730Y-23838817D02*
X13702682Y-23829293D01*
X13702682Y-23829293D02*
X13693158Y-23810246D01*
X13693158Y-23810246D02*
X13693158Y-23800722D01*
X13693158Y-23800722D02*
X13702682Y-23781674D01*
X13702682Y-23781674D02*
X13721730Y-23772150D01*
X13721730Y-23772150D02*
X13750301Y-23772150D01*
X13750301Y-23772150D02*
X13769349Y-23781674D01*
X13845539Y-23981674D02*
X13855063Y-23972150D01*
X13855063Y-23972150D02*
X13874111Y-23943579D01*
X13874111Y-23943579D02*
X13883634Y-23924531D01*
X13883634Y-23924531D02*
X13893158Y-23895960D01*
X13893158Y-23895960D02*
X13902682Y-23848341D01*
X13902682Y-23848341D02*
X13902682Y-23810246D01*
X13902682Y-23810246D02*
X13893158Y-23762627D01*
X13893158Y-23762627D02*
X13883634Y-23734055D01*
X13883634Y-23734055D02*
X13874111Y-23715008D01*
X13874111Y-23715008D02*
X13855063Y-23686436D01*
X13855063Y-23686436D02*
X13845539Y-23676912D01*
D12*
X8770000Y-24023000D02*
X8880000Y-24133000D01*
X8880000Y-24023000D02*
X8770000Y-24133000D01*
X8825000Y-24023000D02*
X8825000Y-24133000D01*
X8770000Y-24078000D02*
X8880000Y-24078000D01*
D10*
X9245539Y-24169484D02*
X9131253Y-24169484D01*
X9188396Y-24169484D02*
X9188396Y-23969484D01*
X9188396Y-23969484D02*
X9169348Y-23998055D01*
X9169348Y-23998055D02*
X9150301Y-24017103D01*
X9150301Y-24017103D02*
X9131253Y-24026627D01*
X9331253Y-24150436D02*
X9340777Y-24159960D01*
X9340777Y-24159960D02*
X9331253Y-24169484D01*
X9331253Y-24169484D02*
X9321729Y-24159960D01*
X9321729Y-24159960D02*
X9331253Y-24150436D01*
X9331253Y-24150436D02*
X9331253Y-24169484D01*
X9531253Y-24169484D02*
X9416967Y-24169484D01*
X9474110Y-24169484D02*
X9474110Y-23969484D01*
X9474110Y-23969484D02*
X9455063Y-23998055D01*
X9455063Y-23998055D02*
X9436015Y-24017103D01*
X9436015Y-24017103D02*
X9416967Y-24026627D01*
X9655063Y-23969484D02*
X9674110Y-23969484D01*
X9674110Y-23969484D02*
X9693158Y-23979008D01*
X9693158Y-23979008D02*
X9702682Y-23988531D01*
X9702682Y-23988531D02*
X9712205Y-24007579D01*
X9712205Y-24007579D02*
X9721729Y-24045674D01*
X9721729Y-24045674D02*
X9721729Y-24093293D01*
X9721729Y-24093293D02*
X9712205Y-24131388D01*
X9712205Y-24131388D02*
X9702682Y-24150436D01*
X9702682Y-24150436D02*
X9693158Y-24159960D01*
X9693158Y-24159960D02*
X9674110Y-24169484D01*
X9674110Y-24169484D02*
X9655063Y-24169484D01*
X9655063Y-24169484D02*
X9636015Y-24159960D01*
X9636015Y-24159960D02*
X9626491Y-24150436D01*
X9626491Y-24150436D02*
X9616967Y-24131388D01*
X9616967Y-24131388D02*
X9607444Y-24093293D01*
X9607444Y-24093293D02*
X9607444Y-24045674D01*
X9607444Y-24045674D02*
X9616967Y-24007579D01*
X9616967Y-24007579D02*
X9626491Y-23988531D01*
X9626491Y-23988531D02*
X9636015Y-23979008D01*
X9636015Y-23979008D02*
X9655063Y-23969484D01*
X9845539Y-23969484D02*
X9864586Y-23969484D01*
X9864586Y-23969484D02*
X9883634Y-23979008D01*
X9883634Y-23979008D02*
X9893158Y-23988531D01*
X9893158Y-23988531D02*
X9902682Y-24007579D01*
X9902682Y-24007579D02*
X9912205Y-24045674D01*
X9912205Y-24045674D02*
X9912205Y-24093293D01*
X9912205Y-24093293D02*
X9902682Y-24131388D01*
X9902682Y-24131388D02*
X9893158Y-24150436D01*
X9893158Y-24150436D02*
X9883634Y-24159960D01*
X9883634Y-24159960D02*
X9864586Y-24169484D01*
X9864586Y-24169484D02*
X9845539Y-24169484D01*
X9845539Y-24169484D02*
X9826491Y-24159960D01*
X9826491Y-24159960D02*
X9816967Y-24150436D01*
X9816967Y-24150436D02*
X9807444Y-24131388D01*
X9807444Y-24131388D02*
X9797920Y-24093293D01*
X9797920Y-24093293D02*
X9797920Y-24045674D01*
X9797920Y-24045674D02*
X9807444Y-24007579D01*
X9807444Y-24007579D02*
X9816967Y-23988531D01*
X9816967Y-23988531D02*
X9826491Y-23979008D01*
X9826491Y-23979008D02*
X9845539Y-23969484D01*
X9997920Y-24169484D02*
X9997920Y-24036150D01*
X9997920Y-24055198D02*
X10007444Y-24045674D01*
X10007444Y-24045674D02*
X10026491Y-24036150D01*
X10026491Y-24036150D02*
X10055063Y-24036150D01*
X10055063Y-24036150D02*
X10074110Y-24045674D01*
X10074110Y-24045674D02*
X10083634Y-24064722D01*
X10083634Y-24064722D02*
X10083634Y-24169484D01*
X10083634Y-24064722D02*
X10093158Y-24045674D01*
X10093158Y-24045674D02*
X10112205Y-24036150D01*
X10112205Y-24036150D02*
X10140777Y-24036150D01*
X10140777Y-24036150D02*
X10159825Y-24045674D01*
X10159825Y-24045674D02*
X10169348Y-24064722D01*
X10169348Y-24064722D02*
X10169348Y-24169484D01*
X10264586Y-24169484D02*
X10264586Y-24036150D01*
X10264586Y-24055198D02*
X10274110Y-24045674D01*
X10274110Y-24045674D02*
X10293158Y-24036150D01*
X10293158Y-24036150D02*
X10321729Y-24036150D01*
X10321729Y-24036150D02*
X10340777Y-24045674D01*
X10340777Y-24045674D02*
X10350301Y-24064722D01*
X10350301Y-24064722D02*
X10350301Y-24169484D01*
X10350301Y-24064722D02*
X10359825Y-24045674D01*
X10359825Y-24045674D02*
X10378872Y-24036150D01*
X10378872Y-24036150D02*
X10407444Y-24036150D01*
X10407444Y-24036150D02*
X10426491Y-24045674D01*
X10426491Y-24045674D02*
X10436015Y-24064722D01*
X10436015Y-24064722D02*
X10436015Y-24169484D01*
X10826491Y-23959960D02*
X10655063Y-24217103D01*
X11083634Y-23969484D02*
X11102682Y-23969484D01*
X11102682Y-23969484D02*
X11121729Y-23979008D01*
X11121729Y-23979008D02*
X11131253Y-23988531D01*
X11131253Y-23988531D02*
X11140777Y-24007579D01*
X11140777Y-24007579D02*
X11150301Y-24045674D01*
X11150301Y-24045674D02*
X11150301Y-24093293D01*
X11150301Y-24093293D02*
X11140777Y-24131388D01*
X11140777Y-24131388D02*
X11131253Y-24150436D01*
X11131253Y-24150436D02*
X11121729Y-24159960D01*
X11121729Y-24159960D02*
X11102682Y-24169484D01*
X11102682Y-24169484D02*
X11083634Y-24169484D01*
X11083634Y-24169484D02*
X11064587Y-24159960D01*
X11064587Y-24159960D02*
X11055063Y-24150436D01*
X11055063Y-24150436D02*
X11045539Y-24131388D01*
X11045539Y-24131388D02*
X11036015Y-24093293D01*
X11036015Y-24093293D02*
X11036015Y-24045674D01*
X11036015Y-24045674D02*
X11045539Y-24007579D01*
X11045539Y-24007579D02*
X11055063Y-23988531D01*
X11055063Y-23988531D02*
X11064587Y-23979008D01*
X11064587Y-23979008D02*
X11083634Y-23969484D01*
X11236015Y-24150436D02*
X11245539Y-24159960D01*
X11245539Y-24159960D02*
X11236015Y-24169484D01*
X11236015Y-24169484D02*
X11226491Y-24159960D01*
X11226491Y-24159960D02*
X11236015Y-24150436D01*
X11236015Y-24150436D02*
X11236015Y-24169484D01*
X11369348Y-23969484D02*
X11388396Y-23969484D01*
X11388396Y-23969484D02*
X11407444Y-23979008D01*
X11407444Y-23979008D02*
X11416967Y-23988531D01*
X11416967Y-23988531D02*
X11426491Y-24007579D01*
X11426491Y-24007579D02*
X11436015Y-24045674D01*
X11436015Y-24045674D02*
X11436015Y-24093293D01*
X11436015Y-24093293D02*
X11426491Y-24131388D01*
X11426491Y-24131388D02*
X11416967Y-24150436D01*
X11416967Y-24150436D02*
X11407444Y-24159960D01*
X11407444Y-24159960D02*
X11388396Y-24169484D01*
X11388396Y-24169484D02*
X11369348Y-24169484D01*
X11369348Y-24169484D02*
X11350301Y-24159960D01*
X11350301Y-24159960D02*
X11340777Y-24150436D01*
X11340777Y-24150436D02*
X11331253Y-24131388D01*
X11331253Y-24131388D02*
X11321729Y-24093293D01*
X11321729Y-24093293D02*
X11321729Y-24045674D01*
X11321729Y-24045674D02*
X11331253Y-24007579D01*
X11331253Y-24007579D02*
X11340777Y-23988531D01*
X11340777Y-23988531D02*
X11350301Y-23979008D01*
X11350301Y-23979008D02*
X11369348Y-23969484D01*
X11607444Y-24036150D02*
X11607444Y-24169484D01*
X11559825Y-23959960D02*
X11512206Y-24102817D01*
X11512206Y-24102817D02*
X11636015Y-24102817D01*
X11693158Y-23969484D02*
X11816967Y-23969484D01*
X11816967Y-23969484D02*
X11750301Y-24045674D01*
X11750301Y-24045674D02*
X11778872Y-24045674D01*
X11778872Y-24045674D02*
X11797920Y-24055198D01*
X11797920Y-24055198D02*
X11807444Y-24064722D01*
X11807444Y-24064722D02*
X11816967Y-24083769D01*
X11816967Y-24083769D02*
X11816967Y-24131388D01*
X11816967Y-24131388D02*
X11807444Y-24150436D01*
X11807444Y-24150436D02*
X11797920Y-24159960D01*
X11797920Y-24159960D02*
X11778872Y-24169484D01*
X11778872Y-24169484D02*
X11721729Y-24169484D01*
X11721729Y-24169484D02*
X11702682Y-24159960D01*
X11702682Y-24159960D02*
X11693158Y-24150436D01*
X11883634Y-23969484D02*
X12007444Y-23969484D01*
X12007444Y-23969484D02*
X11940777Y-24045674D01*
X11940777Y-24045674D02*
X11969348Y-24045674D01*
X11969348Y-24045674D02*
X11988396Y-24055198D01*
X11988396Y-24055198D02*
X11997920Y-24064722D01*
X11997920Y-24064722D02*
X12007444Y-24083769D01*
X12007444Y-24083769D02*
X12007444Y-24131388D01*
X12007444Y-24131388D02*
X11997920Y-24150436D01*
X11997920Y-24150436D02*
X11988396Y-24159960D01*
X11988396Y-24159960D02*
X11969348Y-24169484D01*
X11969348Y-24169484D02*
X11912206Y-24169484D01*
X11912206Y-24169484D02*
X11893158Y-24159960D01*
X11893158Y-24159960D02*
X11883634Y-24150436D01*
X12083634Y-23969484D02*
X12083634Y-24007579D01*
X12159825Y-23969484D02*
X12159825Y-24007579D01*
X12455063Y-24245674D02*
X12445539Y-24236150D01*
X12445539Y-24236150D02*
X12426491Y-24207579D01*
X12426491Y-24207579D02*
X12416968Y-24188531D01*
X12416968Y-24188531D02*
X12407444Y-24159960D01*
X12407444Y-24159960D02*
X12397920Y-24112341D01*
X12397920Y-24112341D02*
X12397920Y-24074246D01*
X12397920Y-24074246D02*
X12407444Y-24026627D01*
X12407444Y-24026627D02*
X12416968Y-23998055D01*
X12416968Y-23998055D02*
X12426491Y-23979008D01*
X12426491Y-23979008D02*
X12445539Y-23950436D01*
X12445539Y-23950436D02*
X12455063Y-23940912D01*
X12616968Y-24036150D02*
X12616968Y-24169484D01*
X12569348Y-23959960D02*
X12521729Y-24102817D01*
X12521729Y-24102817D02*
X12645539Y-24102817D01*
X12874110Y-24169484D02*
X12874110Y-23969484D01*
X12959825Y-24169484D02*
X12959825Y-24064722D01*
X12959825Y-24064722D02*
X12950301Y-24045674D01*
X12950301Y-24045674D02*
X12931253Y-24036150D01*
X12931253Y-24036150D02*
X12902682Y-24036150D01*
X12902682Y-24036150D02*
X12883634Y-24045674D01*
X12883634Y-24045674D02*
X12874110Y-24055198D01*
X13083634Y-24169484D02*
X13064587Y-24159960D01*
X13064587Y-24159960D02*
X13055063Y-24150436D01*
X13055063Y-24150436D02*
X13045539Y-24131388D01*
X13045539Y-24131388D02*
X13045539Y-24074246D01*
X13045539Y-24074246D02*
X13055063Y-24055198D01*
X13055063Y-24055198D02*
X13064587Y-24045674D01*
X13064587Y-24045674D02*
X13083634Y-24036150D01*
X13083634Y-24036150D02*
X13112206Y-24036150D01*
X13112206Y-24036150D02*
X13131253Y-24045674D01*
X13131253Y-24045674D02*
X13140777Y-24055198D01*
X13140777Y-24055198D02*
X13150301Y-24074246D01*
X13150301Y-24074246D02*
X13150301Y-24131388D01*
X13150301Y-24131388D02*
X13140777Y-24150436D01*
X13140777Y-24150436D02*
X13131253Y-24159960D01*
X13131253Y-24159960D02*
X13112206Y-24169484D01*
X13112206Y-24169484D02*
X13083634Y-24169484D01*
X13264587Y-24169484D02*
X13245539Y-24159960D01*
X13245539Y-24159960D02*
X13236015Y-24140912D01*
X13236015Y-24140912D02*
X13236015Y-23969484D01*
X13416968Y-24159960D02*
X13397920Y-24169484D01*
X13397920Y-24169484D02*
X13359825Y-24169484D01*
X13359825Y-24169484D02*
X13340777Y-24159960D01*
X13340777Y-24159960D02*
X13331253Y-24140912D01*
X13331253Y-24140912D02*
X13331253Y-24064722D01*
X13331253Y-24064722D02*
X13340777Y-24045674D01*
X13340777Y-24045674D02*
X13359825Y-24036150D01*
X13359825Y-24036150D02*
X13397920Y-24036150D01*
X13397920Y-24036150D02*
X13416968Y-24045674D01*
X13416968Y-24045674D02*
X13426491Y-24064722D01*
X13426491Y-24064722D02*
X13426491Y-24083769D01*
X13426491Y-24083769D02*
X13331253Y-24102817D01*
X13502682Y-24159960D02*
X13521730Y-24169484D01*
X13521730Y-24169484D02*
X13559825Y-24169484D01*
X13559825Y-24169484D02*
X13578872Y-24159960D01*
X13578872Y-24159960D02*
X13588396Y-24140912D01*
X13588396Y-24140912D02*
X13588396Y-24131388D01*
X13588396Y-24131388D02*
X13578872Y-24112341D01*
X13578872Y-24112341D02*
X13559825Y-24102817D01*
X13559825Y-24102817D02*
X13531253Y-24102817D01*
X13531253Y-24102817D02*
X13512206Y-24093293D01*
X13512206Y-24093293D02*
X13502682Y-24074246D01*
X13502682Y-24074246D02*
X13502682Y-24064722D01*
X13502682Y-24064722D02*
X13512206Y-24045674D01*
X13512206Y-24045674D02*
X13531253Y-24036150D01*
X13531253Y-24036150D02*
X13559825Y-24036150D01*
X13559825Y-24036150D02*
X13578872Y-24045674D01*
X13655063Y-24245674D02*
X13664587Y-24236150D01*
X13664587Y-24236150D02*
X13683634Y-24207579D01*
X13683634Y-24207579D02*
X13693158Y-24188531D01*
X13693158Y-24188531D02*
X13702682Y-24159960D01*
X13702682Y-24159960D02*
X13712206Y-24112341D01*
X13712206Y-24112341D02*
X13712206Y-24074246D01*
X13712206Y-24074246D02*
X13702682Y-24026627D01*
X13702682Y-24026627D02*
X13693158Y-23998055D01*
X13693158Y-23998055D02*
X13683634Y-23979008D01*
X13683634Y-23979008D02*
X13664587Y-23950436D01*
X13664587Y-23950436D02*
X13655063Y-23940912D01*
D13*
X8760000Y-24282000D02*
X8880000Y-24402000D01*
X8880000Y-24282000D02*
X8760000Y-24402000D01*
X8862427Y-24384427D02*
X8862427Y-24299573D01*
X8777573Y-24299573D01*
X8777573Y-24384427D01*
X8862427Y-24384427D01*
D10*
X9245539Y-24433484D02*
X9131253Y-24433484D01*
X9188396Y-24433484D02*
X9188396Y-24233484D01*
X9188396Y-24233484D02*
X9169348Y-24262055D01*
X9169348Y-24262055D02*
X9150301Y-24281103D01*
X9150301Y-24281103D02*
X9131253Y-24290627D01*
X9331253Y-24414436D02*
X9340777Y-24423960D01*
X9340777Y-24423960D02*
X9331253Y-24433484D01*
X9331253Y-24433484D02*
X9321729Y-24423960D01*
X9321729Y-24423960D02*
X9331253Y-24414436D01*
X9331253Y-24414436D02*
X9331253Y-24433484D01*
X9416967Y-24252531D02*
X9426491Y-24243008D01*
X9426491Y-24243008D02*
X9445539Y-24233484D01*
X9445539Y-24233484D02*
X9493158Y-24233484D01*
X9493158Y-24233484D02*
X9512205Y-24243008D01*
X9512205Y-24243008D02*
X9521729Y-24252531D01*
X9521729Y-24252531D02*
X9531253Y-24271579D01*
X9531253Y-24271579D02*
X9531253Y-24290627D01*
X9531253Y-24290627D02*
X9521729Y-24319198D01*
X9521729Y-24319198D02*
X9407444Y-24433484D01*
X9407444Y-24433484D02*
X9531253Y-24433484D01*
X9655063Y-24233484D02*
X9674110Y-24233484D01*
X9674110Y-24233484D02*
X9693158Y-24243008D01*
X9693158Y-24243008D02*
X9702682Y-24252531D01*
X9702682Y-24252531D02*
X9712205Y-24271579D01*
X9712205Y-24271579D02*
X9721729Y-24309674D01*
X9721729Y-24309674D02*
X9721729Y-24357293D01*
X9721729Y-24357293D02*
X9712205Y-24395388D01*
X9712205Y-24395388D02*
X9702682Y-24414436D01*
X9702682Y-24414436D02*
X9693158Y-24423960D01*
X9693158Y-24423960D02*
X9674110Y-24433484D01*
X9674110Y-24433484D02*
X9655063Y-24433484D01*
X9655063Y-24433484D02*
X9636015Y-24423960D01*
X9636015Y-24423960D02*
X9626491Y-24414436D01*
X9626491Y-24414436D02*
X9616967Y-24395388D01*
X9616967Y-24395388D02*
X9607444Y-24357293D01*
X9607444Y-24357293D02*
X9607444Y-24309674D01*
X9607444Y-24309674D02*
X9616967Y-24271579D01*
X9616967Y-24271579D02*
X9626491Y-24252531D01*
X9626491Y-24252531D02*
X9636015Y-24243008D01*
X9636015Y-24243008D02*
X9655063Y-24233484D01*
X9845539Y-24233484D02*
X9864586Y-24233484D01*
X9864586Y-24233484D02*
X9883634Y-24243008D01*
X9883634Y-24243008D02*
X9893158Y-24252531D01*
X9893158Y-24252531D02*
X9902682Y-24271579D01*
X9902682Y-24271579D02*
X9912205Y-24309674D01*
X9912205Y-24309674D02*
X9912205Y-24357293D01*
X9912205Y-24357293D02*
X9902682Y-24395388D01*
X9902682Y-24395388D02*
X9893158Y-24414436D01*
X9893158Y-24414436D02*
X9883634Y-24423960D01*
X9883634Y-24423960D02*
X9864586Y-24433484D01*
X9864586Y-24433484D02*
X9845539Y-24433484D01*
X9845539Y-24433484D02*
X9826491Y-24423960D01*
X9826491Y-24423960D02*
X9816967Y-24414436D01*
X9816967Y-24414436D02*
X9807444Y-24395388D01*
X9807444Y-24395388D02*
X9797920Y-24357293D01*
X9797920Y-24357293D02*
X9797920Y-24309674D01*
X9797920Y-24309674D02*
X9807444Y-24271579D01*
X9807444Y-24271579D02*
X9816967Y-24252531D01*
X9816967Y-24252531D02*
X9826491Y-24243008D01*
X9826491Y-24243008D02*
X9845539Y-24233484D01*
X9997920Y-24433484D02*
X9997920Y-24300150D01*
X9997920Y-24319198D02*
X10007444Y-24309674D01*
X10007444Y-24309674D02*
X10026491Y-24300150D01*
X10026491Y-24300150D02*
X10055063Y-24300150D01*
X10055063Y-24300150D02*
X10074110Y-24309674D01*
X10074110Y-24309674D02*
X10083634Y-24328722D01*
X10083634Y-24328722D02*
X10083634Y-24433484D01*
X10083634Y-24328722D02*
X10093158Y-24309674D01*
X10093158Y-24309674D02*
X10112205Y-24300150D01*
X10112205Y-24300150D02*
X10140777Y-24300150D01*
X10140777Y-24300150D02*
X10159825Y-24309674D01*
X10159825Y-24309674D02*
X10169348Y-24328722D01*
X10169348Y-24328722D02*
X10169348Y-24433484D01*
X10264586Y-24433484D02*
X10264586Y-24300150D01*
X10264586Y-24319198D02*
X10274110Y-24309674D01*
X10274110Y-24309674D02*
X10293158Y-24300150D01*
X10293158Y-24300150D02*
X10321729Y-24300150D01*
X10321729Y-24300150D02*
X10340777Y-24309674D01*
X10340777Y-24309674D02*
X10350301Y-24328722D01*
X10350301Y-24328722D02*
X10350301Y-24433484D01*
X10350301Y-24328722D02*
X10359825Y-24309674D01*
X10359825Y-24309674D02*
X10378872Y-24300150D01*
X10378872Y-24300150D02*
X10407444Y-24300150D01*
X10407444Y-24300150D02*
X10426491Y-24309674D01*
X10426491Y-24309674D02*
X10436015Y-24328722D01*
X10436015Y-24328722D02*
X10436015Y-24433484D01*
X10826491Y-24223960D02*
X10655063Y-24481103D01*
X11083634Y-24233484D02*
X11102682Y-24233484D01*
X11102682Y-24233484D02*
X11121729Y-24243008D01*
X11121729Y-24243008D02*
X11131253Y-24252531D01*
X11131253Y-24252531D02*
X11140777Y-24271579D01*
X11140777Y-24271579D02*
X11150301Y-24309674D01*
X11150301Y-24309674D02*
X11150301Y-24357293D01*
X11150301Y-24357293D02*
X11140777Y-24395388D01*
X11140777Y-24395388D02*
X11131253Y-24414436D01*
X11131253Y-24414436D02*
X11121729Y-24423960D01*
X11121729Y-24423960D02*
X11102682Y-24433484D01*
X11102682Y-24433484D02*
X11083634Y-24433484D01*
X11083634Y-24433484D02*
X11064587Y-24423960D01*
X11064587Y-24423960D02*
X11055063Y-24414436D01*
X11055063Y-24414436D02*
X11045539Y-24395388D01*
X11045539Y-24395388D02*
X11036015Y-24357293D01*
X11036015Y-24357293D02*
X11036015Y-24309674D01*
X11036015Y-24309674D02*
X11045539Y-24271579D01*
X11045539Y-24271579D02*
X11055063Y-24252531D01*
X11055063Y-24252531D02*
X11064587Y-24243008D01*
X11064587Y-24243008D02*
X11083634Y-24233484D01*
X11236015Y-24414436D02*
X11245539Y-24423960D01*
X11245539Y-24423960D02*
X11236015Y-24433484D01*
X11236015Y-24433484D02*
X11226491Y-24423960D01*
X11226491Y-24423960D02*
X11236015Y-24414436D01*
X11236015Y-24414436D02*
X11236015Y-24433484D01*
X11369348Y-24233484D02*
X11388396Y-24233484D01*
X11388396Y-24233484D02*
X11407444Y-24243008D01*
X11407444Y-24243008D02*
X11416967Y-24252531D01*
X11416967Y-24252531D02*
X11426491Y-24271579D01*
X11426491Y-24271579D02*
X11436015Y-24309674D01*
X11436015Y-24309674D02*
X11436015Y-24357293D01*
X11436015Y-24357293D02*
X11426491Y-24395388D01*
X11426491Y-24395388D02*
X11416967Y-24414436D01*
X11416967Y-24414436D02*
X11407444Y-24423960D01*
X11407444Y-24423960D02*
X11388396Y-24433484D01*
X11388396Y-24433484D02*
X11369348Y-24433484D01*
X11369348Y-24433484D02*
X11350301Y-24423960D01*
X11350301Y-24423960D02*
X11340777Y-24414436D01*
X11340777Y-24414436D02*
X11331253Y-24395388D01*
X11331253Y-24395388D02*
X11321729Y-24357293D01*
X11321729Y-24357293D02*
X11321729Y-24309674D01*
X11321729Y-24309674D02*
X11331253Y-24271579D01*
X11331253Y-24271579D02*
X11340777Y-24252531D01*
X11340777Y-24252531D02*
X11350301Y-24243008D01*
X11350301Y-24243008D02*
X11369348Y-24233484D01*
X11607444Y-24300150D02*
X11607444Y-24433484D01*
X11559825Y-24223960D02*
X11512206Y-24366817D01*
X11512206Y-24366817D02*
X11636015Y-24366817D01*
X11693158Y-24233484D02*
X11826491Y-24233484D01*
X11826491Y-24233484D02*
X11740777Y-24433484D01*
X11893158Y-24252531D02*
X11902682Y-24243008D01*
X11902682Y-24243008D02*
X11921729Y-24233484D01*
X11921729Y-24233484D02*
X11969348Y-24233484D01*
X11969348Y-24233484D02*
X11988396Y-24243008D01*
X11988396Y-24243008D02*
X11997920Y-24252531D01*
X11997920Y-24252531D02*
X12007444Y-24271579D01*
X12007444Y-24271579D02*
X12007444Y-24290627D01*
X12007444Y-24290627D02*
X11997920Y-24319198D01*
X11997920Y-24319198D02*
X11883634Y-24433484D01*
X11883634Y-24433484D02*
X12007444Y-24433484D01*
X12083634Y-24233484D02*
X12083634Y-24271579D01*
X12159825Y-24233484D02*
X12159825Y-24271579D01*
X12455063Y-24509674D02*
X12445539Y-24500150D01*
X12445539Y-24500150D02*
X12426491Y-24471579D01*
X12426491Y-24471579D02*
X12416968Y-24452531D01*
X12416968Y-24452531D02*
X12407444Y-24423960D01*
X12407444Y-24423960D02*
X12397920Y-24376341D01*
X12397920Y-24376341D02*
X12397920Y-24338246D01*
X12397920Y-24338246D02*
X12407444Y-24290627D01*
X12407444Y-24290627D02*
X12416968Y-24262055D01*
X12416968Y-24262055D02*
X12426491Y-24243008D01*
X12426491Y-24243008D02*
X12445539Y-24214436D01*
X12445539Y-24214436D02*
X12455063Y-24204912D01*
X12512206Y-24233484D02*
X12636015Y-24233484D01*
X12636015Y-24233484D02*
X12569348Y-24309674D01*
X12569348Y-24309674D02*
X12597920Y-24309674D01*
X12597920Y-24309674D02*
X12616968Y-24319198D01*
X12616968Y-24319198D02*
X12626491Y-24328722D01*
X12626491Y-24328722D02*
X12636015Y-24347769D01*
X12636015Y-24347769D02*
X12636015Y-24395388D01*
X12636015Y-24395388D02*
X12626491Y-24414436D01*
X12626491Y-24414436D02*
X12616968Y-24423960D01*
X12616968Y-24423960D02*
X12597920Y-24433484D01*
X12597920Y-24433484D02*
X12540777Y-24433484D01*
X12540777Y-24433484D02*
X12521729Y-24423960D01*
X12521729Y-24423960D02*
X12512206Y-24414436D01*
X12712206Y-24252531D02*
X12721729Y-24243008D01*
X12721729Y-24243008D02*
X12740777Y-24233484D01*
X12740777Y-24233484D02*
X12788396Y-24233484D01*
X12788396Y-24233484D02*
X12807444Y-24243008D01*
X12807444Y-24243008D02*
X12816968Y-24252531D01*
X12816968Y-24252531D02*
X12826491Y-24271579D01*
X12826491Y-24271579D02*
X12826491Y-24290627D01*
X12826491Y-24290627D02*
X12816968Y-24319198D01*
X12816968Y-24319198D02*
X12702682Y-24433484D01*
X12702682Y-24433484D02*
X12826491Y-24433484D01*
X13064587Y-24433484D02*
X13064587Y-24233484D01*
X13150301Y-24433484D02*
X13150301Y-24328722D01*
X13150301Y-24328722D02*
X13140777Y-24309674D01*
X13140777Y-24309674D02*
X13121730Y-24300150D01*
X13121730Y-24300150D02*
X13093158Y-24300150D01*
X13093158Y-24300150D02*
X13074110Y-24309674D01*
X13074110Y-24309674D02*
X13064587Y-24319198D01*
X13274110Y-24433484D02*
X13255063Y-24423960D01*
X13255063Y-24423960D02*
X13245539Y-24414436D01*
X13245539Y-24414436D02*
X13236015Y-24395388D01*
X13236015Y-24395388D02*
X13236015Y-24338246D01*
X13236015Y-24338246D02*
X13245539Y-24319198D01*
X13245539Y-24319198D02*
X13255063Y-24309674D01*
X13255063Y-24309674D02*
X13274110Y-24300150D01*
X13274110Y-24300150D02*
X13302682Y-24300150D01*
X13302682Y-24300150D02*
X13321730Y-24309674D01*
X13321730Y-24309674D02*
X13331253Y-24319198D01*
X13331253Y-24319198D02*
X13340777Y-24338246D01*
X13340777Y-24338246D02*
X13340777Y-24395388D01*
X13340777Y-24395388D02*
X13331253Y-24414436D01*
X13331253Y-24414436D02*
X13321730Y-24423960D01*
X13321730Y-24423960D02*
X13302682Y-24433484D01*
X13302682Y-24433484D02*
X13274110Y-24433484D01*
X13455063Y-24433484D02*
X13436015Y-24423960D01*
X13436015Y-24423960D02*
X13426491Y-24404912D01*
X13426491Y-24404912D02*
X13426491Y-24233484D01*
X13607444Y-24423960D02*
X13588396Y-24433484D01*
X13588396Y-24433484D02*
X13550301Y-24433484D01*
X13550301Y-24433484D02*
X13531253Y-24423960D01*
X13531253Y-24423960D02*
X13521730Y-24404912D01*
X13521730Y-24404912D02*
X13521730Y-24328722D01*
X13521730Y-24328722D02*
X13531253Y-24309674D01*
X13531253Y-24309674D02*
X13550301Y-24300150D01*
X13550301Y-24300150D02*
X13588396Y-24300150D01*
X13588396Y-24300150D02*
X13607444Y-24309674D01*
X13607444Y-24309674D02*
X13616968Y-24328722D01*
X13616968Y-24328722D02*
X13616968Y-24347769D01*
X13616968Y-24347769D02*
X13521730Y-24366817D01*
X13693158Y-24423960D02*
X13712206Y-24433484D01*
X13712206Y-24433484D02*
X13750301Y-24433484D01*
X13750301Y-24433484D02*
X13769349Y-24423960D01*
X13769349Y-24423960D02*
X13778872Y-24404912D01*
X13778872Y-24404912D02*
X13778872Y-24395388D01*
X13778872Y-24395388D02*
X13769349Y-24376341D01*
X13769349Y-24376341D02*
X13750301Y-24366817D01*
X13750301Y-24366817D02*
X13721730Y-24366817D01*
X13721730Y-24366817D02*
X13702682Y-24357293D01*
X13702682Y-24357293D02*
X13693158Y-24338246D01*
X13693158Y-24338246D02*
X13693158Y-24328722D01*
X13693158Y-24328722D02*
X13702682Y-24309674D01*
X13702682Y-24309674D02*
X13721730Y-24300150D01*
X13721730Y-24300150D02*
X13750301Y-24300150D01*
X13750301Y-24300150D02*
X13769349Y-24309674D01*
X13845539Y-24509674D02*
X13855063Y-24500150D01*
X13855063Y-24500150D02*
X13874111Y-24471579D01*
X13874111Y-24471579D02*
X13883634Y-24452531D01*
X13883634Y-24452531D02*
X13893158Y-24423960D01*
X13893158Y-24423960D02*
X13902682Y-24376341D01*
X13902682Y-24376341D02*
X13902682Y-24338246D01*
X13902682Y-24338246D02*
X13893158Y-24290627D01*
X13893158Y-24290627D02*
X13883634Y-24262055D01*
X13883634Y-24262055D02*
X13874111Y-24243008D01*
X13874111Y-24243008D02*
X13855063Y-24214436D01*
X13855063Y-24214436D02*
X13845539Y-24204912D01*
M02*
