%TF.GenerationSoftware,KiCad,Pcbnew,7.0.9*%
%TF.CreationDate,2023-12-15T21:18:18+02:00*%
%TF.ProjectId,loadshedding,6c6f6164-7368-4656-9464-696e672e6b69,1*%
%TF.SameCoordinates,Original*%
%TF.FileFunction,Drillmap*%
%TF.FilePolarity,Positive*%
%FSLAX45Y45*%
G04 Gerber Fmt 4.5, Leading zero omitted, Abs format (unit mm)*
G04 Created by KiCad (PCBNEW 7.0.9) date 2023-12-15 21:18:18*
%MOMM*%
%LPD*%
G01*
G04 APERTURE LIST*
%ADD10C,0.200000*%
%ADD11C,0.260000*%
G04 APERTURE END LIST*
D10*
X8890000Y-8890000D02*
X31242000Y-8890000D01*
X31242000Y-21844000D01*
X8890000Y-21844000D01*
X8890000Y-8890000D01*
X8998000Y-14792000D02*
X9198000Y-14992000D01*
X9198000Y-14792000D02*
X8998000Y-14992000D01*
X8998000Y-17012000D02*
X9198000Y-17212000D01*
X9198000Y-17012000D02*
X8998000Y-17212000D01*
X14678000Y-14792000D02*
X14878000Y-14992000D01*
X14878000Y-14792000D02*
X14678000Y-14992000D01*
X14678000Y-17012000D02*
X14878000Y-17212000D01*
X14878000Y-17012000D02*
X14678000Y-17212000D01*
D11*
X22126400Y-10668000D02*
G75*
G03*
X22126400Y-10668000I-130000J0D01*
G01*
X22126400Y-12903200D02*
G75*
G03*
X22126400Y-12903200I-130000J0D01*
G01*
X24260000Y-10668000D02*
G75*
G03*
X24260000Y-10668000I-130000J0D01*
G01*
X24260000Y-12903200D02*
G75*
G03*
X24260000Y-12903200I-130000J0D01*
G01*
D10*
X9140777Y-22165484D02*
X9140777Y-21965484D01*
X9140777Y-21965484D02*
X9188396Y-21965484D01*
X9188396Y-21965484D02*
X9216967Y-21975008D01*
X9216967Y-21975008D02*
X9236015Y-21994055D01*
X9236015Y-21994055D02*
X9245539Y-22013103D01*
X9245539Y-22013103D02*
X9255063Y-22051198D01*
X9255063Y-22051198D02*
X9255063Y-22079770D01*
X9255063Y-22079770D02*
X9245539Y-22117865D01*
X9245539Y-22117865D02*
X9236015Y-22136912D01*
X9236015Y-22136912D02*
X9216967Y-22155960D01*
X9216967Y-22155960D02*
X9188396Y-22165484D01*
X9188396Y-22165484D02*
X9140777Y-22165484D01*
X9340777Y-22165484D02*
X9340777Y-22032150D01*
X9340777Y-22070246D02*
X9350301Y-22051198D01*
X9350301Y-22051198D02*
X9359824Y-22041674D01*
X9359824Y-22041674D02*
X9378872Y-22032150D01*
X9378872Y-22032150D02*
X9397920Y-22032150D01*
X9464586Y-22165484D02*
X9464586Y-22032150D01*
X9464586Y-21965484D02*
X9455063Y-21975008D01*
X9455063Y-21975008D02*
X9464586Y-21984531D01*
X9464586Y-21984531D02*
X9474110Y-21975008D01*
X9474110Y-21975008D02*
X9464586Y-21965484D01*
X9464586Y-21965484D02*
X9464586Y-21984531D01*
X9588396Y-22165484D02*
X9569348Y-22155960D01*
X9569348Y-22155960D02*
X9559824Y-22136912D01*
X9559824Y-22136912D02*
X9559824Y-21965484D01*
X9693158Y-22165484D02*
X9674110Y-22155960D01*
X9674110Y-22155960D02*
X9664586Y-22136912D01*
X9664586Y-22136912D02*
X9664586Y-21965484D01*
X9921729Y-22165484D02*
X9921729Y-21965484D01*
X9921729Y-21965484D02*
X9988396Y-22108341D01*
X9988396Y-22108341D02*
X10055063Y-21965484D01*
X10055063Y-21965484D02*
X10055063Y-22165484D01*
X10236015Y-22165484D02*
X10236015Y-22060722D01*
X10236015Y-22060722D02*
X10226491Y-22041674D01*
X10226491Y-22041674D02*
X10207444Y-22032150D01*
X10207444Y-22032150D02*
X10169348Y-22032150D01*
X10169348Y-22032150D02*
X10150301Y-22041674D01*
X10236015Y-22155960D02*
X10216967Y-22165484D01*
X10216967Y-22165484D02*
X10169348Y-22165484D01*
X10169348Y-22165484D02*
X10150301Y-22155960D01*
X10150301Y-22155960D02*
X10140777Y-22136912D01*
X10140777Y-22136912D02*
X10140777Y-22117865D01*
X10140777Y-22117865D02*
X10150301Y-22098817D01*
X10150301Y-22098817D02*
X10169348Y-22089293D01*
X10169348Y-22089293D02*
X10216967Y-22089293D01*
X10216967Y-22089293D02*
X10236015Y-22079770D01*
X10331253Y-22032150D02*
X10331253Y-22232150D01*
X10331253Y-22041674D02*
X10350301Y-22032150D01*
X10350301Y-22032150D02*
X10388396Y-22032150D01*
X10388396Y-22032150D02*
X10407444Y-22041674D01*
X10407444Y-22041674D02*
X10416967Y-22051198D01*
X10416967Y-22051198D02*
X10426491Y-22070246D01*
X10426491Y-22070246D02*
X10426491Y-22127389D01*
X10426491Y-22127389D02*
X10416967Y-22146436D01*
X10416967Y-22146436D02*
X10407444Y-22155960D01*
X10407444Y-22155960D02*
X10388396Y-22165484D01*
X10388396Y-22165484D02*
X10350301Y-22165484D01*
X10350301Y-22165484D02*
X10331253Y-22155960D01*
X10512205Y-22146436D02*
X10521729Y-22155960D01*
X10521729Y-22155960D02*
X10512205Y-22165484D01*
X10512205Y-22165484D02*
X10502682Y-22155960D01*
X10502682Y-22155960D02*
X10512205Y-22146436D01*
X10512205Y-22146436D02*
X10512205Y-22165484D01*
X10512205Y-22041674D02*
X10521729Y-22051198D01*
X10521729Y-22051198D02*
X10512205Y-22060722D01*
X10512205Y-22060722D02*
X10502682Y-22051198D01*
X10502682Y-22051198D02*
X10512205Y-22041674D01*
X10512205Y-22041674D02*
X10512205Y-22060722D01*
X8680000Y-22394000D02*
X8880000Y-22594000D01*
X8880000Y-22394000D02*
X8680000Y-22594000D01*
X9131253Y-22404531D02*
X9140777Y-22395008D01*
X9140777Y-22395008D02*
X9159824Y-22385484D01*
X9159824Y-22385484D02*
X9207444Y-22385484D01*
X9207444Y-22385484D02*
X9226491Y-22395008D01*
X9226491Y-22395008D02*
X9236015Y-22404531D01*
X9236015Y-22404531D02*
X9245539Y-22423579D01*
X9245539Y-22423579D02*
X9245539Y-22442627D01*
X9245539Y-22442627D02*
X9236015Y-22471198D01*
X9236015Y-22471198D02*
X9121729Y-22585484D01*
X9121729Y-22585484D02*
X9245539Y-22585484D01*
X9331253Y-22566436D02*
X9340777Y-22575960D01*
X9340777Y-22575960D02*
X9331253Y-22585484D01*
X9331253Y-22585484D02*
X9321729Y-22575960D01*
X9321729Y-22575960D02*
X9331253Y-22566436D01*
X9331253Y-22566436D02*
X9331253Y-22585484D01*
X9464586Y-22385484D02*
X9483634Y-22385484D01*
X9483634Y-22385484D02*
X9502682Y-22395008D01*
X9502682Y-22395008D02*
X9512205Y-22404531D01*
X9512205Y-22404531D02*
X9521729Y-22423579D01*
X9521729Y-22423579D02*
X9531253Y-22461674D01*
X9531253Y-22461674D02*
X9531253Y-22509293D01*
X9531253Y-22509293D02*
X9521729Y-22547388D01*
X9521729Y-22547388D02*
X9512205Y-22566436D01*
X9512205Y-22566436D02*
X9502682Y-22575960D01*
X9502682Y-22575960D02*
X9483634Y-22585484D01*
X9483634Y-22585484D02*
X9464586Y-22585484D01*
X9464586Y-22585484D02*
X9445539Y-22575960D01*
X9445539Y-22575960D02*
X9436015Y-22566436D01*
X9436015Y-22566436D02*
X9426491Y-22547388D01*
X9426491Y-22547388D02*
X9416967Y-22509293D01*
X9416967Y-22509293D02*
X9416967Y-22461674D01*
X9416967Y-22461674D02*
X9426491Y-22423579D01*
X9426491Y-22423579D02*
X9436015Y-22404531D01*
X9436015Y-22404531D02*
X9445539Y-22395008D01*
X9445539Y-22395008D02*
X9464586Y-22385484D01*
X9655063Y-22385484D02*
X9674110Y-22385484D01*
X9674110Y-22385484D02*
X9693158Y-22395008D01*
X9693158Y-22395008D02*
X9702682Y-22404531D01*
X9702682Y-22404531D02*
X9712205Y-22423579D01*
X9712205Y-22423579D02*
X9721729Y-22461674D01*
X9721729Y-22461674D02*
X9721729Y-22509293D01*
X9721729Y-22509293D02*
X9712205Y-22547388D01*
X9712205Y-22547388D02*
X9702682Y-22566436D01*
X9702682Y-22566436D02*
X9693158Y-22575960D01*
X9693158Y-22575960D02*
X9674110Y-22585484D01*
X9674110Y-22585484D02*
X9655063Y-22585484D01*
X9655063Y-22585484D02*
X9636015Y-22575960D01*
X9636015Y-22575960D02*
X9626491Y-22566436D01*
X9626491Y-22566436D02*
X9616967Y-22547388D01*
X9616967Y-22547388D02*
X9607444Y-22509293D01*
X9607444Y-22509293D02*
X9607444Y-22461674D01*
X9607444Y-22461674D02*
X9616967Y-22423579D01*
X9616967Y-22423579D02*
X9626491Y-22404531D01*
X9626491Y-22404531D02*
X9636015Y-22395008D01*
X9636015Y-22395008D02*
X9655063Y-22385484D01*
X9845539Y-22385484D02*
X9864586Y-22385484D01*
X9864586Y-22385484D02*
X9883634Y-22395008D01*
X9883634Y-22395008D02*
X9893158Y-22404531D01*
X9893158Y-22404531D02*
X9902682Y-22423579D01*
X9902682Y-22423579D02*
X9912205Y-22461674D01*
X9912205Y-22461674D02*
X9912205Y-22509293D01*
X9912205Y-22509293D02*
X9902682Y-22547388D01*
X9902682Y-22547388D02*
X9893158Y-22566436D01*
X9893158Y-22566436D02*
X9883634Y-22575960D01*
X9883634Y-22575960D02*
X9864586Y-22585484D01*
X9864586Y-22585484D02*
X9845539Y-22585484D01*
X9845539Y-22585484D02*
X9826491Y-22575960D01*
X9826491Y-22575960D02*
X9816967Y-22566436D01*
X9816967Y-22566436D02*
X9807444Y-22547388D01*
X9807444Y-22547388D02*
X9797920Y-22509293D01*
X9797920Y-22509293D02*
X9797920Y-22461674D01*
X9797920Y-22461674D02*
X9807444Y-22423579D01*
X9807444Y-22423579D02*
X9816967Y-22404531D01*
X9816967Y-22404531D02*
X9826491Y-22395008D01*
X9826491Y-22395008D02*
X9845539Y-22385484D01*
X9997920Y-22585484D02*
X9997920Y-22452150D01*
X9997920Y-22471198D02*
X10007444Y-22461674D01*
X10007444Y-22461674D02*
X10026491Y-22452150D01*
X10026491Y-22452150D02*
X10055063Y-22452150D01*
X10055063Y-22452150D02*
X10074110Y-22461674D01*
X10074110Y-22461674D02*
X10083634Y-22480722D01*
X10083634Y-22480722D02*
X10083634Y-22585484D01*
X10083634Y-22480722D02*
X10093158Y-22461674D01*
X10093158Y-22461674D02*
X10112205Y-22452150D01*
X10112205Y-22452150D02*
X10140777Y-22452150D01*
X10140777Y-22452150D02*
X10159825Y-22461674D01*
X10159825Y-22461674D02*
X10169348Y-22480722D01*
X10169348Y-22480722D02*
X10169348Y-22585484D01*
X10264586Y-22585484D02*
X10264586Y-22452150D01*
X10264586Y-22471198D02*
X10274110Y-22461674D01*
X10274110Y-22461674D02*
X10293158Y-22452150D01*
X10293158Y-22452150D02*
X10321729Y-22452150D01*
X10321729Y-22452150D02*
X10340777Y-22461674D01*
X10340777Y-22461674D02*
X10350301Y-22480722D01*
X10350301Y-22480722D02*
X10350301Y-22585484D01*
X10350301Y-22480722D02*
X10359825Y-22461674D01*
X10359825Y-22461674D02*
X10378872Y-22452150D01*
X10378872Y-22452150D02*
X10407444Y-22452150D01*
X10407444Y-22452150D02*
X10426491Y-22461674D01*
X10426491Y-22461674D02*
X10436015Y-22480722D01*
X10436015Y-22480722D02*
X10436015Y-22585484D01*
X10826491Y-22375960D02*
X10655063Y-22633103D01*
X11083634Y-22385484D02*
X11102682Y-22385484D01*
X11102682Y-22385484D02*
X11121729Y-22395008D01*
X11121729Y-22395008D02*
X11131253Y-22404531D01*
X11131253Y-22404531D02*
X11140777Y-22423579D01*
X11140777Y-22423579D02*
X11150301Y-22461674D01*
X11150301Y-22461674D02*
X11150301Y-22509293D01*
X11150301Y-22509293D02*
X11140777Y-22547388D01*
X11140777Y-22547388D02*
X11131253Y-22566436D01*
X11131253Y-22566436D02*
X11121729Y-22575960D01*
X11121729Y-22575960D02*
X11102682Y-22585484D01*
X11102682Y-22585484D02*
X11083634Y-22585484D01*
X11083634Y-22585484D02*
X11064587Y-22575960D01*
X11064587Y-22575960D02*
X11055063Y-22566436D01*
X11055063Y-22566436D02*
X11045539Y-22547388D01*
X11045539Y-22547388D02*
X11036015Y-22509293D01*
X11036015Y-22509293D02*
X11036015Y-22461674D01*
X11036015Y-22461674D02*
X11045539Y-22423579D01*
X11045539Y-22423579D02*
X11055063Y-22404531D01*
X11055063Y-22404531D02*
X11064587Y-22395008D01*
X11064587Y-22395008D02*
X11083634Y-22385484D01*
X11236015Y-22566436D02*
X11245539Y-22575960D01*
X11245539Y-22575960D02*
X11236015Y-22585484D01*
X11236015Y-22585484D02*
X11226491Y-22575960D01*
X11226491Y-22575960D02*
X11236015Y-22566436D01*
X11236015Y-22566436D02*
X11236015Y-22585484D01*
X11369348Y-22385484D02*
X11388396Y-22385484D01*
X11388396Y-22385484D02*
X11407444Y-22395008D01*
X11407444Y-22395008D02*
X11416967Y-22404531D01*
X11416967Y-22404531D02*
X11426491Y-22423579D01*
X11426491Y-22423579D02*
X11436015Y-22461674D01*
X11436015Y-22461674D02*
X11436015Y-22509293D01*
X11436015Y-22509293D02*
X11426491Y-22547388D01*
X11426491Y-22547388D02*
X11416967Y-22566436D01*
X11416967Y-22566436D02*
X11407444Y-22575960D01*
X11407444Y-22575960D02*
X11388396Y-22585484D01*
X11388396Y-22585484D02*
X11369348Y-22585484D01*
X11369348Y-22585484D02*
X11350301Y-22575960D01*
X11350301Y-22575960D02*
X11340777Y-22566436D01*
X11340777Y-22566436D02*
X11331253Y-22547388D01*
X11331253Y-22547388D02*
X11321729Y-22509293D01*
X11321729Y-22509293D02*
X11321729Y-22461674D01*
X11321729Y-22461674D02*
X11331253Y-22423579D01*
X11331253Y-22423579D02*
X11340777Y-22404531D01*
X11340777Y-22404531D02*
X11350301Y-22395008D01*
X11350301Y-22395008D02*
X11369348Y-22385484D01*
X11502682Y-22385484D02*
X11636015Y-22385484D01*
X11636015Y-22385484D02*
X11550301Y-22585484D01*
X11740777Y-22471198D02*
X11721729Y-22461674D01*
X11721729Y-22461674D02*
X11712206Y-22452150D01*
X11712206Y-22452150D02*
X11702682Y-22433103D01*
X11702682Y-22433103D02*
X11702682Y-22423579D01*
X11702682Y-22423579D02*
X11712206Y-22404531D01*
X11712206Y-22404531D02*
X11721729Y-22395008D01*
X11721729Y-22395008D02*
X11740777Y-22385484D01*
X11740777Y-22385484D02*
X11778872Y-22385484D01*
X11778872Y-22385484D02*
X11797920Y-22395008D01*
X11797920Y-22395008D02*
X11807444Y-22404531D01*
X11807444Y-22404531D02*
X11816967Y-22423579D01*
X11816967Y-22423579D02*
X11816967Y-22433103D01*
X11816967Y-22433103D02*
X11807444Y-22452150D01*
X11807444Y-22452150D02*
X11797920Y-22461674D01*
X11797920Y-22461674D02*
X11778872Y-22471198D01*
X11778872Y-22471198D02*
X11740777Y-22471198D01*
X11740777Y-22471198D02*
X11721729Y-22480722D01*
X11721729Y-22480722D02*
X11712206Y-22490246D01*
X11712206Y-22490246D02*
X11702682Y-22509293D01*
X11702682Y-22509293D02*
X11702682Y-22547388D01*
X11702682Y-22547388D02*
X11712206Y-22566436D01*
X11712206Y-22566436D02*
X11721729Y-22575960D01*
X11721729Y-22575960D02*
X11740777Y-22585484D01*
X11740777Y-22585484D02*
X11778872Y-22585484D01*
X11778872Y-22585484D02*
X11797920Y-22575960D01*
X11797920Y-22575960D02*
X11807444Y-22566436D01*
X11807444Y-22566436D02*
X11816967Y-22547388D01*
X11816967Y-22547388D02*
X11816967Y-22509293D01*
X11816967Y-22509293D02*
X11807444Y-22490246D01*
X11807444Y-22490246D02*
X11797920Y-22480722D01*
X11797920Y-22480722D02*
X11778872Y-22471198D01*
X11883634Y-22385484D02*
X12016967Y-22385484D01*
X12016967Y-22385484D02*
X11931253Y-22585484D01*
X12083634Y-22385484D02*
X12083634Y-22423579D01*
X12159825Y-22385484D02*
X12159825Y-22423579D01*
X12455063Y-22661674D02*
X12445539Y-22652150D01*
X12445539Y-22652150D02*
X12426491Y-22623579D01*
X12426491Y-22623579D02*
X12416968Y-22604531D01*
X12416968Y-22604531D02*
X12407444Y-22575960D01*
X12407444Y-22575960D02*
X12397920Y-22528341D01*
X12397920Y-22528341D02*
X12397920Y-22490246D01*
X12397920Y-22490246D02*
X12407444Y-22442627D01*
X12407444Y-22442627D02*
X12416968Y-22414055D01*
X12416968Y-22414055D02*
X12426491Y-22395008D01*
X12426491Y-22395008D02*
X12445539Y-22366436D01*
X12445539Y-22366436D02*
X12455063Y-22356912D01*
X12616968Y-22452150D02*
X12616968Y-22585484D01*
X12569348Y-22375960D02*
X12521729Y-22518817D01*
X12521729Y-22518817D02*
X12645539Y-22518817D01*
X12874110Y-22585484D02*
X12874110Y-22385484D01*
X12959825Y-22585484D02*
X12959825Y-22480722D01*
X12959825Y-22480722D02*
X12950301Y-22461674D01*
X12950301Y-22461674D02*
X12931253Y-22452150D01*
X12931253Y-22452150D02*
X12902682Y-22452150D01*
X12902682Y-22452150D02*
X12883634Y-22461674D01*
X12883634Y-22461674D02*
X12874110Y-22471198D01*
X13083634Y-22585484D02*
X13064587Y-22575960D01*
X13064587Y-22575960D02*
X13055063Y-22566436D01*
X13055063Y-22566436D02*
X13045539Y-22547388D01*
X13045539Y-22547388D02*
X13045539Y-22490246D01*
X13045539Y-22490246D02*
X13055063Y-22471198D01*
X13055063Y-22471198D02*
X13064587Y-22461674D01*
X13064587Y-22461674D02*
X13083634Y-22452150D01*
X13083634Y-22452150D02*
X13112206Y-22452150D01*
X13112206Y-22452150D02*
X13131253Y-22461674D01*
X13131253Y-22461674D02*
X13140777Y-22471198D01*
X13140777Y-22471198D02*
X13150301Y-22490246D01*
X13150301Y-22490246D02*
X13150301Y-22547388D01*
X13150301Y-22547388D02*
X13140777Y-22566436D01*
X13140777Y-22566436D02*
X13131253Y-22575960D01*
X13131253Y-22575960D02*
X13112206Y-22585484D01*
X13112206Y-22585484D02*
X13083634Y-22585484D01*
X13264587Y-22585484D02*
X13245539Y-22575960D01*
X13245539Y-22575960D02*
X13236015Y-22556912D01*
X13236015Y-22556912D02*
X13236015Y-22385484D01*
X13416968Y-22575960D02*
X13397920Y-22585484D01*
X13397920Y-22585484D02*
X13359825Y-22585484D01*
X13359825Y-22585484D02*
X13340777Y-22575960D01*
X13340777Y-22575960D02*
X13331253Y-22556912D01*
X13331253Y-22556912D02*
X13331253Y-22480722D01*
X13331253Y-22480722D02*
X13340777Y-22461674D01*
X13340777Y-22461674D02*
X13359825Y-22452150D01*
X13359825Y-22452150D02*
X13397920Y-22452150D01*
X13397920Y-22452150D02*
X13416968Y-22461674D01*
X13416968Y-22461674D02*
X13426491Y-22480722D01*
X13426491Y-22480722D02*
X13426491Y-22499769D01*
X13426491Y-22499769D02*
X13331253Y-22518817D01*
X13502682Y-22575960D02*
X13521730Y-22585484D01*
X13521730Y-22585484D02*
X13559825Y-22585484D01*
X13559825Y-22585484D02*
X13578872Y-22575960D01*
X13578872Y-22575960D02*
X13588396Y-22556912D01*
X13588396Y-22556912D02*
X13588396Y-22547388D01*
X13588396Y-22547388D02*
X13578872Y-22528341D01*
X13578872Y-22528341D02*
X13559825Y-22518817D01*
X13559825Y-22518817D02*
X13531253Y-22518817D01*
X13531253Y-22518817D02*
X13512206Y-22509293D01*
X13512206Y-22509293D02*
X13502682Y-22490246D01*
X13502682Y-22490246D02*
X13502682Y-22480722D01*
X13502682Y-22480722D02*
X13512206Y-22461674D01*
X13512206Y-22461674D02*
X13531253Y-22452150D01*
X13531253Y-22452150D02*
X13559825Y-22452150D01*
X13559825Y-22452150D02*
X13578872Y-22461674D01*
X13655063Y-22661674D02*
X13664587Y-22652150D01*
X13664587Y-22652150D02*
X13683634Y-22623579D01*
X13683634Y-22623579D02*
X13693158Y-22604531D01*
X13693158Y-22604531D02*
X13702682Y-22575960D01*
X13702682Y-22575960D02*
X13712206Y-22528341D01*
X13712206Y-22528341D02*
X13712206Y-22490246D01*
X13712206Y-22490246D02*
X13702682Y-22442627D01*
X13702682Y-22442627D02*
X13693158Y-22414055D01*
X13693158Y-22414055D02*
X13683634Y-22395008D01*
X13683634Y-22395008D02*
X13664587Y-22366436D01*
X13664587Y-22366436D02*
X13655063Y-22356912D01*
X14016968Y-22661674D02*
X14007444Y-22652150D01*
X14007444Y-22652150D02*
X13988396Y-22623579D01*
X13988396Y-22623579D02*
X13978872Y-22604531D01*
X13978872Y-22604531D02*
X13969349Y-22575960D01*
X13969349Y-22575960D02*
X13959825Y-22528341D01*
X13959825Y-22528341D02*
X13959825Y-22490246D01*
X13959825Y-22490246D02*
X13969349Y-22442627D01*
X13969349Y-22442627D02*
X13978872Y-22414055D01*
X13978872Y-22414055D02*
X13988396Y-22395008D01*
X13988396Y-22395008D02*
X14007444Y-22366436D01*
X14007444Y-22366436D02*
X14016968Y-22356912D01*
X14093158Y-22452150D02*
X14093158Y-22585484D01*
X14093158Y-22471198D02*
X14102682Y-22461674D01*
X14102682Y-22461674D02*
X14121730Y-22452150D01*
X14121730Y-22452150D02*
X14150301Y-22452150D01*
X14150301Y-22452150D02*
X14169349Y-22461674D01*
X14169349Y-22461674D02*
X14178872Y-22480722D01*
X14178872Y-22480722D02*
X14178872Y-22585484D01*
X14302682Y-22585484D02*
X14283634Y-22575960D01*
X14283634Y-22575960D02*
X14274111Y-22566436D01*
X14274111Y-22566436D02*
X14264587Y-22547388D01*
X14264587Y-22547388D02*
X14264587Y-22490246D01*
X14264587Y-22490246D02*
X14274111Y-22471198D01*
X14274111Y-22471198D02*
X14283634Y-22461674D01*
X14283634Y-22461674D02*
X14302682Y-22452150D01*
X14302682Y-22452150D02*
X14331253Y-22452150D01*
X14331253Y-22452150D02*
X14350301Y-22461674D01*
X14350301Y-22461674D02*
X14359825Y-22471198D01*
X14359825Y-22471198D02*
X14369349Y-22490246D01*
X14369349Y-22490246D02*
X14369349Y-22547388D01*
X14369349Y-22547388D02*
X14359825Y-22566436D01*
X14359825Y-22566436D02*
X14350301Y-22575960D01*
X14350301Y-22575960D02*
X14331253Y-22585484D01*
X14331253Y-22585484D02*
X14302682Y-22585484D01*
X14426492Y-22452150D02*
X14502682Y-22452150D01*
X14455063Y-22385484D02*
X14455063Y-22556912D01*
X14455063Y-22556912D02*
X14464587Y-22575960D01*
X14464587Y-22575960D02*
X14483634Y-22585484D01*
X14483634Y-22585484D02*
X14502682Y-22585484D01*
X14721730Y-22452150D02*
X14721730Y-22652150D01*
X14721730Y-22461674D02*
X14740777Y-22452150D01*
X14740777Y-22452150D02*
X14778873Y-22452150D01*
X14778873Y-22452150D02*
X14797920Y-22461674D01*
X14797920Y-22461674D02*
X14807444Y-22471198D01*
X14807444Y-22471198D02*
X14816968Y-22490246D01*
X14816968Y-22490246D02*
X14816968Y-22547388D01*
X14816968Y-22547388D02*
X14807444Y-22566436D01*
X14807444Y-22566436D02*
X14797920Y-22575960D01*
X14797920Y-22575960D02*
X14778873Y-22585484D01*
X14778873Y-22585484D02*
X14740777Y-22585484D01*
X14740777Y-22585484D02*
X14721730Y-22575960D01*
X14931253Y-22585484D02*
X14912206Y-22575960D01*
X14912206Y-22575960D02*
X14902682Y-22556912D01*
X14902682Y-22556912D02*
X14902682Y-22385484D01*
X15093158Y-22585484D02*
X15093158Y-22480722D01*
X15093158Y-22480722D02*
X15083634Y-22461674D01*
X15083634Y-22461674D02*
X15064587Y-22452150D01*
X15064587Y-22452150D02*
X15026492Y-22452150D01*
X15026492Y-22452150D02*
X15007444Y-22461674D01*
X15093158Y-22575960D02*
X15074111Y-22585484D01*
X15074111Y-22585484D02*
X15026492Y-22585484D01*
X15026492Y-22585484D02*
X15007444Y-22575960D01*
X15007444Y-22575960D02*
X14997920Y-22556912D01*
X14997920Y-22556912D02*
X14997920Y-22537865D01*
X14997920Y-22537865D02*
X15007444Y-22518817D01*
X15007444Y-22518817D02*
X15026492Y-22509293D01*
X15026492Y-22509293D02*
X15074111Y-22509293D01*
X15074111Y-22509293D02*
X15093158Y-22499769D01*
X15159825Y-22452150D02*
X15236015Y-22452150D01*
X15188396Y-22385484D02*
X15188396Y-22556912D01*
X15188396Y-22556912D02*
X15197920Y-22575960D01*
X15197920Y-22575960D02*
X15216968Y-22585484D01*
X15216968Y-22585484D02*
X15236015Y-22585484D01*
X15378873Y-22575960D02*
X15359825Y-22585484D01*
X15359825Y-22585484D02*
X15321730Y-22585484D01*
X15321730Y-22585484D02*
X15302682Y-22575960D01*
X15302682Y-22575960D02*
X15293158Y-22556912D01*
X15293158Y-22556912D02*
X15293158Y-22480722D01*
X15293158Y-22480722D02*
X15302682Y-22461674D01*
X15302682Y-22461674D02*
X15321730Y-22452150D01*
X15321730Y-22452150D02*
X15359825Y-22452150D01*
X15359825Y-22452150D02*
X15378873Y-22461674D01*
X15378873Y-22461674D02*
X15388396Y-22480722D01*
X15388396Y-22480722D02*
X15388396Y-22499769D01*
X15388396Y-22499769D02*
X15293158Y-22518817D01*
X15559825Y-22585484D02*
X15559825Y-22385484D01*
X15559825Y-22575960D02*
X15540777Y-22585484D01*
X15540777Y-22585484D02*
X15502682Y-22585484D01*
X15502682Y-22585484D02*
X15483634Y-22575960D01*
X15483634Y-22575960D02*
X15474111Y-22566436D01*
X15474111Y-22566436D02*
X15464587Y-22547388D01*
X15464587Y-22547388D02*
X15464587Y-22490246D01*
X15464587Y-22490246D02*
X15474111Y-22471198D01*
X15474111Y-22471198D02*
X15483634Y-22461674D01*
X15483634Y-22461674D02*
X15502682Y-22452150D01*
X15502682Y-22452150D02*
X15540777Y-22452150D01*
X15540777Y-22452150D02*
X15559825Y-22461674D01*
X15636015Y-22661674D02*
X15645539Y-22652150D01*
X15645539Y-22652150D02*
X15664587Y-22623579D01*
X15664587Y-22623579D02*
X15674111Y-22604531D01*
X15674111Y-22604531D02*
X15683634Y-22575960D01*
X15683634Y-22575960D02*
X15693158Y-22528341D01*
X15693158Y-22528341D02*
X15693158Y-22490246D01*
X15693158Y-22490246D02*
X15683634Y-22442627D01*
X15683634Y-22442627D02*
X15674111Y-22414055D01*
X15674111Y-22414055D02*
X15664587Y-22395008D01*
X15664587Y-22395008D02*
X15645539Y-22366436D01*
X15645539Y-22366436D02*
X15636015Y-22356912D01*
X8880000Y-22814000D02*
G75*
G03*
X8880000Y-22814000I-100000J0D01*
G01*
X9131253Y-22724531D02*
X9140777Y-22715008D01*
X9140777Y-22715008D02*
X9159824Y-22705484D01*
X9159824Y-22705484D02*
X9207444Y-22705484D01*
X9207444Y-22705484D02*
X9226491Y-22715008D01*
X9226491Y-22715008D02*
X9236015Y-22724531D01*
X9236015Y-22724531D02*
X9245539Y-22743579D01*
X9245539Y-22743579D02*
X9245539Y-22762627D01*
X9245539Y-22762627D02*
X9236015Y-22791198D01*
X9236015Y-22791198D02*
X9121729Y-22905484D01*
X9121729Y-22905484D02*
X9245539Y-22905484D01*
X9331253Y-22886436D02*
X9340777Y-22895960D01*
X9340777Y-22895960D02*
X9331253Y-22905484D01*
X9331253Y-22905484D02*
X9321729Y-22895960D01*
X9321729Y-22895960D02*
X9331253Y-22886436D01*
X9331253Y-22886436D02*
X9331253Y-22905484D01*
X9512205Y-22705484D02*
X9474110Y-22705484D01*
X9474110Y-22705484D02*
X9455063Y-22715008D01*
X9455063Y-22715008D02*
X9445539Y-22724531D01*
X9445539Y-22724531D02*
X9426491Y-22753103D01*
X9426491Y-22753103D02*
X9416967Y-22791198D01*
X9416967Y-22791198D02*
X9416967Y-22867388D01*
X9416967Y-22867388D02*
X9426491Y-22886436D01*
X9426491Y-22886436D02*
X9436015Y-22895960D01*
X9436015Y-22895960D02*
X9455063Y-22905484D01*
X9455063Y-22905484D02*
X9493158Y-22905484D01*
X9493158Y-22905484D02*
X9512205Y-22895960D01*
X9512205Y-22895960D02*
X9521729Y-22886436D01*
X9521729Y-22886436D02*
X9531253Y-22867388D01*
X9531253Y-22867388D02*
X9531253Y-22819769D01*
X9531253Y-22819769D02*
X9521729Y-22800722D01*
X9521729Y-22800722D02*
X9512205Y-22791198D01*
X9512205Y-22791198D02*
X9493158Y-22781674D01*
X9493158Y-22781674D02*
X9455063Y-22781674D01*
X9455063Y-22781674D02*
X9436015Y-22791198D01*
X9436015Y-22791198D02*
X9426491Y-22800722D01*
X9426491Y-22800722D02*
X9416967Y-22819769D01*
X9655063Y-22705484D02*
X9674110Y-22705484D01*
X9674110Y-22705484D02*
X9693158Y-22715008D01*
X9693158Y-22715008D02*
X9702682Y-22724531D01*
X9702682Y-22724531D02*
X9712205Y-22743579D01*
X9712205Y-22743579D02*
X9721729Y-22781674D01*
X9721729Y-22781674D02*
X9721729Y-22829293D01*
X9721729Y-22829293D02*
X9712205Y-22867388D01*
X9712205Y-22867388D02*
X9702682Y-22886436D01*
X9702682Y-22886436D02*
X9693158Y-22895960D01*
X9693158Y-22895960D02*
X9674110Y-22905484D01*
X9674110Y-22905484D02*
X9655063Y-22905484D01*
X9655063Y-22905484D02*
X9636015Y-22895960D01*
X9636015Y-22895960D02*
X9626491Y-22886436D01*
X9626491Y-22886436D02*
X9616967Y-22867388D01*
X9616967Y-22867388D02*
X9607444Y-22829293D01*
X9607444Y-22829293D02*
X9607444Y-22781674D01*
X9607444Y-22781674D02*
X9616967Y-22743579D01*
X9616967Y-22743579D02*
X9626491Y-22724531D01*
X9626491Y-22724531D02*
X9636015Y-22715008D01*
X9636015Y-22715008D02*
X9655063Y-22705484D01*
X9845539Y-22705484D02*
X9864586Y-22705484D01*
X9864586Y-22705484D02*
X9883634Y-22715008D01*
X9883634Y-22715008D02*
X9893158Y-22724531D01*
X9893158Y-22724531D02*
X9902682Y-22743579D01*
X9902682Y-22743579D02*
X9912205Y-22781674D01*
X9912205Y-22781674D02*
X9912205Y-22829293D01*
X9912205Y-22829293D02*
X9902682Y-22867388D01*
X9902682Y-22867388D02*
X9893158Y-22886436D01*
X9893158Y-22886436D02*
X9883634Y-22895960D01*
X9883634Y-22895960D02*
X9864586Y-22905484D01*
X9864586Y-22905484D02*
X9845539Y-22905484D01*
X9845539Y-22905484D02*
X9826491Y-22895960D01*
X9826491Y-22895960D02*
X9816967Y-22886436D01*
X9816967Y-22886436D02*
X9807444Y-22867388D01*
X9807444Y-22867388D02*
X9797920Y-22829293D01*
X9797920Y-22829293D02*
X9797920Y-22781674D01*
X9797920Y-22781674D02*
X9807444Y-22743579D01*
X9807444Y-22743579D02*
X9816967Y-22724531D01*
X9816967Y-22724531D02*
X9826491Y-22715008D01*
X9826491Y-22715008D02*
X9845539Y-22705484D01*
X9997920Y-22905484D02*
X9997920Y-22772150D01*
X9997920Y-22791198D02*
X10007444Y-22781674D01*
X10007444Y-22781674D02*
X10026491Y-22772150D01*
X10026491Y-22772150D02*
X10055063Y-22772150D01*
X10055063Y-22772150D02*
X10074110Y-22781674D01*
X10074110Y-22781674D02*
X10083634Y-22800722D01*
X10083634Y-22800722D02*
X10083634Y-22905484D01*
X10083634Y-22800722D02*
X10093158Y-22781674D01*
X10093158Y-22781674D02*
X10112205Y-22772150D01*
X10112205Y-22772150D02*
X10140777Y-22772150D01*
X10140777Y-22772150D02*
X10159825Y-22781674D01*
X10159825Y-22781674D02*
X10169348Y-22800722D01*
X10169348Y-22800722D02*
X10169348Y-22905484D01*
X10264586Y-22905484D02*
X10264586Y-22772150D01*
X10264586Y-22791198D02*
X10274110Y-22781674D01*
X10274110Y-22781674D02*
X10293158Y-22772150D01*
X10293158Y-22772150D02*
X10321729Y-22772150D01*
X10321729Y-22772150D02*
X10340777Y-22781674D01*
X10340777Y-22781674D02*
X10350301Y-22800722D01*
X10350301Y-22800722D02*
X10350301Y-22905484D01*
X10350301Y-22800722D02*
X10359825Y-22781674D01*
X10359825Y-22781674D02*
X10378872Y-22772150D01*
X10378872Y-22772150D02*
X10407444Y-22772150D01*
X10407444Y-22772150D02*
X10426491Y-22781674D01*
X10426491Y-22781674D02*
X10436015Y-22800722D01*
X10436015Y-22800722D02*
X10436015Y-22905484D01*
X10826491Y-22695960D02*
X10655063Y-22953103D01*
X11083634Y-22705484D02*
X11102682Y-22705484D01*
X11102682Y-22705484D02*
X11121729Y-22715008D01*
X11121729Y-22715008D02*
X11131253Y-22724531D01*
X11131253Y-22724531D02*
X11140777Y-22743579D01*
X11140777Y-22743579D02*
X11150301Y-22781674D01*
X11150301Y-22781674D02*
X11150301Y-22829293D01*
X11150301Y-22829293D02*
X11140777Y-22867388D01*
X11140777Y-22867388D02*
X11131253Y-22886436D01*
X11131253Y-22886436D02*
X11121729Y-22895960D01*
X11121729Y-22895960D02*
X11102682Y-22905484D01*
X11102682Y-22905484D02*
X11083634Y-22905484D01*
X11083634Y-22905484D02*
X11064587Y-22895960D01*
X11064587Y-22895960D02*
X11055063Y-22886436D01*
X11055063Y-22886436D02*
X11045539Y-22867388D01*
X11045539Y-22867388D02*
X11036015Y-22829293D01*
X11036015Y-22829293D02*
X11036015Y-22781674D01*
X11036015Y-22781674D02*
X11045539Y-22743579D01*
X11045539Y-22743579D02*
X11055063Y-22724531D01*
X11055063Y-22724531D02*
X11064587Y-22715008D01*
X11064587Y-22715008D02*
X11083634Y-22705484D01*
X11236015Y-22886436D02*
X11245539Y-22895960D01*
X11245539Y-22895960D02*
X11236015Y-22905484D01*
X11236015Y-22905484D02*
X11226491Y-22895960D01*
X11226491Y-22895960D02*
X11236015Y-22886436D01*
X11236015Y-22886436D02*
X11236015Y-22905484D01*
X11436015Y-22905484D02*
X11321729Y-22905484D01*
X11378872Y-22905484D02*
X11378872Y-22705484D01*
X11378872Y-22705484D02*
X11359825Y-22734055D01*
X11359825Y-22734055D02*
X11340777Y-22753103D01*
X11340777Y-22753103D02*
X11321729Y-22762627D01*
X11559825Y-22705484D02*
X11578872Y-22705484D01*
X11578872Y-22705484D02*
X11597920Y-22715008D01*
X11597920Y-22715008D02*
X11607444Y-22724531D01*
X11607444Y-22724531D02*
X11616967Y-22743579D01*
X11616967Y-22743579D02*
X11626491Y-22781674D01*
X11626491Y-22781674D02*
X11626491Y-22829293D01*
X11626491Y-22829293D02*
X11616967Y-22867388D01*
X11616967Y-22867388D02*
X11607444Y-22886436D01*
X11607444Y-22886436D02*
X11597920Y-22895960D01*
X11597920Y-22895960D02*
X11578872Y-22905484D01*
X11578872Y-22905484D02*
X11559825Y-22905484D01*
X11559825Y-22905484D02*
X11540777Y-22895960D01*
X11540777Y-22895960D02*
X11531253Y-22886436D01*
X11531253Y-22886436D02*
X11521729Y-22867388D01*
X11521729Y-22867388D02*
X11512206Y-22829293D01*
X11512206Y-22829293D02*
X11512206Y-22781674D01*
X11512206Y-22781674D02*
X11521729Y-22743579D01*
X11521729Y-22743579D02*
X11531253Y-22724531D01*
X11531253Y-22724531D02*
X11540777Y-22715008D01*
X11540777Y-22715008D02*
X11559825Y-22705484D01*
X11702682Y-22724531D02*
X11712206Y-22715008D01*
X11712206Y-22715008D02*
X11731253Y-22705484D01*
X11731253Y-22705484D02*
X11778872Y-22705484D01*
X11778872Y-22705484D02*
X11797920Y-22715008D01*
X11797920Y-22715008D02*
X11807444Y-22724531D01*
X11807444Y-22724531D02*
X11816967Y-22743579D01*
X11816967Y-22743579D02*
X11816967Y-22762627D01*
X11816967Y-22762627D02*
X11807444Y-22791198D01*
X11807444Y-22791198D02*
X11693158Y-22905484D01*
X11693158Y-22905484D02*
X11816967Y-22905484D01*
X11988396Y-22772150D02*
X11988396Y-22905484D01*
X11940777Y-22695960D02*
X11893158Y-22838817D01*
X11893158Y-22838817D02*
X12016967Y-22838817D01*
X12083634Y-22705484D02*
X12083634Y-22743579D01*
X12159825Y-22705484D02*
X12159825Y-22743579D01*
X12455063Y-22981674D02*
X12445539Y-22972150D01*
X12445539Y-22972150D02*
X12426491Y-22943579D01*
X12426491Y-22943579D02*
X12416968Y-22924531D01*
X12416968Y-22924531D02*
X12407444Y-22895960D01*
X12407444Y-22895960D02*
X12397920Y-22848341D01*
X12397920Y-22848341D02*
X12397920Y-22810246D01*
X12397920Y-22810246D02*
X12407444Y-22762627D01*
X12407444Y-22762627D02*
X12416968Y-22734055D01*
X12416968Y-22734055D02*
X12426491Y-22715008D01*
X12426491Y-22715008D02*
X12445539Y-22686436D01*
X12445539Y-22686436D02*
X12455063Y-22676912D01*
X12616968Y-22772150D02*
X12616968Y-22905484D01*
X12569348Y-22695960D02*
X12521729Y-22838817D01*
X12521729Y-22838817D02*
X12645539Y-22838817D01*
X12874110Y-22905484D02*
X12874110Y-22705484D01*
X12959825Y-22905484D02*
X12959825Y-22800722D01*
X12959825Y-22800722D02*
X12950301Y-22781674D01*
X12950301Y-22781674D02*
X12931253Y-22772150D01*
X12931253Y-22772150D02*
X12902682Y-22772150D01*
X12902682Y-22772150D02*
X12883634Y-22781674D01*
X12883634Y-22781674D02*
X12874110Y-22791198D01*
X13083634Y-22905484D02*
X13064587Y-22895960D01*
X13064587Y-22895960D02*
X13055063Y-22886436D01*
X13055063Y-22886436D02*
X13045539Y-22867388D01*
X13045539Y-22867388D02*
X13045539Y-22810246D01*
X13045539Y-22810246D02*
X13055063Y-22791198D01*
X13055063Y-22791198D02*
X13064587Y-22781674D01*
X13064587Y-22781674D02*
X13083634Y-22772150D01*
X13083634Y-22772150D02*
X13112206Y-22772150D01*
X13112206Y-22772150D02*
X13131253Y-22781674D01*
X13131253Y-22781674D02*
X13140777Y-22791198D01*
X13140777Y-22791198D02*
X13150301Y-22810246D01*
X13150301Y-22810246D02*
X13150301Y-22867388D01*
X13150301Y-22867388D02*
X13140777Y-22886436D01*
X13140777Y-22886436D02*
X13131253Y-22895960D01*
X13131253Y-22895960D02*
X13112206Y-22905484D01*
X13112206Y-22905484D02*
X13083634Y-22905484D01*
X13264587Y-22905484D02*
X13245539Y-22895960D01*
X13245539Y-22895960D02*
X13236015Y-22876912D01*
X13236015Y-22876912D02*
X13236015Y-22705484D01*
X13416968Y-22895960D02*
X13397920Y-22905484D01*
X13397920Y-22905484D02*
X13359825Y-22905484D01*
X13359825Y-22905484D02*
X13340777Y-22895960D01*
X13340777Y-22895960D02*
X13331253Y-22876912D01*
X13331253Y-22876912D02*
X13331253Y-22800722D01*
X13331253Y-22800722D02*
X13340777Y-22781674D01*
X13340777Y-22781674D02*
X13359825Y-22772150D01*
X13359825Y-22772150D02*
X13397920Y-22772150D01*
X13397920Y-22772150D02*
X13416968Y-22781674D01*
X13416968Y-22781674D02*
X13426491Y-22800722D01*
X13426491Y-22800722D02*
X13426491Y-22819769D01*
X13426491Y-22819769D02*
X13331253Y-22838817D01*
X13502682Y-22895960D02*
X13521730Y-22905484D01*
X13521730Y-22905484D02*
X13559825Y-22905484D01*
X13559825Y-22905484D02*
X13578872Y-22895960D01*
X13578872Y-22895960D02*
X13588396Y-22876912D01*
X13588396Y-22876912D02*
X13588396Y-22867388D01*
X13588396Y-22867388D02*
X13578872Y-22848341D01*
X13578872Y-22848341D02*
X13559825Y-22838817D01*
X13559825Y-22838817D02*
X13531253Y-22838817D01*
X13531253Y-22838817D02*
X13512206Y-22829293D01*
X13512206Y-22829293D02*
X13502682Y-22810246D01*
X13502682Y-22810246D02*
X13502682Y-22800722D01*
X13502682Y-22800722D02*
X13512206Y-22781674D01*
X13512206Y-22781674D02*
X13531253Y-22772150D01*
X13531253Y-22772150D02*
X13559825Y-22772150D01*
X13559825Y-22772150D02*
X13578872Y-22781674D01*
X13655063Y-22981674D02*
X13664587Y-22972150D01*
X13664587Y-22972150D02*
X13683634Y-22943579D01*
X13683634Y-22943579D02*
X13693158Y-22924531D01*
X13693158Y-22924531D02*
X13702682Y-22895960D01*
X13702682Y-22895960D02*
X13712206Y-22848341D01*
X13712206Y-22848341D02*
X13712206Y-22810246D01*
X13712206Y-22810246D02*
X13702682Y-22762627D01*
X13702682Y-22762627D02*
X13693158Y-22734055D01*
X13693158Y-22734055D02*
X13683634Y-22715008D01*
X13683634Y-22715008D02*
X13664587Y-22686436D01*
X13664587Y-22686436D02*
X13655063Y-22676912D01*
X14016968Y-22981674D02*
X14007444Y-22972150D01*
X14007444Y-22972150D02*
X13988396Y-22943579D01*
X13988396Y-22943579D02*
X13978872Y-22924531D01*
X13978872Y-22924531D02*
X13969349Y-22895960D01*
X13969349Y-22895960D02*
X13959825Y-22848341D01*
X13959825Y-22848341D02*
X13959825Y-22810246D01*
X13959825Y-22810246D02*
X13969349Y-22762627D01*
X13969349Y-22762627D02*
X13978872Y-22734055D01*
X13978872Y-22734055D02*
X13988396Y-22715008D01*
X13988396Y-22715008D02*
X14007444Y-22686436D01*
X14007444Y-22686436D02*
X14016968Y-22676912D01*
X14093158Y-22772150D02*
X14093158Y-22905484D01*
X14093158Y-22791198D02*
X14102682Y-22781674D01*
X14102682Y-22781674D02*
X14121730Y-22772150D01*
X14121730Y-22772150D02*
X14150301Y-22772150D01*
X14150301Y-22772150D02*
X14169349Y-22781674D01*
X14169349Y-22781674D02*
X14178872Y-22800722D01*
X14178872Y-22800722D02*
X14178872Y-22905484D01*
X14302682Y-22905484D02*
X14283634Y-22895960D01*
X14283634Y-22895960D02*
X14274111Y-22886436D01*
X14274111Y-22886436D02*
X14264587Y-22867388D01*
X14264587Y-22867388D02*
X14264587Y-22810246D01*
X14264587Y-22810246D02*
X14274111Y-22791198D01*
X14274111Y-22791198D02*
X14283634Y-22781674D01*
X14283634Y-22781674D02*
X14302682Y-22772150D01*
X14302682Y-22772150D02*
X14331253Y-22772150D01*
X14331253Y-22772150D02*
X14350301Y-22781674D01*
X14350301Y-22781674D02*
X14359825Y-22791198D01*
X14359825Y-22791198D02*
X14369349Y-22810246D01*
X14369349Y-22810246D02*
X14369349Y-22867388D01*
X14369349Y-22867388D02*
X14359825Y-22886436D01*
X14359825Y-22886436D02*
X14350301Y-22895960D01*
X14350301Y-22895960D02*
X14331253Y-22905484D01*
X14331253Y-22905484D02*
X14302682Y-22905484D01*
X14426492Y-22772150D02*
X14502682Y-22772150D01*
X14455063Y-22705484D02*
X14455063Y-22876912D01*
X14455063Y-22876912D02*
X14464587Y-22895960D01*
X14464587Y-22895960D02*
X14483634Y-22905484D01*
X14483634Y-22905484D02*
X14502682Y-22905484D01*
X14721730Y-22772150D02*
X14721730Y-22972150D01*
X14721730Y-22781674D02*
X14740777Y-22772150D01*
X14740777Y-22772150D02*
X14778873Y-22772150D01*
X14778873Y-22772150D02*
X14797920Y-22781674D01*
X14797920Y-22781674D02*
X14807444Y-22791198D01*
X14807444Y-22791198D02*
X14816968Y-22810246D01*
X14816968Y-22810246D02*
X14816968Y-22867388D01*
X14816968Y-22867388D02*
X14807444Y-22886436D01*
X14807444Y-22886436D02*
X14797920Y-22895960D01*
X14797920Y-22895960D02*
X14778873Y-22905484D01*
X14778873Y-22905484D02*
X14740777Y-22905484D01*
X14740777Y-22905484D02*
X14721730Y-22895960D01*
X14931253Y-22905484D02*
X14912206Y-22895960D01*
X14912206Y-22895960D02*
X14902682Y-22876912D01*
X14902682Y-22876912D02*
X14902682Y-22705484D01*
X15093158Y-22905484D02*
X15093158Y-22800722D01*
X15093158Y-22800722D02*
X15083634Y-22781674D01*
X15083634Y-22781674D02*
X15064587Y-22772150D01*
X15064587Y-22772150D02*
X15026492Y-22772150D01*
X15026492Y-22772150D02*
X15007444Y-22781674D01*
X15093158Y-22895960D02*
X15074111Y-22905484D01*
X15074111Y-22905484D02*
X15026492Y-22905484D01*
X15026492Y-22905484D02*
X15007444Y-22895960D01*
X15007444Y-22895960D02*
X14997920Y-22876912D01*
X14997920Y-22876912D02*
X14997920Y-22857865D01*
X14997920Y-22857865D02*
X15007444Y-22838817D01*
X15007444Y-22838817D02*
X15026492Y-22829293D01*
X15026492Y-22829293D02*
X15074111Y-22829293D01*
X15074111Y-22829293D02*
X15093158Y-22819769D01*
X15159825Y-22772150D02*
X15236015Y-22772150D01*
X15188396Y-22705484D02*
X15188396Y-22876912D01*
X15188396Y-22876912D02*
X15197920Y-22895960D01*
X15197920Y-22895960D02*
X15216968Y-22905484D01*
X15216968Y-22905484D02*
X15236015Y-22905484D01*
X15378873Y-22895960D02*
X15359825Y-22905484D01*
X15359825Y-22905484D02*
X15321730Y-22905484D01*
X15321730Y-22905484D02*
X15302682Y-22895960D01*
X15302682Y-22895960D02*
X15293158Y-22876912D01*
X15293158Y-22876912D02*
X15293158Y-22800722D01*
X15293158Y-22800722D02*
X15302682Y-22781674D01*
X15302682Y-22781674D02*
X15321730Y-22772150D01*
X15321730Y-22772150D02*
X15359825Y-22772150D01*
X15359825Y-22772150D02*
X15378873Y-22781674D01*
X15378873Y-22781674D02*
X15388396Y-22800722D01*
X15388396Y-22800722D02*
X15388396Y-22819769D01*
X15388396Y-22819769D02*
X15293158Y-22838817D01*
X15559825Y-22905484D02*
X15559825Y-22705484D01*
X15559825Y-22895960D02*
X15540777Y-22905484D01*
X15540777Y-22905484D02*
X15502682Y-22905484D01*
X15502682Y-22905484D02*
X15483634Y-22895960D01*
X15483634Y-22895960D02*
X15474111Y-22886436D01*
X15474111Y-22886436D02*
X15464587Y-22867388D01*
X15464587Y-22867388D02*
X15464587Y-22810246D01*
X15464587Y-22810246D02*
X15474111Y-22791198D01*
X15474111Y-22791198D02*
X15483634Y-22781674D01*
X15483634Y-22781674D02*
X15502682Y-22772150D01*
X15502682Y-22772150D02*
X15540777Y-22772150D01*
X15540777Y-22772150D02*
X15559825Y-22781674D01*
X15636015Y-22981674D02*
X15645539Y-22972150D01*
X15645539Y-22972150D02*
X15664587Y-22943579D01*
X15664587Y-22943579D02*
X15674111Y-22924531D01*
X15674111Y-22924531D02*
X15683634Y-22895960D01*
X15683634Y-22895960D02*
X15693158Y-22848341D01*
X15693158Y-22848341D02*
X15693158Y-22810246D01*
X15693158Y-22810246D02*
X15683634Y-22762627D01*
X15683634Y-22762627D02*
X15674111Y-22734055D01*
X15674111Y-22734055D02*
X15664587Y-22715008D01*
X15664587Y-22715008D02*
X15645539Y-22686436D01*
X15645539Y-22686436D02*
X15636015Y-22676912D01*
M02*
