%TF.GenerationSoftware,KiCad,Pcbnew,7.0.9*%
%TF.CreationDate,2023-12-15T21:18:20+02:00*%
%TF.ProjectId,loadshedding,6c6f6164-7368-4656-9464-696e672e6b69,1*%
%TF.SameCoordinates,Original*%
%TF.FileFunction,Legend,Bot*%
%TF.FilePolarity,Positive*%
%FSLAX46Y46*%
G04 Gerber Fmt 4.6, Leading zero omitted, Abs format (unit mm)*
G04 Created by KiCad (PCBNEW 7.0.9) date 2023-12-15 21:18:20*
%MOMM*%
%LPD*%
G01*
G04 APERTURE LIST*
G04 Aperture macros list*
%AMRoundRect*
0 Rectangle with rounded corners*
0 $1 Rounding radius*
0 $2 $3 $4 $5 $6 $7 $8 $9 X,Y pos of 4 corners*
0 Add a 4 corners polygon primitive as box body*
4,1,4,$2,$3,$4,$5,$6,$7,$8,$9,$2,$3,0*
0 Add four circle primitives for the rounded corners*
1,1,$1+$1,$2,$3*
1,1,$1+$1,$4,$5*
1,1,$1+$1,$6,$7*
1,1,$1+$1,$8,$9*
0 Add four rect primitives between the rounded corners*
20,1,$1+$1,$2,$3,$4,$5,0*
20,1,$1+$1,$4,$5,$6,$7,0*
20,1,$1+$1,$6,$7,$8,$9,0*
20,1,$1+$1,$8,$9,$2,$3,0*%
G04 Aperture macros list end*
%ADD10C,0.300000*%
%ADD11C,0.150000*%
%ADD12C,0.120000*%
%ADD13C,0.127000*%
%ADD14C,0.200000*%
%ADD15R,1.800000X1.800000*%
%ADD16C,1.800000*%
%ADD17C,1.524000*%
%ADD18R,1.700000X1.700000*%
%ADD19C,1.700000*%
%ADD20C,2.600000*%
%ADD21R,1.600000X1.600000*%
%ADD22C,1.600000*%
%ADD23C,2.000000*%
%ADD24O,1.600000X1.600000*%
%ADD25R,1.050000X1.500000*%
%ADD26O,1.050000X1.500000*%
%ADD27RoundRect,0.102000X-0.900000X0.900000X-0.900000X-0.900000X0.900000X-0.900000X0.900000X0.900000X0*%
%ADD28C,2.004000*%
G04 APERTURE END LIST*
D10*
X126016917Y-160860828D02*
X126016917Y-161932257D01*
X126016917Y-161932257D02*
X126088346Y-162146542D01*
X126088346Y-162146542D02*
X126231203Y-162289400D01*
X126231203Y-162289400D02*
X126445489Y-162360828D01*
X126445489Y-162360828D02*
X126588346Y-162360828D01*
X124588346Y-162360828D02*
X125302632Y-162360828D01*
X125302632Y-162360828D02*
X125302632Y-160860828D01*
X123231203Y-162217971D02*
X123302631Y-162289400D01*
X123302631Y-162289400D02*
X123516917Y-162360828D01*
X123516917Y-162360828D02*
X123659774Y-162360828D01*
X123659774Y-162360828D02*
X123874060Y-162289400D01*
X123874060Y-162289400D02*
X124016917Y-162146542D01*
X124016917Y-162146542D02*
X124088346Y-162003685D01*
X124088346Y-162003685D02*
X124159774Y-161717971D01*
X124159774Y-161717971D02*
X124159774Y-161503685D01*
X124159774Y-161503685D02*
X124088346Y-161217971D01*
X124088346Y-161217971D02*
X124016917Y-161075114D01*
X124016917Y-161075114D02*
X123874060Y-160932257D01*
X123874060Y-160932257D02*
X123659774Y-160860828D01*
X123659774Y-160860828D02*
X123516917Y-160860828D01*
X123516917Y-160860828D02*
X123302631Y-160932257D01*
X123302631Y-160932257D02*
X123231203Y-161003685D01*
X122159774Y-160860828D02*
X122159774Y-161932257D01*
X122159774Y-161932257D02*
X122231203Y-162146542D01*
X122231203Y-162146542D02*
X122374060Y-162289400D01*
X122374060Y-162289400D02*
X122588346Y-162360828D01*
X122588346Y-162360828D02*
X122731203Y-162360828D01*
X120731203Y-162360828D02*
X121445489Y-162360828D01*
X121445489Y-162360828D02*
X121445489Y-160860828D01*
X119374060Y-162217971D02*
X119445488Y-162289400D01*
X119445488Y-162289400D02*
X119659774Y-162360828D01*
X119659774Y-162360828D02*
X119802631Y-162360828D01*
X119802631Y-162360828D02*
X120016917Y-162289400D01*
X120016917Y-162289400D02*
X120159774Y-162146542D01*
X120159774Y-162146542D02*
X120231203Y-162003685D01*
X120231203Y-162003685D02*
X120302631Y-161717971D01*
X120302631Y-161717971D02*
X120302631Y-161503685D01*
X120302631Y-161503685D02*
X120231203Y-161217971D01*
X120231203Y-161217971D02*
X120159774Y-161075114D01*
X120159774Y-161075114D02*
X120016917Y-160932257D01*
X120016917Y-160932257D02*
X119802631Y-160860828D01*
X119802631Y-160860828D02*
X119659774Y-160860828D01*
X119659774Y-160860828D02*
X119445488Y-160932257D01*
X119445488Y-160932257D02*
X119374060Y-161003685D01*
X118302631Y-160860828D02*
X118302631Y-161932257D01*
X118302631Y-161932257D02*
X118374060Y-162146542D01*
X118374060Y-162146542D02*
X118516917Y-162289400D01*
X118516917Y-162289400D02*
X118731203Y-162360828D01*
X118731203Y-162360828D02*
X118874060Y-162360828D01*
X116874060Y-162360828D02*
X117588346Y-162360828D01*
X117588346Y-162360828D02*
X117588346Y-160860828D01*
X115516917Y-162217971D02*
X115588345Y-162289400D01*
X115588345Y-162289400D02*
X115802631Y-162360828D01*
X115802631Y-162360828D02*
X115945488Y-162360828D01*
X115945488Y-162360828D02*
X116159774Y-162289400D01*
X116159774Y-162289400D02*
X116302631Y-162146542D01*
X116302631Y-162146542D02*
X116374060Y-162003685D01*
X116374060Y-162003685D02*
X116445488Y-161717971D01*
X116445488Y-161717971D02*
X116445488Y-161503685D01*
X116445488Y-161503685D02*
X116374060Y-161217971D01*
X116374060Y-161217971D02*
X116302631Y-161075114D01*
X116302631Y-161075114D02*
X116159774Y-160932257D01*
X116159774Y-160932257D02*
X115945488Y-160860828D01*
X115945488Y-160860828D02*
X115802631Y-160860828D01*
X115802631Y-160860828D02*
X115588345Y-160932257D01*
X115588345Y-160932257D02*
X115516917Y-161003685D01*
X114445488Y-160860828D02*
X114445488Y-161932257D01*
X114445488Y-161932257D02*
X114516917Y-162146542D01*
X114516917Y-162146542D02*
X114659774Y-162289400D01*
X114659774Y-162289400D02*
X114874060Y-162360828D01*
X114874060Y-162360828D02*
X115016917Y-162360828D01*
X113016917Y-162360828D02*
X113731203Y-162360828D01*
X113731203Y-162360828D02*
X113731203Y-160860828D01*
X111659774Y-162217971D02*
X111731202Y-162289400D01*
X111731202Y-162289400D02*
X111945488Y-162360828D01*
X111945488Y-162360828D02*
X112088345Y-162360828D01*
X112088345Y-162360828D02*
X112302631Y-162289400D01*
X112302631Y-162289400D02*
X112445488Y-162146542D01*
X112445488Y-162146542D02*
X112516917Y-162003685D01*
X112516917Y-162003685D02*
X112588345Y-161717971D01*
X112588345Y-161717971D02*
X112588345Y-161503685D01*
X112588345Y-161503685D02*
X112516917Y-161217971D01*
X112516917Y-161217971D02*
X112445488Y-161075114D01*
X112445488Y-161075114D02*
X112302631Y-160932257D01*
X112302631Y-160932257D02*
X112088345Y-160860828D01*
X112088345Y-160860828D02*
X111945488Y-160860828D01*
X111945488Y-160860828D02*
X111731202Y-160932257D01*
X111731202Y-160932257D02*
X111659774Y-161003685D01*
D11*
X273625351Y-146769086D02*
X273958684Y-146292895D01*
X274196779Y-146769086D02*
X274196779Y-145769086D01*
X274196779Y-145769086D02*
X273815827Y-145769086D01*
X273815827Y-145769086D02*
X273720589Y-145816705D01*
X273720589Y-145816705D02*
X273672970Y-145864324D01*
X273672970Y-145864324D02*
X273625351Y-145959562D01*
X273625351Y-145959562D02*
X273625351Y-146102419D01*
X273625351Y-146102419D02*
X273672970Y-146197657D01*
X273672970Y-146197657D02*
X273720589Y-146245276D01*
X273720589Y-146245276D02*
X273815827Y-146292895D01*
X273815827Y-146292895D02*
X274196779Y-146292895D01*
X272672970Y-145816705D02*
X272768208Y-145769086D01*
X272768208Y-145769086D02*
X272911065Y-145769086D01*
X272911065Y-145769086D02*
X273053922Y-145816705D01*
X273053922Y-145816705D02*
X273149160Y-145911943D01*
X273149160Y-145911943D02*
X273196779Y-146007181D01*
X273196779Y-146007181D02*
X273244398Y-146197657D01*
X273244398Y-146197657D02*
X273244398Y-146340514D01*
X273244398Y-146340514D02*
X273196779Y-146530990D01*
X273196779Y-146530990D02*
X273149160Y-146626228D01*
X273149160Y-146626228D02*
X273053922Y-146721467D01*
X273053922Y-146721467D02*
X272911065Y-146769086D01*
X272911065Y-146769086D02*
X272815827Y-146769086D01*
X272815827Y-146769086D02*
X272672970Y-146721467D01*
X272672970Y-146721467D02*
X272625351Y-146673847D01*
X272625351Y-146673847D02*
X272625351Y-146340514D01*
X272625351Y-146340514D02*
X272815827Y-146340514D01*
X271863446Y-146245276D02*
X271720589Y-146292895D01*
X271720589Y-146292895D02*
X271672970Y-146340514D01*
X271672970Y-146340514D02*
X271625351Y-146435752D01*
X271625351Y-146435752D02*
X271625351Y-146578609D01*
X271625351Y-146578609D02*
X271672970Y-146673847D01*
X271672970Y-146673847D02*
X271720589Y-146721467D01*
X271720589Y-146721467D02*
X271815827Y-146769086D01*
X271815827Y-146769086D02*
X272196779Y-146769086D01*
X272196779Y-146769086D02*
X272196779Y-145769086D01*
X272196779Y-145769086D02*
X271863446Y-145769086D01*
X271863446Y-145769086D02*
X271768208Y-145816705D01*
X271768208Y-145816705D02*
X271720589Y-145864324D01*
X271720589Y-145864324D02*
X271672970Y-145959562D01*
X271672970Y-145959562D02*
X271672970Y-146054800D01*
X271672970Y-146054800D02*
X271720589Y-146150038D01*
X271720589Y-146150038D02*
X271768208Y-146197657D01*
X271768208Y-146197657D02*
X271863446Y-146245276D01*
X271863446Y-146245276D02*
X272196779Y-146245276D01*
X221960839Y-154762200D02*
X221817982Y-154809819D01*
X221817982Y-154809819D02*
X221579887Y-154809819D01*
X221579887Y-154809819D02*
X221484649Y-154762200D01*
X221484649Y-154762200D02*
X221437030Y-154714580D01*
X221437030Y-154714580D02*
X221389411Y-154619342D01*
X221389411Y-154619342D02*
X221389411Y-154524104D01*
X221389411Y-154524104D02*
X221437030Y-154428866D01*
X221437030Y-154428866D02*
X221484649Y-154381247D01*
X221484649Y-154381247D02*
X221579887Y-154333628D01*
X221579887Y-154333628D02*
X221770363Y-154286009D01*
X221770363Y-154286009D02*
X221865601Y-154238390D01*
X221865601Y-154238390D02*
X221913220Y-154190771D01*
X221913220Y-154190771D02*
X221960839Y-154095533D01*
X221960839Y-154095533D02*
X221960839Y-154000295D01*
X221960839Y-154000295D02*
X221913220Y-153905057D01*
X221913220Y-153905057D02*
X221865601Y-153857438D01*
X221865601Y-153857438D02*
X221770363Y-153809819D01*
X221770363Y-153809819D02*
X221532268Y-153809819D01*
X221532268Y-153809819D02*
X221389411Y-153857438D01*
X221008458Y-154762200D02*
X220865601Y-154809819D01*
X220865601Y-154809819D02*
X220627506Y-154809819D01*
X220627506Y-154809819D02*
X220532268Y-154762200D01*
X220532268Y-154762200D02*
X220484649Y-154714580D01*
X220484649Y-154714580D02*
X220437030Y-154619342D01*
X220437030Y-154619342D02*
X220437030Y-154524104D01*
X220437030Y-154524104D02*
X220484649Y-154428866D01*
X220484649Y-154428866D02*
X220532268Y-154381247D01*
X220532268Y-154381247D02*
X220627506Y-154333628D01*
X220627506Y-154333628D02*
X220817982Y-154286009D01*
X220817982Y-154286009D02*
X220913220Y-154238390D01*
X220913220Y-154238390D02*
X220960839Y-154190771D01*
X220960839Y-154190771D02*
X221008458Y-154095533D01*
X221008458Y-154095533D02*
X221008458Y-154000295D01*
X221008458Y-154000295D02*
X220960839Y-153905057D01*
X220960839Y-153905057D02*
X220913220Y-153857438D01*
X220913220Y-153857438D02*
X220817982Y-153809819D01*
X220817982Y-153809819D02*
X220579887Y-153809819D01*
X220579887Y-153809819D02*
X220437030Y-153857438D01*
X220008458Y-154809819D02*
X220008458Y-153809819D01*
X220008458Y-153809819D02*
X219770363Y-153809819D01*
X219770363Y-153809819D02*
X219627506Y-153857438D01*
X219627506Y-153857438D02*
X219532268Y-153952676D01*
X219532268Y-153952676D02*
X219484649Y-154047914D01*
X219484649Y-154047914D02*
X219437030Y-154238390D01*
X219437030Y-154238390D02*
X219437030Y-154381247D01*
X219437030Y-154381247D02*
X219484649Y-154571723D01*
X219484649Y-154571723D02*
X219532268Y-154666961D01*
X219532268Y-154666961D02*
X219627506Y-154762200D01*
X219627506Y-154762200D02*
X219770363Y-154809819D01*
X219770363Y-154809819D02*
X220008458Y-154809819D01*
X134175238Y-140324819D02*
X134508571Y-139848628D01*
X134746666Y-140324819D02*
X134746666Y-139324819D01*
X134746666Y-139324819D02*
X134365714Y-139324819D01*
X134365714Y-139324819D02*
X134270476Y-139372438D01*
X134270476Y-139372438D02*
X134222857Y-139420057D01*
X134222857Y-139420057D02*
X134175238Y-139515295D01*
X134175238Y-139515295D02*
X134175238Y-139658152D01*
X134175238Y-139658152D02*
X134222857Y-139753390D01*
X134222857Y-139753390D02*
X134270476Y-139801009D01*
X134270476Y-139801009D02*
X134365714Y-139848628D01*
X134365714Y-139848628D02*
X134746666Y-139848628D01*
X133984762Y-140420057D02*
X133222857Y-140420057D01*
X133032380Y-140277200D02*
X132937142Y-140324819D01*
X132937142Y-140324819D02*
X132746666Y-140324819D01*
X132746666Y-140324819D02*
X132651428Y-140277200D01*
X132651428Y-140277200D02*
X132603809Y-140181961D01*
X132603809Y-140181961D02*
X132603809Y-140134342D01*
X132603809Y-140134342D02*
X132651428Y-140039104D01*
X132651428Y-140039104D02*
X132746666Y-139991485D01*
X132746666Y-139991485D02*
X132889523Y-139991485D01*
X132889523Y-139991485D02*
X132984761Y-139943866D01*
X132984761Y-139943866D02*
X133032380Y-139848628D01*
X133032380Y-139848628D02*
X133032380Y-139801009D01*
X133032380Y-139801009D02*
X132984761Y-139705771D01*
X132984761Y-139705771D02*
X132889523Y-139658152D01*
X132889523Y-139658152D02*
X132746666Y-139658152D01*
X132746666Y-139658152D02*
X132651428Y-139705771D01*
X132318094Y-139658152D02*
X131937142Y-139658152D01*
X132175237Y-139324819D02*
X132175237Y-140181961D01*
X132175237Y-140181961D02*
X132127618Y-140277200D01*
X132127618Y-140277200D02*
X132032380Y-140324819D01*
X132032380Y-140324819D02*
X131937142Y-140324819D01*
X131175237Y-140324819D02*
X131175237Y-139801009D01*
X131175237Y-139801009D02*
X131222856Y-139705771D01*
X131222856Y-139705771D02*
X131318094Y-139658152D01*
X131318094Y-139658152D02*
X131508570Y-139658152D01*
X131508570Y-139658152D02*
X131603808Y-139705771D01*
X131175237Y-140277200D02*
X131270475Y-140324819D01*
X131270475Y-140324819D02*
X131508570Y-140324819D01*
X131508570Y-140324819D02*
X131603808Y-140277200D01*
X131603808Y-140277200D02*
X131651427Y-140181961D01*
X131651427Y-140181961D02*
X131651427Y-140086723D01*
X131651427Y-140086723D02*
X131603808Y-139991485D01*
X131603808Y-139991485D02*
X131508570Y-139943866D01*
X131508570Y-139943866D02*
X131270475Y-139943866D01*
X131270475Y-139943866D02*
X131175237Y-139896247D01*
X130270475Y-139658152D02*
X130270475Y-140467676D01*
X130270475Y-140467676D02*
X130318094Y-140562914D01*
X130318094Y-140562914D02*
X130365713Y-140610533D01*
X130365713Y-140610533D02*
X130460951Y-140658152D01*
X130460951Y-140658152D02*
X130603808Y-140658152D01*
X130603808Y-140658152D02*
X130699046Y-140610533D01*
X130270475Y-140277200D02*
X130365713Y-140324819D01*
X130365713Y-140324819D02*
X130556189Y-140324819D01*
X130556189Y-140324819D02*
X130651427Y-140277200D01*
X130651427Y-140277200D02*
X130699046Y-140229580D01*
X130699046Y-140229580D02*
X130746665Y-140134342D01*
X130746665Y-140134342D02*
X130746665Y-139848628D01*
X130746665Y-139848628D02*
X130699046Y-139753390D01*
X130699046Y-139753390D02*
X130651427Y-139705771D01*
X130651427Y-139705771D02*
X130556189Y-139658152D01*
X130556189Y-139658152D02*
X130365713Y-139658152D01*
X130365713Y-139658152D02*
X130270475Y-139705771D01*
X129413332Y-140277200D02*
X129508570Y-140324819D01*
X129508570Y-140324819D02*
X129699046Y-140324819D01*
X129699046Y-140324819D02*
X129794284Y-140277200D01*
X129794284Y-140277200D02*
X129841903Y-140181961D01*
X129841903Y-140181961D02*
X129841903Y-139801009D01*
X129841903Y-139801009D02*
X129794284Y-139705771D01*
X129794284Y-139705771D02*
X129699046Y-139658152D01*
X129699046Y-139658152D02*
X129508570Y-139658152D01*
X129508570Y-139658152D02*
X129413332Y-139705771D01*
X129413332Y-139705771D02*
X129365713Y-139801009D01*
X129365713Y-139801009D02*
X129365713Y-139896247D01*
X129365713Y-139896247D02*
X129841903Y-139991485D01*
X166179048Y-150314819D02*
X166512381Y-149838628D01*
X166750476Y-150314819D02*
X166750476Y-149314819D01*
X166750476Y-149314819D02*
X166369524Y-149314819D01*
X166369524Y-149314819D02*
X166274286Y-149362438D01*
X166274286Y-149362438D02*
X166226667Y-149410057D01*
X166226667Y-149410057D02*
X166179048Y-149505295D01*
X166179048Y-149505295D02*
X166179048Y-149648152D01*
X166179048Y-149648152D02*
X166226667Y-149743390D01*
X166226667Y-149743390D02*
X166274286Y-149791009D01*
X166274286Y-149791009D02*
X166369524Y-149838628D01*
X166369524Y-149838628D02*
X166750476Y-149838628D01*
X165369524Y-150267200D02*
X165464762Y-150314819D01*
X165464762Y-150314819D02*
X165655238Y-150314819D01*
X165655238Y-150314819D02*
X165750476Y-150267200D01*
X165750476Y-150267200D02*
X165798095Y-150171961D01*
X165798095Y-150171961D02*
X165798095Y-149791009D01*
X165798095Y-149791009D02*
X165750476Y-149695771D01*
X165750476Y-149695771D02*
X165655238Y-149648152D01*
X165655238Y-149648152D02*
X165464762Y-149648152D01*
X165464762Y-149648152D02*
X165369524Y-149695771D01*
X165369524Y-149695771D02*
X165321905Y-149791009D01*
X165321905Y-149791009D02*
X165321905Y-149886247D01*
X165321905Y-149886247D02*
X165798095Y-149981485D01*
X164940952Y-150267200D02*
X164845714Y-150314819D01*
X164845714Y-150314819D02*
X164655238Y-150314819D01*
X164655238Y-150314819D02*
X164560000Y-150267200D01*
X164560000Y-150267200D02*
X164512381Y-150171961D01*
X164512381Y-150171961D02*
X164512381Y-150124342D01*
X164512381Y-150124342D02*
X164560000Y-150029104D01*
X164560000Y-150029104D02*
X164655238Y-149981485D01*
X164655238Y-149981485D02*
X164798095Y-149981485D01*
X164798095Y-149981485D02*
X164893333Y-149933866D01*
X164893333Y-149933866D02*
X164940952Y-149838628D01*
X164940952Y-149838628D02*
X164940952Y-149791009D01*
X164940952Y-149791009D02*
X164893333Y-149695771D01*
X164893333Y-149695771D02*
X164798095Y-149648152D01*
X164798095Y-149648152D02*
X164655238Y-149648152D01*
X164655238Y-149648152D02*
X164560000Y-149695771D01*
X163702857Y-150267200D02*
X163798095Y-150314819D01*
X163798095Y-150314819D02*
X163988571Y-150314819D01*
X163988571Y-150314819D02*
X164083809Y-150267200D01*
X164083809Y-150267200D02*
X164131428Y-150171961D01*
X164131428Y-150171961D02*
X164131428Y-149791009D01*
X164131428Y-149791009D02*
X164083809Y-149695771D01*
X164083809Y-149695771D02*
X163988571Y-149648152D01*
X163988571Y-149648152D02*
X163798095Y-149648152D01*
X163798095Y-149648152D02*
X163702857Y-149695771D01*
X163702857Y-149695771D02*
X163655238Y-149791009D01*
X163655238Y-149791009D02*
X163655238Y-149886247D01*
X163655238Y-149886247D02*
X164131428Y-149981485D01*
X163369523Y-149648152D02*
X162988571Y-149648152D01*
X163226666Y-149314819D02*
X163226666Y-150171961D01*
X163226666Y-150171961D02*
X163179047Y-150267200D01*
X163179047Y-150267200D02*
X163083809Y-150314819D01*
X163083809Y-150314819D02*
X162988571Y-150314819D01*
X162655237Y-150314819D02*
X162655237Y-149314819D01*
X162655237Y-149314819D02*
X162274285Y-149314819D01*
X162274285Y-149314819D02*
X162179047Y-149362438D01*
X162179047Y-149362438D02*
X162131428Y-149410057D01*
X162131428Y-149410057D02*
X162083809Y-149505295D01*
X162083809Y-149505295D02*
X162083809Y-149648152D01*
X162083809Y-149648152D02*
X162131428Y-149743390D01*
X162131428Y-149743390D02*
X162179047Y-149791009D01*
X162179047Y-149791009D02*
X162274285Y-149838628D01*
X162274285Y-149838628D02*
X162655237Y-149838628D01*
X161226666Y-149648152D02*
X161226666Y-150314819D01*
X161655237Y-149648152D02*
X161655237Y-150171961D01*
X161655237Y-150171961D02*
X161607618Y-150267200D01*
X161607618Y-150267200D02*
X161512380Y-150314819D01*
X161512380Y-150314819D02*
X161369523Y-150314819D01*
X161369523Y-150314819D02*
X161274285Y-150267200D01*
X161274285Y-150267200D02*
X161226666Y-150219580D01*
X160607618Y-150314819D02*
X160702856Y-150267200D01*
X160702856Y-150267200D02*
X160750475Y-150171961D01*
X160750475Y-150171961D02*
X160750475Y-149314819D01*
X160083808Y-150314819D02*
X160179046Y-150267200D01*
X160179046Y-150267200D02*
X160226665Y-150171961D01*
X160226665Y-150171961D02*
X160226665Y-149314819D01*
X159274284Y-149648152D02*
X159274284Y-150314819D01*
X159702855Y-149648152D02*
X159702855Y-150171961D01*
X159702855Y-150171961D02*
X159655236Y-150267200D01*
X159655236Y-150267200D02*
X159559998Y-150314819D01*
X159559998Y-150314819D02*
X159417141Y-150314819D01*
X159417141Y-150314819D02*
X159321903Y-150267200D01*
X159321903Y-150267200D02*
X159274284Y-150219580D01*
X158798093Y-149648152D02*
X158798093Y-150648152D01*
X158798093Y-149695771D02*
X158702855Y-149648152D01*
X158702855Y-149648152D02*
X158512379Y-149648152D01*
X158512379Y-149648152D02*
X158417141Y-149695771D01*
X158417141Y-149695771D02*
X158369522Y-149743390D01*
X158369522Y-149743390D02*
X158321903Y-149838628D01*
X158321903Y-149838628D02*
X158321903Y-150124342D01*
X158321903Y-150124342D02*
X158369522Y-150219580D01*
X158369522Y-150219580D02*
X158417141Y-150267200D01*
X158417141Y-150267200D02*
X158512379Y-150314819D01*
X158512379Y-150314819D02*
X158702855Y-150314819D01*
X158702855Y-150314819D02*
X158798093Y-150267200D01*
X275383333Y-160474819D02*
X275716666Y-159998628D01*
X275954761Y-160474819D02*
X275954761Y-159474819D01*
X275954761Y-159474819D02*
X275573809Y-159474819D01*
X275573809Y-159474819D02*
X275478571Y-159522438D01*
X275478571Y-159522438D02*
X275430952Y-159570057D01*
X275430952Y-159570057D02*
X275383333Y-159665295D01*
X275383333Y-159665295D02*
X275383333Y-159808152D01*
X275383333Y-159808152D02*
X275430952Y-159903390D01*
X275430952Y-159903390D02*
X275478571Y-159951009D01*
X275478571Y-159951009D02*
X275573809Y-159998628D01*
X275573809Y-159998628D02*
X275954761Y-159998628D01*
X275192857Y-160570057D02*
X274430952Y-160570057D01*
X274288094Y-159808152D02*
X274097618Y-160474819D01*
X274097618Y-160474819D02*
X273907142Y-159998628D01*
X273907142Y-159998628D02*
X273716666Y-160474819D01*
X273716666Y-160474819D02*
X273526190Y-159808152D01*
X273145237Y-160474819D02*
X273145237Y-159808152D01*
X273145237Y-159474819D02*
X273192856Y-159522438D01*
X273192856Y-159522438D02*
X273145237Y-159570057D01*
X273145237Y-159570057D02*
X273097618Y-159522438D01*
X273097618Y-159522438D02*
X273145237Y-159474819D01*
X273145237Y-159474819D02*
X273145237Y-159570057D01*
X272811904Y-159808152D02*
X272430952Y-159808152D01*
X272669047Y-160474819D02*
X272669047Y-159617676D01*
X272669047Y-159617676D02*
X272621428Y-159522438D01*
X272621428Y-159522438D02*
X272526190Y-159474819D01*
X272526190Y-159474819D02*
X272430952Y-159474819D01*
X272097618Y-160474819D02*
X272097618Y-159808152D01*
X272097618Y-159474819D02*
X272145237Y-159522438D01*
X272145237Y-159522438D02*
X272097618Y-159570057D01*
X272097618Y-159570057D02*
X272049999Y-159522438D01*
X272049999Y-159522438D02*
X272097618Y-159474819D01*
X272097618Y-159474819D02*
X272097618Y-159570057D01*
X271097619Y-159522438D02*
X271192857Y-159474819D01*
X271192857Y-159474819D02*
X271335714Y-159474819D01*
X271335714Y-159474819D02*
X271478571Y-159522438D01*
X271478571Y-159522438D02*
X271573809Y-159617676D01*
X271573809Y-159617676D02*
X271621428Y-159712914D01*
X271621428Y-159712914D02*
X271669047Y-159903390D01*
X271669047Y-159903390D02*
X271669047Y-160046247D01*
X271669047Y-160046247D02*
X271621428Y-160236723D01*
X271621428Y-160236723D02*
X271573809Y-160331961D01*
X271573809Y-160331961D02*
X271478571Y-160427200D01*
X271478571Y-160427200D02*
X271335714Y-160474819D01*
X271335714Y-160474819D02*
X271240476Y-160474819D01*
X271240476Y-160474819D02*
X271097619Y-160427200D01*
X271097619Y-160427200D02*
X271050000Y-160379580D01*
X271050000Y-160379580D02*
X271050000Y-160046247D01*
X271050000Y-160046247D02*
X271240476Y-160046247D01*
X270097619Y-160474819D02*
X270669047Y-160474819D01*
X270383333Y-160474819D02*
X270383333Y-159474819D01*
X270383333Y-159474819D02*
X270478571Y-159617676D01*
X270478571Y-159617676D02*
X270573809Y-159712914D01*
X270573809Y-159712914D02*
X270669047Y-159760533D01*
X164179047Y-173344819D02*
X164512380Y-172868628D01*
X164750475Y-173344819D02*
X164750475Y-172344819D01*
X164750475Y-172344819D02*
X164369523Y-172344819D01*
X164369523Y-172344819D02*
X164274285Y-172392438D01*
X164274285Y-172392438D02*
X164226666Y-172440057D01*
X164226666Y-172440057D02*
X164179047Y-172535295D01*
X164179047Y-172535295D02*
X164179047Y-172678152D01*
X164179047Y-172678152D02*
X164226666Y-172773390D01*
X164226666Y-172773390D02*
X164274285Y-172821009D01*
X164274285Y-172821009D02*
X164369523Y-172868628D01*
X164369523Y-172868628D02*
X164750475Y-172868628D01*
X163988571Y-173440057D02*
X163226666Y-173440057D01*
X162559999Y-173344819D02*
X162559999Y-172344819D01*
X162559999Y-173297200D02*
X162655237Y-173344819D01*
X162655237Y-173344819D02*
X162845713Y-173344819D01*
X162845713Y-173344819D02*
X162940951Y-173297200D01*
X162940951Y-173297200D02*
X162988570Y-173249580D01*
X162988570Y-173249580D02*
X163036189Y-173154342D01*
X163036189Y-173154342D02*
X163036189Y-172868628D01*
X163036189Y-172868628D02*
X162988570Y-172773390D01*
X162988570Y-172773390D02*
X162940951Y-172725771D01*
X162940951Y-172725771D02*
X162845713Y-172678152D01*
X162845713Y-172678152D02*
X162655237Y-172678152D01*
X162655237Y-172678152D02*
X162559999Y-172725771D01*
X162083808Y-173344819D02*
X162083808Y-172678152D01*
X162083808Y-172344819D02*
X162131427Y-172392438D01*
X162131427Y-172392438D02*
X162083808Y-172440057D01*
X162083808Y-172440057D02*
X162036189Y-172392438D01*
X162036189Y-172392438D02*
X162083808Y-172344819D01*
X162083808Y-172344819D02*
X162083808Y-172440057D01*
X161702856Y-172678152D02*
X161464761Y-173344819D01*
X161464761Y-173344819D02*
X161226666Y-172678152D01*
X160893332Y-172440057D02*
X160845713Y-172392438D01*
X160845713Y-172392438D02*
X160750475Y-172344819D01*
X160750475Y-172344819D02*
X160512380Y-172344819D01*
X160512380Y-172344819D02*
X160417142Y-172392438D01*
X160417142Y-172392438D02*
X160369523Y-172440057D01*
X160369523Y-172440057D02*
X160321904Y-172535295D01*
X160321904Y-172535295D02*
X160321904Y-172630533D01*
X160321904Y-172630533D02*
X160369523Y-172773390D01*
X160369523Y-172773390D02*
X160940951Y-173344819D01*
X160940951Y-173344819D02*
X160321904Y-173344819D01*
X281124819Y-177895714D02*
X280124819Y-177895714D01*
X280124819Y-177895714D02*
X280839104Y-178229047D01*
X280839104Y-178229047D02*
X280124819Y-178562380D01*
X280124819Y-178562380D02*
X281124819Y-178562380D01*
X281029580Y-179609999D02*
X281077200Y-179562380D01*
X281077200Y-179562380D02*
X281124819Y-179419523D01*
X281124819Y-179419523D02*
X281124819Y-179324285D01*
X281124819Y-179324285D02*
X281077200Y-179181428D01*
X281077200Y-179181428D02*
X280981961Y-179086190D01*
X280981961Y-179086190D02*
X280886723Y-179038571D01*
X280886723Y-179038571D02*
X280696247Y-178990952D01*
X280696247Y-178990952D02*
X280553390Y-178990952D01*
X280553390Y-178990952D02*
X280362914Y-179038571D01*
X280362914Y-179038571D02*
X280267676Y-179086190D01*
X280267676Y-179086190D02*
X280172438Y-179181428D01*
X280172438Y-179181428D02*
X280124819Y-179324285D01*
X280124819Y-179324285D02*
X280124819Y-179419523D01*
X280124819Y-179419523D02*
X280172438Y-179562380D01*
X280172438Y-179562380D02*
X280220057Y-179609999D01*
X281124819Y-180038571D02*
X280124819Y-180038571D01*
X280124819Y-180038571D02*
X280124819Y-180419523D01*
X280124819Y-180419523D02*
X280172438Y-180514761D01*
X280172438Y-180514761D02*
X280220057Y-180562380D01*
X280220057Y-180562380D02*
X280315295Y-180609999D01*
X280315295Y-180609999D02*
X280458152Y-180609999D01*
X280458152Y-180609999D02*
X280553390Y-180562380D01*
X280553390Y-180562380D02*
X280601009Y-180514761D01*
X280601009Y-180514761D02*
X280648628Y-180419523D01*
X280648628Y-180419523D02*
X280648628Y-180038571D01*
X280220057Y-180990952D02*
X280172438Y-181038571D01*
X280172438Y-181038571D02*
X280124819Y-181133809D01*
X280124819Y-181133809D02*
X280124819Y-181371904D01*
X280124819Y-181371904D02*
X280172438Y-181467142D01*
X280172438Y-181467142D02*
X280220057Y-181514761D01*
X280220057Y-181514761D02*
X280315295Y-181562380D01*
X280315295Y-181562380D02*
X280410533Y-181562380D01*
X280410533Y-181562380D02*
X280553390Y-181514761D01*
X280553390Y-181514761D02*
X281124819Y-180943333D01*
X281124819Y-180943333D02*
X281124819Y-181562380D01*
X280124819Y-181895714D02*
X280124819Y-182514761D01*
X280124819Y-182514761D02*
X280505771Y-182181428D01*
X280505771Y-182181428D02*
X280505771Y-182324285D01*
X280505771Y-182324285D02*
X280553390Y-182419523D01*
X280553390Y-182419523D02*
X280601009Y-182467142D01*
X280601009Y-182467142D02*
X280696247Y-182514761D01*
X280696247Y-182514761D02*
X280934342Y-182514761D01*
X280934342Y-182514761D02*
X281029580Y-182467142D01*
X281029580Y-182467142D02*
X281077200Y-182419523D01*
X281077200Y-182419523D02*
X281124819Y-182324285D01*
X281124819Y-182324285D02*
X281124819Y-182038571D01*
X281124819Y-182038571D02*
X281077200Y-181943333D01*
X281077200Y-181943333D02*
X281029580Y-181895714D01*
X280124819Y-183133809D02*
X280124819Y-183229047D01*
X280124819Y-183229047D02*
X280172438Y-183324285D01*
X280172438Y-183324285D02*
X280220057Y-183371904D01*
X280220057Y-183371904D02*
X280315295Y-183419523D01*
X280315295Y-183419523D02*
X280505771Y-183467142D01*
X280505771Y-183467142D02*
X280743866Y-183467142D01*
X280743866Y-183467142D02*
X280934342Y-183419523D01*
X280934342Y-183419523D02*
X281029580Y-183371904D01*
X281029580Y-183371904D02*
X281077200Y-183324285D01*
X281077200Y-183324285D02*
X281124819Y-183229047D01*
X281124819Y-183229047D02*
X281124819Y-183133809D01*
X281124819Y-183133809D02*
X281077200Y-183038571D01*
X281077200Y-183038571D02*
X281029580Y-182990952D01*
X281029580Y-182990952D02*
X280934342Y-182943333D01*
X280934342Y-182943333D02*
X280743866Y-182895714D01*
X280743866Y-182895714D02*
X280505771Y-182895714D01*
X280505771Y-182895714D02*
X280315295Y-182943333D01*
X280315295Y-182943333D02*
X280220057Y-182990952D01*
X280220057Y-182990952D02*
X280172438Y-183038571D01*
X280172438Y-183038571D02*
X280124819Y-183133809D01*
X281124819Y-184419523D02*
X281124819Y-183848095D01*
X281124819Y-184133809D02*
X280124819Y-184133809D01*
X280124819Y-184133809D02*
X280267676Y-184038571D01*
X280267676Y-184038571D02*
X280362914Y-183943333D01*
X280362914Y-183943333D02*
X280410533Y-183848095D01*
X280124819Y-184752857D02*
X280124819Y-185419523D01*
X280124819Y-185419523D02*
X281124819Y-184990952D01*
X261122438Y-156122856D02*
X261074819Y-156027618D01*
X261074819Y-156027618D02*
X261074819Y-155884761D01*
X261074819Y-155884761D02*
X261122438Y-155741904D01*
X261122438Y-155741904D02*
X261217676Y-155646666D01*
X261217676Y-155646666D02*
X261312914Y-155599047D01*
X261312914Y-155599047D02*
X261503390Y-155551428D01*
X261503390Y-155551428D02*
X261646247Y-155551428D01*
X261646247Y-155551428D02*
X261836723Y-155599047D01*
X261836723Y-155599047D02*
X261931961Y-155646666D01*
X261931961Y-155646666D02*
X262027200Y-155741904D01*
X262027200Y-155741904D02*
X262074819Y-155884761D01*
X262074819Y-155884761D02*
X262074819Y-155979999D01*
X262074819Y-155979999D02*
X262027200Y-156122856D01*
X262027200Y-156122856D02*
X261979580Y-156170475D01*
X261979580Y-156170475D02*
X261646247Y-156170475D01*
X261646247Y-156170475D02*
X261646247Y-155979999D01*
X262074819Y-156599047D02*
X261408152Y-156599047D01*
X261598628Y-156599047D02*
X261503390Y-156646666D01*
X261503390Y-156646666D02*
X261455771Y-156694285D01*
X261455771Y-156694285D02*
X261408152Y-156789523D01*
X261408152Y-156789523D02*
X261408152Y-156884761D01*
X262027200Y-157599047D02*
X262074819Y-157503809D01*
X262074819Y-157503809D02*
X262074819Y-157313333D01*
X262074819Y-157313333D02*
X262027200Y-157218095D01*
X262027200Y-157218095D02*
X261931961Y-157170476D01*
X261931961Y-157170476D02*
X261551009Y-157170476D01*
X261551009Y-157170476D02*
X261455771Y-157218095D01*
X261455771Y-157218095D02*
X261408152Y-157313333D01*
X261408152Y-157313333D02*
X261408152Y-157503809D01*
X261408152Y-157503809D02*
X261455771Y-157599047D01*
X261455771Y-157599047D02*
X261551009Y-157646666D01*
X261551009Y-157646666D02*
X261646247Y-157646666D01*
X261646247Y-157646666D02*
X261741485Y-157170476D01*
X262027200Y-158456190D02*
X262074819Y-158360952D01*
X262074819Y-158360952D02*
X262074819Y-158170476D01*
X262074819Y-158170476D02*
X262027200Y-158075238D01*
X262027200Y-158075238D02*
X261931961Y-158027619D01*
X261931961Y-158027619D02*
X261551009Y-158027619D01*
X261551009Y-158027619D02*
X261455771Y-158075238D01*
X261455771Y-158075238D02*
X261408152Y-158170476D01*
X261408152Y-158170476D02*
X261408152Y-158360952D01*
X261408152Y-158360952D02*
X261455771Y-158456190D01*
X261455771Y-158456190D02*
X261551009Y-158503809D01*
X261551009Y-158503809D02*
X261646247Y-158503809D01*
X261646247Y-158503809D02*
X261741485Y-158027619D01*
X261408152Y-158932381D02*
X262074819Y-158932381D01*
X261503390Y-158932381D02*
X261455771Y-158980000D01*
X261455771Y-158980000D02*
X261408152Y-159075238D01*
X261408152Y-159075238D02*
X261408152Y-159218095D01*
X261408152Y-159218095D02*
X261455771Y-159313333D01*
X261455771Y-159313333D02*
X261551009Y-159360952D01*
X261551009Y-159360952D02*
X262074819Y-159360952D01*
X212034285Y-155591009D02*
X211891428Y-155638628D01*
X211891428Y-155638628D02*
X211843809Y-155686247D01*
X211843809Y-155686247D02*
X211796190Y-155781485D01*
X211796190Y-155781485D02*
X211796190Y-155924342D01*
X211796190Y-155924342D02*
X211843809Y-156019580D01*
X211843809Y-156019580D02*
X211891428Y-156067200D01*
X211891428Y-156067200D02*
X211986666Y-156114819D01*
X211986666Y-156114819D02*
X212367618Y-156114819D01*
X212367618Y-156114819D02*
X212367618Y-155114819D01*
X212367618Y-155114819D02*
X212034285Y-155114819D01*
X212034285Y-155114819D02*
X211939047Y-155162438D01*
X211939047Y-155162438D02*
X211891428Y-155210057D01*
X211891428Y-155210057D02*
X211843809Y-155305295D01*
X211843809Y-155305295D02*
X211843809Y-155400533D01*
X211843809Y-155400533D02*
X211891428Y-155495771D01*
X211891428Y-155495771D02*
X211939047Y-155543390D01*
X211939047Y-155543390D02*
X212034285Y-155591009D01*
X212034285Y-155591009D02*
X212367618Y-155591009D01*
X210939047Y-156114819D02*
X210939047Y-155591009D01*
X210939047Y-155591009D02*
X210986666Y-155495771D01*
X210986666Y-155495771D02*
X211081904Y-155448152D01*
X211081904Y-155448152D02*
X211272380Y-155448152D01*
X211272380Y-155448152D02*
X211367618Y-155495771D01*
X210939047Y-156067200D02*
X211034285Y-156114819D01*
X211034285Y-156114819D02*
X211272380Y-156114819D01*
X211272380Y-156114819D02*
X211367618Y-156067200D01*
X211367618Y-156067200D02*
X211415237Y-155971961D01*
X211415237Y-155971961D02*
X211415237Y-155876723D01*
X211415237Y-155876723D02*
X211367618Y-155781485D01*
X211367618Y-155781485D02*
X211272380Y-155733866D01*
X211272380Y-155733866D02*
X211034285Y-155733866D01*
X211034285Y-155733866D02*
X210939047Y-155686247D01*
X210510475Y-156067200D02*
X210415237Y-156114819D01*
X210415237Y-156114819D02*
X210224761Y-156114819D01*
X210224761Y-156114819D02*
X210129523Y-156067200D01*
X210129523Y-156067200D02*
X210081904Y-155971961D01*
X210081904Y-155971961D02*
X210081904Y-155924342D01*
X210081904Y-155924342D02*
X210129523Y-155829104D01*
X210129523Y-155829104D02*
X210224761Y-155781485D01*
X210224761Y-155781485D02*
X210367618Y-155781485D01*
X210367618Y-155781485D02*
X210462856Y-155733866D01*
X210462856Y-155733866D02*
X210510475Y-155638628D01*
X210510475Y-155638628D02*
X210510475Y-155591009D01*
X210510475Y-155591009D02*
X210462856Y-155495771D01*
X210462856Y-155495771D02*
X210367618Y-155448152D01*
X210367618Y-155448152D02*
X210224761Y-155448152D01*
X210224761Y-155448152D02*
X210129523Y-155495771D01*
X209272380Y-156067200D02*
X209367618Y-156114819D01*
X209367618Y-156114819D02*
X209558094Y-156114819D01*
X209558094Y-156114819D02*
X209653332Y-156067200D01*
X209653332Y-156067200D02*
X209700951Y-155971961D01*
X209700951Y-155971961D02*
X209700951Y-155591009D01*
X209700951Y-155591009D02*
X209653332Y-155495771D01*
X209653332Y-155495771D02*
X209558094Y-155448152D01*
X209558094Y-155448152D02*
X209367618Y-155448152D01*
X209367618Y-155448152D02*
X209272380Y-155495771D01*
X209272380Y-155495771D02*
X209224761Y-155591009D01*
X209224761Y-155591009D02*
X209224761Y-155686247D01*
X209224761Y-155686247D02*
X209700951Y-155781485D01*
X275383333Y-164284819D02*
X275716666Y-163808628D01*
X275954761Y-164284819D02*
X275954761Y-163284819D01*
X275954761Y-163284819D02*
X275573809Y-163284819D01*
X275573809Y-163284819D02*
X275478571Y-163332438D01*
X275478571Y-163332438D02*
X275430952Y-163380057D01*
X275430952Y-163380057D02*
X275383333Y-163475295D01*
X275383333Y-163475295D02*
X275383333Y-163618152D01*
X275383333Y-163618152D02*
X275430952Y-163713390D01*
X275430952Y-163713390D02*
X275478571Y-163761009D01*
X275478571Y-163761009D02*
X275573809Y-163808628D01*
X275573809Y-163808628D02*
X275954761Y-163808628D01*
X275192857Y-164380057D02*
X274430952Y-164380057D01*
X274288094Y-163618152D02*
X274097618Y-164284819D01*
X274097618Y-164284819D02*
X273907142Y-163808628D01*
X273907142Y-163808628D02*
X273716666Y-164284819D01*
X273716666Y-164284819D02*
X273526190Y-163618152D01*
X273145237Y-164284819D02*
X273145237Y-163618152D01*
X273145237Y-163284819D02*
X273192856Y-163332438D01*
X273192856Y-163332438D02*
X273145237Y-163380057D01*
X273145237Y-163380057D02*
X273097618Y-163332438D01*
X273097618Y-163332438D02*
X273145237Y-163284819D01*
X273145237Y-163284819D02*
X273145237Y-163380057D01*
X272811904Y-163618152D02*
X272430952Y-163618152D01*
X272669047Y-164284819D02*
X272669047Y-163427676D01*
X272669047Y-163427676D02*
X272621428Y-163332438D01*
X272621428Y-163332438D02*
X272526190Y-163284819D01*
X272526190Y-163284819D02*
X272430952Y-163284819D01*
X272097618Y-164284819D02*
X272097618Y-163618152D01*
X272097618Y-163284819D02*
X272145237Y-163332438D01*
X272145237Y-163332438D02*
X272097618Y-163380057D01*
X272097618Y-163380057D02*
X272049999Y-163332438D01*
X272049999Y-163332438D02*
X272097618Y-163284819D01*
X272097618Y-163284819D02*
X272097618Y-163380057D01*
X271288095Y-163761009D02*
X271145238Y-163808628D01*
X271145238Y-163808628D02*
X271097619Y-163856247D01*
X271097619Y-163856247D02*
X271050000Y-163951485D01*
X271050000Y-163951485D02*
X271050000Y-164094342D01*
X271050000Y-164094342D02*
X271097619Y-164189580D01*
X271097619Y-164189580D02*
X271145238Y-164237200D01*
X271145238Y-164237200D02*
X271240476Y-164284819D01*
X271240476Y-164284819D02*
X271621428Y-164284819D01*
X271621428Y-164284819D02*
X271621428Y-163284819D01*
X271621428Y-163284819D02*
X271288095Y-163284819D01*
X271288095Y-163284819D02*
X271192857Y-163332438D01*
X271192857Y-163332438D02*
X271145238Y-163380057D01*
X271145238Y-163380057D02*
X271097619Y-163475295D01*
X271097619Y-163475295D02*
X271097619Y-163570533D01*
X271097619Y-163570533D02*
X271145238Y-163665771D01*
X271145238Y-163665771D02*
X271192857Y-163713390D01*
X271192857Y-163713390D02*
X271288095Y-163761009D01*
X271288095Y-163761009D02*
X271621428Y-163761009D01*
X270097619Y-164284819D02*
X270669047Y-164284819D01*
X270383333Y-164284819D02*
X270383333Y-163284819D01*
X270383333Y-163284819D02*
X270478571Y-163427676D01*
X270478571Y-163427676D02*
X270573809Y-163522914D01*
X270573809Y-163522914D02*
X270669047Y-163570533D01*
X275383333Y-149044819D02*
X275716666Y-148568628D01*
X275954761Y-149044819D02*
X275954761Y-148044819D01*
X275954761Y-148044819D02*
X275573809Y-148044819D01*
X275573809Y-148044819D02*
X275478571Y-148092438D01*
X275478571Y-148092438D02*
X275430952Y-148140057D01*
X275430952Y-148140057D02*
X275383333Y-148235295D01*
X275383333Y-148235295D02*
X275383333Y-148378152D01*
X275383333Y-148378152D02*
X275430952Y-148473390D01*
X275430952Y-148473390D02*
X275478571Y-148521009D01*
X275478571Y-148521009D02*
X275573809Y-148568628D01*
X275573809Y-148568628D02*
X275954761Y-148568628D01*
X275192857Y-149140057D02*
X274430952Y-149140057D01*
X274192856Y-148378152D02*
X274192856Y-149378152D01*
X274192856Y-148425771D02*
X274097618Y-148378152D01*
X274097618Y-148378152D02*
X273907142Y-148378152D01*
X273907142Y-148378152D02*
X273811904Y-148425771D01*
X273811904Y-148425771D02*
X273764285Y-148473390D01*
X273764285Y-148473390D02*
X273716666Y-148568628D01*
X273716666Y-148568628D02*
X273716666Y-148854342D01*
X273716666Y-148854342D02*
X273764285Y-148949580D01*
X273764285Y-148949580D02*
X273811904Y-148997200D01*
X273811904Y-148997200D02*
X273907142Y-149044819D01*
X273907142Y-149044819D02*
X274097618Y-149044819D01*
X274097618Y-149044819D02*
X274192856Y-148997200D01*
X273383332Y-148378152D02*
X273192856Y-149044819D01*
X273192856Y-149044819D02*
X273002380Y-148568628D01*
X273002380Y-148568628D02*
X272811904Y-149044819D01*
X272811904Y-149044819D02*
X272621428Y-148378152D01*
X272240475Y-149044819D02*
X272240475Y-148378152D01*
X272240475Y-148568628D02*
X272192856Y-148473390D01*
X272192856Y-148473390D02*
X272145237Y-148425771D01*
X272145237Y-148425771D02*
X272049999Y-148378152D01*
X272049999Y-148378152D02*
X271954761Y-148378152D01*
X271097618Y-148092438D02*
X271192856Y-148044819D01*
X271192856Y-148044819D02*
X271335713Y-148044819D01*
X271335713Y-148044819D02*
X271478570Y-148092438D01*
X271478570Y-148092438D02*
X271573808Y-148187676D01*
X271573808Y-148187676D02*
X271621427Y-148282914D01*
X271621427Y-148282914D02*
X271669046Y-148473390D01*
X271669046Y-148473390D02*
X271669046Y-148616247D01*
X271669046Y-148616247D02*
X271621427Y-148806723D01*
X271621427Y-148806723D02*
X271573808Y-148901961D01*
X271573808Y-148901961D02*
X271478570Y-148997200D01*
X271478570Y-148997200D02*
X271335713Y-149044819D01*
X271335713Y-149044819D02*
X271240475Y-149044819D01*
X271240475Y-149044819D02*
X271097618Y-148997200D01*
X271097618Y-148997200D02*
X271049999Y-148949580D01*
X271049999Y-148949580D02*
X271049999Y-148616247D01*
X271049999Y-148616247D02*
X271240475Y-148616247D01*
X270097618Y-149044819D02*
X270669046Y-149044819D01*
X270383332Y-149044819D02*
X270383332Y-148044819D01*
X270383332Y-148044819D02*
X270478570Y-148187676D01*
X270478570Y-148187676D02*
X270573808Y-148282914D01*
X270573808Y-148282914D02*
X270669046Y-148330533D01*
X275383333Y-152854819D02*
X275716666Y-152378628D01*
X275954761Y-152854819D02*
X275954761Y-151854819D01*
X275954761Y-151854819D02*
X275573809Y-151854819D01*
X275573809Y-151854819D02*
X275478571Y-151902438D01*
X275478571Y-151902438D02*
X275430952Y-151950057D01*
X275430952Y-151950057D02*
X275383333Y-152045295D01*
X275383333Y-152045295D02*
X275383333Y-152188152D01*
X275383333Y-152188152D02*
X275430952Y-152283390D01*
X275430952Y-152283390D02*
X275478571Y-152331009D01*
X275478571Y-152331009D02*
X275573809Y-152378628D01*
X275573809Y-152378628D02*
X275954761Y-152378628D01*
X275192857Y-152950057D02*
X274430952Y-152950057D01*
X274192856Y-152188152D02*
X274192856Y-153188152D01*
X274192856Y-152235771D02*
X274097618Y-152188152D01*
X274097618Y-152188152D02*
X273907142Y-152188152D01*
X273907142Y-152188152D02*
X273811904Y-152235771D01*
X273811904Y-152235771D02*
X273764285Y-152283390D01*
X273764285Y-152283390D02*
X273716666Y-152378628D01*
X273716666Y-152378628D02*
X273716666Y-152664342D01*
X273716666Y-152664342D02*
X273764285Y-152759580D01*
X273764285Y-152759580D02*
X273811904Y-152807200D01*
X273811904Y-152807200D02*
X273907142Y-152854819D01*
X273907142Y-152854819D02*
X274097618Y-152854819D01*
X274097618Y-152854819D02*
X274192856Y-152807200D01*
X273383332Y-152188152D02*
X273192856Y-152854819D01*
X273192856Y-152854819D02*
X273002380Y-152378628D01*
X273002380Y-152378628D02*
X272811904Y-152854819D01*
X272811904Y-152854819D02*
X272621428Y-152188152D01*
X272240475Y-152854819D02*
X272240475Y-152188152D01*
X272240475Y-152378628D02*
X272192856Y-152283390D01*
X272192856Y-152283390D02*
X272145237Y-152235771D01*
X272145237Y-152235771D02*
X272049999Y-152188152D01*
X272049999Y-152188152D02*
X271954761Y-152188152D01*
X271288094Y-152331009D02*
X271145237Y-152378628D01*
X271145237Y-152378628D02*
X271097618Y-152426247D01*
X271097618Y-152426247D02*
X271049999Y-152521485D01*
X271049999Y-152521485D02*
X271049999Y-152664342D01*
X271049999Y-152664342D02*
X271097618Y-152759580D01*
X271097618Y-152759580D02*
X271145237Y-152807200D01*
X271145237Y-152807200D02*
X271240475Y-152854819D01*
X271240475Y-152854819D02*
X271621427Y-152854819D01*
X271621427Y-152854819D02*
X271621427Y-151854819D01*
X271621427Y-151854819D02*
X271288094Y-151854819D01*
X271288094Y-151854819D02*
X271192856Y-151902438D01*
X271192856Y-151902438D02*
X271145237Y-151950057D01*
X271145237Y-151950057D02*
X271097618Y-152045295D01*
X271097618Y-152045295D02*
X271097618Y-152140533D01*
X271097618Y-152140533D02*
X271145237Y-152235771D01*
X271145237Y-152235771D02*
X271192856Y-152283390D01*
X271192856Y-152283390D02*
X271288094Y-152331009D01*
X271288094Y-152331009D02*
X271621427Y-152331009D01*
X270097618Y-152854819D02*
X270669046Y-152854819D01*
X270383332Y-152854819D02*
X270383332Y-151854819D01*
X270383332Y-151854819D02*
X270478570Y-151997676D01*
X270478570Y-151997676D02*
X270573808Y-152092914D01*
X270573808Y-152092914D02*
X270669046Y-152140533D01*
X128514819Y-178467143D02*
X127514819Y-178467143D01*
X127514819Y-178467143D02*
X128229104Y-178800476D01*
X128229104Y-178800476D02*
X127514819Y-179133809D01*
X127514819Y-179133809D02*
X128514819Y-179133809D01*
X128229104Y-179562381D02*
X128229104Y-180038571D01*
X128514819Y-179467143D02*
X127514819Y-179800476D01*
X127514819Y-179800476D02*
X128514819Y-180133809D01*
X127514819Y-180371905D02*
X128514819Y-181038571D01*
X127514819Y-181038571D02*
X128514819Y-180371905D01*
X127514819Y-181324286D02*
X127514819Y-181990952D01*
X127514819Y-181990952D02*
X128514819Y-181562381D01*
X127610057Y-182324286D02*
X127562438Y-182371905D01*
X127562438Y-182371905D02*
X127514819Y-182467143D01*
X127514819Y-182467143D02*
X127514819Y-182705238D01*
X127514819Y-182705238D02*
X127562438Y-182800476D01*
X127562438Y-182800476D02*
X127610057Y-182848095D01*
X127610057Y-182848095D02*
X127705295Y-182895714D01*
X127705295Y-182895714D02*
X127800533Y-182895714D01*
X127800533Y-182895714D02*
X127943390Y-182848095D01*
X127943390Y-182848095D02*
X128514819Y-182276667D01*
X128514819Y-182276667D02*
X128514819Y-182895714D01*
X128514819Y-183848095D02*
X128514819Y-183276667D01*
X128514819Y-183562381D02*
X127514819Y-183562381D01*
X127514819Y-183562381D02*
X127657676Y-183467143D01*
X127657676Y-183467143D02*
X127752914Y-183371905D01*
X127752914Y-183371905D02*
X127800533Y-183276667D01*
X128514819Y-184324286D02*
X128514819Y-184514762D01*
X128514819Y-184514762D02*
X128467200Y-184610000D01*
X128467200Y-184610000D02*
X128419580Y-184657619D01*
X128419580Y-184657619D02*
X128276723Y-184752857D01*
X128276723Y-184752857D02*
X128086247Y-184800476D01*
X128086247Y-184800476D02*
X127705295Y-184800476D01*
X127705295Y-184800476D02*
X127610057Y-184752857D01*
X127610057Y-184752857D02*
X127562438Y-184705238D01*
X127562438Y-184705238D02*
X127514819Y-184610000D01*
X127514819Y-184610000D02*
X127514819Y-184419524D01*
X127514819Y-184419524D02*
X127562438Y-184324286D01*
X127562438Y-184324286D02*
X127610057Y-184276667D01*
X127610057Y-184276667D02*
X127705295Y-184229048D01*
X127705295Y-184229048D02*
X127943390Y-184229048D01*
X127943390Y-184229048D02*
X128038628Y-184276667D01*
X128038628Y-184276667D02*
X128086247Y-184324286D01*
X128086247Y-184324286D02*
X128133866Y-184419524D01*
X128133866Y-184419524D02*
X128133866Y-184610000D01*
X128133866Y-184610000D02*
X128086247Y-184705238D01*
X128086247Y-184705238D02*
X128038628Y-184752857D01*
X128038628Y-184752857D02*
X127943390Y-184800476D01*
X233282857Y-156114819D02*
X233282857Y-155114819D01*
X233282857Y-155114819D02*
X232901905Y-155114819D01*
X232901905Y-155114819D02*
X232806667Y-155162438D01*
X232806667Y-155162438D02*
X232759048Y-155210057D01*
X232759048Y-155210057D02*
X232711429Y-155305295D01*
X232711429Y-155305295D02*
X232711429Y-155448152D01*
X232711429Y-155448152D02*
X232759048Y-155543390D01*
X232759048Y-155543390D02*
X232806667Y-155591009D01*
X232806667Y-155591009D02*
X232901905Y-155638628D01*
X232901905Y-155638628D02*
X233282857Y-155638628D01*
X231854286Y-155448152D02*
X231854286Y-156114819D01*
X232282857Y-155448152D02*
X232282857Y-155971961D01*
X232282857Y-155971961D02*
X232235238Y-156067200D01*
X232235238Y-156067200D02*
X232140000Y-156114819D01*
X232140000Y-156114819D02*
X231997143Y-156114819D01*
X231997143Y-156114819D02*
X231901905Y-156067200D01*
X231901905Y-156067200D02*
X231854286Y-156019580D01*
X231235238Y-156114819D02*
X231330476Y-156067200D01*
X231330476Y-156067200D02*
X231378095Y-155971961D01*
X231378095Y-155971961D02*
X231378095Y-155114819D01*
X230711428Y-156114819D02*
X230806666Y-156067200D01*
X230806666Y-156067200D02*
X230854285Y-155971961D01*
X230854285Y-155971961D02*
X230854285Y-155114819D01*
X229901904Y-155448152D02*
X229901904Y-156114819D01*
X230330475Y-155448152D02*
X230330475Y-155971961D01*
X230330475Y-155971961D02*
X230282856Y-156067200D01*
X230282856Y-156067200D02*
X230187618Y-156114819D01*
X230187618Y-156114819D02*
X230044761Y-156114819D01*
X230044761Y-156114819D02*
X229949523Y-156067200D01*
X229949523Y-156067200D02*
X229901904Y-156019580D01*
X229425713Y-155448152D02*
X229425713Y-156448152D01*
X229425713Y-155495771D02*
X229330475Y-155448152D01*
X229330475Y-155448152D02*
X229139999Y-155448152D01*
X229139999Y-155448152D02*
X229044761Y-155495771D01*
X229044761Y-155495771D02*
X228997142Y-155543390D01*
X228997142Y-155543390D02*
X228949523Y-155638628D01*
X228949523Y-155638628D02*
X228949523Y-155924342D01*
X228949523Y-155924342D02*
X228997142Y-156019580D01*
X228997142Y-156019580D02*
X229044761Y-156067200D01*
X229044761Y-156067200D02*
X229139999Y-156114819D01*
X229139999Y-156114819D02*
X229330475Y-156114819D01*
X229330475Y-156114819D02*
X229425713Y-156067200D01*
X151061009Y-156424761D02*
X151061009Y-156091428D01*
X151584819Y-156091428D02*
X150584819Y-156091428D01*
X150584819Y-156091428D02*
X150584819Y-156567618D01*
X151584819Y-156948571D02*
X150918152Y-156948571D01*
X150584819Y-156948571D02*
X150632438Y-156900952D01*
X150632438Y-156900952D02*
X150680057Y-156948571D01*
X150680057Y-156948571D02*
X150632438Y-156996190D01*
X150632438Y-156996190D02*
X150584819Y-156948571D01*
X150584819Y-156948571D02*
X150680057Y-156948571D01*
X151584819Y-157424761D02*
X150918152Y-157424761D01*
X151108628Y-157424761D02*
X151013390Y-157472380D01*
X151013390Y-157472380D02*
X150965771Y-157519999D01*
X150965771Y-157519999D02*
X150918152Y-157615237D01*
X150918152Y-157615237D02*
X150918152Y-157710475D01*
X151537200Y-158424761D02*
X151584819Y-158329523D01*
X151584819Y-158329523D02*
X151584819Y-158139047D01*
X151584819Y-158139047D02*
X151537200Y-158043809D01*
X151537200Y-158043809D02*
X151441961Y-157996190D01*
X151441961Y-157996190D02*
X151061009Y-157996190D01*
X151061009Y-157996190D02*
X150965771Y-158043809D01*
X150965771Y-158043809D02*
X150918152Y-158139047D01*
X150918152Y-158139047D02*
X150918152Y-158329523D01*
X150918152Y-158329523D02*
X150965771Y-158424761D01*
X150965771Y-158424761D02*
X151061009Y-158472380D01*
X151061009Y-158472380D02*
X151156247Y-158472380D01*
X151156247Y-158472380D02*
X151251485Y-157996190D01*
X151584819Y-158900952D02*
X150584819Y-158900952D01*
X150965771Y-158900952D02*
X150918152Y-158996190D01*
X150918152Y-158996190D02*
X150918152Y-159186666D01*
X150918152Y-159186666D02*
X150965771Y-159281904D01*
X150965771Y-159281904D02*
X151013390Y-159329523D01*
X151013390Y-159329523D02*
X151108628Y-159377142D01*
X151108628Y-159377142D02*
X151394342Y-159377142D01*
X151394342Y-159377142D02*
X151489580Y-159329523D01*
X151489580Y-159329523D02*
X151537200Y-159281904D01*
X151537200Y-159281904D02*
X151584819Y-159186666D01*
X151584819Y-159186666D02*
X151584819Y-158996190D01*
X151584819Y-158996190D02*
X151537200Y-158900952D01*
X151537200Y-160186666D02*
X151584819Y-160091428D01*
X151584819Y-160091428D02*
X151584819Y-159900952D01*
X151584819Y-159900952D02*
X151537200Y-159805714D01*
X151537200Y-159805714D02*
X151441961Y-159758095D01*
X151441961Y-159758095D02*
X151061009Y-159758095D01*
X151061009Y-159758095D02*
X150965771Y-159805714D01*
X150965771Y-159805714D02*
X150918152Y-159900952D01*
X150918152Y-159900952D02*
X150918152Y-160091428D01*
X150918152Y-160091428D02*
X150965771Y-160186666D01*
X150965771Y-160186666D02*
X151061009Y-160234285D01*
X151061009Y-160234285D02*
X151156247Y-160234285D01*
X151156247Y-160234285D02*
X151251485Y-159758095D01*
X151537200Y-161043809D02*
X151584819Y-160948571D01*
X151584819Y-160948571D02*
X151584819Y-160758095D01*
X151584819Y-160758095D02*
X151537200Y-160662857D01*
X151537200Y-160662857D02*
X151441961Y-160615238D01*
X151441961Y-160615238D02*
X151061009Y-160615238D01*
X151061009Y-160615238D02*
X150965771Y-160662857D01*
X150965771Y-160662857D02*
X150918152Y-160758095D01*
X150918152Y-160758095D02*
X150918152Y-160948571D01*
X150918152Y-160948571D02*
X150965771Y-161043809D01*
X150965771Y-161043809D02*
X151061009Y-161091428D01*
X151061009Y-161091428D02*
X151156247Y-161091428D01*
X151156247Y-161091428D02*
X151251485Y-160615238D01*
X150918152Y-161377143D02*
X150918152Y-161758095D01*
X150584819Y-161520000D02*
X151441961Y-161520000D01*
X151441961Y-161520000D02*
X151537200Y-161567619D01*
X151537200Y-161567619D02*
X151584819Y-161662857D01*
X151584819Y-161662857D02*
X151584819Y-161758095D01*
X151584819Y-162234286D02*
X151537200Y-162139048D01*
X151537200Y-162139048D02*
X151441961Y-162091429D01*
X151441961Y-162091429D02*
X150584819Y-162091429D01*
X151537200Y-162996191D02*
X151584819Y-162900953D01*
X151584819Y-162900953D02*
X151584819Y-162710477D01*
X151584819Y-162710477D02*
X151537200Y-162615239D01*
X151537200Y-162615239D02*
X151441961Y-162567620D01*
X151441961Y-162567620D02*
X151061009Y-162567620D01*
X151061009Y-162567620D02*
X150965771Y-162615239D01*
X150965771Y-162615239D02*
X150918152Y-162710477D01*
X150918152Y-162710477D02*
X150918152Y-162900953D01*
X150918152Y-162900953D02*
X150965771Y-162996191D01*
X150965771Y-162996191D02*
X151061009Y-163043810D01*
X151061009Y-163043810D02*
X151156247Y-163043810D01*
X151156247Y-163043810D02*
X151251485Y-162567620D01*
X150680057Y-163424763D02*
X150632438Y-163472382D01*
X150632438Y-163472382D02*
X150584819Y-163567620D01*
X150584819Y-163567620D02*
X150584819Y-163805715D01*
X150584819Y-163805715D02*
X150632438Y-163900953D01*
X150632438Y-163900953D02*
X150680057Y-163948572D01*
X150680057Y-163948572D02*
X150775295Y-163996191D01*
X150775295Y-163996191D02*
X150870533Y-163996191D01*
X150870533Y-163996191D02*
X151013390Y-163948572D01*
X151013390Y-163948572D02*
X151584819Y-163377144D01*
X151584819Y-163377144D02*
X151584819Y-163996191D01*
X164179047Y-168264819D02*
X164512380Y-167788628D01*
X164750475Y-168264819D02*
X164750475Y-167264819D01*
X164750475Y-167264819D02*
X164369523Y-167264819D01*
X164369523Y-167264819D02*
X164274285Y-167312438D01*
X164274285Y-167312438D02*
X164226666Y-167360057D01*
X164226666Y-167360057D02*
X164179047Y-167455295D01*
X164179047Y-167455295D02*
X164179047Y-167598152D01*
X164179047Y-167598152D02*
X164226666Y-167693390D01*
X164226666Y-167693390D02*
X164274285Y-167741009D01*
X164274285Y-167741009D02*
X164369523Y-167788628D01*
X164369523Y-167788628D02*
X164750475Y-167788628D01*
X163988571Y-168360057D02*
X163226666Y-168360057D01*
X162559999Y-168264819D02*
X162559999Y-167264819D01*
X162559999Y-168217200D02*
X162655237Y-168264819D01*
X162655237Y-168264819D02*
X162845713Y-168264819D01*
X162845713Y-168264819D02*
X162940951Y-168217200D01*
X162940951Y-168217200D02*
X162988570Y-168169580D01*
X162988570Y-168169580D02*
X163036189Y-168074342D01*
X163036189Y-168074342D02*
X163036189Y-167788628D01*
X163036189Y-167788628D02*
X162988570Y-167693390D01*
X162988570Y-167693390D02*
X162940951Y-167645771D01*
X162940951Y-167645771D02*
X162845713Y-167598152D01*
X162845713Y-167598152D02*
X162655237Y-167598152D01*
X162655237Y-167598152D02*
X162559999Y-167645771D01*
X162083808Y-168264819D02*
X162083808Y-167598152D01*
X162083808Y-167264819D02*
X162131427Y-167312438D01*
X162131427Y-167312438D02*
X162083808Y-167360057D01*
X162083808Y-167360057D02*
X162036189Y-167312438D01*
X162036189Y-167312438D02*
X162083808Y-167264819D01*
X162083808Y-167264819D02*
X162083808Y-167360057D01*
X161702856Y-167598152D02*
X161464761Y-168264819D01*
X161464761Y-168264819D02*
X161226666Y-167598152D01*
X160321904Y-168264819D02*
X160893332Y-168264819D01*
X160607618Y-168264819D02*
X160607618Y-167264819D01*
X160607618Y-167264819D02*
X160702856Y-167407676D01*
X160702856Y-167407676D02*
X160798094Y-167502914D01*
X160798094Y-167502914D02*
X160893332Y-167550533D01*
X163845714Y-178424819D02*
X164179047Y-177948628D01*
X164417142Y-178424819D02*
X164417142Y-177424819D01*
X164417142Y-177424819D02*
X164036190Y-177424819D01*
X164036190Y-177424819D02*
X163940952Y-177472438D01*
X163940952Y-177472438D02*
X163893333Y-177520057D01*
X163893333Y-177520057D02*
X163845714Y-177615295D01*
X163845714Y-177615295D02*
X163845714Y-177758152D01*
X163845714Y-177758152D02*
X163893333Y-177853390D01*
X163893333Y-177853390D02*
X163940952Y-177901009D01*
X163940952Y-177901009D02*
X164036190Y-177948628D01*
X164036190Y-177948628D02*
X164417142Y-177948628D01*
X163655238Y-178520057D02*
X162893333Y-178520057D01*
X162655237Y-178424819D02*
X162655237Y-177424819D01*
X162655237Y-177805771D02*
X162559999Y-177758152D01*
X162559999Y-177758152D02*
X162369523Y-177758152D01*
X162369523Y-177758152D02*
X162274285Y-177805771D01*
X162274285Y-177805771D02*
X162226666Y-177853390D01*
X162226666Y-177853390D02*
X162179047Y-177948628D01*
X162179047Y-177948628D02*
X162179047Y-178234342D01*
X162179047Y-178234342D02*
X162226666Y-178329580D01*
X162226666Y-178329580D02*
X162274285Y-178377200D01*
X162274285Y-178377200D02*
X162369523Y-178424819D01*
X162369523Y-178424819D02*
X162559999Y-178424819D01*
X162559999Y-178424819D02*
X162655237Y-178377200D01*
X161321904Y-178424819D02*
X161321904Y-177901009D01*
X161321904Y-177901009D02*
X161369523Y-177805771D01*
X161369523Y-177805771D02*
X161464761Y-177758152D01*
X161464761Y-177758152D02*
X161655237Y-177758152D01*
X161655237Y-177758152D02*
X161750475Y-177805771D01*
X161321904Y-178377200D02*
X161417142Y-178424819D01*
X161417142Y-178424819D02*
X161655237Y-178424819D01*
X161655237Y-178424819D02*
X161750475Y-178377200D01*
X161750475Y-178377200D02*
X161798094Y-178281961D01*
X161798094Y-178281961D02*
X161798094Y-178186723D01*
X161798094Y-178186723D02*
X161750475Y-178091485D01*
X161750475Y-178091485D02*
X161655237Y-178043866D01*
X161655237Y-178043866D02*
X161417142Y-178043866D01*
X161417142Y-178043866D02*
X161321904Y-177996247D01*
X160845713Y-178424819D02*
X160845713Y-177758152D01*
X160845713Y-177948628D02*
X160798094Y-177853390D01*
X160798094Y-177853390D02*
X160750475Y-177805771D01*
X160750475Y-177805771D02*
X160655237Y-177758152D01*
X160655237Y-177758152D02*
X160559999Y-177758152D01*
X275383333Y-156664819D02*
X275716666Y-156188628D01*
X275954761Y-156664819D02*
X275954761Y-155664819D01*
X275954761Y-155664819D02*
X275573809Y-155664819D01*
X275573809Y-155664819D02*
X275478571Y-155712438D01*
X275478571Y-155712438D02*
X275430952Y-155760057D01*
X275430952Y-155760057D02*
X275383333Y-155855295D01*
X275383333Y-155855295D02*
X275383333Y-155998152D01*
X275383333Y-155998152D02*
X275430952Y-156093390D01*
X275430952Y-156093390D02*
X275478571Y-156141009D01*
X275478571Y-156141009D02*
X275573809Y-156188628D01*
X275573809Y-156188628D02*
X275954761Y-156188628D01*
X275192857Y-156760057D02*
X274430952Y-156760057D01*
X274192856Y-155998152D02*
X274192856Y-156998152D01*
X274192856Y-156045771D02*
X274097618Y-155998152D01*
X274097618Y-155998152D02*
X273907142Y-155998152D01*
X273907142Y-155998152D02*
X273811904Y-156045771D01*
X273811904Y-156045771D02*
X273764285Y-156093390D01*
X273764285Y-156093390D02*
X273716666Y-156188628D01*
X273716666Y-156188628D02*
X273716666Y-156474342D01*
X273716666Y-156474342D02*
X273764285Y-156569580D01*
X273764285Y-156569580D02*
X273811904Y-156617200D01*
X273811904Y-156617200D02*
X273907142Y-156664819D01*
X273907142Y-156664819D02*
X274097618Y-156664819D01*
X274097618Y-156664819D02*
X274192856Y-156617200D01*
X273383332Y-155998152D02*
X273192856Y-156664819D01*
X273192856Y-156664819D02*
X273002380Y-156188628D01*
X273002380Y-156188628D02*
X272811904Y-156664819D01*
X272811904Y-156664819D02*
X272621428Y-155998152D01*
X272240475Y-156664819D02*
X272240475Y-155998152D01*
X272240475Y-156188628D02*
X272192856Y-156093390D01*
X272192856Y-156093390D02*
X272145237Y-156045771D01*
X272145237Y-156045771D02*
X272049999Y-155998152D01*
X272049999Y-155998152D02*
X271954761Y-155998152D01*
X271049999Y-156664819D02*
X271383332Y-156188628D01*
X271621427Y-156664819D02*
X271621427Y-155664819D01*
X271621427Y-155664819D02*
X271240475Y-155664819D01*
X271240475Y-155664819D02*
X271145237Y-155712438D01*
X271145237Y-155712438D02*
X271097618Y-155760057D01*
X271097618Y-155760057D02*
X271049999Y-155855295D01*
X271049999Y-155855295D02*
X271049999Y-155998152D01*
X271049999Y-155998152D02*
X271097618Y-156093390D01*
X271097618Y-156093390D02*
X271145237Y-156141009D01*
X271145237Y-156141009D02*
X271240475Y-156188628D01*
X271240475Y-156188628D02*
X271621427Y-156188628D01*
X270097618Y-156664819D02*
X270669046Y-156664819D01*
X270383332Y-156664819D02*
X270383332Y-155664819D01*
X270383332Y-155664819D02*
X270478570Y-155807676D01*
X270478570Y-155807676D02*
X270573808Y-155902914D01*
X270573808Y-155902914D02*
X270669046Y-155950533D01*
X242854819Y-118808571D02*
X242378628Y-118475238D01*
X242854819Y-118237143D02*
X241854819Y-118237143D01*
X241854819Y-118237143D02*
X241854819Y-118618095D01*
X241854819Y-118618095D02*
X241902438Y-118713333D01*
X241902438Y-118713333D02*
X241950057Y-118760952D01*
X241950057Y-118760952D02*
X242045295Y-118808571D01*
X242045295Y-118808571D02*
X242188152Y-118808571D01*
X242188152Y-118808571D02*
X242283390Y-118760952D01*
X242283390Y-118760952D02*
X242331009Y-118713333D01*
X242331009Y-118713333D02*
X242378628Y-118618095D01*
X242378628Y-118618095D02*
X242378628Y-118237143D01*
X242807200Y-119618095D02*
X242854819Y-119522857D01*
X242854819Y-119522857D02*
X242854819Y-119332381D01*
X242854819Y-119332381D02*
X242807200Y-119237143D01*
X242807200Y-119237143D02*
X242711961Y-119189524D01*
X242711961Y-119189524D02*
X242331009Y-119189524D01*
X242331009Y-119189524D02*
X242235771Y-119237143D01*
X242235771Y-119237143D02*
X242188152Y-119332381D01*
X242188152Y-119332381D02*
X242188152Y-119522857D01*
X242188152Y-119522857D02*
X242235771Y-119618095D01*
X242235771Y-119618095D02*
X242331009Y-119665714D01*
X242331009Y-119665714D02*
X242426247Y-119665714D01*
X242426247Y-119665714D02*
X242521485Y-119189524D01*
X242854819Y-120522857D02*
X241854819Y-120522857D01*
X242807200Y-120522857D02*
X242854819Y-120427619D01*
X242854819Y-120427619D02*
X242854819Y-120237143D01*
X242854819Y-120237143D02*
X242807200Y-120141905D01*
X242807200Y-120141905D02*
X242759580Y-120094286D01*
X242759580Y-120094286D02*
X242664342Y-120046667D01*
X242664342Y-120046667D02*
X242378628Y-120046667D01*
X242378628Y-120046667D02*
X242283390Y-120094286D01*
X242283390Y-120094286D02*
X242235771Y-120141905D01*
X242235771Y-120141905D02*
X242188152Y-120237143D01*
X242188152Y-120237143D02*
X242188152Y-120427619D01*
X242188152Y-120427619D02*
X242235771Y-120522857D01*
X275383333Y-168094819D02*
X275716666Y-167618628D01*
X275954761Y-168094819D02*
X275954761Y-167094819D01*
X275954761Y-167094819D02*
X275573809Y-167094819D01*
X275573809Y-167094819D02*
X275478571Y-167142438D01*
X275478571Y-167142438D02*
X275430952Y-167190057D01*
X275430952Y-167190057D02*
X275383333Y-167285295D01*
X275383333Y-167285295D02*
X275383333Y-167428152D01*
X275383333Y-167428152D02*
X275430952Y-167523390D01*
X275430952Y-167523390D02*
X275478571Y-167571009D01*
X275478571Y-167571009D02*
X275573809Y-167618628D01*
X275573809Y-167618628D02*
X275954761Y-167618628D01*
X275192857Y-168190057D02*
X274430952Y-168190057D01*
X274288094Y-167428152D02*
X274097618Y-168094819D01*
X274097618Y-168094819D02*
X273907142Y-167618628D01*
X273907142Y-167618628D02*
X273716666Y-168094819D01*
X273716666Y-168094819D02*
X273526190Y-167428152D01*
X273145237Y-168094819D02*
X273145237Y-167428152D01*
X273145237Y-167094819D02*
X273192856Y-167142438D01*
X273192856Y-167142438D02*
X273145237Y-167190057D01*
X273145237Y-167190057D02*
X273097618Y-167142438D01*
X273097618Y-167142438D02*
X273145237Y-167094819D01*
X273145237Y-167094819D02*
X273145237Y-167190057D01*
X272811904Y-167428152D02*
X272430952Y-167428152D01*
X272669047Y-168094819D02*
X272669047Y-167237676D01*
X272669047Y-167237676D02*
X272621428Y-167142438D01*
X272621428Y-167142438D02*
X272526190Y-167094819D01*
X272526190Y-167094819D02*
X272430952Y-167094819D01*
X272097618Y-168094819D02*
X272097618Y-167428152D01*
X272097618Y-167094819D02*
X272145237Y-167142438D01*
X272145237Y-167142438D02*
X272097618Y-167190057D01*
X272097618Y-167190057D02*
X272049999Y-167142438D01*
X272049999Y-167142438D02*
X272097618Y-167094819D01*
X272097618Y-167094819D02*
X272097618Y-167190057D01*
X271050000Y-168094819D02*
X271383333Y-167618628D01*
X271621428Y-168094819D02*
X271621428Y-167094819D01*
X271621428Y-167094819D02*
X271240476Y-167094819D01*
X271240476Y-167094819D02*
X271145238Y-167142438D01*
X271145238Y-167142438D02*
X271097619Y-167190057D01*
X271097619Y-167190057D02*
X271050000Y-167285295D01*
X271050000Y-167285295D02*
X271050000Y-167428152D01*
X271050000Y-167428152D02*
X271097619Y-167523390D01*
X271097619Y-167523390D02*
X271145238Y-167571009D01*
X271145238Y-167571009D02*
X271240476Y-167618628D01*
X271240476Y-167618628D02*
X271621428Y-167618628D01*
X270097619Y-168094819D02*
X270669047Y-168094819D01*
X270383333Y-168094819D02*
X270383333Y-167094819D01*
X270383333Y-167094819D02*
X270478571Y-167237676D01*
X270478571Y-167237676D02*
X270573809Y-167332914D01*
X270573809Y-167332914D02*
X270669047Y-167380533D01*
D12*
%TO.C,R_stage*%
X136120000Y-142240000D02*
X135350000Y-142240000D01*
X135350000Y-143610000D02*
X128810000Y-143610000D01*
X135350000Y-140870000D02*
X135350000Y-143610000D01*
X128810000Y-143610000D02*
X128810000Y-140870000D01*
X128810000Y-140870000D02*
X135350000Y-140870000D01*
X128040000Y-142240000D02*
X128810000Y-142240000D01*
%TO.C,ResetPullup*%
X158520000Y-152400000D02*
X159290000Y-152400000D01*
X159290000Y-151030000D02*
X165830000Y-151030000D01*
X159290000Y-153770000D02*
X159290000Y-151030000D01*
X165830000Y-151030000D02*
X165830000Y-153770000D01*
X165830000Y-153770000D02*
X159290000Y-153770000D01*
X166600000Y-152400000D02*
X165830000Y-152400000D01*
%TO.C,R_Green8*%
X258040000Y-146050000D02*
X257270000Y-146050000D01*
X257270000Y-147420000D02*
X250730000Y-147420000D01*
X257270000Y-144680000D02*
X257270000Y-147420000D01*
X250730000Y-147420000D02*
X250730000Y-144680000D01*
X250730000Y-144680000D02*
X257270000Y-144680000D01*
X249960000Y-146050000D02*
X250730000Y-146050000D01*
%TO.C,R_wifiG1*%
X269010000Y-160020000D02*
X269780000Y-160020000D01*
X269780000Y-158650000D02*
X276320000Y-158650000D01*
X269780000Y-161390000D02*
X269780000Y-158650000D01*
X276320000Y-158650000D02*
X276320000Y-161390000D01*
X276320000Y-161390000D02*
X269780000Y-161390000D01*
X277090000Y-160020000D02*
X276320000Y-160020000D01*
%TO.C,Q3*%
X222780000Y-151710000D02*
X219180000Y-151710000D01*
X222818478Y-151698478D02*
G75*
G03*
X220980000Y-147260000I-1838478J1838478D01*
G01*
X220980000Y-147260000D02*
G75*
G03*
X219141522Y-151698478I0J-2600000D01*
G01*
%TO.C,SSD_pullup7*%
X235180000Y-182330000D02*
X234410000Y-182330000D01*
X234410000Y-183700000D02*
X227870000Y-183700000D01*
X234410000Y-180960000D02*
X234410000Y-183700000D01*
X227870000Y-183700000D02*
X227870000Y-180960000D01*
X227870000Y-180960000D02*
X234410000Y-180960000D01*
X227100000Y-182330000D02*
X227870000Y-182330000D01*
%TO.C,R_div2*%
X166600000Y-175260000D02*
X165830000Y-175260000D01*
X165830000Y-176630000D02*
X159290000Y-176630000D01*
X165830000Y-173890000D02*
X165830000Y-176630000D01*
X159290000Y-176630000D02*
X159290000Y-173890000D01*
X159290000Y-173890000D02*
X165830000Y-173890000D01*
X158520000Y-175260000D02*
X159290000Y-175260000D01*
%TO.C,Q1*%
X238020000Y-151710000D02*
X234420000Y-151710000D01*
X238058478Y-151698478D02*
G75*
G03*
X236220000Y-147260000I-1838478J1838478D01*
G01*
X236220000Y-147260000D02*
G75*
G03*
X234381522Y-151698478I0J-2600000D01*
G01*
%TO.C,Q6*%
X238020000Y-144090000D02*
X234420000Y-144090000D01*
X238058478Y-144078478D02*
G75*
G03*
X236220000Y-139640000I-1838478J1838478D01*
G01*
X236220000Y-139640000D02*
G75*
G03*
X234381522Y-144078478I0J-2600000D01*
G01*
%TO.C,R_Green4*%
X258040000Y-161290000D02*
X257270000Y-161290000D01*
X257270000Y-162660000D02*
X250730000Y-162660000D01*
X257270000Y-159920000D02*
X257270000Y-162660000D01*
X250730000Y-162660000D02*
X250730000Y-159920000D01*
X250730000Y-159920000D02*
X257270000Y-159920000D01*
X249960000Y-161290000D02*
X250730000Y-161290000D01*
%TO.C,MCP23017*%
X243770000Y-184260000D02*
X243770000Y-178960000D01*
X279450000Y-184260000D02*
X243770000Y-184260000D01*
X279450000Y-182610000D02*
X279450000Y-184260000D01*
X243770000Y-178960000D02*
X279450000Y-178960000D01*
X279450000Y-178960000D02*
X279450000Y-180610000D01*
X279450000Y-180610000D02*
G75*
G03*
X279450000Y-182610000I0J-1000000D01*
G01*
%TO.C,SSD_pullup6*%
X235180000Y-178280000D02*
X234410000Y-178280000D01*
X234410000Y-179650000D02*
X227870000Y-179650000D01*
X234410000Y-176910000D02*
X234410000Y-179650000D01*
X227870000Y-179650000D02*
X227870000Y-176910000D01*
X227870000Y-176910000D02*
X234410000Y-176910000D01*
X227100000Y-178280000D02*
X227870000Y-178280000D01*
%TO.C,R_Green2*%
X258040000Y-168910000D02*
X257270000Y-168910000D01*
X257270000Y-170280000D02*
X250730000Y-170280000D01*
X257270000Y-167540000D02*
X257270000Y-170280000D01*
X250730000Y-170280000D02*
X250730000Y-167540000D01*
X250730000Y-167540000D02*
X257270000Y-167540000D01*
X249960000Y-168910000D02*
X250730000Y-168910000D01*
%TO.C,SSD_pullup3*%
X235180000Y-166130000D02*
X234410000Y-166130000D01*
X234410000Y-167500000D02*
X227870000Y-167500000D01*
X234410000Y-164760000D02*
X234410000Y-167500000D01*
X227870000Y-167500000D02*
X227870000Y-164760000D01*
X227870000Y-164760000D02*
X234410000Y-164760000D01*
X227100000Y-166130000D02*
X227870000Y-166130000D01*
%TO.C,Green*%
X262890000Y-171680000D02*
X262890000Y-170910000D01*
X261520000Y-170910000D02*
X261520000Y-164370000D01*
X264260000Y-170910000D02*
X261520000Y-170910000D01*
X261520000Y-164370000D02*
X264260000Y-164370000D01*
X264260000Y-164370000D02*
X264260000Y-170910000D01*
X262890000Y-163600000D02*
X262890000Y-164370000D01*
%TO.C,R_Red2*%
X224790000Y-123420000D02*
X224790000Y-122650000D01*
X223420000Y-122650000D02*
X223420000Y-116110000D01*
X226160000Y-122650000D02*
X223420000Y-122650000D01*
X223420000Y-116110000D02*
X226160000Y-116110000D01*
X226160000Y-116110000D02*
X226160000Y-122650000D01*
X224790000Y-115340000D02*
X224790000Y-116110000D01*
%TO.C,R_Green7*%
X258040000Y-149860000D02*
X257270000Y-149860000D01*
X257270000Y-151230000D02*
X250730000Y-151230000D01*
X257270000Y-148490000D02*
X257270000Y-151230000D01*
X250730000Y-151230000D02*
X250730000Y-148490000D01*
X250730000Y-148490000D02*
X257270000Y-148490000D01*
X249960000Y-149860000D02*
X250730000Y-149860000D01*
%TO.C,R_SSD6*%
X214860000Y-178280000D02*
X214090000Y-178280000D01*
X214090000Y-179650000D02*
X207550000Y-179650000D01*
X214090000Y-176910000D02*
X214090000Y-179650000D01*
X207550000Y-179650000D02*
X207550000Y-176910000D01*
X207550000Y-176910000D02*
X214090000Y-176910000D01*
X206780000Y-178280000D02*
X207550000Y-178280000D01*
%TO.C,Base*%
X214860000Y-158030000D02*
X214090000Y-158030000D01*
X214090000Y-159400000D02*
X207550000Y-159400000D01*
X214090000Y-156660000D02*
X214090000Y-159400000D01*
X207550000Y-159400000D02*
X207550000Y-156660000D01*
X207550000Y-156660000D02*
X214090000Y-156660000D01*
X206780000Y-158030000D02*
X207550000Y-158030000D01*
%TO.C,R_wifiB1*%
X277090000Y-163830000D02*
X276320000Y-163830000D01*
X276320000Y-165200000D02*
X269780000Y-165200000D01*
X276320000Y-162460000D02*
X276320000Y-165200000D01*
X269780000Y-165200000D02*
X269780000Y-162460000D01*
X269780000Y-162460000D02*
X276320000Y-162460000D01*
X269010000Y-163830000D02*
X269780000Y-163830000D01*
%TO.C,R_Green5*%
X258040000Y-157480000D02*
X257270000Y-157480000D01*
X257270000Y-158850000D02*
X250730000Y-158850000D01*
X257270000Y-156110000D02*
X257270000Y-158850000D01*
X250730000Y-158850000D02*
X250730000Y-156110000D01*
X250730000Y-156110000D02*
X257270000Y-156110000D01*
X249960000Y-157480000D02*
X250730000Y-157480000D01*
%TO.C,R_Red5*%
X236220000Y-123420000D02*
X236220000Y-122650000D01*
X234850000Y-122650000D02*
X234850000Y-116110000D01*
X237590000Y-122650000D02*
X234850000Y-122650000D01*
X234850000Y-116110000D02*
X237590000Y-116110000D01*
X237590000Y-116110000D02*
X237590000Y-122650000D01*
X236220000Y-115340000D02*
X236220000Y-116110000D01*
%TO.C,R_Red4*%
X232410000Y-123420000D02*
X232410000Y-122650000D01*
X231040000Y-122650000D02*
X231040000Y-116110000D01*
X233780000Y-122650000D02*
X231040000Y-122650000D01*
X231040000Y-116110000D02*
X233780000Y-116110000D01*
X233780000Y-116110000D02*
X233780000Y-122650000D01*
X232410000Y-115340000D02*
X232410000Y-116110000D01*
%TO.C,R_pwrG1*%
X269010000Y-148590000D02*
X269780000Y-148590000D01*
X269780000Y-147220000D02*
X276320000Y-147220000D01*
X269780000Y-149960000D02*
X269780000Y-147220000D01*
X276320000Y-147220000D02*
X276320000Y-149960000D01*
X276320000Y-149960000D02*
X269780000Y-149960000D01*
X277090000Y-148590000D02*
X276320000Y-148590000D01*
%TO.C,SSD_pullup4*%
X235180000Y-170180000D02*
X234410000Y-170180000D01*
X234410000Y-171550000D02*
X227870000Y-171550000D01*
X234410000Y-168810000D02*
X234410000Y-171550000D01*
X227870000Y-171550000D02*
X227870000Y-168810000D01*
X227870000Y-168810000D02*
X234410000Y-168810000D01*
X227100000Y-170180000D02*
X227870000Y-170180000D01*
%TO.C,R_pwrB1*%
X277090000Y-152400000D02*
X276320000Y-152400000D01*
X276320000Y-153770000D02*
X269780000Y-153770000D01*
X276320000Y-151030000D02*
X276320000Y-153770000D01*
X269780000Y-153770000D02*
X269780000Y-151030000D01*
X269780000Y-151030000D02*
X276320000Y-151030000D01*
X269010000Y-152400000D02*
X269780000Y-152400000D01*
%TO.C,MAX7219*%
X96460000Y-184260000D02*
X96460000Y-178960000D01*
X127060000Y-184260000D02*
X96460000Y-184260000D01*
X127060000Y-182610000D02*
X127060000Y-184260000D01*
X96460000Y-178960000D02*
X127060000Y-178960000D01*
X127060000Y-178960000D02*
X127060000Y-180610000D01*
X127060000Y-180610000D02*
G75*
G03*
X127060000Y-182610000I0J-1000000D01*
G01*
%TO.C,R_Red1*%
X220980000Y-123420000D02*
X220980000Y-122650000D01*
X219610000Y-122650000D02*
X219610000Y-116110000D01*
X222350000Y-122650000D02*
X219610000Y-122650000D01*
X219610000Y-116110000D02*
X222350000Y-116110000D01*
X222350000Y-116110000D02*
X222350000Y-122650000D01*
X220980000Y-115340000D02*
X220980000Y-116110000D01*
%TO.C,R_Green6*%
X258040000Y-153670000D02*
X257270000Y-153670000D01*
X257270000Y-155040000D02*
X250730000Y-155040000D01*
X257270000Y-152300000D02*
X257270000Y-155040000D01*
X250730000Y-155040000D02*
X250730000Y-152300000D01*
X250730000Y-152300000D02*
X257270000Y-152300000D01*
X249960000Y-153670000D02*
X250730000Y-153670000D01*
%TO.C,SSD_pullup2*%
X235180000Y-162080000D02*
X234410000Y-162080000D01*
X234410000Y-163450000D02*
X227870000Y-163450000D01*
X234410000Y-160710000D02*
X234410000Y-163450000D01*
X227870000Y-163450000D02*
X227870000Y-160710000D01*
X227870000Y-160710000D02*
X234410000Y-160710000D01*
X227100000Y-162080000D02*
X227870000Y-162080000D01*
%TO.C,Pullup*%
X235180000Y-158030000D02*
X234410000Y-158030000D01*
X234410000Y-159400000D02*
X227870000Y-159400000D01*
X234410000Y-156660000D02*
X234410000Y-159400000D01*
X227870000Y-159400000D02*
X227870000Y-156660000D01*
X227870000Y-156660000D02*
X234410000Y-156660000D01*
X227100000Y-158030000D02*
X227870000Y-158030000D01*
%TO.C,R_Green1*%
X258040000Y-172720000D02*
X257270000Y-172720000D01*
X257270000Y-174090000D02*
X250730000Y-174090000D01*
X257270000Y-171350000D02*
X257270000Y-174090000D01*
X250730000Y-174090000D02*
X250730000Y-171350000D01*
X250730000Y-171350000D02*
X257270000Y-171350000D01*
X249960000Y-172720000D02*
X250730000Y-172720000D01*
D13*
%TO.C,Firebeetle2*%
X89380000Y-147320000D02*
X149380000Y-147320000D01*
X149380000Y-172720000D02*
X149380000Y-147320000D01*
X89380000Y-172720000D02*
X89380000Y-147320000D01*
X89380000Y-172720000D02*
X149380000Y-172720000D01*
D14*
X100800000Y-146570000D02*
G75*
G03*
X100800000Y-146570000I-100000J0D01*
G01*
D12*
%TO.C,R_SSD4*%
X214860000Y-170180000D02*
X214090000Y-170180000D01*
X214090000Y-171550000D02*
X207550000Y-171550000D01*
X214090000Y-168810000D02*
X214090000Y-171550000D01*
X207550000Y-171550000D02*
X207550000Y-168810000D01*
X207550000Y-168810000D02*
X214090000Y-168810000D01*
X206780000Y-170180000D02*
X207550000Y-170180000D01*
%TO.C,R_div1*%
X166600000Y-170180000D02*
X165830000Y-170180000D01*
X165830000Y-171550000D02*
X159290000Y-171550000D01*
X165830000Y-168810000D02*
X165830000Y-171550000D01*
X159290000Y-171550000D02*
X159290000Y-168810000D01*
X159290000Y-168810000D02*
X165830000Y-168810000D01*
X158520000Y-170180000D02*
X159290000Y-170180000D01*
%TO.C,R_Red3*%
X228600000Y-123420000D02*
X228600000Y-122650000D01*
X227230000Y-122650000D02*
X227230000Y-116110000D01*
X229970000Y-122650000D02*
X227230000Y-122650000D01*
X227230000Y-116110000D02*
X229970000Y-116110000D01*
X229970000Y-116110000D02*
X229970000Y-122650000D01*
X228600000Y-115340000D02*
X228600000Y-116110000D01*
%TO.C,R_SSD5*%
X214860000Y-174230000D02*
X214090000Y-174230000D01*
X214090000Y-175600000D02*
X207550000Y-175600000D01*
X214090000Y-172860000D02*
X214090000Y-175600000D01*
X207550000Y-175600000D02*
X207550000Y-172860000D01*
X207550000Y-172860000D02*
X214090000Y-172860000D01*
X206780000Y-174230000D02*
X207550000Y-174230000D01*
%TO.C,Q5*%
X207540000Y-151710000D02*
X203940000Y-151710000D01*
X207578478Y-151698478D02*
G75*
G03*
X205740000Y-147260000I-1838478J1838478D01*
G01*
X205740000Y-147260000D02*
G75*
G03*
X203901522Y-151698478I0J-2600000D01*
G01*
%TO.C,Q7*%
X207540000Y-144090000D02*
X203940000Y-144090000D01*
X207578478Y-144078478D02*
G75*
G03*
X205740000Y-139640000I-1838478J1838478D01*
G01*
X205740000Y-139640000D02*
G75*
G03*
X203901522Y-144078478I0J-2600000D01*
G01*
%TO.C,R_Green3*%
X258040000Y-165100000D02*
X257270000Y-165100000D01*
X257270000Y-166470000D02*
X250730000Y-166470000D01*
X257270000Y-163730000D02*
X257270000Y-166470000D01*
X250730000Y-166470000D02*
X250730000Y-163730000D01*
X250730000Y-163730000D02*
X257270000Y-163730000D01*
X249960000Y-165100000D02*
X250730000Y-165100000D01*
%TO.C,R_bar*%
X166600000Y-180340000D02*
X165830000Y-180340000D01*
X165830000Y-181710000D02*
X159290000Y-181710000D01*
X165830000Y-178970000D02*
X165830000Y-181710000D01*
X159290000Y-181710000D02*
X159290000Y-178970000D01*
X159290000Y-178970000D02*
X165830000Y-178970000D01*
X158520000Y-180340000D02*
X159290000Y-180340000D01*
%TO.C,Q4*%
X215160000Y-151710000D02*
X211560000Y-151710000D01*
X215198478Y-151698478D02*
G75*
G03*
X213360000Y-147260000I-1838478J1838478D01*
G01*
X213360000Y-147260000D02*
G75*
G03*
X211521522Y-151698478I0J-2600000D01*
G01*
%TO.C,Q2*%
X230400000Y-151710000D02*
X226800000Y-151710000D01*
X230438478Y-151698478D02*
G75*
G03*
X228600000Y-147260000I-1838478J1838478D01*
G01*
X228600000Y-147260000D02*
G75*
G03*
X226761522Y-151698478I0J-2600000D01*
G01*
%TO.C,R_SSD2*%
X214860000Y-162080000D02*
X214090000Y-162080000D01*
X214090000Y-163450000D02*
X207550000Y-163450000D01*
X214090000Y-160710000D02*
X214090000Y-163450000D01*
X207550000Y-163450000D02*
X207550000Y-160710000D01*
X207550000Y-160710000D02*
X214090000Y-160710000D01*
X206780000Y-162080000D02*
X207550000Y-162080000D01*
%TO.C,R_pwrR1*%
X269010000Y-156210000D02*
X269780000Y-156210000D01*
X269780000Y-154840000D02*
X276320000Y-154840000D01*
X269780000Y-157580000D02*
X269780000Y-154840000D01*
X276320000Y-154840000D02*
X276320000Y-157580000D01*
X276320000Y-157580000D02*
X269780000Y-157580000D01*
X277090000Y-156210000D02*
X276320000Y-156210000D01*
%TO.C,R_SSD3*%
X214860000Y-166130000D02*
X214090000Y-166130000D01*
X214090000Y-167500000D02*
X207550000Y-167500000D01*
X214090000Y-164760000D02*
X214090000Y-167500000D01*
X207550000Y-167500000D02*
X207550000Y-164760000D01*
X207550000Y-164760000D02*
X214090000Y-164760000D01*
X206780000Y-166130000D02*
X207550000Y-166130000D01*
%TO.C,SSD_pullup5*%
X235180000Y-174230000D02*
X234410000Y-174230000D01*
X234410000Y-175600000D02*
X227870000Y-175600000D01*
X234410000Y-172860000D02*
X234410000Y-175600000D01*
X227870000Y-175600000D02*
X227870000Y-172860000D01*
X227870000Y-172860000D02*
X234410000Y-172860000D01*
X227100000Y-174230000D02*
X227870000Y-174230000D01*
%TO.C,R_SSD7*%
X214860000Y-182330000D02*
X214090000Y-182330000D01*
X214090000Y-183700000D02*
X207550000Y-183700000D01*
X214090000Y-180960000D02*
X214090000Y-183700000D01*
X207550000Y-183700000D02*
X207550000Y-180960000D01*
X207550000Y-180960000D02*
X214090000Y-180960000D01*
X206780000Y-182330000D02*
X207550000Y-182330000D01*
%TO.C,Red*%
X240030000Y-115340000D02*
X240030000Y-116110000D01*
X241400000Y-116110000D02*
X241400000Y-122650000D01*
X238660000Y-116110000D02*
X241400000Y-116110000D01*
X241400000Y-122650000D02*
X238660000Y-122650000D01*
X238660000Y-122650000D02*
X238660000Y-116110000D01*
X240030000Y-123420000D02*
X240030000Y-122650000D01*
%TO.C,R_wifiR1*%
X269010000Y-167640000D02*
X269780000Y-167640000D01*
X269780000Y-166270000D02*
X276320000Y-166270000D01*
X269780000Y-169010000D02*
X269780000Y-166270000D01*
X276320000Y-166270000D02*
X276320000Y-169010000D01*
X276320000Y-169010000D02*
X269780000Y-169010000D01*
X277090000Y-167640000D02*
X276320000Y-167640000D01*
%TD*%
%LPC*%
D15*
%TO.C,Red1*%
X148590000Y-93980000D03*
D16*
X151130000Y-93980000D03*
%TD*%
D17*
%TO.C,BarGraph1*%
X140970000Y-213360000D03*
X143510000Y-213360000D03*
X146050000Y-213360000D03*
X148590000Y-213360000D03*
X151130000Y-213360000D03*
X153670000Y-213360000D03*
X156210000Y-213360000D03*
X158750000Y-213360000D03*
X158750000Y-205740000D03*
X156210000Y-205740000D03*
X153670000Y-205740000D03*
X151130000Y-205740000D03*
X148590000Y-205740000D03*
X146050000Y-205740000D03*
X143510000Y-205740000D03*
X140970000Y-205740000D03*
%TD*%
D15*
%TO.C,Red4*%
X232410000Y-93980000D03*
D16*
X234950000Y-93980000D03*
%TD*%
D18*
%TO.C,CountdownSSD1*%
X106680000Y-190500000D03*
D19*
X109220000Y-190500000D03*
X111760000Y-190500000D03*
X114300000Y-190500000D03*
X116840000Y-190500000D03*
X116840000Y-142240000D03*
X114300000Y-142240000D03*
X111760000Y-142240000D03*
X109220000Y-142240000D03*
X106680000Y-142240000D03*
%TD*%
D15*
%TO.C,statusLED2*%
X302260000Y-107950000D03*
D16*
X304419000Y-107950000D03*
X306578000Y-107950000D03*
X308737000Y-107950000D03*
%TD*%
D17*
%TO.C,BarGraph4*%
X201930000Y-213360000D03*
X204470000Y-213360000D03*
X207010000Y-213360000D03*
X209550000Y-213360000D03*
X212090000Y-213360000D03*
X214630000Y-213360000D03*
X217170000Y-213360000D03*
X219710000Y-213360000D03*
X219710000Y-205740000D03*
X217170000Y-205740000D03*
X214630000Y-205740000D03*
X212090000Y-205740000D03*
X209550000Y-205740000D03*
X207010000Y-205740000D03*
X204470000Y-205740000D03*
X201930000Y-205740000D03*
%TD*%
D15*
%TO.C,Green3*%
X123190000Y-93980000D03*
D16*
X125730000Y-93980000D03*
%TD*%
D20*
%TO.C,OLED1*%
X241300000Y-129032000D03*
X241300000Y-106680000D03*
X219964000Y-129032000D03*
X219964000Y-106680000D03*
D17*
X234562000Y-129596000D03*
X232022000Y-129596000D03*
X229482000Y-129596000D03*
X226942000Y-129596000D03*
%TD*%
D15*
%TO.C,Green4*%
X156210000Y-93980000D03*
D16*
X158750000Y-93980000D03*
%TD*%
D15*
%TO.C,Red2*%
X176530000Y-93980000D03*
D16*
X179070000Y-93980000D03*
%TD*%
D21*
%TO.C,StageSSD1*%
X98655332Y-126877500D03*
D22*
X101195332Y-126877500D03*
X103735332Y-126877500D03*
X106275332Y-126877500D03*
X108815332Y-126877500D03*
X108815332Y-111637500D03*
X106275332Y-111637500D03*
X103735332Y-111637500D03*
X101195332Y-111637500D03*
X98655332Y-111637500D03*
%TD*%
D23*
%TO.C,ResetSwitch1*%
X301550000Y-128560000D03*
X308050000Y-128560000D03*
X301550000Y-133060000D03*
X308050000Y-133060000D03*
%TD*%
D17*
%TO.C,BarGraph5*%
X222250000Y-213360000D03*
X224790000Y-213360000D03*
X227330000Y-213360000D03*
X229870000Y-213360000D03*
X232410000Y-213360000D03*
X234950000Y-213360000D03*
X237490000Y-213360000D03*
X240030000Y-213360000D03*
X240030000Y-205740000D03*
X237490000Y-205740000D03*
X234950000Y-205740000D03*
X232410000Y-205740000D03*
X229870000Y-205740000D03*
X227330000Y-205740000D03*
X224790000Y-205740000D03*
X222250000Y-205740000D03*
%TD*%
D18*
%TO.C,CountdownSSD4*%
X256540000Y-190500000D03*
D19*
X259080000Y-190500000D03*
X261620000Y-190500000D03*
X264160000Y-190500000D03*
X266700000Y-190500000D03*
X266700000Y-142240000D03*
X264160000Y-142240000D03*
X261620000Y-142240000D03*
X259080000Y-142240000D03*
X256540000Y-142240000D03*
%TD*%
D18*
%TO.C,CountdownSSD2*%
X147320000Y-190500000D03*
D19*
X149860000Y-190500000D03*
X152400000Y-190500000D03*
X154940000Y-190500000D03*
X157480000Y-190500000D03*
X157480000Y-142240000D03*
X154940000Y-142240000D03*
X152400000Y-142240000D03*
X149860000Y-142240000D03*
X147320000Y-142240000D03*
%TD*%
D15*
%TO.C,statusLED1*%
X302260000Y-119380000D03*
D16*
X304419000Y-119380000D03*
X306578000Y-119380000D03*
X308737000Y-119380000D03*
%TD*%
D15*
%TO.C,Red3*%
X204470000Y-93980000D03*
D16*
X207010000Y-93980000D03*
%TD*%
D15*
%TO.C,Green9*%
X300990000Y-93980000D03*
D16*
X303530000Y-93980000D03*
%TD*%
D15*
%TO.C,Green1*%
X97790000Y-93980000D03*
D16*
X100330000Y-93980000D03*
%TD*%
D15*
%TO.C,Red5*%
X262890000Y-93980000D03*
D16*
X265430000Y-93980000D03*
%TD*%
D15*
%TO.C,Green6*%
X212090000Y-93980000D03*
D16*
X214630000Y-93980000D03*
%TD*%
D15*
%TO.C,Red6*%
X293370000Y-93980000D03*
D16*
X295910000Y-93980000D03*
%TD*%
D15*
%TO.C,Green8*%
X270510000Y-93980000D03*
D16*
X273050000Y-93980000D03*
%TD*%
D15*
%TO.C,Green2*%
X110490000Y-93980000D03*
D16*
X113030000Y-93980000D03*
%TD*%
D17*
%TO.C,BarGraph6*%
X242570000Y-213360000D03*
X245110000Y-213360000D03*
X247650000Y-213360000D03*
X250190000Y-213360000D03*
X252730000Y-213360000D03*
X255270000Y-213360000D03*
X257810000Y-213360000D03*
X260350000Y-213360000D03*
X260350000Y-205740000D03*
X257810000Y-205740000D03*
X255270000Y-205740000D03*
X252730000Y-205740000D03*
X250190000Y-205740000D03*
X247650000Y-205740000D03*
X245110000Y-205740000D03*
X242570000Y-205740000D03*
%TD*%
%TO.C,BarGraph2*%
X161290000Y-213360000D03*
X163830000Y-213360000D03*
X166370000Y-213360000D03*
X168910000Y-213360000D03*
X171450000Y-213360000D03*
X173990000Y-213360000D03*
X176530000Y-213360000D03*
X179070000Y-213360000D03*
X179070000Y-205740000D03*
X176530000Y-205740000D03*
X173990000Y-205740000D03*
X171450000Y-205740000D03*
X168910000Y-205740000D03*
X166370000Y-205740000D03*
X163830000Y-205740000D03*
X161290000Y-205740000D03*
%TD*%
%TO.C,BarGraph3*%
X181610000Y-213360000D03*
X184150000Y-213360000D03*
X186690000Y-213360000D03*
X189230000Y-213360000D03*
X191770000Y-213360000D03*
X194310000Y-213360000D03*
X196850000Y-213360000D03*
X199390000Y-213360000D03*
X199390000Y-205740000D03*
X196850000Y-205740000D03*
X194310000Y-205740000D03*
X191770000Y-205740000D03*
X189230000Y-205740000D03*
X186690000Y-205740000D03*
X184150000Y-205740000D03*
X181610000Y-205740000D03*
%TD*%
D18*
%TO.C,CountdownSSD3*%
X215900000Y-190500000D03*
D19*
X218440000Y-190500000D03*
X220980000Y-190500000D03*
X223520000Y-190500000D03*
X226060000Y-190500000D03*
X226060000Y-142240000D03*
X223520000Y-142240000D03*
X220980000Y-142240000D03*
X218440000Y-142240000D03*
X215900000Y-142240000D03*
%TD*%
D15*
%TO.C,Green7*%
X240030000Y-93980000D03*
D16*
X242570000Y-93980000D03*
%TD*%
D15*
%TO.C,Green5*%
X184150000Y-93980000D03*
D16*
X186690000Y-93980000D03*
%TD*%
D22*
%TO.C,R_stage*%
X137160000Y-142240000D03*
D24*
X127000000Y-142240000D03*
%TD*%
D22*
%TO.C,ResetPullup*%
X157480000Y-152400000D03*
D24*
X167640000Y-152400000D03*
%TD*%
D22*
%TO.C,R_Green8*%
X259080000Y-146050000D03*
D24*
X248920000Y-146050000D03*
%TD*%
D22*
%TO.C,R_wifiG1*%
X267970000Y-160020000D03*
D24*
X278130000Y-160020000D03*
%TD*%
D25*
%TO.C,Q3*%
X222250000Y-149860000D03*
D26*
X220980000Y-149860000D03*
X219710000Y-149860000D03*
%TD*%
D22*
%TO.C,SSD_pullup7*%
X236220000Y-182330000D03*
D24*
X226060000Y-182330000D03*
%TD*%
D22*
%TO.C,R_div2*%
X167640000Y-175260000D03*
D24*
X157480000Y-175260000D03*
%TD*%
D25*
%TO.C,Q1*%
X237490000Y-149860000D03*
D26*
X236220000Y-149860000D03*
X234950000Y-149860000D03*
%TD*%
D25*
%TO.C,Q6*%
X237490000Y-142240000D03*
D26*
X236220000Y-142240000D03*
X234950000Y-142240000D03*
%TD*%
D22*
%TO.C,R_Green4*%
X259080000Y-161290000D03*
D24*
X248920000Y-161290000D03*
%TD*%
D21*
%TO.C,MCP23017*%
X278120000Y-185420000D03*
D24*
X275580000Y-185420000D03*
X273040000Y-185420000D03*
X270500000Y-185420000D03*
X267960000Y-185420000D03*
X265420000Y-185420000D03*
X262880000Y-185420000D03*
X260340000Y-185420000D03*
X257800000Y-185420000D03*
X255260000Y-185420000D03*
X252720000Y-185420000D03*
X250180000Y-185420000D03*
X247640000Y-185420000D03*
X245100000Y-185420000D03*
X245100000Y-177800000D03*
X247640000Y-177800000D03*
X250180000Y-177800000D03*
X252720000Y-177800000D03*
X255260000Y-177800000D03*
X257800000Y-177800000D03*
X260340000Y-177800000D03*
X262880000Y-177800000D03*
X265420000Y-177800000D03*
X267960000Y-177800000D03*
X270500000Y-177800000D03*
X273040000Y-177800000D03*
X275580000Y-177800000D03*
X278120000Y-177800000D03*
%TD*%
D22*
%TO.C,SSD_pullup6*%
X236220000Y-178280000D03*
D24*
X226060000Y-178280000D03*
%TD*%
D22*
%TO.C,R_Green2*%
X259080000Y-168910000D03*
D24*
X248920000Y-168910000D03*
%TD*%
D22*
%TO.C,SSD_pullup3*%
X236220000Y-166130000D03*
D24*
X226060000Y-166130000D03*
%TD*%
D22*
%TO.C,Green*%
X262890000Y-172720000D03*
D24*
X262890000Y-162560000D03*
%TD*%
D22*
%TO.C,R_Red2*%
X224790000Y-124460000D03*
D24*
X224790000Y-114300000D03*
%TD*%
D22*
%TO.C,R_Green7*%
X259080000Y-149860000D03*
D24*
X248920000Y-149860000D03*
%TD*%
D22*
%TO.C,R_SSD6*%
X215900000Y-178280000D03*
D24*
X205740000Y-178280000D03*
%TD*%
D22*
%TO.C,Base*%
X215900000Y-158030000D03*
D24*
X205740000Y-158030000D03*
%TD*%
D22*
%TO.C,R_wifiB1*%
X278130000Y-163830000D03*
D24*
X267970000Y-163830000D03*
%TD*%
D22*
%TO.C,R_Green5*%
X259080000Y-157480000D03*
D24*
X248920000Y-157480000D03*
%TD*%
D22*
%TO.C,R_Red5*%
X236220000Y-124460000D03*
D24*
X236220000Y-114300000D03*
%TD*%
D22*
%TO.C,R_Red4*%
X232410000Y-124460000D03*
D24*
X232410000Y-114300000D03*
%TD*%
D22*
%TO.C,R_pwrG1*%
X267970000Y-148590000D03*
D24*
X278130000Y-148590000D03*
%TD*%
D22*
%TO.C,SSD_pullup4*%
X236220000Y-170180000D03*
D24*
X226060000Y-170180000D03*
%TD*%
D22*
%TO.C,R_pwrB1*%
X278130000Y-152400000D03*
D24*
X267970000Y-152400000D03*
%TD*%
D21*
%TO.C,MAX7219*%
X125730000Y-185420000D03*
D24*
X123190000Y-185420000D03*
X120650000Y-185420000D03*
X118110000Y-185420000D03*
X115570000Y-185420000D03*
X113030000Y-185420000D03*
X110490000Y-185420000D03*
X107950000Y-185420000D03*
X105410000Y-185420000D03*
X102870000Y-185420000D03*
X100330000Y-185420000D03*
X97790000Y-185420000D03*
X97790000Y-177800000D03*
X100330000Y-177800000D03*
X102870000Y-177800000D03*
X105410000Y-177800000D03*
X107950000Y-177800000D03*
X110490000Y-177800000D03*
X113030000Y-177800000D03*
X115570000Y-177800000D03*
X118110000Y-177800000D03*
X120650000Y-177800000D03*
X123190000Y-177800000D03*
X125730000Y-177800000D03*
%TD*%
D22*
%TO.C,R_Red1*%
X220980000Y-124460000D03*
D24*
X220980000Y-114300000D03*
%TD*%
D22*
%TO.C,R_Green6*%
X259080000Y-153670000D03*
D24*
X248920000Y-153670000D03*
%TD*%
D22*
%TO.C,SSD_pullup2*%
X236220000Y-162080000D03*
D24*
X226060000Y-162080000D03*
%TD*%
D22*
%TO.C,Pullup*%
X236220000Y-158030000D03*
D24*
X226060000Y-158030000D03*
%TD*%
D22*
%TO.C,R_Green1*%
X259080000Y-172720000D03*
D24*
X248920000Y-172720000D03*
%TD*%
D23*
%TO.C,Firebeetle2*%
X147780000Y-148920000D03*
X90980000Y-148920000D03*
X147780000Y-171120000D03*
X90980000Y-171120000D03*
D27*
X100700000Y-148770000D03*
D28*
X103240000Y-148770000D03*
X105780000Y-148770000D03*
X108320000Y-148770000D03*
X110860000Y-148770000D03*
X113400000Y-148770000D03*
X115940000Y-148770000D03*
X118480000Y-148770000D03*
X121020000Y-148770000D03*
X123560000Y-148770000D03*
X126100000Y-148770000D03*
X128640000Y-148770000D03*
X131180000Y-148770000D03*
X133720000Y-148770000D03*
X136260000Y-148770000D03*
X138800000Y-148770000D03*
X141340000Y-148770000D03*
X143880000Y-148770000D03*
X143880000Y-171270000D03*
X141340000Y-171270000D03*
X138800000Y-171270000D03*
X136260000Y-171270000D03*
X133720000Y-171270000D03*
X131180000Y-171270000D03*
X128640000Y-171270000D03*
X126100000Y-171270000D03*
X123560000Y-171270000D03*
X121020000Y-171270000D03*
X118480000Y-171270000D03*
X115940000Y-171270000D03*
X113400000Y-171270000D03*
X110860000Y-171270000D03*
%TD*%
D22*
%TO.C,R_SSD4*%
X215900000Y-170180000D03*
D24*
X205740000Y-170180000D03*
%TD*%
D22*
%TO.C,R_div1*%
X167640000Y-170180000D03*
D24*
X157480000Y-170180000D03*
%TD*%
D22*
%TO.C,R_Red3*%
X228600000Y-124460000D03*
D24*
X228600000Y-114300000D03*
%TD*%
D22*
%TO.C,R_SSD5*%
X215900000Y-174230000D03*
D24*
X205740000Y-174230000D03*
%TD*%
D25*
%TO.C,Q5*%
X207010000Y-149860000D03*
D26*
X205740000Y-149860000D03*
X204470000Y-149860000D03*
%TD*%
D25*
%TO.C,Q7*%
X207010000Y-142240000D03*
D26*
X205740000Y-142240000D03*
X204470000Y-142240000D03*
%TD*%
D22*
%TO.C,R_Green3*%
X259080000Y-165100000D03*
D24*
X248920000Y-165100000D03*
%TD*%
D22*
%TO.C,R_bar*%
X167640000Y-180340000D03*
D24*
X157480000Y-180340000D03*
%TD*%
D25*
%TO.C,Q4*%
X214630000Y-149860000D03*
D26*
X213360000Y-149860000D03*
X212090000Y-149860000D03*
%TD*%
D25*
%TO.C,Q2*%
X229870000Y-149860000D03*
D26*
X228600000Y-149860000D03*
X227330000Y-149860000D03*
%TD*%
D22*
%TO.C,R_SSD2*%
X215900000Y-162080000D03*
D24*
X205740000Y-162080000D03*
%TD*%
D22*
%TO.C,R_pwrR1*%
X267970000Y-156210000D03*
D24*
X278130000Y-156210000D03*
%TD*%
D22*
%TO.C,R_SSD3*%
X215900000Y-166130000D03*
D24*
X205740000Y-166130000D03*
%TD*%
D22*
%TO.C,SSD_pullup5*%
X236220000Y-174230000D03*
D24*
X226060000Y-174230000D03*
%TD*%
D22*
%TO.C,R_SSD7*%
X215900000Y-182330000D03*
D24*
X205740000Y-182330000D03*
%TD*%
%TO.C,Red*%
X240030000Y-114300000D03*
D22*
X240030000Y-124460000D03*
%TD*%
%TO.C,R_wifiR1*%
X267970000Y-167640000D03*
D24*
X278130000Y-167640000D03*
%TD*%
%LPD*%
M02*
